<svg width="2185pt" height="1406pt"
 viewBox="0.00 0.00 2185.00 1406.00" xmlns="http://www.w3.org/2000/svg" xmlns:xlink="http://www.w3.org/1999/xlink">
<g id="graph0" class="graph" transform="scale(1 1) rotate(0) translate(21.6 1383.98)">
<title>analysis</title>
<g id="clust1" class="cluster">

<path stroke-width="1.5" d="M760.84,-980.25C760.84,-980.25 972.84,-980.25 972.84,-980.25 978.84,-980.25 984.84,-986.25 984.84,-992.25 984.84,-992.25 984.84,-1274.65 984.84,-1274.65 984.84,-1280.65 978.84,-1286.65 972.84,-1286.65 972.84,-1286.65 760.84,-1286.65 760.84,-1286.65 754.84,-1286.65 748.84,-1280.65 748.84,-1274.65 748.84,-1274.65 748.84,-992.25 748.84,-992.25 748.84,-986.25 754.84,-980.25 760.84,-980.25" class="f-ana s-ana"/>
<text xml:space="preserve" text-anchor="middle" x="781.97" y="-1273.62" font-family="Helvetica,sans-Serif" font-size="9.50" class="t-ana"> &#160;LOADER &#160;</text>
</g>
<g id="clust2" class="cluster">

<path stroke-width="1.5" d="M1003.84,-819.67C1003.84,-819.67 2121.84,-819.67 2121.84,-819.67 2127.84,-819.67 2133.84,-825.67 2133.84,-831.67 2133.84,-831.67 2133.84,-883.63 2133.84,-883.63 2133.84,-889.63 2127.84,-895.63 2121.84,-895.63 2121.84,-895.63 1003.84,-895.63 1003.84,-895.63 997.84,-895.63 991.84,-889.63 991.84,-883.63 991.84,-883.63 991.84,-831.67 991.84,-831.67 991.84,-825.67 997.84,-819.67 1003.84,-819.67" class="f-fmt s-fmt"/>
<text xml:space="preserve" text-anchor="middle" x="1101.09" y="-882.6" font-family="Helvetica,sans-Serif" font-size="9.50" class="t-fmt"> &#160;VALIDATION — 8 checks, run once at ingest &#160;</text>
</g>
<g id="clust3" class="cluster">

<path stroke-width="1.5" d="M79.84,-805.04C79.84,-805.04 723.84,-805.04 723.84,-805.04 729.84,-805.04 735.84,-811.04 735.84,-817.04 735.84,-817.04 735.84,-1053.96 735.84,-1053.96 735.84,-1059.96 729.84,-1065.96 723.84,-1065.96 723.84,-1065.96 79.84,-1065.96 79.84,-1065.96 73.84,-1065.96 67.84,-1059.96 67.84,-1053.96 67.84,-1053.96 67.84,-817.04 67.84,-817.04 67.84,-811.04 73.84,-805.04 79.84,-805.04" class="f-ana s-ana"/>
<text xml:space="preserve" text-anchor="middle" x="198.47" y="-1052.93" font-family="Helvetica,sans-Serif" font-size="9.50" class="t-ana"> &#160;HEURISTIC REGISTRY — a fixed list, iterated in order &#160;</text>
</g>
<g id="clust4" class="cluster">

<path stroke-width="1.5" d="M166.84,-8C166.84,-8 651.84,-8 651.84,-8 657.84,-8 663.84,-14 663.84,-20 663.84,-20 663.84,-165.19 663.84,-165.19 663.84,-171.19 657.84,-177.19 651.84,-177.19 651.84,-177.19 166.84,-177.19 166.84,-177.19 160.84,-177.19 154.84,-171.19 154.84,-165.19 154.84,-165.19 154.84,-20 154.84,-20 154.84,-14 160.84,-8 166.84,-8" class="f-uix s-uix"/>
<text xml:space="preserve" text-anchor="middle" x="285.47" y="-164.16" font-family="Helvetica,sans-Serif" font-size="9.50" class="t-uix"> &#160;CROSS&#45;SUBMISSION — needs more than one bundle &#160;</text>
</g>

<g id="node1" class="node">
<title>zip</title>
<polygon stroke-width="1.8" points="899.35,-1362.38 830.26,-1362.38 830.26,-1337.9 903.43,-1337.9 903.43,-1358.3 899.35,-1362.38" class="f-tra s-tra"/>
<polyline fill="none" stroke-width="1.8" points="899.35,-1362.38 899.35,-1358.3" class="s-tra"/>
<polyline fill="none" stroke-width="1.8" points="903.43,-1358.3 899.35,-1358.3" class="s-tra"/>
<text xml:space="preserve" text-anchor="middle" x="866.84" y="-1346.27" font-family="Helvetica,sans-Serif" font-size="10.00" class="t-ink">bundle .zip</text>
</g>

<g id="node2" class="node">
<title>unzip</title>
<path stroke-width="1.3" d="M959.39,-1260.9C959.39,-1260.9 774.29,-1260.9 774.29,-1260.9 770.21,-1260.9 766.13,-1256.82 766.13,-1252.74 766.13,-1252.74 766.13,-1244.58 766.13,-1244.58 766.13,-1240.5 770.21,-1236.42 774.29,-1236.42 774.29,-1236.42 959.39,-1236.42 959.39,-1236.42 963.47,-1236.42 967.55,-1240.5 967.55,-1244.58 967.55,-1244.58 967.55,-1252.74 967.55,-1252.74 967.55,-1256.82 963.47,-1260.9 959.39,-1260.9" class="f-ana s-ana"/>
<text xml:space="preserve" text-anchor="middle" x="866.84" y="-1244.51" font-family="Helvetica,sans-Serif" font-size="9.50" class="t-ink">unzip · parse manifest · parse every .slog</text>
</g>

<g id="edge1" class="edge">

<path fill="none" stroke-width="1.15" d="M866.84,-1337.34C866.84,-1320.51 866.84,-1289.42 866.84,-1269.15" class="s-edge"/>
<polygon stroke-width="1.15" points="868.95,-1269.19 866.84,-1263.19 864.75,-1269.19 868.95,-1269.19" class="a-edge s-edge"/>
</g>

<g id="node3" class="node">
<title>index</title>
<path stroke-width="1.3" d="M966.11,-1154.55C966.11,-1154.55 767.58,-1154.55 767.58,-1154.55 762.17,-1154.55 756.76,-1149.13 756.76,-1143.73 756.76,-1143.73 756.76,-1132.9 756.76,-1132.9 756.76,-1127.5 762.17,-1122.09 767.58,-1122.09 767.58,-1122.09 966.11,-1122.09 966.11,-1122.09 971.52,-1122.09 976.93,-1127.5 976.93,-1132.9 976.93,-1132.9 976.93,-1143.73 976.93,-1143.73 976.93,-1149.13 971.52,-1154.55 966.11,-1154.55" class="f-ana s-ana"/>
<text xml:space="preserve" text-anchor="middle" x="866.84" y="-1139.04" font-family="Helvetica,sans-Serif" font-size="9.50" class="t-ink">EventIndex</text>
<text xml:space="preserve" text-anchor="middle" x="866.84" y="-1129.29" font-family="Helvetica,sans-Serif" font-size="9.50" class="t-ink">ordered access, per&#45;session and per&#45;file views</text>
</g>

<g id="edge2" class="edge">

<path fill="none" stroke-width="1.15" d="M866.84,-1236.07C866.84,-1218.58 866.84,-1185.12 866.84,-1162.51" class="s-edge"/>
<polygon stroke-width="1.15" points="868.95,-1162.74 866.84,-1156.74 864.75,-1162.74 868.95,-1162.74" class="a-edge s-edge"/>
</g>

<g id="node4" class="node">
<title>recon</title>
<path stroke-width="1.3" d="M964.43,-1030.46C964.43,-1030.46 783.26,-1030.46 783.26,-1030.46 777.26,-1030.46 771.26,-1024.46 771.26,-1018.46 771.26,-1018.46 771.26,-1000.25 771.26,-1000.25 771.26,-994.25 777.26,-988.25 783.26,-988.25 783.26,-988.25 964.43,-988.25 964.43,-988.25 970.43,-988.25 976.43,-994.25 976.43,-1000.25 976.43,-1000.25 976.43,-1018.46 976.43,-1018.46 976.43,-1024.46 970.43,-1030.46 964.43,-1030.46" class="f-ana s-ana"/>
<text xml:space="preserve" text-anchor="middle" x="873.84" y="-1014.96" font-family="Helvetica,sans-Serif" font-size="9.50" class="t-ink">file reconstruction</text>
<text xml:space="preserve" text-anchor="middle" x="873.84" y="-1005.21" font-family="Helvetica,sans-Serif" font-size="9.50" class="t-ink">replay edits; tag each line typed / pasted /</text>
<text xml:space="preserve" text-anchor="middle" x="873.84" y="-995.46" font-family="Helvetica,sans-Serif" font-size="9.50" class="t-ink">external / starter code</text>
</g>

<g id="edge3" class="edge">

<path fill="none" stroke-width="1.15" d="M867.72,-1121.49C868.86,-1100.77 870.88,-1064.08 872.29,-1038.55" class="s-edge"/>
<polygon stroke-width="1.15" points="874.38,-1038.86 872.61,-1032.75 870.18,-1038.63 874.38,-1038.86" class="a-edge s-edge"/>
</g>

<g id="node5" class="node">
<title>v1</title>
<path stroke-width="1.3" d="M1065.27,-861.01C1065.27,-861.01 1008.42,-861.01 1008.42,-861.01 1004.34,-861.01 1000.26,-856.93 1000.26,-852.85 1000.26,-852.85 1000.26,-844.69 1000.26,-844.69 1000.26,-840.61 1004.34,-836.53 1008.42,-836.53 1008.42,-836.53 1065.27,-836.53 1065.27,-836.53 1069.35,-836.53 1073.43,-840.61 1073.43,-844.69 1073.43,-844.69 1073.43,-852.85 1073.43,-852.85 1073.43,-856.93 1069.35,-861.01 1065.27,-861.01" class="f-fmt s-fmt"/>
<text xml:space="preserve" text-anchor="middle" x="1036.84" y="-845.1" font-family="Helvetica,sans-Serif" font-size="9.00" class="t-ink">verify&#45;chain</text>
</g>

<g id="edge4" class="edge">

<path fill="none" stroke-width="1.15" d="M918.45,-1121.53C946.2,-1110.4 978.59,-1092.63 997.84,-1065.96 1032.08,-1018.53 1039.29,-950.33 1039.57,-903.28" class="s-fmt"/>
<polygon stroke-width="1.15" points="1041.67,-903.36 1039.56,-897.36 1037.47,-903.37 1041.67,-903.36" class="a-fmt s-fmt"/>
</g>

<g id="node14" class="node">
<title>cand</title>
<path stroke-width="1.3" d="M715.93,-1035.34C715.93,-1035.34 531.76,-1035.34 531.76,-1035.34 525.76,-1035.34 519.76,-1029.34 519.76,-1023.34 519.76,-1023.34 519.76,-995.38 519.76,-995.38 519.76,-989.38 525.76,-983.38 531.76,-983.38 531.76,-983.38 715.93,-983.38 715.93,-983.38 721.93,-983.38 727.93,-989.38 727.93,-995.38 727.93,-995.38 727.93,-1023.34 727.93,-1023.34 727.93,-1029.34 721.93,-1035.34 715.93,-1035.34" class="f-srv s-srv"/>
<text xml:space="preserve" text-anchor="middle" x="623.84" y="-1020.31" font-family="Helvetica,sans-Serif" font-size="9.00" class="t-ink">candidate&#45;pastes</text>
<text xml:space="preserve" text-anchor="middle" x="623.84" y="-1010.56" font-family="Helvetica,sans-Serif" font-size="9.00" class="t-ink">unifies native paste events with</text>
<text xml:space="preserve" text-anchor="middle" x="623.84" y="-1000.81" font-family="Helvetica,sans-Serif" font-size="9.00" class="t-ink">doc.change deltas marked paste_likely —</text>
<text xml:space="preserve" text-anchor="middle" x="623.84" y="-991.06" font-family="Helvetica,sans-Serif" font-size="9.00" class="t-ink">one place to teach about a new paste source</text>
</g>

<g id="edge7" class="edge">

<path fill="none" stroke-width="1.15" d="M836.56,-1121.49C797.31,-1100.99 728.14,-1064.84 679.35,-1039.35" class="s-ana"/>
<polygon stroke-width="1.15" points="680.44,-1037.55 674.15,-1036.64 678.49,-1041.28 680.44,-1037.55" class="a-ana s-ana"/>
</g>

<g id="node16" class="node">
<title>he</title>
<path stroke-width="1.3" d="M260.3,-1040.21C260.3,-1040.21 87.38,-1040.21 87.38,-1040.21 81.38,-1040.21 75.38,-1034.21 75.38,-1028.21 75.38,-1028.21 75.38,-990.5 75.38,-990.5 75.38,-984.5 81.38,-978.5 87.38,-978.5 87.38,-978.5 260.3,-978.5 260.3,-978.5 266.3,-978.5 272.3,-984.5 272.3,-990.5 272.3,-990.5 272.3,-1028.21 272.3,-1028.21 272.3,-1034.21 266.3,-1040.21 260.3,-1040.21" class="f-ana s-ana"/>
<text xml:space="preserve" text-anchor="middle" x="173.84" y="-1025.18" font-family="Helvetica,sans-Serif" font-size="9.00" class="t-ink">ENVIRONMENT ×4</text>
<text xml:space="preserve" text-anchor="middle" x="173.84" y="-1015.43" font-family="Helvetica,sans-Serif" font-size="9.00" class="t-ink">ai_extension_active</text>
<text xml:space="preserve" text-anchor="middle" x="173.84" y="-1005.68" font-family="Helvetica,sans-Serif" font-size="9.00" class="t-ink">shell_integration_disabled</text>
<text xml:space="preserve" text-anchor="middle" x="173.84" y="-995.93" font-family="Helvetica,sans-Serif" font-size="9.00" class="t-ink">extension_set_changed_mid_assignment</text>
<text xml:space="preserve" text-anchor="middle" x="173.84" y="-986.18" font-family="Helvetica,sans-Serif" font-size="9.00" class="t-ink">terminal_active_during_external_change</text>
</g>

<g id="edge10" class="edge">

<path fill="none" stroke-width="1.15" d="M756.31,-1133.67C639.41,-1127.5 450.57,-1110.84 293.84,-1065.96 274.68,-1060.47 254.71,-1052.31 236.68,-1043.92" class="s-edge"/>
<polygon stroke-width="1.15" points="238.03,-1042.23 231.71,-1041.56 236.23,-1046.03 238.03,-1042.23" class="a-edge s-edge"/>
</g>

<g id="node17" class="node">
<title>hi</title>
<path stroke-width="1.3" d="M464.3,-1035.34C464.3,-1035.34 327.38,-1035.34 327.38,-1035.34 321.38,-1035.34 315.38,-1029.34 315.38,-1023.34 315.38,-1023.34 315.38,-995.38 315.38,-995.38 315.38,-989.38 321.38,-983.38 327.38,-983.38 327.38,-983.38 464.3,-983.38 464.3,-983.38 470.3,-983.38 476.3,-989.38 476.3,-995.38 476.3,-995.38 476.3,-1023.34 476.3,-1023.34 476.3,-1029.34 470.3,-1035.34 464.3,-1035.34" class="f-ana s-ana"/>
<text xml:space="preserve" text-anchor="middle" x="395.84" y="-1020.31" font-family="Helvetica,sans-Serif" font-size="9.00" class="t-ink">INTEGRITY ×4</text>
<text xml:space="preserve" text-anchor="middle" x="395.84" y="-1010.56" font-family="Helvetica,sans-Serif" font-size="9.00" class="t-ink">clock_jumps · gap_in_heartbeats</text>
<text xml:space="preserve" text-anchor="middle" x="395.84" y="-1000.81" font-family="Helvetica,sans-Serif" font-size="9.00" class="t-ink">multiple_sessions_overlap</text>
<text xml:space="preserve" text-anchor="middle" x="395.84" y="-991.06" font-family="Helvetica,sans-Serif" font-size="9.00" class="t-ink">extension_hash_mismatch</text>
</g>

<g id="edge11" class="edge">

<path fill="none" stroke-width="1.15" d="M756.3,-1125C681.73,-1114.51 581.97,-1096.2 497.84,-1065.96 478.91,-1059.15 459.24,-1049.21 442.29,-1039.6" class="s-edge"/>
<polygon stroke-width="1.15" points="443.45,-1037.85 437.2,-1036.67 441.35,-1041.49 443.45,-1037.85" class="a-edge s-edge"/>
</g>

<g id="node15" class="node">
<title>hp</title>
<path stroke-width="1.3" d="M715.68,-884.5C715.68,-884.5 386.01,-884.5 386.01,-884.5 380.01,-884.5 374.01,-878.5 374.01,-872.5 374.01,-872.5 374.01,-825.04 374.01,-825.04 374.01,-819.04 380.01,-813.04 386.01,-813.04 386.01,-813.04 715.68,-813.04 715.68,-813.04 721.68,-813.04 727.68,-819.04 727.68,-825.04 727.68,-825.04 727.68,-872.5 727.68,-872.5 727.68,-878.5 721.68,-884.5 715.68,-884.5" class="f-ana s-ana"/>
<text xml:space="preserve" text-anchor="middle" x="550.84" y="-869.47" font-family="Helvetica,sans-Serif" font-size="9.00" class="t-ink">PROCESS ×10</text>
<text xml:space="preserve" text-anchor="middle" x="550.84" y="-859.72" font-family="Helvetica,sans-Serif" font-size="9.00" class="t-ink">large_paste · paste_is_solution</text>
<text xml:space="preserve" text-anchor="middle" x="550.84" y="-849.97" font-family="Helvetica,sans-Serif" font-size="9.00" class="t-ink">paste_matches_known_source · external_edits · inter_session_external_change</text>
<text xml:space="preserve" text-anchor="middle" x="550.84" y="-840.22" font-family="Helvetica,sans-Serif" font-size="9.00" class="t-ink">mass_external_replacement · low_typing_high_output</text>
<text xml:space="preserve" text-anchor="middle" x="550.84" y="-830.47" font-family="Helvetica,sans-Serif" font-size="9.00" class="t-ink">time_to_first_save_anomaly · idle_then_complete</text>
<text xml:space="preserve" text-anchor="middle" x="550.84" y="-820.72" font-family="Helvetica,sans-Serif" font-size="9.00" class="t-ink">no_intermediate_errors</text>
</g>

<g id="edge8" class="edge">

<path fill="none" stroke-width="1.15" stroke-dasharray="5,2" d="M831.62,-987.62C780.47,-962.51 693.26,-919.69 629.58,-888.43" class="s-ana"/>
<polygon stroke-width="1.15" points="630.59,-886.58 624.28,-885.82 628.74,-890.35 630.59,-886.58" class="a-ana s-ana"/>
<text xml:space="preserve" text-anchor="middle" x="753.06" y="-932.71" font-family="Helvetica,sans-Serif" font-size="8.20" class="t-hum">overlap with</text>
<text xml:space="preserve" text-anchor="middle" x="753.06" y="-923.71" font-family="Helvetica,sans-Serif" font-size="8.20" class="t-hum">final content</text>
</g>

<g id="node13" class="node">
<title>report</title>
<polygon stroke-width="1.3" points="1002.22,-691.68 911.38,-691.68 911.38,-667.2 1006.3,-667.2 1006.3,-687.6 1002.22,-691.68" class="f-fmt s-fmt"/>
<polyline fill="none" stroke-width="1.3" points="1002.22,-691.68 1002.22,-687.6" class="s-fmt"/>
<polyline fill="none" stroke-width="1.3" points="1006.3,-687.6 1002.22,-687.6" class="s-fmt"/>
<text xml:space="preserve" text-anchor="middle" x="958.84" y="-675.57" font-family="Helvetica,sans-Serif" font-size="10.00" class="t-ink">validation report</text>
</g>

<g id="edge5" class="edge">

<path fill="none" stroke-width="1.15" d="M1023.75,-819.67C1007.7,-785.24 980.97,-727.9 967.36,-698.71" class="s-fmt"/>
<polygon stroke-width="1.15" points="969.39,-698.1 964.96,-693.55 965.59,-699.87 969.39,-698.1" class="a-fmt s-fmt"/>
</g>

<g id="node6" class="node">
<title>v2</title>
<path stroke-width="1.3" d="M1208.77,-861.01C1208.77,-861.01 1124.92,-861.01 1124.92,-861.01 1120.84,-861.01 1116.76,-856.93 1116.76,-852.85 1116.76,-852.85 1116.76,-844.69 1116.76,-844.69 1116.76,-840.61 1120.84,-836.53 1124.92,-836.53 1124.92,-836.53 1208.77,-836.53 1208.77,-836.53 1212.85,-836.53 1216.93,-840.61 1216.93,-844.69 1216.93,-844.69 1216.93,-852.85 1216.93,-852.85 1216.93,-856.93 1212.85,-861.01 1208.77,-861.01" class="f-fmt s-fmt"/>
<text xml:space="preserve" text-anchor="middle" x="1166.84" y="-845.1" font-family="Helvetica,sans-Serif" font-size="9.00" class="t-ink">verify&#45;manifest&#45;sig</text>
</g>

<g id="node7" class="node">
<title>v3</title>
<path stroke-width="1.3" d="M1367.64,-861.01C1367.64,-861.01 1268.04,-861.01 1268.04,-861.01 1263.96,-861.01 1259.88,-856.93 1259.88,-852.85 1259.88,-852.85 1259.88,-844.69 1259.88,-844.69 1259.88,-840.61 1263.96,-836.53 1268.04,-836.53 1268.04,-836.53 1367.64,-836.53 1367.64,-836.53 1371.72,-836.53 1375.8,-840.61 1375.8,-844.69 1375.8,-844.69 1375.8,-852.85 1375.8,-852.85 1375.8,-856.93 1371.72,-861.01 1367.64,-861.01" class="f-fmt s-fmt"/>
<text xml:space="preserve" text-anchor="middle" x="1317.84" y="-845.1" font-family="Helvetica,sans-Serif" font-size="9.00" class="t-ink">verify&#45;session&#45;binding</text>
</g>

<g id="node8" class="node">
<title>v4</title>
<path stroke-width="1.3" d="M1476.52,-861.01C1476.52,-861.01 1427.17,-861.01 1427.17,-861.01 1423.09,-861.01 1419.01,-856.93 1419.01,-852.85 1419.01,-852.85 1419.01,-844.69 1419.01,-844.69 1419.01,-840.61 1423.09,-836.53 1427.17,-836.53 1427.17,-836.53 1476.52,-836.53 1476.52,-836.53 1480.6,-836.53 1484.68,-840.61 1484.68,-844.69 1484.68,-844.69 1484.68,-852.85 1484.68,-852.85 1484.68,-856.93 1480.6,-861.01 1476.52,-861.01" class="f-fmt s-fmt"/>
<text xml:space="preserve" text-anchor="middle" x="1451.84" y="-845.1" font-family="Helvetica,sans-Serif" font-size="9.00" class="t-ink">verify&#45;seq</text>
</g>

<g id="node9" class="node">
<title>v5</title>
<path stroke-width="1.3" d="M1618.02,-861.01C1618.02,-861.01 1535.67,-861.01 1535.67,-861.01 1531.59,-861.01 1527.51,-856.93 1527.51,-852.85 1527.51,-852.85 1527.51,-844.69 1527.51,-844.69 1527.51,-840.61 1531.59,-836.53 1535.67,-836.53 1535.67,-836.53 1618.02,-836.53 1618.02,-836.53 1622.1,-836.53 1626.18,-840.61 1626.18,-844.69 1626.18,-844.69 1626.18,-852.85 1626.18,-852.85 1626.18,-856.93 1622.1,-861.01 1618.02,-861.01" class="f-fmt s-fmt"/>
<text xml:space="preserve" text-anchor="middle" x="1576.84" y="-845.1" font-family="Helvetica,sans-Serif" font-size="9.00" class="t-ink">verify&#45;monotonic&#45;t</text>
</g>

<g id="node10" class="node">
<title>v6</title>
<path stroke-width="1.3" d="M1774.14,-861.01C1774.14,-861.01 1677.54,-861.01 1677.54,-861.01 1673.46,-861.01 1669.38,-856.93 1669.38,-852.85 1669.38,-852.85 1669.38,-844.69 1669.38,-844.69 1669.38,-840.61 1673.46,-836.53 1677.54,-836.53 1677.54,-836.53 1774.14,-836.53 1774.14,-836.53 1778.22,-836.53 1782.3,-840.61 1782.3,-844.69 1782.3,-844.69 1782.3,-852.85 1782.3,-852.85 1782.3,-856.93 1778.22,-861.01 1774.14,-861.01" class="f-fmt s-fmt"/>
<text xml:space="preserve" text-anchor="middle" x="1725.84" y="-845.1" font-family="Helvetica,sans-Serif" font-size="9.00" class="t-ink">verify&#45;monotonic&#45;wall</text>
</g>

<g id="node11" class="node">
<title>v7</title>
<path stroke-width="1.3" d="M1935.61,-865C1935.61,-865 1836.08,-865 1836.08,-865 1830.67,-865 1825.26,-859.59 1825.26,-854.18 1825.26,-854.18 1825.26,-843.36 1825.26,-843.36 1825.26,-837.95 1830.67,-832.54 1836.08,-832.54 1836.08,-832.54 1935.61,-832.54 1935.61,-832.54 1941.02,-832.54 1946.43,-837.95 1946.43,-843.36 1946.43,-843.36 1946.43,-854.18 1946.43,-854.18 1946.43,-859.59 1941.02,-865 1935.61,-865" class="f-hum s-hum"/>
<text xml:space="preserve" text-anchor="middle" x="1885.84" y="-849.97" font-family="Helvetica,sans-Serif" font-size="9.00" class="t-ink2">verify&#45;doc&#45;save&#45;hashes</text>
<text xml:space="preserve" text-anchor="middle" x="1885.84" y="-840.22" font-family="Helvetica,sans-Serif" font-size="9.00" class="t-ink2">informational — no flag</text>
</g>

<g id="node12" class="node">
<title>v8</title>
<path stroke-width="1.3" d="M2114.3,-869.88C2114.3,-869.88 2001.38,-869.88 2001.38,-869.88 1995.38,-869.88 1989.38,-863.88 1989.38,-857.88 1989.38,-857.88 1989.38,-839.67 1989.38,-839.67 1989.38,-833.67 1995.38,-827.67 2001.38,-827.67 2001.38,-827.67 2114.3,-827.67 2114.3,-827.67 2120.3,-827.67 2126.3,-833.67 2126.3,-839.67 2126.3,-839.67 2126.3,-857.88 2126.3,-857.88 2126.3,-863.88 2120.3,-869.88 2114.3,-869.88" class="f-fmt s-fmt"/>
<text xml:space="preserve" text-anchor="middle" x="2057.84" y="-854.85" font-family="Helvetica,sans-Serif" font-size="9.00" class="t-ink">verify&#45;submitted&#45;code</text>
<text xml:space="preserve" text-anchor="middle" x="2057.84" y="-845.1" font-family="Helvetica,sans-Serif" font-size="9.00" class="t-ink">tamper sub&#45;check gated on</text>
<text xml:space="preserve" text-anchor="middle" x="2057.84" y="-835.35" font-family="Helvetica,sans-Serif" font-size="9.00" class="t-ink">bytes being present</text>
</g>

<g id="node21" class="node">
<title>integ</title>
<path stroke-width="1.3" d="M1012.48,-527.09C1012.48,-527.09 813.2,-527.09 813.2,-527.09 807.79,-527.09 802.38,-521.68 802.38,-516.27 802.38,-516.27 802.38,-505.45 802.38,-505.45 802.38,-500.04 807.79,-494.63 813.2,-494.63 813.2,-494.63 1012.48,-494.63 1012.48,-494.63 1017.89,-494.63 1023.3,-500.04 1023.3,-505.45 1023.3,-505.45 1023.3,-516.27 1023.3,-516.27 1023.3,-521.68 1017.89,-527.09 1012.48,-527.09" class="f-fmt s-fmt"/>
<text xml:space="preserve" text-anchor="middle" x="912.84" y="-511.59" font-family="Helvetica,sans-Serif" font-size="9.50" class="t-ink">integrity&#45;flags adapter</text>
<text xml:space="preserve" text-anchor="middle" x="912.84" y="-501.84" font-family="Helvetica,sans-Serif" font-size="9.50" class="t-ink">lifts each FAILED check into the same flag list</text>
</g>

<g id="edge6" class="edge">

<path fill="none" stroke-width="1.15" d="M955.61,-666.73C948.05,-639.35 929.11,-570.76 919.17,-534.75" class="s-edge"/>
<polygon stroke-width="1.15" points="921.27,-534.49 917.65,-529.27 917.22,-535.61 921.27,-534.49" class="a-edge s-edge"/>
</g>

<g id="edge9" class="edge">

<path fill="none" stroke-width="1.15" d="M612.12,-982.88C600.81,-958.32 583.5,-920.71 570.16,-891.73" class="s-edge"/>
<polygon stroke-width="1.15" points="572.18,-891.09 567.76,-886.52 568.36,-892.85 572.18,-891.09" class="a-edge s-edge"/>
</g>

<g id="node18" class="node">
<title>imove</title>
<path stroke-width="1.3" d="M539.15,-716.35C539.15,-716.35 390.46,-682.13 390.46,-682.13 384.61,-680.79 384.61,-678.09 390.46,-676.75 390.46,-676.75 539.15,-642.53 539.15,-642.53 545,-641.19 556.69,-641.19 562.54,-642.53 562.54,-642.53 711.23,-676.75 711.23,-676.75 717.08,-678.09 717.08,-680.79 711.23,-682.13 711.23,-682.13 562.54,-716.35 562.54,-716.35 556.69,-717.69 545,-717.69 539.15,-716.35" class="f-rec s-rec"/>
<text xml:space="preserve" text-anchor="middle" x="550.84" y="-685.52" font-family="Helvetica,sans-Serif" font-size="9.00" class="t-ink">internal&#45;move check</text>
<text xml:space="preserve" text-anchor="middle" x="550.84" y="-675.77" font-family="Helvetica,sans-Serif" font-size="9.00" class="t-ink">is this paste a copy of the student&#39;s OWN</text>
<text xml:space="preserve" text-anchor="middle" x="550.84" y="-666.02" font-family="Helvetica,sans-Serif" font-size="9.00" class="t-ink">earlier content, whose provenance is typed?</text>
</g>

<g id="edge15" class="edge">

<path fill="none" stroke-width="1.15" d="M550.84,-812.69C550.84,-787.81 550.84,-754.17 550.84,-727.04" class="s-rec"/>
<polygon stroke-width="1.15" points="552.95,-727.31 550.84,-721.31 548.75,-727.31 552.95,-727.31" class="a-rec s-rec"/>
<text xml:space="preserve" text-anchor="middle" x="589.47" y="-767.25" font-family="Helvetica,sans-Serif" font-size="8.20" class="t-hum">large_paste and</text>
<text xml:space="preserve" text-anchor="middle" x="589.47" y="-758.25" font-family="Helvetica,sans-Serif" font-size="8.20" class="t-hum">paste_is_solution only</text>
</g>

<g id="node22" class="node">
<title>sort</title>
<path stroke-width="1.8" d="M520.18,-407.88C520.18,-407.88 301.51,-407.88 301.51,-407.88 295.51,-407.88 289.51,-401.88 289.51,-395.88 289.51,-395.88 289.51,-358.92 289.51,-358.92 289.51,-352.92 295.51,-346.92 301.51,-346.92 301.51,-346.92 520.18,-346.92 520.18,-346.92 526.18,-346.92 532.18,-352.92 532.18,-358.92 532.18,-358.92 532.18,-395.88 532.18,-395.88 532.18,-401.88 526.18,-407.88 520.18,-407.88" class="f-ana s-ana"/>
<text xml:space="preserve" text-anchor="middle" x="410.84" y="-391.9" font-family="Helvetica,sans-Serif" font-size="10.00" class="t-ink">SORT</text>
<text xml:space="preserve" text-anchor="middle" x="410.84" y="-380.65" font-family="Helvetica,sans-Serif" font-size="10.00" class="t-ink">severity ↓, then confidence ↓,</text>
<text xml:space="preserve" text-anchor="middle" x="410.84" y="-367.9" font-family="Helvetica,sans-Serif" font-size="10.00" class="t-ink">then supporting seq ↑ — a stable tie&#45;break that</text>
<text xml:space="preserve" text-anchor="middle" x="410.84" y="-355.15" font-family="Helvetica,sans-Serif" font-size="10.00" class="t-ink">makes output deterministic and snapshot&#45;testable</text>
</g>

<g id="edge20" class="edge">

<path fill="none" stroke-width="1.15" d="M181.24,-977.86C188.29,-946.09 197.84,-894.74 197.84,-849.77 197.84,-849.77 197.84,-849.77 197.84,-509.86 197.84,-462.12 237.07,-431.14 281.86,-411.34" class="s-edge"/>
<polygon stroke-width="1.15" points="282.5,-413.35 287.19,-409.06 280.85,-409.48 282.5,-413.35" class="a-edge s-edge"/>
</g>

<g id="edge21" class="edge">

<path fill="none" stroke-width="1.15" d="M371.38,-982.93C345.65,-953.41 308.84,-902.06 308.84,-849.77 308.84,-849.77 308.84,-849.77 308.84,-509.86 308.84,-471.43 336.39,-437.44 362.85,-413.65" class="s-edge"/>
<polygon stroke-width="1.15" points="364.03,-415.41 367.16,-409.88 361.27,-412.25 364.03,-415.41" class="a-edge s-edge"/>
</g>

<g id="node19" class="node">
<title>down</title>
<path stroke-width="1.3" d="M729.3,-536.84C729.3,-536.84 502.38,-536.84 502.38,-536.84 496.38,-536.84 490.38,-530.84 490.38,-524.84 490.38,-524.84 490.38,-496.88 490.38,-496.88 490.38,-490.88 496.38,-484.88 502.38,-484.88 502.38,-484.88 729.3,-484.88 729.3,-484.88 735.3,-484.88 741.3,-490.88 741.3,-496.88 741.3,-496.88 741.3,-524.84 741.3,-524.84 741.3,-530.84 735.3,-536.84 729.3,-536.84" class="f-rec s-rec"/>
<text xml:space="preserve" text-anchor="middle" x="615.84" y="-521.81" font-family="Helvetica,sans-Serif" font-size="9.00" class="t-ink">RETITLED, dropped to info</text>
<text xml:space="preserve" text-anchor="middle" x="615.84" y="-512.06" font-family="Helvetica,sans-Serif" font-size="9.00" class="t-ink">scores 0 under default weights, so it leaves the</text>
<text xml:space="preserve" text-anchor="middle" x="615.84" y="-502.31" font-family="Helvetica,sans-Serif" font-size="9.00" class="t-ink">ranked queue — but is NEVER suppressed. The record</text>
<text xml:space="preserve" text-anchor="middle" x="615.84" y="-492.56" font-family="Helvetica,sans-Serif" font-size="9.00" class="t-ink">and its jump&#45;to&#45;source link both remain.</text>
</g>

<g id="edge16" class="edge">

<path fill="none" stroke-width="1.15" d="M564.79,-642.7C576.21,-613.45 592.22,-572.41 603.25,-544.14" class="s-rec"/>
<polygon stroke-width="1.15" points="605.09,-545.21 605.31,-538.86 601.17,-543.68 605.09,-545.21" class="a-rec s-rec"/>
<text xml:space="preserve" text-anchor="middle" x="597.08" y="-585.05" font-family="Helvetica,sans-Serif" font-size="8.20" class="t-hum">yes</text>
</g>

<g id="node20" class="node">
<title>keep</title>
<path stroke-width="1.3" d="M439.64,-523.1C439.64,-523.1 382.04,-523.1 382.04,-523.1 377.96,-523.1 373.88,-519.02 373.88,-514.94 373.88,-514.94 373.88,-506.78 373.88,-506.78 373.88,-502.7 377.96,-498.62 382.04,-498.62 382.04,-498.62 439.64,-498.62 439.64,-498.62 443.72,-498.62 447.8,-502.7 447.8,-506.78 447.8,-506.78 447.8,-514.94 447.8,-514.94 447.8,-519.02 443.72,-523.1 439.64,-523.1" class="f-ana s-ana"/>
<text xml:space="preserve" text-anchor="middle" x="410.84" y="-506.71" font-family="Helvetica,sans-Serif" font-size="9.50" class="t-ink">full severity</text>
</g>

<g id="edge17" class="edge">

<path fill="none" stroke-width="1.15" d="M503.01,-650.31C484.21,-637.42 463.64,-620.78 448.84,-601.84 432.06,-580.35 421.36,-550.34 415.73,-531.01" class="s-ana"/>
<polygon stroke-width="1.15" points="417.79,-530.57 414.16,-525.35 413.74,-531.69 417.79,-530.57" class="a-ana s-ana"/>
<text xml:space="preserve" text-anchor="middle" x="510.34" y="-594.05" font-family="Helvetica,sans-Serif" font-size="8.20" class="t-hum">no — or the source region itself</text>
<text xml:space="preserve" text-anchor="middle" x="510.34" y="-585.05" font-family="Helvetica,sans-Serif" font-size="8.20" class="t-hum">arrived by paste / external change,</text>
<text xml:space="preserve" text-anchor="middle" x="510.34" y="-576.05" font-family="Helvetica,sans-Serif" font-size="8.20" class="t-hum">so it cannot be laundered</text>
</g>

<g id="edge18" class="edge">

<path fill="none" stroke-width="1.15" d="M576.32,-484.51C544.55,-464.14 499.62,-435.33 464.59,-412.86" class="s-edge"/>
<polygon stroke-width="1.15" points="465.82,-411.16 459.63,-409.68 463.55,-414.69 465.82,-411.16" class="a-edge s-edge"/>
</g>

<g id="edge19" class="edge">

<path fill="none" stroke-width="1.15" d="M410.84,-498.19C410.84,-479.99 410.84,-444.02 410.84,-416.23" class="s-edge"/>
<polygon stroke-width="1.15" points="412.95,-416.37 410.84,-410.37 408.75,-416.37 412.95,-416.37" class="a-edge s-edge"/>
</g>

<g id="edge22" class="edge">

<path fill="none" stroke-width="1.15" d="M852.29,-494C773.73,-473.43 634.78,-437.04 533.71,-410.57" class="s-edge"/>
<polygon stroke-width="1.15" points="534.52,-408.62 528.18,-409.13 533.45,-412.68 534.52,-408.62" class="a-edge s-edge"/>
</g>

<g id="node23" class="node">
<title>out</title>
<polygon stroke-width="1.8" points="451.6,-269.92 366.01,-269.92 366.01,-245.44 455.68,-245.44 455.68,-265.84 451.6,-269.92" class="f-ana s-ana"/>
<polyline fill="none" stroke-width="1.8" points="451.6,-269.92 451.6,-265.84" class="s-ana"/>
<polyline fill="none" stroke-width="1.8" points="455.68,-265.84 451.6,-265.84" class="s-ana"/>
<text xml:space="preserve" text-anchor="middle" x="410.84" y="-253.81" font-family="Helvetica,sans-Serif" font-size="10.00" class="t-ink">ranked flag list</text>
</g>

<g id="edge23" class="edge">

<path fill="none" stroke-width="1.15" d="M410.84,-346.08C410.84,-324.72 410.84,-296.74 410.84,-278.26" class="s-edge"/>
<polygon stroke-width="1.15" points="412.95,-278.47 410.84,-272.47 408.75,-278.47 412.95,-278.47" class="a-edge s-edge"/>
</g>

<g id="node24" class="node">
<title>c1</title>
<path stroke-width="1.3" d="M381.86,-151.44C381.86,-151.44 173.83,-151.44 173.83,-151.44 168.17,-151.44 162.51,-145.78 162.51,-140.12 162.51,-140.12 162.51,-128.8 162.51,-128.8 162.51,-123.14 168.17,-117.48 173.83,-117.48 173.83,-117.48 381.86,-117.48 381.86,-117.48 387.52,-117.48 393.18,-123.14 393.18,-128.8 393.18,-128.8 393.18,-140.12 393.18,-140.12 393.18,-145.78 387.52,-151.44 381.86,-151.44" class="f-uix s-uix"/>
<text xml:space="preserve" text-anchor="middle" x="277.84" y="-136.41" font-family="Helvetica,sans-Serif" font-size="9.00" class="t-ink">paste_shared_across_students</text>
<text xml:space="preserve" text-anchor="middle" x="277.84" y="-126.66" font-family="Helvetica,sans-Serif" font-size="9.00" class="t-ink">sha256 exact → high · fuzzy line match → medium</text>
</g>

<g id="edge24" class="edge">

<path fill="none" stroke-width="1.15" stroke-dasharray="5,2" d="M397.61,-244.61C375.28,-224.26 329.83,-182.84 301.79,-157.28" class="s-uix"/>
<polygon stroke-width="1.15" points="303.22,-155.75 297.37,-153.26 300.39,-158.85 303.22,-155.75" class="a-uix s-uix"/>
<text xml:space="preserve" text-anchor="middle" x="403.13" y="-199.65" font-family="Helvetica,sans-Serif" font-size="8.20" class="t-hum">only when several bundles</text>
<text xml:space="preserve" text-anchor="middle" x="403.13" y="-190.65" font-family="Helvetica,sans-Serif" font-size="8.20" class="t-hum">are loaded together</text>
</g>

<g id="node25" class="node">
<title>c2</title>
<path stroke-width="1.3" d="M644.73,-150.69C644.73,-150.69 446.95,-150.69 446.95,-150.69 441.54,-150.69 436.13,-145.28 436.13,-139.87 436.13,-139.87 436.13,-129.05 436.13,-129.05 436.13,-123.64 441.54,-118.23 446.95,-118.23 446.95,-118.23 644.73,-118.23 644.73,-118.23 650.14,-118.23 655.55,-123.64 655.55,-129.05 655.55,-129.05 655.55,-139.87 655.55,-139.87 655.55,-145.28 650.14,-150.69 644.73,-150.69" class="f-uix s-uix"/>
<text xml:space="preserve" text-anchor="middle" x="545.84" y="-135.66" font-family="Helvetica,sans-Serif" font-size="9.00" class="t-ink">editing_pattern_clone</text>
<text xml:space="preserve" text-anchor="middle" x="545.84" y="-125.91" font-family="Helvetica,sans-Serif" font-size="9.00" class="t-ink">anomalously similar timing and file&#45;switch order</text>
</g>


<g id="node26" class="node">
<title>cx</title>
<polygon stroke-width="1.3" points="472.47,-40.48 347.13,-40.48 347.13,-16 476.55,-16 476.55,-36.4 472.47,-40.48" class="f-uix s-uix"/>
<polyline fill="none" stroke-width="1.3" points="472.47,-40.48 472.47,-36.4" class="s-uix"/>
<polyline fill="none" stroke-width="1.3" points="476.55,-36.4 472.47,-36.4" class="s-uix"/>
<text xml:space="preserve" text-anchor="middle" x="411.84" y="-24.57" font-family="Helvetica,sans-Serif" font-size="9.00" class="t-ink">cross_flags + participants</text>
</g>

<g id="edge25" class="edge">

<path fill="none" stroke-width="1.15" d="M299.08,-116.95C324.25,-97.37 365.93,-64.95 390.95,-45.49" class="s-edge"/>
<polygon stroke-width="1.15" points="392.11,-47.25 395.56,-41.9 389.54,-43.93 392.11,-47.25" class="a-edge s-edge"/>
</g>

<g id="edge26" class="edge">

<path fill="none" stroke-width="1.15" d="M525.49,-117.63C500.52,-98.21 458.38,-65.43 433.03,-45.72" class="s-edge"/>
<polygon stroke-width="1.15" points="434.37,-44.1 428.34,-42.07 431.79,-47.41 434.37,-44.1" class="a-edge s-edge"/>
</g>

<g id="node27" class="node">
<title>cfg</title>
<path stroke-width="1.3" d="M268.55,-1159.42C268.55,-1159.42 79.13,-1159.42 79.13,-1159.42 73.13,-1159.42 67.13,-1153.42 67.13,-1147.42 67.13,-1147.42 67.13,-1129.21 67.13,-1129.21 67.13,-1123.21 73.13,-1117.21 79.13,-1117.21 79.13,-1117.21 268.55,-1117.21 268.55,-1117.21 274.55,-1117.21 280.55,-1123.21 280.55,-1129.21 280.55,-1129.21 280.55,-1147.42 280.55,-1147.42 280.55,-1153.42 274.55,-1159.42 268.55,-1159.42" class="f-srv s-srv"/>
<text xml:space="preserve" text-anchor="middle" x="173.84" y="-1144.39" font-family="Helvetica,sans-Serif" font-size="9.00" class="t-ink">HeuristicConfig</text>
<text xml:space="preserve" text-anchor="middle" x="173.84" y="-1134.64" font-family="Helvetica,sans-Serif" font-size="9.00" class="t-ink">24 tunable thresholds; per&#45;semester overrides</text>
<text xml:space="preserve" text-anchor="middle" x="173.84" y="-1124.89" font-family="Helvetica,sans-Serif" font-size="9.00" class="t-ink">layered over the shipped defaults</text>
</g>

<g id="edge12" class="edge">

<path fill="none" stroke-width="1.15" stroke-dasharray="5,2" d="M84.48,-1116.66C58.28,-1106 32.55,-1089.97 17.09,-1065.96 -3.94,-1033.27 -6.95,-1009.04 17.09,-978.5 60.4,-923.5 229.7,-889.24 366.17,-870.02" class="s-srv"/>
<polygon stroke-width="1.15" points="366.09,-872.15 371.74,-869.25 365.51,-868 366.09,-872.15" class="a-srv s-srv"/>
<text xml:space="preserve" text-anchor="middle" x="35.47" y="-1006.07" font-family="Helvetica,sans-Serif" font-size="8.20" class="t-hum">thresholds</text>
</g>

<g id="edge13" class="edge">

<path fill="none" stroke-width="1.15" stroke-dasharray="5,2" d="M173.84,-1116.63C173.84,-1098.16 173.84,-1070.62 173.84,-1048.21" class="s-srv"/>
<polygon stroke-width="1.15" points="175.95,-1048.25 173.84,-1042.26 171.75,-1048.26 175.95,-1048.25" class="a-srv s-srv"/>
</g>

<g id="edge14" class="edge">

<path fill="none" stroke-width="1.15" stroke-dasharray="5,2" d="M210.01,-1116.63C246.63,-1095.69 303.59,-1063.12 344.8,-1039.55" class="s-srv"/>
<polygon stroke-width="1.15" points="345.6,-1041.51 349.76,-1036.71 343.51,-1037.87 345.6,-1041.51" class="a-srv s-srv"/>
</g>
</g>
</svg>