<svg width="860pt" height="2031pt"
 viewBox="0.00 0.00 860.00 2031.00" xmlns="http://www.w3.org/2000/svg" xmlns:xlink="http://www.w3.org/1999/xlink">
<g id="graph0" class="graph" transform="scale(1 1) rotate(0) translate(21.6 2009.45)">
<title>chain</title>
<g id="clust1" class="cluster">

<path stroke-width="1.5" d="M64,-1903.89C64,-1903.89 545,-1903.89 545,-1903.89 551,-1903.89 557,-1909.89 557,-1915.89 557,-1915.89 557,-1967.85 557,-1967.85 557,-1973.85 551,-1979.85 545,-1979.85 545,-1979.85 64,-1979.85 64,-1979.85 58,-1979.85 52,-1973.85 52,-1967.85 52,-1967.85 52,-1915.89 52,-1915.89 52,-1909.89 58,-1903.89 64,-1903.89" class="f-uix s-uix"/>
<text xml:space="preserve" text-anchor="middle" x="99" y="-1966.83" font-family="Helvetica,sans-Serif" font-size="9.50" class="t-uix"> &#160;KEY MATERIAL &#160;</text>
</g>
<g id="clust2" class="cluster">

<path stroke-width="1.5" d="M20,-1498.97C20,-1498.97 234,-1498.97 234,-1498.97 240,-1498.97 246,-1504.97 246,-1510.97 246,-1510.97 246,-1840.64 246,-1840.64 246,-1846.64 240,-1852.64 234,-1852.64 234,-1852.64 20,-1852.64 20,-1852.64 14,-1852.64 8,-1846.64 8,-1840.64 8,-1840.64 8,-1510.97 8,-1510.97 8,-1504.97 14,-1498.97 20,-1498.97" class="f-rec s-rec"/>
<text xml:space="preserve" text-anchor="middle" x="49.75" y="-1839.62" font-family="Helvetica,sans-Serif" font-size="9.50" class="t-rec"> &#160;ACTIVATION &#160;</text>
</g>
<g id="clust3" class="cluster">

<path stroke-width="1.5" d="M266,-769.97C266,-769.97 594,-769.97 594,-769.97 600,-769.97 606,-775.97 606,-781.97 606,-781.97 606,-1569.58 606,-1569.58 606,-1575.58 600,-1581.58 594,-1581.58 594,-1581.58 266,-1581.58 266,-1581.58 260,-1581.58 254,-1575.58 254,-1569.58 254,-1569.58 254,-781.97 254,-781.97 254,-775.97 260,-769.97 266,-769.97" class="f-fmt s-fmt"/>
<text xml:space="preserve" text-anchor="middle" x="430" y="-1568.55" font-family="Helvetica,sans-Serif" font-size="9.50" class="t-fmt"> &#160;THE HASH CHAIN — one function, every log&#45;producing path goes through it &#160;</text>
</g>
<g id="clust4" class="cluster">

<path stroke-width="1.5" d="M431,-416.76C431,-416.76 614,-416.76 614,-416.76 620,-416.76 626,-422.76 626,-428.76 626,-428.76 626,-706.72 626,-706.72 626,-712.72 620,-718.72 614,-718.72 614,-718.72 431,-718.72 431,-718.72 425,-718.72 419,-712.72 419,-706.72 419,-706.72 419,-428.76 419,-428.76 419,-422.76 425,-416.76 431,-416.76" class="f-tra s-tra"/>
<text xml:space="preserve" text-anchor="middle" x="444.25" y="-705.7" font-family="Helvetica,sans-Serif" font-size="9.50" class="t-tra"> &#160;SEAL &#160;</text>
</g>
<g id="clust5" class="cluster">

<path stroke-width="1.5" d="M300,-8C300,-8 797,-8 797,-8 803,-8 809,-14 809,-20 809,-20 809,-344.51 809,-344.51 809,-350.51 803,-356.51 797,-356.51 797,-356.51 300,-356.51 300,-356.51 294,-356.51 288,-350.51 288,-344.51 288,-344.51 288,-20 288,-20 288,-14 294,-8 300,-8" class="f-ana s-ana"/>
<text xml:space="preserve" text-anchor="middle" x="404" y="-343.49" font-family="Helvetica,sans-Serif" font-size="9.50" class="t-ana"> &#160;VERIFICATION — server or browser, years later &#160;</text>
</g>

<g id="node1" class="node">
<title>ckpriv</title>
<path stroke-width="1.3" d="M182.33,-1954.1C182.33,-1954.1 71.67,-1954.1 71.67,-1954.1 65.67,-1954.1 59.67,-1948.1 59.67,-1942.1 59.67,-1942.1 59.67,-1923.89 59.67,-1923.89 59.67,-1917.89 65.67,-1911.89 71.67,-1911.89 71.67,-1911.89 182.33,-1911.89 182.33,-1911.89 188.33,-1911.89 194.33,-1917.89 194.33,-1923.89 194.33,-1923.89 194.33,-1942.1 194.33,-1942.1 194.33,-1948.1 188.33,-1954.1 182.33,-1954.1" class="f-uix s-uix"/>
<text xml:space="preserve" text-anchor="middle" x="127" y="-1938.6" font-family="Helvetica,sans-Serif" font-size="9.50" class="t-ink">course PRIVATE key</text>
<text xml:space="preserve" text-anchor="middle" x="127" y="-1928.85" font-family="Helvetica,sans-Serif" font-size="9.50" class="t-ink">held offline by staff —</text>
<text xml:space="preserve" text-anchor="middle" x="127" y="-1919.1" font-family="Helvetica,sans-Serif" font-size="9.50" class="t-ink">never on a server or in git</text>
</g>

<g id="node4" class="node">
<title>amf</title>
<polygon stroke-width="1.3" points="200.46,-1826.89 21.54,-1826.89 21.54,-1784.68 206.46,-1784.68 206.46,-1820.89 200.46,-1826.89" class="f-rec s-rec"/>
<polyline fill="none" stroke-width="1.3" points="200.46,-1826.89 200.46,-1820.89" class="s-rec"/>
<polyline fill="none" stroke-width="1.3" points="206.46,-1820.89 200.46,-1820.89" class="s-rec"/>
<text xml:space="preserve" text-anchor="middle" x="114" y="-1811.38" font-family="Helvetica,sans-Serif" font-size="9.50" class="t-ink">.provenance&#45;manifest</text>
<text xml:space="preserve" text-anchor="middle" x="114" y="-1801.63" font-family="Helvetica,sans-Serif" font-size="9.50" class="t-ink">assignment_id · semester · issued_at</text>
<text xml:space="preserve" text-anchor="middle" x="114" y="-1791.88" font-family="Helvetica,sans-Serif" font-size="9.50" class="t-ink">files_under_review · sig</text>
</g>

<g id="edge1" class="edge">

<path fill="none" stroke-width="1.15" d="M124.85,-1911.32C122.69,-1890.48 119.33,-1858.16 116.93,-1834.97" class="s-uix"/>
<polygon stroke-width="1.15" points="119.04,-1834.97 116.33,-1829.22 114.86,-1835.41 119.04,-1834.97" class="a-uix s-uix"/>
<text xml:space="preserve" text-anchor="middle" x="142.64" y="-1866.1" font-family="Helvetica,sans-Serif" font-size="8.20" class="t-hum">signs, offline</text>
</g>

<g id="node2" class="node">
<title>ckpub</title>
<path stroke-width="1.3" d="M334.21,-1954.1C334.21,-1954.1 249.79,-1954.1 249.79,-1954.1 243.79,-1954.1 237.79,-1948.1 237.79,-1942.1 237.79,-1942.1 237.79,-1923.89 237.79,-1923.89 237.79,-1917.89 243.79,-1911.89 249.79,-1911.89 249.79,-1911.89 334.21,-1911.89 334.21,-1911.89 340.21,-1911.89 346.21,-1917.89 346.21,-1923.89 346.21,-1923.89 346.21,-1942.1 346.21,-1942.1 346.21,-1948.1 340.21,-1954.1 334.21,-1954.1" class="f-uix s-uix"/>
<text xml:space="preserve" text-anchor="middle" x="292" y="-1938.6" font-family="Helvetica,sans-Serif" font-size="9.50" class="t-ink">course PUBLIC key</text>
<text xml:space="preserve" text-anchor="middle" x="292" y="-1928.85" font-family="Helvetica,sans-Serif" font-size="9.50" class="t-ink">compiled into every</text>
<text xml:space="preserve" text-anchor="middle" x="292" y="-1919.1" font-family="Helvetica,sans-Serif" font-size="9.50" class="t-ink">recorder build</text>
</g>

<g id="node5" class="node">
<title>averify</title>
<path stroke-width="1.3" d="M116.16,-1702.53C116.16,-1702.53 81.06,-1685.83 81.06,-1685.83 75.64,-1683.26 75.64,-1678.1 81.06,-1675.53 81.06,-1675.53 116.16,-1658.83 116.16,-1658.83 121.58,-1656.26 132.42,-1656.26 137.84,-1658.83 137.84,-1658.83 172.94,-1675.53 172.94,-1675.53 178.36,-1678.1 178.36,-1683.26 172.94,-1685.83 172.94,-1685.83 137.84,-1702.53 137.84,-1702.53 132.42,-1705.1 121.58,-1705.1 116.16,-1702.53" class="f-rec s-rec"/>
<text xml:space="preserve" text-anchor="middle" x="127" y="-1681.88" font-family="Helvetica,sans-Serif" font-size="9.00" class="t-ink">verify</text>
<text xml:space="preserve" text-anchor="middle" x="127" y="-1672.13" font-family="Helvetica,sans-Serif" font-size="9.00" class="t-ink">signature</text>
</g>

<g id="edge3" class="edge">

<path fill="none" stroke-width="1.15" d="M285.68,-1911.27C276.06,-1881.61 255.88,-1826.08 228,-1784.68 206.81,-1753.22 175.34,-1722.93 153.17,-1703.44" class="s-uix"/>
<polygon stroke-width="1.15" points="154.68,-1701.97 148.78,-1699.62 151.93,-1705.14 154.68,-1701.97" class="a-uix s-uix"/>
<text xml:space="preserve" text-anchor="middle" x="289.6" y="-1802.5" font-family="Helvetica,sans-Serif" font-size="8.20" class="t-hum">checks against</text>
</g>

<g id="node3" class="node">
<title>skey</title>
<path stroke-width="1.3" d="M537.09,-1951C537.09,-1951 400.92,-1951 400.92,-1951 394.92,-1951 388.92,-1945 388.92,-1939 388.92,-1939 388.92,-1927 388.92,-1927 388.92,-1921 394.92,-1915 400.92,-1915 400.92,-1915 537.09,-1915 537.09,-1915 543.09,-1915 549.09,-1921 549.09,-1927 549.09,-1927 549.09,-1939 549.09,-1939 549.09,-1945 543.09,-1951 537.09,-1951" class="f-uix s-uix"/>
<text xml:space="preserve" text-anchor="middle" x="469" y="-1933.72" font-family="Helvetica,sans-Serif" font-size="9.50" class="t-ink">session keypair</text>
<text xml:space="preserve" text-anchor="middle" x="469" y="-1923.97" font-family="Helvetica,sans-Serif" font-size="9.50" class="t-ink">generated fresh at session.start</text>
</g>

<g id="node6" class="node">
<title>bind</title>
<path stroke-width="1.3" d="M226.21,-1568.68C226.21,-1568.68 27.79,-1568.68 27.79,-1568.68 21.79,-1568.68 15.79,-1562.68 15.79,-1556.68 15.79,-1556.68 15.79,-1518.97 15.79,-1518.97 15.79,-1512.97 21.79,-1506.97 27.79,-1506.97 27.79,-1506.97 226.21,-1506.97 226.21,-1506.97 232.21,-1506.97 238.21,-1512.97 238.21,-1518.97 238.21,-1518.97 238.21,-1556.68 238.21,-1556.68 238.21,-1562.68 232.21,-1568.68 226.21,-1568.68" class="f-fmt s-fmt"/>
<text xml:space="preserve" text-anchor="middle" x="127" y="-1553.17" font-family="Helvetica,sans-Serif" font-size="9.50" class="t-ink">BIND (two mechanisms)</text>
<text xml:space="preserve" text-anchor="middle" x="127" y="-1543.42" font-family="Helvetica,sans-Serif" font-size="9.50" class="t-ink">(1) manifest sig copied into session.start,</text>
<text xml:space="preserve" text-anchor="middle" x="127" y="-1533.67" font-family="Helvetica,sans-Serif" font-size="9.50" class="t-ink">covered by the hash chain</text>
<text xml:space="preserve" text-anchor="middle" x="127" y="-1523.92" font-family="Helvetica,sans-Serif" font-size="9.50" class="t-ink">(2) session privkey AEAD&#45;wrapped under a key</text>
<text xml:space="preserve" text-anchor="middle" x="127" y="-1514.17" font-family="Helvetica,sans-Serif" font-size="9.50" class="t-ink">HKDF&#45;derived from that same manifest sig</text>
</g>

<g id="edge5" class="edge">

<path fill="none" stroke-width="1.15" d="M453.86,-1914.59C401.85,-1854.8 229.74,-1656.93 158.4,-1574.92" class="s-uix"/>
<polygon stroke-width="1.15" points="160.11,-1573.68 154.58,-1570.54 156.94,-1576.44 160.11,-1573.68" class="a-uix s-uix"/>
</g>

<g id="node13" class="node">
<title>e100</title>
<polygon stroke-width="2" points="533.71,-813.97 452.29,-813.97 452.29,-777.97 539.71,-777.97 539.71,-807.97 533.71,-813.97" class="f-fmt s-fmt"/>
<polyline fill="none" stroke-width="2" points="533.71,-813.97 533.71,-807.97" class="s-fmt"/>
<polyline fill="none" stroke-width="2" points="539.71,-807.97 533.71,-807.97" class="s-fmt"/>
<text xml:space="preserve" text-anchor="middle" x="496" y="-796.7" font-family="Helvetica,sans-Serif" font-size="9.50" class="t-ink">entry 100</text>
<text xml:space="preserve" text-anchor="middle" x="496" y="-786.95" font-family="Helvetica,sans-Serif" font-size="9.50" class="t-ink">CHECKPOINT</text>
</g>

<g id="edge13" class="edge">

<path fill="none" stroke-width="1.15" stroke-dasharray="5,2" d="M475.26,-1914.42C483.24,-1890.43 496,-1845.92 496,-1806.79 496,-1806.79 496,-1806.79 496,-907.97 496,-878.49 496,-844.61 496,-822.11" class="s-uix"/>
<polygon stroke-width="1.15" points="498.1,-822.4 496,-816.4 493.9,-822.4 498.1,-822.4" class="a-uix s-uix"/>
<text xml:space="preserve" text-anchor="middle" x="537.25" y="-1331.18" font-family="Helvetica,sans-Serif" font-size="8.20" class="t-hum">signs the checkpoint —</text>
<text xml:space="preserve" text-anchor="middle" x="537.25" y="-1322.18" font-family="Helvetica,sans-Serif" font-size="8.20" class="t-hum">bounds the blast radius</text>
<text xml:space="preserve" text-anchor="middle" x="537.25" y="-1313.18" font-family="Helvetica,sans-Serif" font-size="8.20" class="t-hum">of any tampering</text>
</g>

<g id="node15" class="node">
<title>bsig</title>
<polygon stroke-width="1.3" points="612.34,-573.76 471.67,-573.76 471.67,-537.76 618.34,-537.76 618.34,-567.76 612.34,-573.76" class="f-tra s-tra"/>
<polyline fill="none" stroke-width="1.3" points="612.34,-573.76 612.34,-567.76" class="s-tra"/>
<polyline fill="none" stroke-width="1.3" points="618.34,-567.76 612.34,-567.76" class="s-tra"/>
<text xml:space="preserve" text-anchor="middle" x="545" y="-556.49" font-family="Helvetica,sans-Serif" font-size="9.50" class="t-ink">manifest.sig</text>
<text xml:space="preserve" text-anchor="middle" x="545" y="-546.74" font-family="Helvetica,sans-Serif" font-size="9.50" class="t-ink">ed25519 over JCS(manifest)</text>
</g>

<g id="edge16" class="edge">

<path fill="none" stroke-width="1.15" stroke-dasharray="5,2" d="M542.76,-1914.4C595.43,-1896.94 657,-1864.24 657,-1806.79 657,-1806.79 657,-1806.79 657,-670.87 657,-629.36 618.79,-597.41 587,-578.01" class="s-uix"/>
<polygon stroke-width="1.15" points="588.47,-576.45 582.24,-575.19 586.33,-580.06 588.47,-576.45" class="a-uix s-uix"/>
<text xml:space="preserve" text-anchor="middle" x="666" y="-1192.18" font-family="Helvetica,sans-Serif" font-size="8.20" class="t-hum">signs</text>
</g>

<g id="edge2" class="edge">

<path fill="none" stroke-width="1.15" d="M116.18,-1784.18C118.18,-1765.2 121.19,-1736.71 123.53,-1714.58" class="s-edge"/>
<polygon stroke-width="1.15" points="125.6,-1714.96 124.14,-1708.78 121.42,-1714.52 125.6,-1714.96" class="a-edge s-edge"/>
</g>

<g id="edge4" class="edge">

<path fill="none" stroke-width="1.15" d="M127,-1653.19C127,-1631.61 127,-1600.88 127,-1576.71" class="s-rec"/>
<polygon stroke-width="1.15" points="129.1,-1576.85 127,-1570.85 124.9,-1576.85 129.1,-1576.85" class="a-rec s-rec"/>
<text xml:space="preserve" text-anchor="middle" x="134.88" y="-1607.89" font-family="Helvetica,sans-Serif" font-size="8.20" class="t-hum">valid</text>
</g>

<g id="node8" class="node">
<title>e0</title>
<polygon stroke-width="1.3" points="389.58,-1412.97 316.42,-1412.97 316.42,-1376.97 395.58,-1376.97 395.58,-1406.97 389.58,-1412.97" class="f-fmt s-fmt"/>
<polyline fill="none" stroke-width="1.3" points="389.58,-1412.97 389.58,-1406.97" class="s-fmt"/>
<polyline fill="none" stroke-width="1.3" points="395.58,-1406.97 389.58,-1406.97" class="s-fmt"/>
<text xml:space="preserve" text-anchor="middle" x="356" y="-1395.69" font-family="Helvetica,sans-Serif" font-size="9.50" class="t-ink">entry 0</text>
<text xml:space="preserve" text-anchor="middle" x="356" y="-1385.94" font-family="Helvetica,sans-Serif" font-size="9.50" class="t-ink">session.start</text>
</g>

<g id="edge6" class="edge">

<path fill="none" stroke-width="1.15" d="M167.08,-1506.33C190.31,-1489.21 220.43,-1467.95 248.5,-1450.97 268.72,-1438.74 291.97,-1426.62 311.67,-1416.88" class="s-fmt"/>
<polygon stroke-width="1.15" points="312.45,-1418.83 316.91,-1414.3 310.6,-1415.06 312.45,-1418.83" class="a-fmt s-fmt"/>
<text xml:space="preserve" text-anchor="middle" x="297.25" y="-1461.18" font-family="Helvetica,sans-Serif" font-size="8.20" class="t-hum">entry 0 carries manifest_sig</text>
<text xml:space="preserve" text-anchor="middle" x="297.25" y="-1452.18" font-family="Helvetica,sans-Serif" font-size="8.20" class="t-hum">+ the session pubkey</text>
</g>

<g id="node7" class="node">
<title>gen</title>
<path stroke-width="1.3" d="M407.96,-1555.83C407.96,-1555.83 304.04,-1555.83 304.04,-1555.83 298.04,-1555.83 292.04,-1549.83 292.04,-1543.83 292.04,-1543.83 292.04,-1531.83 292.04,-1531.83 292.04,-1525.83 298.04,-1519.83 304.04,-1519.83 304.04,-1519.83 407.96,-1519.83 407.96,-1519.83 413.96,-1519.83 419.96,-1525.83 419.96,-1531.83 419.96,-1531.83 419.96,-1543.83 419.96,-1543.83 419.96,-1549.83 413.96,-1555.83 407.96,-1555.83" class="f-hum s-hum"/>
<text xml:space="preserve" text-anchor="middle" x="356" y="-1538.55" font-family="Helvetica,sans-Serif" font-size="9.50" class="t-ink2">GENESIS_PREV_HASH</text>
<text xml:space="preserve" text-anchor="middle" x="356" y="-1528.8" font-family="Helvetica,sans-Serif" font-size="9.50" class="t-ink2">seq 0 only</text>
</g>

<g id="edge7" class="edge">

<path fill="none" stroke-width="1.15" stroke-dasharray="5,2" d="M356,-1519.27C356,-1494.46 356,-1449.03 356,-1420.78" class="s-hum"/>
<polygon stroke-width="1.15" points="358.1,-1421.04 356,-1415.04 353.9,-1421.04 358.1,-1421.04" class="a-hum s-hum"/>
<text xml:space="preserve" text-anchor="middle" x="374.75" y="-1456.68" font-family="Helvetica,sans-Serif" font-size="8.20" class="t-hum">prev_hash</text>
</g>

<g id="node9" class="node">
<title>e1</title>
<polygon stroke-width="1.3" points="387.46,-1273.97 328.54,-1273.97 328.54,-1237.97 393.46,-1237.97 393.46,-1267.97 387.46,-1273.97" class="f-fmt s-fmt"/>
<polyline fill="none" stroke-width="1.3" points="387.46,-1273.97 387.46,-1267.97" class="s-fmt"/>
<polyline fill="none" stroke-width="1.3" points="393.46,-1267.97 387.46,-1267.97" class="s-fmt"/>
<text xml:space="preserve" text-anchor="middle" x="361" y="-1256.69" font-family="Helvetica,sans-Serif" font-size="9.50" class="t-ink">entry 1</text>
<text xml:space="preserve" text-anchor="middle" x="361" y="-1246.94" font-family="Helvetica,sans-Serif" font-size="9.50" class="t-ink">doc.open</text>
</g>

<g id="edge8" class="edge">

<path fill="none" stroke-width="1.15" d="M356.64,-1376.34C357.52,-1352.4 359.08,-1309.46 360.08,-1282.13" class="s-fmt"/>
<polygon stroke-width="1.15" points="362.18,-1282.34 360.3,-1276.27 357.98,-1282.19 362.18,-1282.34" class="a-fmt s-fmt"/>
<text xml:space="preserve" text-anchor="middle" x="382.95" y="-1326.68" font-family="Helvetica,sans-Serif" font-size="8.20" class="t-hum">prev_hash =</text>
<text xml:space="preserve" text-anchor="middle" x="382.95" y="-1317.68" font-family="Helvetica,sans-Serif" font-size="8.20" class="t-hum">hash(entry 0)</text>
</g>

<g id="node10" class="node">
<title>e2</title>
<polygon stroke-width="1.3" points="416.33,-1152.97 347.67,-1152.97 347.67,-1116.97 422.33,-1116.97 422.33,-1146.97 416.33,-1152.97" class="f-fmt s-fmt"/>
<polyline fill="none" stroke-width="1.3" points="416.33,-1152.97 416.33,-1146.97" class="s-fmt"/>
<polyline fill="none" stroke-width="1.3" points="422.33,-1146.97 416.33,-1146.97" class="s-fmt"/>
<text xml:space="preserve" text-anchor="middle" x="385" y="-1135.69" font-family="Helvetica,sans-Serif" font-size="9.50" class="t-ink">entry 2</text>
<text xml:space="preserve" text-anchor="middle" x="385" y="-1125.94" font-family="Helvetica,sans-Serif" font-size="9.50" class="t-ink">doc.change</text>
</g>

<g id="edge9" class="edge">

<path fill="none" stroke-width="1.15" d="M364.54,-1237.41C368.62,-1217.2 375.34,-1183.84 379.97,-1160.94" class="s-fmt"/>
<polygon stroke-width="1.15" points="381.97,-1161.6 381.1,-1155.31 377.86,-1160.77 381.97,-1161.6" class="a-fmt s-fmt"/>
</g>

<g id="node11" class="node">
<title>edots</title>
<path stroke-width="1.3" d="M392.94,-1039.97C392.94,-1039.97 381.06,-1039.97 381.06,-1039.97 375.11,-1039.97 369.17,-1034.03 369.17,-1028.08 369.17,-1028.08 369.17,-1015.86 369.17,-1015.86 369.17,-1009.92 375.11,-1003.97 381.06,-1003.97 381.06,-1003.97 392.94,-1003.97 392.94,-1003.97 398.89,-1003.97 404.83,-1009.91 404.83,-1015.86 404.83,-1015.86 404.83,-1028.08 404.83,-1028.08 404.83,-1034.03 398.89,-1039.97 392.94,-1039.97" class="f-fmt s-fmt"/>
<text xml:space="preserve" text-anchor="middle" x="387" y="-1017.82" font-family="Helvetica,sans-Serif" font-size="9.50" class="t-hum">…</text>
</g>

<g id="edge10" class="edge">

<path fill="none" stroke-width="1.15" d="M385.31,-1116.63C385.64,-1098.24 386.17,-1069.04 386.55,-1048.13" class="s-fmt"/>
<polygon stroke-width="1.15" points="388.64,-1048.34 386.65,-1042.3 384.44,-1048.26 388.64,-1048.34" class="a-fmt s-fmt"/>
</g>

<g id="node12" class="node">
<title>e99</title>
<polygon stroke-width="1.3" points="421.71,-926.97 364.29,-926.97 364.29,-890.97 427.71,-890.97 427.71,-920.97 421.71,-926.97" class="f-fmt s-fmt"/>
<polyline fill="none" stroke-width="1.3" points="421.71,-926.97 421.71,-920.97" class="s-fmt"/>
<polyline fill="none" stroke-width="1.3" points="427.71,-920.97 421.71,-920.97" class="s-fmt"/>
<text xml:space="preserve" text-anchor="middle" x="396" y="-909.7" font-family="Helvetica,sans-Serif" font-size="9.50" class="t-ink">entry 99</text>
<text xml:space="preserve" text-anchor="middle" x="396" y="-899.95" font-family="Helvetica,sans-Serif" font-size="9.50" class="t-ink">doc.save</text>
</g>

<g id="edge11" class="edge">

<path fill="none" stroke-width="1.15" d="M388.41,-1003.63C389.9,-985.24 392.26,-956.04 393.96,-935.13" class="s-fmt"/>
<polygon stroke-width="1.15" points="396.04,-935.44 394.43,-929.29 391.86,-935.1 396.04,-935.44" class="a-fmt s-fmt"/>
</g>

<g id="edge12" class="edge">

<path fill="none" stroke-width="1.15" d="M411.62,-890.63C428.6,-871.79 455.81,-841.58 474.72,-820.59" class="s-fmt"/>
<polygon stroke-width="1.15" points="476.2,-822.08 478.66,-816.22 473.08,-819.27 476.2,-822.08" class="a-fmt s-fmt"/>
</g>

<g id="node14" class="node">
<title>bman</title>
<polygon stroke-width="1.3" points="572.59,-692.97 427.42,-692.97 427.42,-650.76 578.59,-650.76 578.59,-686.97 572.59,-692.97" class="f-tra s-tra"/>
<polyline fill="none" stroke-width="1.3" points="572.59,-692.97 572.59,-686.97" class="s-tra"/>
<polyline fill="none" stroke-width="1.3" points="578.59,-686.97 572.59,-686.97" class="s-tra"/>
<text xml:space="preserve" text-anchor="middle" x="503" y="-677.47" font-family="Helvetica,sans-Serif" font-size="9.50" class="t-ink">manifest.json</text>
<text xml:space="preserve" text-anchor="middle" x="503" y="-667.72" font-family="Helvetica,sans-Serif" font-size="9.50" class="t-ink">extension_hash + per&#45;session</text>
<text xml:space="preserve" text-anchor="middle" x="503" y="-657.97" font-family="Helvetica,sans-Serif" font-size="9.50" class="t-ink">slog_sha256 / meta_sha256</text>
</g>

<g id="edge14" class="edge">

<path fill="none" stroke-width="1.15" d="M497.02,-777.21C498.16,-757.25 500.04,-724.55 501.38,-701.08" class="s-tra"/>
<polygon stroke-width="1.15" points="503.47,-701.35 501.72,-695.24 499.28,-701.11 503.47,-701.35" class="a-tra s-tra"/>
<text xml:space="preserve" text-anchor="middle" x="512.25" y="-732.18" font-family="Helvetica,sans-Serif" font-size="8.20" class="t-hum">on seal</text>
</g>

<g id="edge15" class="edge">

<path fill="none" stroke-width="1.15" d="M510.61,-650.2C517.72,-630.87 528.36,-601.97 535.92,-581.43" class="s-edge"/>
<polygon stroke-width="1.15" points="537.85,-582.27 537.95,-575.91 533.91,-580.82 537.85,-582.27" class="a-edge s-edge"/>
</g>

<g id="node16" class="node">
<title>zip</title>
<polygon stroke-width="2" points="534.21,-460.76 467.79,-460.76 467.79,-424.76 540.21,-424.76 540.21,-454.76 534.21,-460.76" class="f-tra s-tra"/>
<polyline fill="none" stroke-width="2" points="534.21,-460.76 534.21,-454.76" class="s-tra"/>
<polyline fill="none" stroke-width="2" points="540.21,-454.76 534.21,-454.76" class="s-tra"/>
<text xml:space="preserve" text-anchor="middle" x="504" y="-438.61" font-family="Helvetica,sans-Serif" font-size="9.50" class="t-ink">bundle .zip</text>
</g>

<g id="edge17" class="edge">

<path fill="none" stroke-width="1.15" d="M485.73,-650.18C466.37,-624.44 439.04,-578.86 450,-537.76 456.93,-511.78 472.94,-485.53 485.74,-467.39" class="s-edge"/>
<polygon stroke-width="1.15" points="487.12,-469.07 488.92,-462.98 483.71,-466.62 487.12,-469.07" class="a-edge s-edge"/>
</g>

<g id="edge18" class="edge">

<path fill="none" stroke-width="1.15" d="M538.59,-537.42C531.78,-518.98 520.95,-489.66 513.23,-468.74" class="s-edge"/>
<polygon stroke-width="1.15" points="515.28,-468.25 511.24,-463.35 511.35,-469.71 515.28,-468.25" class="a-edge s-edge"/>
</g>

<g id="node17" class="node">
<title>vchain</title>
<path stroke-width="1.3" d="M397.83,-322.78C397.83,-322.78 308.17,-322.78 308.17,-322.78 302.17,-322.78 296.17,-316.78 296.17,-310.78 296.17,-310.78 296.17,-298.78 296.17,-298.78 296.17,-292.78 302.17,-286.78 308.17,-286.78 308.17,-286.78 397.83,-286.78 397.83,-286.78 403.83,-286.78 409.83,-292.78 409.83,-298.78 409.83,-298.78 409.83,-310.78 409.83,-310.78 409.83,-316.78 403.83,-322.78 397.83,-322.78" class="f-ana s-ana"/>
<text xml:space="preserve" text-anchor="middle" x="353" y="-305.51" font-family="Helvetica,sans-Serif" font-size="9.50" class="t-ink">walk the chain</text>
<text xml:space="preserve" text-anchor="middle" x="353" y="-295.76" font-family="Helvetica,sans-Serif" font-size="9.50" class="t-ink">recompute every link</text>
</g>

<g id="edge19" class="edge">

<path fill="none" stroke-width="1.15" d="M466.92,-428.35C445.34,-419.15 418.69,-405.26 399.5,-386.76 382.95,-370.81 370.48,-347.7 362.63,-330.24" class="s-ana"/>
<polygon stroke-width="1.15" points="364.56,-329.41 360.25,-324.74 360.71,-331.08 364.56,-329.41" class="a-ana s-ana"/>
<text xml:space="preserve" text-anchor="middle" x="446.75" y="-378.97" font-family="Helvetica,sans-Serif" font-size="8.20" class="t-hum">ingest, or a drag&#45;and&#45;drop</text>
<text xml:space="preserve" text-anchor="middle" x="446.75" y="-369.97" font-family="Helvetica,sans-Serif" font-size="8.20" class="t-hum">into /local</text>
</g>

<g id="node18" class="node">
<title>vsig</title>
<path stroke-width="1.3" d="M543.59,-322.78C543.59,-322.78 464.42,-322.78 464.42,-322.78 458.42,-322.78 452.42,-316.78 452.42,-310.78 452.42,-310.78 452.42,-298.78 452.42,-298.78 452.42,-292.78 458.42,-286.78 464.42,-286.78 464.42,-286.78 543.59,-286.78 543.59,-286.78 549.59,-286.78 555.59,-292.78 555.59,-298.78 555.59,-298.78 555.59,-310.78 555.59,-310.78 555.59,-316.78 549.59,-322.78 543.59,-322.78" class="f-ana s-ana"/>
<text xml:space="preserve" text-anchor="middle" x="504" y="-300.63" font-family="Helvetica,sans-Serif" font-size="9.50" class="t-ink">verify manifest.sig</text>
</g>

<g id="edge23" class="edge">

<path fill="none" stroke-width="1.15" d="M504,-423.98C504,-400.13 504,-357.66 504,-330.65" class="s-edge"/>
<polygon stroke-width="1.15" points="506.1,-330.87 504,-324.87 501.9,-330.87 506.1,-330.87" class="a-edge s-edge"/>
</g>

<g id="node19" class="node">
<title>vbind</title>
<path stroke-width="1.3" d="M789.46,-330.76C789.46,-330.76 610.54,-330.76 610.54,-330.76 604.54,-330.76 598.54,-324.76 598.54,-318.76 598.54,-318.76 598.54,-290.8 598.54,-290.8 598.54,-284.8 604.54,-278.8 610.54,-278.8 610.54,-278.8 789.46,-278.8 789.46,-278.8 795.46,-278.8 801.46,-284.8 801.46,-290.8 801.46,-290.8 801.46,-318.76 801.46,-318.76 801.46,-324.76 795.46,-330.76 789.46,-330.76" class="f-ana s-ana"/>
<text xml:space="preserve" text-anchor="middle" x="700" y="-315.26" font-family="Helvetica,sans-Serif" font-size="9.50" class="t-ink">verify session binding</text>
<text xml:space="preserve" text-anchor="middle" x="700" y="-305.51" font-family="Helvetica,sans-Serif" font-size="9.50" class="t-ink">all sessions share one manifest_sig</text>
<text xml:space="preserve" text-anchor="middle" x="700" y="-295.76" font-family="Helvetica,sans-Serif" font-size="9.50" class="t-ink">(session&#45;to&#45;session only — the stored</text>
<text xml:space="preserve" text-anchor="middle" x="700" y="-286.01" font-family="Helvetica,sans-Serif" font-size="9.50" class="t-ink">bundle carries no course&#45;key sig to check)</text>
</g>

<g id="edge24" class="edge">

<path fill="none" stroke-width="1.15" d="M529.62,-423.98C562.03,-401.5 618.29,-362.47 657.25,-335.44" class="s-edge"/>
<polygon stroke-width="1.15" points="658.18,-337.35 661.92,-332.2 655.79,-333.9 658.18,-337.35" class="a-edge s-edge"/>
</g>

<g id="node20" class="node">
<title>verdict</title>
<path stroke-width="1.3" d="M492.58,-198.11C492.58,-198.11 415.08,-173.09 415.08,-173.09 409.37,-171.24 409.37,-167.56 415.08,-165.71 415.08,-165.71 492.58,-140.69 492.58,-140.69 498.29,-138.84 509.71,-138.84 515.42,-140.69 515.42,-140.69 592.92,-165.71 592.92,-165.71 598.63,-167.56 598.63,-171.24 592.92,-173.09 592.92,-173.09 515.42,-198.11 515.42,-198.11 509.71,-199.96 498.29,-199.96 492.58,-198.11" class="f-panel s-ana"/>
<text xml:space="preserve" text-anchor="middle" x="504" y="-175.47" font-family="Helvetica,sans-Serif" font-size="9.00" class="t-ink">any link,</text>
<text xml:space="preserve" text-anchor="middle" x="504" y="-165.72" font-family="Helvetica,sans-Serif" font-size="9.00" class="t-ink">signature or binding</text>
<text xml:space="preserve" text-anchor="middle" x="504" y="-155.97" font-family="Helvetica,sans-Serif" font-size="9.00" class="t-ink">broken?</text>
</g>

<g id="edge20" class="edge">

<path fill="none" stroke-width="1.15" d="M372.74,-286.34C398.03,-264.01 442.17,-225.02 472.22,-198.48" class="s-edge"/>
<polygon stroke-width="1.15" points="473.24,-200.37 476.35,-194.82 470.46,-197.22 473.24,-200.37" class="a-edge s-edge"/>
</g>

<g id="edge21" class="edge">

<path fill="none" stroke-width="1.15" d="M504,-286.34C504,-267.08 504,-235.43 504,-210.06" class="s-edge"/>
<polygon stroke-width="1.15" points="506.1,-210.15 504,-204.15 501.9,-210.15 506.1,-210.15" class="a-edge s-edge"/>
</g>

<g id="edge22" class="edge">

<path fill="none" stroke-width="1.15" d="M662.67,-278.38C628.06,-254.83 576.81,-219.95 541.99,-196.25" class="s-edge"/>
<polygon stroke-width="1.15" points="543.27,-194.58 537.12,-192.94 540.9,-198.05 543.27,-194.58" class="a-edge s-edge"/>
</g>

<g id="node21" class="node">
<title>ok</title>
<path stroke-width="1.3" d="M455.33,-52C455.33,-52 404.67,-52 404.67,-52 398.67,-52 392.67,-46 392.67,-40 392.67,-40 392.67,-28 392.67,-28 392.67,-22 398.67,-16 404.67,-16 404.67,-16 455.33,-16 455.33,-16 461.33,-16 467.33,-22 467.33,-28 467.33,-28 467.33,-40 467.33,-40 467.33,-46 461.33,-52 455.33,-52" class="f-ana s-ana"/>
<text xml:space="preserve" text-anchor="middle" x="430" y="-34.73" font-family="Helvetica,sans-Serif" font-size="9.50" class="t-ink">valid</text>
<text xml:space="preserve" text-anchor="middle" x="430" y="-24.98" font-family="Helvetica,sans-Serif" font-size="9.50" class="t-ink">chain intact</text>
</g>

<g id="edge25" class="edge">

<path fill="none" stroke-width="1.15" d="M489.02,-141.4C475.65,-117.29 456.23,-82.29 443.37,-59.1" class="s-ana"/>
<polygon stroke-width="1.15" points="445.36,-58.35 440.61,-54.12 441.68,-60.39 445.36,-58.35" class="a-ana s-ana"/>
<text xml:space="preserve" text-anchor="middle" x="469.28" y="-91.21" font-family="Helvetica,sans-Serif" font-size="8.20" class="t-hum">no</text>
</g>

<g id="node22" class="node">
<title>bad</title>
<path stroke-width="1.3" d="M629.84,-52C629.84,-52 522.17,-52 522.17,-52 516.16,-52 510.17,-46 510.17,-40 510.17,-40 510.17,-28 510.17,-28 510.17,-22 516.17,-16 522.17,-16 522.17,-16 629.84,-16 629.84,-16 635.84,-16 641.84,-22 641.84,-28 641.84,-28 641.84,-40 641.84,-40 641.84,-46 635.84,-52 629.84,-52" class="f-bad s-bad"/>
<text xml:space="preserve" text-anchor="middle" x="576" y="-34.73" font-family="Helvetica,sans-Serif" font-size="9.50" class="t-ink">HIGH&#45;severity flag</text>
<text xml:space="preserve" text-anchor="middle" x="576" y="-24.98" font-family="Helvetica,sans-Serif" font-size="9.50" class="t-ink">with the exact failing seq</text>
</g>

<g id="edge26" class="edge">

<path fill="none" stroke-width="1.15" d="M518.74,-141.08C531.72,-117.04 550.43,-82.37 562.89,-59.28" class="s-bad"/>
<polygon stroke-width="1.15" points="564.72,-60.32 565.72,-54.05 561.02,-58.33 564.72,-60.32" class="a-bad s-bad"/>
<text xml:space="preserve" text-anchor="middle" x="550.31" y="-91.21" font-family="Helvetica,sans-Serif" font-size="8.20" class="t-hum">yes</text>
</g>
</g>
</svg>