<svg width="648pt" height="1524pt"
 viewBox="0.00 0.00 648.00 1524.00" xmlns="http://www.w3.org/2000/svg" xmlns:xlink="http://www.w3.org/1999/xlink">
<g id="graph0" class="graph" transform="scale(1 1) rotate(0) translate(4 1520.29)">
<title>chain</title>
<g id="clust1" class="cluster">
<title>cluster_keys</title>
<path stroke-width="1.5" d="M42,-1432.33C42,-1432.33 468,-1432.33 468,-1432.33 474,-1432.33 480,-1438.33 480,-1444.33 480,-1444.33 480,-1496.29 480,-1496.29 480,-1502.29 474,-1508.29 468,-1508.29 468,-1508.29 42,-1508.29 42,-1508.29 36,-1508.29 30,-1502.29 30,-1496.29 30,-1496.29 30,-1444.33 30,-1444.33 30,-1438.33 36,-1432.33 42,-1432.33" class="f-uix s-uix"/>
<text xml:space="preserve" text-anchor="middle" x="77" y="-1495.26" font-family="Helvetica,sans-Serif" font-size="9.50" class="t-uix"> &#160;KEY MATERIAL &#160;</text>
</g>
<g id="clust2" class="cluster">
<title>cluster_act</title>
<path stroke-width="1.5" d="M20,-1122.51C20,-1122.51 192,-1122.51 192,-1122.51 198,-1122.51 204,-1128.51 204,-1134.51 204,-1134.51 204,-1389.33 204,-1389.33 204,-1395.33 198,-1401.33 192,-1401.33 192,-1401.33 20,-1401.33 20,-1401.33 14,-1401.33 8,-1395.33 8,-1389.33 8,-1389.33 8,-1134.51 8,-1134.51 8,-1128.51 14,-1122.51 20,-1122.51" class="f-rec s-rec"/>
<text xml:space="preserve" text-anchor="middle" x="49.75" y="-1388.3" font-family="Helvetica,sans-Serif" font-size="9.50" class="t-rec"> &#160;ACTIVATION &#160;</text>
</g>
<g id="clust3" class="cluster">
<title>cluster_chain</title>
<path stroke-width="1.5" d="M224,-585.51C224,-585.51 552,-585.51 552,-585.51 558,-585.51 564,-591.51 564,-597.51 564,-597.51 564,-1183.37 564,-1183.37 564,-1189.37 558,-1195.37 552,-1195.37 552,-1195.37 224,-1195.37 224,-1195.37 218,-1195.37 212,-1189.37 212,-1183.37 212,-1183.37 212,-597.51 212,-597.51 212,-591.51 218,-585.51 224,-585.51" class="f-fmt s-fmt"/>
<text xml:space="preserve" text-anchor="middle" x="388" y="-1182.34" font-family="Helvetica,sans-Serif" font-size="9.50" class="t-fmt"> &#160;THE HASH CHAIN — one function, every log&#45;producing path goes through it &#160;</text>
</g>
<g id="clust4" class="cluster">
<title>cluster_seal</title>
<path stroke-width="1.5" d="M380,-316.55C380,-316.55 538,-316.55 538,-316.55 544,-316.55 550,-322.55 550,-328.55 550,-328.55 550,-542.51 550,-542.51 550,-548.51 544,-554.51 538,-554.51 538,-554.51 380,-554.51 380,-554.51 374,-554.51 368,-548.51 368,-542.51 368,-542.51 368,-328.55 368,-328.55 368,-322.55 374,-316.55 380,-316.55" class="f-tra s-tra"/>
<text xml:space="preserve" text-anchor="middle" x="393.25" y="-541.49" font-family="Helvetica,sans-Serif" font-size="9.50" class="t-tra"> &#160;SEAL &#160;</text>
</g>
<g id="clust5" class="cluster">
<title>cluster_ver</title>
<path stroke-width="1.5" d="M263,-8C263,-8 620,-8 620,-8 626,-8 632,-14 632,-20 632,-20 632,-264.55 632,-264.55 632,-270.55 626,-276.55 620,-276.55 620,-276.55 263,-276.55 263,-276.55 257,-276.55 251,-270.55 251,-264.55 251,-264.55 251,-20 251,-20 251,-14 257,-8 263,-8" class="f-ana s-ana"/>
<text xml:space="preserve" text-anchor="middle" x="367" y="-263.53" font-family="Helvetica,sans-Serif" font-size="9.50" class="t-ana"> &#160;VERIFICATION — server or browser, years later &#160;</text>
</g>

<g id="node1" class="node">
<title>ckpriv</title>
<path stroke-width="1.3" d="M156.18,-1482.54C156.18,-1482.54 49.82,-1482.54 49.82,-1482.54 43.82,-1482.54 37.83,-1476.54 37.83,-1470.54 37.83,-1470.54 37.83,-1452.33 37.83,-1452.33 37.83,-1446.33 43.83,-1440.33 49.83,-1440.33 49.83,-1440.33 156.18,-1440.33 156.18,-1440.33 162.18,-1440.33 168.18,-1446.33 168.18,-1452.33 168.18,-1452.33 168.18,-1470.54 168.18,-1470.54 168.18,-1476.54 162.18,-1482.54 156.18,-1482.54" class="f-uix s-uix"/>
<text xml:space="preserve" text-anchor="middle" x="103" y="-1467.03" font-family="Helvetica,sans-Serif" font-size="9.50" class="t-ink">course PRIVATE key</text>
<text xml:space="preserve" text-anchor="middle" x="103" y="-1457.28" font-family="Helvetica,sans-Serif" font-size="9.50" class="t-ink">held offline by staff —</text>
<text xml:space="preserve" text-anchor="middle" x="103" y="-1447.53" font-family="Helvetica,sans-Serif" font-size="9.50" class="t-ink">never on a server or in git</text>
</g>

<g id="node4" class="node">
<title>amf</title>
<polygon stroke-width="1.3" points="190.3,-1375.58 15.7,-1375.58 15.7,-1333.37 196.3,-1333.37 196.3,-1369.58 190.3,-1375.58" class="f-rec s-rec"/>
<polyline fill="none" stroke-width="1.3" points="190.3,-1375.58 190.3,-1369.58" class="s-rec"/>
<polyline fill="none" stroke-width="1.3" points="196.3,-1369.58 190.3,-1369.58" class="s-rec"/>
<text xml:space="preserve" text-anchor="middle" x="106" y="-1360.07" font-family="Helvetica,sans-Serif" font-size="9.50" class="t-ink">.provenance&#45;manifest</text>
<text xml:space="preserve" text-anchor="middle" x="106" y="-1350.32" font-family="Helvetica,sans-Serif" font-size="9.50" class="t-ink">assignment_id · semester · issued_at</text>
<text xml:space="preserve" text-anchor="middle" x="106" y="-1340.57" font-family="Helvetica,sans-Serif" font-size="9.50" class="t-ink">files_under_review · sig</text>
</g>

<g id="edge1" class="edge">
<title>ckpriv&#45;&gt;amf</title>
<path fill="none" stroke-width="1.15" d="M103.59,-1439.69C104.05,-1423.74 104.68,-1401.51 105.19,-1383.89" class="s-uix"/>
<polygon stroke-width="1.15" points="107.29,-1383.96 105.36,-1377.9 103.09,-1383.84 107.29,-1383.96" class="a-uix s-uix"/>
<text xml:space="preserve" text-anchor="middle" x="126.16" y="-1410.54" font-family="Helvetica,sans-Serif" font-size="8.20" class="t-hum">signs, offline</text>
</g>

<g id="node2" class="node">
<title>ckpub</title>
<path stroke-width="1.3" d="M282.05,-1482.54C282.05,-1482.54 201.95,-1482.54 201.95,-1482.54 195.95,-1482.54 189.95,-1476.54 189.95,-1470.54 189.95,-1470.54 189.95,-1452.33 189.95,-1452.33 189.95,-1446.33 195.95,-1440.33 201.95,-1440.33 201.95,-1440.33 282.05,-1440.33 282.05,-1440.33 288.05,-1440.33 294.05,-1446.33 294.05,-1452.33 294.05,-1452.33 294.05,-1470.54 294.05,-1470.54 294.05,-1476.54 288.05,-1482.54 282.05,-1482.54" class="f-uix s-uix"/>
<text xml:space="preserve" text-anchor="middle" x="242" y="-1467.03" font-family="Helvetica,sans-Serif" font-size="9.50" class="t-ink">course PUBLIC key</text>
<text xml:space="preserve" text-anchor="middle" x="242" y="-1457.28" font-family="Helvetica,sans-Serif" font-size="9.50" class="t-ink">compiled into every</text>
<text xml:space="preserve" text-anchor="middle" x="242" y="-1447.53" font-family="Helvetica,sans-Serif" font-size="9.50" class="t-ink">recorder build</text>
</g>

<g id="node5" class="node">
<title>averify</title>
<path stroke-width="1.3" d="M103.31,-1282.91C103.31,-1282.91 71.73,-1266.82 71.73,-1266.82 66.39,-1264.09 66.39,-1258.64 71.73,-1255.91 71.73,-1255.91 103.31,-1239.82 103.31,-1239.82 108.65,-1237.09 119.35,-1237.09 124.69,-1239.82 124.69,-1239.82 156.27,-1255.91 156.27,-1255.91 161.61,-1258.64 161.61,-1264.09 156.27,-1266.82 156.27,-1266.82 124.69,-1282.91 124.69,-1282.91 119.35,-1285.64 108.65,-1285.64 103.31,-1282.91" class="f-rec s-rec"/>
<text xml:space="preserve" text-anchor="middle" x="114" y="-1262.57" font-family="Helvetica,sans-Serif" font-size="9.00" class="t-ink">verify</text>
<text xml:space="preserve" text-anchor="middle" x="114" y="-1252.82" font-family="Helvetica,sans-Serif" font-size="9.00" class="t-ink">signature</text>
</g>

<g id="edge3" class="edge">
<title>ckpub&#45;&gt;averify</title>
<path fill="none" stroke-width="1.15" d="M240.38,-1439.83C237.44,-1413.21 229.28,-1366.36 207,-1333.37 191.62,-1310.58 166.5,-1292.04 146.25,-1279.63" class="s-uix"/>
<polygon stroke-width="1.15" points="147.58,-1277.98 141.36,-1276.71 145.43,-1281.58 147.58,-1277.98" class="a-uix s-uix"/>
<text xml:space="preserve" text-anchor="middle" x="259.77" y="-1351.18" font-family="Helvetica,sans-Serif" font-size="8.20" class="t-hum">checks against</text>
</g>

<g id="node3" class="node">
<title>skey</title>
<path stroke-width="1.3" d="M459.93,-1479.43C459.93,-1479.43 328.07,-1479.43 328.07,-1479.43 322.07,-1479.43 316.07,-1473.43 316.07,-1467.43 316.07,-1467.43 316.07,-1455.43 316.07,-1455.43 316.07,-1449.43 322.07,-1443.43 328.07,-1443.43 328.07,-1443.43 459.93,-1443.43 459.93,-1443.43 465.93,-1443.43 471.93,-1449.43 471.93,-1455.43 471.93,-1455.43 471.93,-1467.43 471.93,-1467.43 471.93,-1473.43 465.93,-1479.43 459.93,-1479.43" class="f-uix s-uix"/>
<text xml:space="preserve" text-anchor="middle" x="394" y="-1462.15" font-family="Helvetica,sans-Serif" font-size="9.50" class="t-ink">session keypair</text>
<text xml:space="preserve" text-anchor="middle" x="394" y="-1452.4" font-family="Helvetica,sans-Serif" font-size="9.50" class="t-ink">generated fresh at session.start</text>
</g>

<g id="node6" class="node">
<title>bind</title>
<path stroke-width="1.3" d="M184.43,-1172.72C184.43,-1172.72 43.57,-1172.72 43.57,-1172.72 37.57,-1172.72 31.58,-1166.72 31.58,-1160.72 31.58,-1160.72 31.58,-1142.51 31.58,-1142.51 31.58,-1136.51 37.58,-1130.51 43.58,-1130.51 43.58,-1130.51 184.43,-1130.51 184.43,-1130.51 190.43,-1130.51 196.43,-1136.51 196.43,-1142.51 196.43,-1142.51 196.43,-1160.72 196.43,-1160.72 196.43,-1166.72 190.43,-1172.72 184.43,-1172.72" class="f-fmt s-fmt"/>
<text xml:space="preserve" text-anchor="middle" x="114" y="-1157.21" font-family="Helvetica,sans-Serif" font-size="9.50" class="t-ink">BIND</text>
<text xml:space="preserve" text-anchor="middle" x="114" y="-1147.46" font-family="Helvetica,sans-Serif" font-size="9.50" class="t-ink">session pubkey is signed together</text>
<text xml:space="preserve" text-anchor="middle" x="114" y="-1137.71" font-family="Helvetica,sans-Serif" font-size="9.50" class="t-ink">with the manifest signature</text>
</g>

<g id="edge5" class="edge">
<title>skey&#45;&gt;bind</title>
<path fill="none" stroke-width="1.15" d="M380.83,-1443.16C361.7,-1418.31 324.82,-1371.31 291,-1333.37 239.96,-1276.1 176.17,-1212.84 140.79,-1178.42" class="s-uix"/>
<polygon stroke-width="1.15" points="142.38,-1177.04 136.62,-1174.36 139.46,-1180.05 142.38,-1177.04" class="a-uix s-uix"/>
</g>

<g id="node13" class="node">
<title>e100</title>
<polygon stroke-width="2" points="429.55,-629.51 352.45,-629.51 352.45,-593.51 435.55,-593.51 435.55,-623.51 429.55,-629.51" class="f-fmt s-fmt"/>
<polyline fill="none" stroke-width="2" points="429.55,-629.51 429.55,-623.51" class="s-fmt"/>
<polyline fill="none" stroke-width="2" points="435.55,-623.51 429.55,-623.51" class="s-fmt"/>
<text xml:space="preserve" text-anchor="middle" x="394" y="-612.24" font-family="Helvetica,sans-Serif" font-size="9.50" class="t-ink">entry 100</text>
<text xml:space="preserve" text-anchor="middle" x="394" y="-602.49" font-family="Helvetica,sans-Serif" font-size="9.50" class="t-ink">CHECKPOINT</text>
</g>

<g id="edge13" class="edge">
<title>skey&#45;&gt;e100</title>
<path fill="none" stroke-width="1.15" stroke-dasharray="5,2" d="M394,-1442.97C394,-1422.14 394,-1386.27 394,-1355.47 394,-1355.47 394,-1355.47 394,-691.51 394,-673.64 394,-653.5 394,-638.02" class="s-uix"/>
<polygon stroke-width="1.15" points="396.1,-638.13 394,-632.13 391.9,-638.13 396.1,-638.13" class="a-uix s-uix"/>
<text xml:space="preserve" text-anchor="middle" x="435.25" y="-1002.72" font-family="Helvetica,sans-Serif" font-size="8.20" class="t-hum">signs the checkpoint —</text>
<text xml:space="preserve" text-anchor="middle" x="435.25" y="-993.72" font-family="Helvetica,sans-Serif" font-size="8.20" class="t-hum">bounds the blast radius</text>
<text xml:space="preserve" text-anchor="middle" x="435.25" y="-984.72" font-family="Helvetica,sans-Serif" font-size="8.20" class="t-hum">of any tampering</text>
</g>

<g id="node15" class="node">
<title>bsig</title>
<polygon stroke-width="1.3" points="536.17,-441.55 399.82,-441.55 399.82,-405.55 542.17,-405.55 542.17,-435.55 536.17,-441.55" class="f-tra s-tra"/>
<polyline fill="none" stroke-width="1.3" points="536.17,-441.55 536.17,-435.55" class="s-tra"/>
<polyline fill="none" stroke-width="1.3" points="542.17,-435.55 536.17,-435.55" class="s-tra"/>
<text xml:space="preserve" text-anchor="middle" x="471" y="-424.28" font-family="Helvetica,sans-Serif" font-size="9.50" class="t-ink">manifest.sig</text>
<text xml:space="preserve" text-anchor="middle" x="471" y="-414.53" font-family="Helvetica,sans-Serif" font-size="9.50" class="t-ink">ed25519 over JCS(manifest)</text>
</g>

<g id="edge16" class="edge">
<title>skey&#45;&gt;bsig</title>
<path fill="none" stroke-width="1.15" stroke-dasharray="5,2" d="M472.47,-1450.78C528.5,-1438.99 594,-1412.92 594,-1355.47 594,-1355.47 594,-1355.47 594,-506.66 594,-477.31 569.47,-457.8 542.33,-445.19" class="s-uix"/>
<polygon stroke-width="1.15" points="543.31,-443.33 536.97,-442.83 541.62,-447.17 543.31,-443.33" class="a-uix s-uix"/>
<text xml:space="preserve" text-anchor="middle" x="603" y="-895.72" font-family="Helvetica,sans-Serif" font-size="8.20" class="t-hum">signs</text>
</g>

<g id="edge2" class="edge">
<title>amf&#45;&gt;averify</title>
<path fill="none" stroke-width="1.15" d="M107.82,-1332.8C108.79,-1321.75 110,-1307.9 111.1,-1295.4" class="s-edge"/>
<polygon stroke-width="1.15" points="113.18,-1295.73 111.61,-1289.57 108.99,-1295.36 113.18,-1295.73" class="a-edge s-edge"/>
</g>

<g id="edge4" class="edge">
<title>averify&#45;&gt;bind</title>
<path fill="none" stroke-width="1.15" d="M114,-1233.73C114,-1217.66 114,-1197.21 114,-1180.86" class="s-rec"/>
<polygon stroke-width="1.15" points="116.1,-1180.94 114,-1174.94 111.9,-1180.94 116.1,-1180.94" class="a-rec s-rec"/>
<text xml:space="preserve" text-anchor="middle" x="121.88" y="-1204.58" font-family="Helvetica,sans-Serif" font-size="8.20" class="t-hum">valid</text>
</g>

<g id="node8" class="node">
<title>e0</title>
<polygon stroke-width="1.3" points="321.43,-1068.51 252.57,-1068.51 252.57,-1032.51 327.43,-1032.51 327.43,-1062.51 321.43,-1068.51" class="f-fmt s-fmt"/>
<polyline fill="none" stroke-width="1.3" points="321.43,-1068.51 321.43,-1062.51" class="s-fmt"/>
<polyline fill="none" stroke-width="1.3" points="327.43,-1062.51 321.43,-1062.51" class="s-fmt"/>
<text xml:space="preserve" text-anchor="middle" x="290" y="-1051.23" font-family="Helvetica,sans-Serif" font-size="9.50" class="t-ink">entry 0</text>
<text xml:space="preserve" text-anchor="middle" x="290" y="-1041.48" font-family="Helvetica,sans-Serif" font-size="9.50" class="t-ink">session.start</text>
</g>

<g id="edge6" class="edge">
<title>bind&#45;&gt;e0</title>
<path fill="none" stroke-width="1.15" d="M150.47,-1130.08C180.23,-1113.32 222.15,-1089.72 252.26,-1072.76" class="s-fmt"/>
<polygon stroke-width="1.15" points="253.16,-1074.67 257.36,-1069.89 251.1,-1071.01 253.16,-1074.67" class="a-fmt s-fmt"/>
<text xml:space="preserve" text-anchor="middle" x="249.64" y="-1100.72" font-family="Helvetica,sans-Serif" font-size="8.20" class="t-hum">entry 0 carries</text>
<text xml:space="preserve" text-anchor="middle" x="249.64" y="-1091.72" font-family="Helvetica,sans-Serif" font-size="8.20" class="t-hum">the bound pubkey</text>
</g>

<g id="node7" class="node">
<title>gen</title>
<path stroke-width="1.3" d="M339.8,-1169.62C339.8,-1169.62 240.2,-1169.62 240.2,-1169.62 234.2,-1169.62 228.2,-1163.62 228.2,-1157.62 228.2,-1157.62 228.2,-1145.62 228.2,-1145.62 228.2,-1139.62 234.2,-1133.62 240.2,-1133.62 240.2,-1133.62 339.8,-1133.62 339.8,-1133.62 345.8,-1133.62 351.8,-1139.62 351.8,-1145.62 351.8,-1145.62 351.8,-1157.62 351.8,-1157.62 351.8,-1163.62 345.8,-1169.62 339.8,-1169.62" class="f-hum s-hum"/>
<text xml:space="preserve" text-anchor="middle" x="290" y="-1152.34" font-family="Helvetica,sans-Serif" font-size="9.50" class="t-ink2">GENESIS_PREV_HASH</text>
<text xml:space="preserve" text-anchor="middle" x="290" y="-1142.59" font-family="Helvetica,sans-Serif" font-size="9.50" class="t-ink2">seq 0 only</text>
</g>

<g id="edge7" class="edge">
<title>gen&#45;&gt;e0</title>
<path fill="none" stroke-width="1.15" stroke-dasharray="5,2" d="M290,-1133.35C290,-1117.67 290,-1094.36 290,-1076.62" class="s-hum"/>
<polygon stroke-width="1.15" points="292.1,-1076.65 290,-1070.65 287.9,-1076.65 292.1,-1076.65" class="a-hum s-hum"/>
<text xml:space="preserve" text-anchor="middle" x="308.75" y="-1096.22" font-family="Helvetica,sans-Serif" font-size="8.20" class="t-hum">prev_hash</text>
</g>

<g id="node9" class="node">
<title>e1</title>
<polygon stroke-width="1.3" points="334.3,-961.51 279.7,-961.51 279.7,-925.51 340.3,-925.51 340.3,-955.51 334.3,-961.51" class="f-fmt s-fmt"/>
<polyline fill="none" stroke-width="1.3" points="334.3,-961.51 334.3,-955.51" class="s-fmt"/>
<polyline fill="none" stroke-width="1.3" points="340.3,-955.51 334.3,-955.51" class="s-fmt"/>
<text xml:space="preserve" text-anchor="middle" x="310" y="-944.24" font-family="Helvetica,sans-Serif" font-size="9.50" class="t-ink">entry 1</text>
<text xml:space="preserve" text-anchor="middle" x="310" y="-934.49" font-family="Helvetica,sans-Serif" font-size="9.50" class="t-ink">doc.open</text>
</g>

<g id="edge8" class="edge">
<title>e0&#45;&gt;e1</title>
<path fill="none" stroke-width="1.15" d="M293.3,-1032.17C296.56,-1015.07 301.57,-988.76 305.25,-969.43" class="s-fmt"/>
<polygon stroke-width="1.15" points="307.31,-969.87 306.37,-963.58 303.18,-969.09 307.31,-969.87" class="a-fmt s-fmt"/>
<text xml:space="preserve" text-anchor="middle" x="326.38" y="-998.22" font-family="Helvetica,sans-Serif" font-size="8.20" class="t-hum">prev_hash =</text>
<text xml:space="preserve" text-anchor="middle" x="326.38" y="-989.22" font-family="Helvetica,sans-Serif" font-size="8.20" class="t-hum">hash(entry 0)</text>
</g>

<g id="node10" class="node">
<title>e2</title>
<polygon stroke-width="1.3" points="346.18,-872.51 281.82,-872.51 281.82,-836.51 352.18,-836.51 352.18,-866.51 346.18,-872.51" class="f-fmt s-fmt"/>
<polyline fill="none" stroke-width="1.3" points="346.18,-872.51 346.18,-866.51" class="s-fmt"/>
<polyline fill="none" stroke-width="1.3" points="352.18,-866.51 346.18,-866.51" class="s-fmt"/>
<text xml:space="preserve" text-anchor="middle" x="317" y="-855.24" font-family="Helvetica,sans-Serif" font-size="9.50" class="t-ink">entry 2</text>
<text xml:space="preserve" text-anchor="middle" x="317" y="-845.49" font-family="Helvetica,sans-Serif" font-size="9.50" class="t-ink">doc.change</text>
</g>

<g id="edge9" class="edge">
<title>e1&#45;&gt;e2</title>
<path fill="none" stroke-width="1.15" d="M311.42,-924.9C312.44,-912.17 313.84,-894.78 314.98,-880.59" class="s-fmt"/>
<polygon stroke-width="1.15" points="317.06,-880.97 315.45,-874.82 312.87,-880.64 317.06,-880.97" class="a-fmt s-fmt"/>
</g>

<g id="node11" class="node">
<title>edots</title>
<path stroke-width="1.3" d="M329.23,-791.51C329.23,-791.51 318.77,-791.51 318.77,-791.51 313.55,-791.51 308.32,-786.28 308.32,-781.06 308.32,-781.06 308.32,-765.96 308.32,-765.96 308.32,-760.74 313.55,-755.51 318.77,-755.51 318.77,-755.51 329.23,-755.51 329.23,-755.51 334.45,-755.51 339.68,-760.74 339.68,-765.96 339.68,-765.96 339.68,-781.06 339.68,-781.06 339.68,-786.28 334.45,-791.51 329.23,-791.51" class="f-fmt s-fmt"/>
<text xml:space="preserve" text-anchor="middle" x="324" y="-769.36" font-family="Helvetica,sans-Serif" font-size="9.50" class="t-hum">…</text>
</g>

<g id="edge10" class="edge">
<title>e2&#45;&gt;edots</title>
<path fill="none" stroke-width="1.15" d="M318.55,-835.98C319.51,-825.24 320.74,-811.32 321.79,-799.45" class="s-fmt"/>
<polygon stroke-width="1.15" points="323.86,-799.89 322.3,-793.73 319.68,-799.52 323.86,-799.89" class="a-fmt s-fmt"/>
</g>

<g id="node12" class="node">
<title>e99</title>
<polygon stroke-width="1.3" points="351.55,-710.51 298.45,-710.51 298.45,-674.51 357.55,-674.51 357.55,-704.51 351.55,-710.51" class="f-fmt s-fmt"/>
<polyline fill="none" stroke-width="1.3" points="351.55,-710.51 351.55,-704.51" class="s-fmt"/>
<polyline fill="none" stroke-width="1.3" points="357.55,-704.51 351.55,-704.51" class="s-fmt"/>
<text xml:space="preserve" text-anchor="middle" x="328" y="-693.24" font-family="Helvetica,sans-Serif" font-size="9.50" class="t-ink">entry 99</text>
<text xml:space="preserve" text-anchor="middle" x="328" y="-683.49" font-family="Helvetica,sans-Serif" font-size="9.50" class="t-ink">doc.save</text>
</g>

<g id="edge11" class="edge">
<title>edots&#45;&gt;e99</title>
<path fill="none" stroke-width="1.15" d="M324.89,-754.98C325.43,-744.24 326.14,-730.32 326.74,-718.45" class="s-fmt"/>
<polygon stroke-width="1.15" points="328.82,-718.83 327.03,-712.73 324.63,-718.62 328.82,-718.83" class="a-fmt s-fmt"/>
</g>

<g id="edge12" class="edge">
<title>e99&#45;&gt;e100</title>
<path fill="none" stroke-width="1.15" d="M342.65,-673.98C351.98,-662.8 364.19,-648.19 374.36,-636.02" class="s-fmt"/>
<polygon stroke-width="1.15" points="375.81,-637.55 378.05,-631.6 372.59,-634.86 375.81,-637.55" class="a-fmt s-fmt"/>
</g>

<g id="node14" class="node">
<title>bman</title>
<polygon stroke-width="1.3" points="516.42,-528.76 375.57,-528.76 375.57,-486.55 522.42,-486.55 522.42,-522.76 516.42,-528.76" class="f-tra s-tra"/>
<polyline fill="none" stroke-width="1.3" points="516.42,-528.76 516.42,-522.76" class="s-tra"/>
<polyline fill="none" stroke-width="1.3" points="522.42,-522.76 516.42,-522.76" class="s-tra"/>
<text xml:space="preserve" text-anchor="middle" x="449" y="-513.25" font-family="Helvetica,sans-Serif" font-size="9.50" class="t-ink">manifest.json</text>
<text xml:space="preserve" text-anchor="middle" x="449" y="-503.5" font-family="Helvetica,sans-Serif" font-size="9.50" class="t-ink">extension_hash + per&#45;session</text>
<text xml:space="preserve" text-anchor="middle" x="449" y="-493.75" font-family="Helvetica,sans-Serif" font-size="9.50" class="t-ink">slog_sha256 / meta_sha256</text>
</g>

<g id="edge14" class="edge">
<title>e100&#45;&gt;bman</title>
<path fill="none" stroke-width="1.15" d="M403.58,-592.77C412.08,-577.03 424.62,-553.81 434.37,-535.75" class="s-tra"/>
<polygon stroke-width="1.15" points="435.99,-537.16 437,-530.88 432.3,-535.16 435.99,-537.16" class="a-tra s-tra"/>
<text xml:space="preserve" text-anchor="middle" x="432.6" y="-563.72" font-family="Helvetica,sans-Serif" font-size="8.20" class="t-hum">on seal</text>
</g>

<g id="edge15" class="edge">
<title>bman&#45;&gt;bsig</title>
<path fill="none" stroke-width="1.15" d="M454.55,-485.94C457.54,-474.79 461.24,-460.97 464.38,-449.27" class="s-edge"/>
<polygon stroke-width="1.15" points="466.37,-449.95 465.89,-443.61 462.31,-448.86 466.37,-449.95" class="a-edge s-edge"/>
</g>

<g id="node16" class="node">
<title>zip</title>
<polygon stroke-width="2" points="468.05,-360.55 405.95,-360.55 405.95,-324.55 474.05,-324.55 474.05,-354.55 468.05,-360.55" class="f-tra s-tra"/>
<polyline fill="none" stroke-width="2" points="468.05,-360.55 468.05,-354.55" class="s-tra"/>
<polyline fill="none" stroke-width="2" points="474.05,-354.55 468.05,-354.55" class="s-tra"/>
<text xml:space="preserve" text-anchor="middle" x="440" y="-338.4" font-family="Helvetica,sans-Serif" font-size="9.50" class="t-ink">bundle .zip</text>
</g>

<g id="edge17" class="edge">
<title>bman&#45;&gt;zip</title>
<path fill="none" stroke-width="1.15" d="M422.5,-486.17C409.77,-474.62 395.82,-459.02 389,-441.55 383.18,-426.65 383.6,-420.61 389,-405.55 394.21,-391.03 404.45,-377.47 414.39,-366.76" class="s-edge"/>
<polygon stroke-width="1.15" points="415.68,-368.46 418.33,-362.68 412.65,-365.54 415.68,-368.46" class="a-edge s-edge"/>
</g>

<g id="edge18" class="edge">
<title>bsig&#45;&gt;zip</title>
<path fill="none" stroke-width="1.15" d="M464.12,-405.02C459.9,-394.25 454.42,-380.29 449.75,-368.4" class="s-edge"/>
<polygon stroke-width="1.15" points="451.75,-367.75 447.6,-362.93 447.84,-369.28 451.75,-367.75" class="a-edge s-edge"/>
</g>

<g id="node17" class="node">
<title>vchain</title>
<path stroke-width="1.3" d="M356.68,-250.8C356.68,-250.8 271.32,-250.8 271.32,-250.8 265.32,-250.8 259.32,-244.8 259.32,-238.8 259.32,-238.8 259.32,-226.8 259.32,-226.8 259.32,-220.8 265.32,-214.8 271.32,-214.8 271.32,-214.8 356.68,-214.8 356.68,-214.8 362.68,-214.8 368.68,-220.8 368.68,-226.8 368.68,-226.8 368.68,-238.8 368.68,-238.8 368.68,-244.8 362.68,-250.8 356.68,-250.8" class="f-ana s-ana"/>
<text xml:space="preserve" text-anchor="middle" x="314" y="-233.53" font-family="Helvetica,sans-Serif" font-size="9.50" class="t-ink">walk the chain</text>
<text xml:space="preserve" text-anchor="middle" x="314" y="-223.78" font-family="Helvetica,sans-Serif" font-size="9.50" class="t-ink">recompute every link</text>
</g>

<g id="edge19" class="edge">
<title>zip&#45;&gt;vchain</title>
<path fill="none" stroke-width="1.15" d="M405.21,-335.31C384.08,-329.89 357.9,-320.05 340.5,-302.55 328.67,-290.65 322.01,-272.91 318.32,-258.42" class="s-ana"/>
<polygon stroke-width="1.15" points="320.44,-258.26 317.04,-252.89 316.35,-259.21 320.44,-258.26" class="a-ana s-ana"/>
<text xml:space="preserve" text-anchor="middle" x="387.75" y="-294.76" font-family="Helvetica,sans-Serif" font-size="8.20" class="t-hum">ingest, or a drag&#45;and&#45;drop</text>
<text xml:space="preserve" text-anchor="middle" x="387.75" y="-285.76" font-family="Helvetica,sans-Serif" font-size="8.20" class="t-hum">into /local</text>
</g>

<g id="node18" class="node">
<title>vsig</title>
<path stroke-width="1.3" d="M477.43,-250.8C477.43,-250.8 402.57,-250.8 402.57,-250.8 396.57,-250.8 390.57,-244.8 390.57,-238.8 390.57,-238.8 390.57,-226.8 390.57,-226.8 390.57,-220.8 396.57,-214.8 402.57,-214.8 402.57,-214.8 477.43,-214.8 477.43,-214.8 483.43,-214.8 489.43,-220.8 489.43,-226.8 489.43,-226.8 489.43,-238.8 489.43,-238.8 489.43,-244.8 483.43,-250.8 477.43,-250.8" class="f-ana s-ana"/>
<text xml:space="preserve" text-anchor="middle" x="440" y="-228.65" font-family="Helvetica,sans-Serif" font-size="9.50" class="t-ink">verify manifest.sig</text>
</g>

<g id="edge23" class="edge">
<title>zip&#45;&gt;vsig</title>
<path fill="none" stroke-width="1.15" d="M440,-323.76C440,-306.03 440,-278.65 440,-258.75" class="s-edge"/>
<polygon stroke-width="1.15" points="442.1,-259 440,-253 437.9,-259 442.1,-259" class="a-edge s-edge"/>
</g>

<g id="node19" class="node">
<title>vbind</title>
<path stroke-width="1.3" d="M612.17,-250.8C612.17,-250.8 523.83,-250.8 523.83,-250.8 517.82,-250.8 511.82,-244.8 511.82,-238.8 511.82,-238.8 511.82,-226.8 511.82,-226.8 511.82,-220.8 517.82,-214.8 523.82,-214.8 523.82,-214.8 612.17,-214.8 612.17,-214.8 618.17,-214.8 624.17,-220.8 624.17,-226.8 624.17,-226.8 624.17,-238.8 624.17,-238.8 624.17,-244.8 618.17,-250.8 612.17,-250.8" class="f-ana s-ana"/>
<text xml:space="preserve" text-anchor="middle" x="568" y="-233.53" font-family="Helvetica,sans-Serif" font-size="9.50" class="t-ink">verify session binding</text>
<text xml:space="preserve" text-anchor="middle" x="568" y="-223.78" font-family="Helvetica,sans-Serif" font-size="9.50" class="t-ink">anti&#45;replay</text>
</g>

<g id="edge24" class="edge">
<title>zip&#45;&gt;vbind</title>
<path fill="none" stroke-width="1.15" d="M461.14,-323.76C483.13,-305.24 517.63,-276.21 541.44,-256.15" class="s-edge"/>
<polygon stroke-width="1.15" points="542.69,-257.85 545.93,-252.38 539.98,-254.64 542.69,-257.85" class="a-edge s-edge"/>
</g>

<g id="node20" class="node">
<title>verdict</title>
<path stroke-width="1.3" d="M428.63,-165.97C428.63,-165.97 355.06,-141.23 355.06,-141.23 349.37,-139.31 349.37,-135.49 355.06,-133.57 355.06,-133.57 428.63,-108.83 428.63,-108.83 434.31,-106.91 445.69,-106.91 451.37,-108.83 451.37,-108.83 524.94,-133.57 524.94,-133.57 530.63,-135.49 530.63,-139.31 524.94,-141.23 524.94,-141.23 451.37,-165.97 451.37,-165.97 445.69,-167.89 434.31,-167.89 428.63,-165.97" class="f-panel s-ana"/>
<text xml:space="preserve" text-anchor="middle" x="440" y="-143.47" font-family="Helvetica,sans-Serif" font-size="9.00" class="t-ink">any link,</text>
<text xml:space="preserve" text-anchor="middle" x="440" y="-133.72" font-family="Helvetica,sans-Serif" font-size="9.00" class="t-ink">signature or binding</text>
<text xml:space="preserve" text-anchor="middle" x="440" y="-123.98" font-family="Helvetica,sans-Serif" font-size="9.00" class="t-ink">broken?</text>
</g>

<g id="edge20" class="edge">
<title>vchain&#45;&gt;verdict</title>
<path fill="none" stroke-width="1.15" d="M337.7,-214.23C356.52,-200.28 383.12,-180.56 404.48,-164.73" class="s-edge"/>
<polygon stroke-width="1.15" points="405.67,-166.46 409.24,-161.2 403.17,-163.09 405.67,-166.46" class="a-edge s-edge"/>
</g>

<g id="edge21" class="edge">
<title>vsig&#45;&gt;verdict</title>
<path fill="none" stroke-width="1.15" d="M440,-214.23C440,-203.9 440,-190.39 440,-177.64" class="s-edge"/>
<polygon stroke-width="1.15" points="442.1,-178 440,-172 437.9,-178 442.1,-178" class="a-edge s-edge"/>
</g>

<g id="edge22" class="edge">
<title>vbind&#45;&gt;verdict</title>
<path fill="none" stroke-width="1.15" d="M543.92,-214.23C524.73,-200.22 497.55,-180.39 475.8,-164.53" class="s-edge"/>
<polygon stroke-width="1.15" points="477.32,-163.03 471.23,-161.19 474.84,-166.42 477.32,-163.03" class="a-edge s-edge"/>
</g>

<g id="node21" class="node">
<title>ok</title>
<path stroke-width="1.3" d="M412.18,-52C412.18,-52 365.82,-52 365.82,-52 359.82,-52 353.82,-46 353.82,-40 353.82,-40 353.82,-28 353.82,-28 353.82,-22 359.82,-16 365.82,-16 365.82,-16 412.18,-16 412.18,-16 418.18,-16 424.18,-22 424.18,-28 424.18,-28 424.18,-40 424.18,-40 424.18,-46 418.18,-52 412.18,-52" class="f-ana s-ana"/>
<text xml:space="preserve" text-anchor="middle" x="389" y="-34.73" font-family="Helvetica,sans-Serif" font-size="9.50" class="t-ink">valid</text>
<text xml:space="preserve" text-anchor="middle" x="389" y="-24.98" font-family="Helvetica,sans-Serif" font-size="9.50" class="t-ink">chain intact</text>
</g>

<g id="edge25" class="edge">
<title>verdict&#45;&gt;ok</title>
<path fill="none" stroke-width="1.15" d="M426.2,-108.96C418.37,-93.4 408.66,-74.1 401.13,-59.12" class="s-ana"/>
<polygon stroke-width="1.15" points="403.19,-58.54 398.62,-54.12 399.44,-60.43 403.19,-58.54" class="a-ana s-ana"/>
<text xml:space="preserve" text-anchor="middle" x="417.47" y="-75.21" font-family="Helvetica,sans-Serif" font-size="8.20" class="t-hum">no</text>
</g>

<g id="node22" class="node">
<title>bad</title>
<path stroke-width="1.3" d="M561.67,-52C561.67,-52 458.32,-52 458.32,-52 452.32,-52 446.32,-46 446.32,-40 446.32,-40 446.32,-28 446.32,-28 446.32,-22 452.32,-16 458.32,-16 458.32,-16 561.67,-16 561.67,-16 567.67,-16 573.67,-22 573.67,-28 573.67,-28 573.67,-40 573.67,-40 573.67,-46 567.67,-52 561.67,-52" class="f-bad s-bad"/>
<text xml:space="preserve" text-anchor="middle" x="510" y="-34.73" font-family="Helvetica,sans-Serif" font-size="9.50" class="t-ink">HIGH&#45;severity flag</text>
<text xml:space="preserve" text-anchor="middle" x="510" y="-24.98" font-family="Helvetica,sans-Serif" font-size="9.50" class="t-ink">with the exact failing seq</text>
</g>

<g id="edge26" class="edge">
<title>verdict&#45;&gt;bad</title>
<path fill="none" stroke-width="1.15" d="M457.85,-110.55C468.83,-94.63 482.82,-74.38 493.54,-58.85" class="s-bad"/>
<polygon stroke-width="1.15" points="495.25,-60.07 496.93,-53.94 491.79,-57.68 495.25,-60.07" class="a-bad s-bad"/>
<text xml:space="preserve" text-anchor="middle" x="487.27" y="-75.21" font-family="Helvetica,sans-Serif" font-size="8.20" class="t-hum">yes</text>
</g>
</g>
</svg>