<svg width="756pt" height="1551pt"
 viewBox="0.00 0.00 756.00 1551.00" xmlns="http://www.w3.org/2000/svg" xmlns:xlink="http://www.w3.org/1999/xlink">
<g id="graph0" class="graph" transform="scale(1 1) rotate(0) translate(4 1547.1)">
<title>chain</title>
<g id="clust1" class="cluster">
<title>cluster_keys</title>
<path stroke-width="1.5" d="M64,-1459.14C64,-1459.14 490,-1459.14 490,-1459.14 496,-1459.14 502,-1465.14 502,-1471.14 502,-1471.14 502,-1523.1 502,-1523.1 502,-1529.1 496,-1535.1 490,-1535.1 490,-1535.1 64,-1535.1 64,-1535.1 58,-1535.1 52,-1529.1 52,-1523.1 52,-1523.1 52,-1471.14 52,-1471.14 52,-1465.14 58,-1459.14 64,-1459.14" class="f-uix s-uix"/>
<text xml:space="preserve" text-anchor="middle" x="99" y="-1522.08" font-family="Helvetica,sans-Serif" font-size="9.50" class="t-uix"> &#160;KEY MATERIAL &#160;</text>
</g>
<g id="clust2" class="cluster">
<title>cluster_act</title>
<path stroke-width="1.5" d="M20,-1138.47C20,-1138.47 230,-1138.47 230,-1138.47 236,-1138.47 242,-1144.47 242,-1150.47 242,-1150.47 242,-1416.14 242,-1416.14 242,-1422.14 236,-1428.14 230,-1428.14 230,-1428.14 20,-1428.14 20,-1428.14 14,-1428.14 8,-1422.14 8,-1416.14 8,-1416.14 8,-1150.47 8,-1150.47 8,-1144.47 14,-1138.47 20,-1138.47" class="f-rec s-rec"/>
<text xml:space="preserve" text-anchor="middle" x="49.75" y="-1415.12" font-family="Helvetica,sans-Serif" font-size="9.50" class="t-rec"> &#160;ACTIVATION &#160;</text>
</g>
<g id="clust3" class="cluster">
<title>cluster_chain</title>
<path stroke-width="1.5" d="M262,-601.47C262,-601.47 590,-601.47 590,-601.47 596,-601.47 602,-607.47 602,-613.47 602,-613.47 602,-1209.08 602,-1209.08 602,-1215.08 596,-1221.08 590,-1221.08 590,-1221.08 262,-1221.08 262,-1221.08 256,-1221.08 250,-1215.08 250,-1209.08 250,-1209.08 250,-613.47 250,-613.47 250,-607.47 256,-601.47 262,-601.47" class="f-fmt s-fmt"/>
<text xml:space="preserve" text-anchor="middle" x="426" y="-1208.05" font-family="Helvetica,sans-Serif" font-size="9.50" class="t-fmt"> &#160;THE HASH CHAIN — one function, every log&#45;producing path goes through it &#160;</text>
</g>
<g id="clust4" class="cluster">
<title>cluster_seal</title>
<path stroke-width="1.5" d="M402,-332.51C402,-332.51 560,-332.51 560,-332.51 566,-332.51 572,-338.51 572,-344.51 572,-344.51 572,-558.47 572,-558.47 572,-564.47 566,-570.47 560,-570.47 560,-570.47 402,-570.47 402,-570.47 396,-570.47 390,-564.47 390,-558.47 390,-558.47 390,-344.51 390,-344.51 390,-338.51 396,-332.51 402,-332.51" class="f-tra s-tra"/>
<text xml:space="preserve" text-anchor="middle" x="415.25" y="-557.45" font-family="Helvetica,sans-Serif" font-size="9.50" class="t-tra"> &#160;SEAL &#160;</text>
</g>
<g id="clust5" class="cluster">
<title>cluster_ver</title>
<path stroke-width="1.5" d="M285,-8C285,-8 728,-8 728,-8 734,-8 740,-14 740,-20 740,-20 740,-280.51 740,-280.51 740,-286.51 734,-292.51 728,-292.51 728,-292.51 285,-292.51 285,-292.51 279,-292.51 273,-286.51 273,-280.51 273,-280.51 273,-20 273,-20 273,-14 279,-8 285,-8" class="f-ana s-ana"/>
<text xml:space="preserve" text-anchor="middle" x="389" y="-279.49" font-family="Helvetica,sans-Serif" font-size="9.50" class="t-ana"> &#160;VERIFICATION — server or browser, years later &#160;</text>
</g>

<g id="node1" class="node">
<title>ckpriv</title>
<path stroke-width="1.3" d="M178.18,-1509.35C178.18,-1509.35 71.82,-1509.35 71.82,-1509.35 65.82,-1509.35 59.83,-1503.35 59.83,-1497.35 59.83,-1497.35 59.83,-1479.14 59.83,-1479.14 59.83,-1473.14 65.83,-1467.14 71.83,-1467.14 71.83,-1467.14 178.18,-1467.14 178.18,-1467.14 184.18,-1467.14 190.18,-1473.14 190.18,-1479.14 190.18,-1479.14 190.18,-1497.35 190.18,-1497.35 190.18,-1503.35 184.18,-1509.35 178.18,-1509.35" class="f-uix s-uix"/>
<text xml:space="preserve" text-anchor="middle" x="125" y="-1493.85" font-family="Helvetica,sans-Serif" font-size="9.50" class="t-ink">course PRIVATE key</text>
<text xml:space="preserve" text-anchor="middle" x="125" y="-1484.1" font-family="Helvetica,sans-Serif" font-size="9.50" class="t-ink">held offline by staff —</text>
<text xml:space="preserve" text-anchor="middle" x="125" y="-1474.35" font-family="Helvetica,sans-Serif" font-size="9.50" class="t-ink">never on a server or in git</text>
</g>

<g id="node4" class="node">
<title>amf</title>
<polygon stroke-width="1.3" points="209.3,-1402.39 34.7,-1402.39 34.7,-1360.18 215.3,-1360.18 215.3,-1396.39 209.3,-1402.39" class="f-rec s-rec"/>
<polyline fill="none" stroke-width="1.3" points="209.3,-1402.39 209.3,-1396.39" class="s-rec"/>
<polyline fill="none" stroke-width="1.3" points="215.3,-1396.39 209.3,-1396.39" class="s-rec"/>
<text xml:space="preserve" text-anchor="middle" x="125" y="-1386.88" font-family="Helvetica,sans-Serif" font-size="9.50" class="t-ink">.provenance&#45;manifest</text>
<text xml:space="preserve" text-anchor="middle" x="125" y="-1377.13" font-family="Helvetica,sans-Serif" font-size="9.50" class="t-ink">assignment_id · semester · issued_at</text>
<text xml:space="preserve" text-anchor="middle" x="125" y="-1367.38" font-family="Helvetica,sans-Serif" font-size="9.50" class="t-ink">files_under_review · sig</text>
</g>

<g id="edge1" class="edge">
<title>ckpriv&#45;&gt;amf</title>
<path fill="none" stroke-width="1.15" d="M125,-1466.51C125,-1450.55 125,-1428.32 125,-1410.71" class="s-uix"/>
<polygon stroke-width="1.15" points="127.1,-1410.72 125,-1404.72 122.9,-1410.72 127.1,-1410.72" class="a-uix s-uix"/>
<text xml:space="preserve" text-anchor="middle" x="146.75" y="-1437.35" font-family="Helvetica,sans-Serif" font-size="8.20" class="t-hum">signs, offline</text>
</g>

<g id="node2" class="node">
<title>ckpub</title>
<path stroke-width="1.3" d="M304.05,-1509.35C304.05,-1509.35 223.95,-1509.35 223.95,-1509.35 217.95,-1509.35 211.95,-1503.35 211.95,-1497.35 211.95,-1497.35 211.95,-1479.14 211.95,-1479.14 211.95,-1473.14 217.95,-1467.14 223.95,-1467.14 223.95,-1467.14 304.05,-1467.14 304.05,-1467.14 310.05,-1467.14 316.05,-1473.14 316.05,-1479.14 316.05,-1479.14 316.05,-1497.35 316.05,-1497.35 316.05,-1503.35 310.05,-1509.35 304.05,-1509.35" class="f-uix s-uix"/>
<text xml:space="preserve" text-anchor="middle" x="264" y="-1493.85" font-family="Helvetica,sans-Serif" font-size="9.50" class="t-ink">course PUBLIC key</text>
<text xml:space="preserve" text-anchor="middle" x="264" y="-1484.1" font-family="Helvetica,sans-Serif" font-size="9.50" class="t-ink">compiled into every</text>
<text xml:space="preserve" text-anchor="middle" x="264" y="-1474.35" font-family="Helvetica,sans-Serif" font-size="9.50" class="t-ink">recorder build</text>
</g>

<g id="node5" class="node">
<title>averify</title>
<path stroke-width="1.3" d="M114.31,-1309.73C114.31,-1309.73 82.73,-1293.63 82.73,-1293.63 77.39,-1290.91 77.39,-1285.45 82.73,-1282.73 82.73,-1282.73 114.31,-1266.63 114.31,-1266.63 119.65,-1263.91 130.35,-1263.91 135.69,-1266.63 135.69,-1266.63 167.27,-1282.73 167.27,-1282.73 172.61,-1285.45 172.61,-1290.91 167.27,-1293.63 167.27,-1293.63 135.69,-1309.73 135.69,-1309.73 130.35,-1312.45 119.65,-1312.45 114.31,-1309.73" class="f-rec s-rec"/>
<text xml:space="preserve" text-anchor="middle" x="125" y="-1289.38" font-family="Helvetica,sans-Serif" font-size="9.00" class="t-ink">verify</text>
<text xml:space="preserve" text-anchor="middle" x="125" y="-1279.63" font-family="Helvetica,sans-Serif" font-size="9.00" class="t-ink">signature</text>
</g>

<g id="edge3" class="edge">
<title>ckpub&#45;&gt;averify</title>
<path fill="none" stroke-width="1.15" d="M262.01,-1466.49C258.56,-1439.7 249.42,-1392.69 226,-1360.18 208.74,-1336.22 180.81,-1317.49 158.69,-1305.3" class="s-uix"/>
<polygon stroke-width="1.15" points="159.85,-1303.53 153.57,-1302.55 157.86,-1307.24 159.85,-1303.53" class="a-uix s-uix"/>
<text xml:space="preserve" text-anchor="middle" x="280.6" y="-1378" font-family="Helvetica,sans-Serif" font-size="8.20" class="t-hum">checks against</text>
</g>

<g id="node3" class="node">
<title>skey</title>
<path stroke-width="1.3" d="M481.93,-1506.25C481.93,-1506.25 350.07,-1506.25 350.07,-1506.25 344.07,-1506.25 338.07,-1500.25 338.07,-1494.25 338.07,-1494.25 338.07,-1482.25 338.07,-1482.25 338.07,-1476.25 344.07,-1470.25 350.07,-1470.25 350.07,-1470.25 481.93,-1470.25 481.93,-1470.25 487.93,-1470.25 493.93,-1476.25 493.93,-1482.25 493.93,-1482.25 493.93,-1494.25 493.93,-1494.25 493.93,-1500.25 487.93,-1506.25 481.93,-1506.25" class="f-uix s-uix"/>
<text xml:space="preserve" text-anchor="middle" x="416" y="-1488.97" font-family="Helvetica,sans-Serif" font-size="9.50" class="t-ink">session keypair</text>
<text xml:space="preserve" text-anchor="middle" x="416" y="-1479.22" font-family="Helvetica,sans-Serif" font-size="9.50" class="t-ink">generated fresh at session.start</text>
</g>

<g id="node6" class="node">
<title>bind</title>
<path stroke-width="1.3" d="M222.05,-1208.18C222.05,-1208.18 27.95,-1208.18 27.95,-1208.18 21.95,-1208.18 15.95,-1202.18 15.95,-1196.18 15.95,-1196.18 15.95,-1158.47 15.95,-1158.47 15.95,-1152.47 21.95,-1146.47 27.95,-1146.47 27.95,-1146.47 222.05,-1146.47 222.05,-1146.47 228.05,-1146.47 234.05,-1152.47 234.05,-1158.47 234.05,-1158.47 234.05,-1196.18 234.05,-1196.18 234.05,-1202.18 228.05,-1208.18 222.05,-1208.18" class="f-fmt s-fmt"/>
<text xml:space="preserve" text-anchor="middle" x="125" y="-1192.67" font-family="Helvetica,sans-Serif" font-size="9.50" class="t-ink">BIND (two mechanisms)</text>
<text xml:space="preserve" text-anchor="middle" x="125" y="-1182.92" font-family="Helvetica,sans-Serif" font-size="9.50" class="t-ink">(1) manifest sig copied into session.start,</text>
<text xml:space="preserve" text-anchor="middle" x="125" y="-1173.17" font-family="Helvetica,sans-Serif" font-size="9.50" class="t-ink">covered by the hash chain</text>
<text xml:space="preserve" text-anchor="middle" x="125" y="-1163.42" font-family="Helvetica,sans-Serif" font-size="9.50" class="t-ink">(2) session privkey AEAD&#45;wrapped under a key</text>
<text xml:space="preserve" text-anchor="middle" x="125" y="-1153.67" font-family="Helvetica,sans-Serif" font-size="9.50" class="t-ink">HKDF&#45;derived from that same manifest sig</text>
</g>

<g id="edge5" class="edge">
<title>skey&#45;&gt;bind</title>
<path fill="none" stroke-width="1.15" d="M402.63,-1469.91C383.2,-1444.98 345.68,-1397.88 311,-1360.18 262.19,-1307.11 201.92,-1249.51 163.47,-1213.66" class="s-uix"/>
<polygon stroke-width="1.15" points="165.06,-1212.27 159.23,-1209.72 162.19,-1215.35 165.06,-1212.27" class="a-uix s-uix"/>
</g>

<g id="node13" class="node">
<title>e100</title>
<polygon stroke-width="2" points="451.55,-645.47 374.45,-645.47 374.45,-609.47 457.55,-609.47 457.55,-639.47 451.55,-645.47" class="f-fmt s-fmt"/>
<polyline fill="none" stroke-width="2" points="451.55,-645.47 451.55,-639.47" class="s-fmt"/>
<polyline fill="none" stroke-width="2" points="457.55,-639.47 451.55,-639.47" class="s-fmt"/>
<text xml:space="preserve" text-anchor="middle" x="416" y="-628.2" font-family="Helvetica,sans-Serif" font-size="9.50" class="t-ink">entry 100</text>
<text xml:space="preserve" text-anchor="middle" x="416" y="-618.45" font-family="Helvetica,sans-Serif" font-size="9.50" class="t-ink">CHECKPOINT</text>
</g>

<g id="edge13" class="edge">
<title>skey&#45;&gt;e100</title>
<path fill="none" stroke-width="1.15" stroke-dasharray="5,2" d="M416,-1469.79C416,-1448.96 416,-1413.08 416,-1382.29 416,-1382.29 416,-1382.29 416,-707.47 416,-689.6 416,-669.46 416,-653.98" class="s-uix"/>
<polygon stroke-width="1.15" points="418.1,-654.09 416,-648.09 413.9,-654.09 418.1,-654.09" class="a-uix s-uix"/>
<text xml:space="preserve" text-anchor="middle" x="457.25" y="-1018.68" font-family="Helvetica,sans-Serif" font-size="8.20" class="t-hum">signs the checkpoint —</text>
<text xml:space="preserve" text-anchor="middle" x="457.25" y="-1009.68" font-family="Helvetica,sans-Serif" font-size="8.20" class="t-hum">bounds the blast radius</text>
<text xml:space="preserve" text-anchor="middle" x="457.25" y="-1000.68" font-family="Helvetica,sans-Serif" font-size="8.20" class="t-hum">of any tampering</text>
</g>

<g id="node15" class="node">
<title>bsig</title>
<polygon stroke-width="1.3" points="558.17,-457.51 421.82,-457.51 421.82,-421.51 564.17,-421.51 564.17,-451.51 558.17,-457.51" class="f-tra s-tra"/>
<polyline fill="none" stroke-width="1.3" points="558.17,-457.51 558.17,-451.51" class="s-tra"/>
<polyline fill="none" stroke-width="1.3" points="564.17,-451.51 558.17,-451.51" class="s-tra"/>
<text xml:space="preserve" text-anchor="middle" x="493" y="-440.24" font-family="Helvetica,sans-Serif" font-size="9.50" class="t-ink">manifest.sig</text>
<text xml:space="preserve" text-anchor="middle" x="493" y="-430.49" font-family="Helvetica,sans-Serif" font-size="9.50" class="t-ink">ed25519 over JCS(manifest)</text>
</g>

<g id="edge16" class="edge">
<title>skey&#45;&gt;bsig</title>
<path fill="none" stroke-width="1.15" stroke-dasharray="5,2" d="M494.29,-1480.68C556.1,-1470.7 632,-1445.55 632,-1382.29 632,-1382.29 632,-1382.29 632,-522.62 632,-489.91 603.13,-469.97 571.7,-457.94" class="s-uix"/>
<polygon stroke-width="1.15" points="572.53,-456.01 566.17,-455.94 571.1,-459.95 572.53,-456.01" class="a-uix s-uix"/>
<text xml:space="preserve" text-anchor="middle" x="641" y="-911.68" font-family="Helvetica,sans-Serif" font-size="8.20" class="t-hum">signs</text>
</g>

<g id="edge2" class="edge">
<title>amf&#45;&gt;averify</title>
<path fill="none" stroke-width="1.15" d="M125,-1359.61C125,-1348.83 125,-1335.37 125,-1323.1" class="s-edge"/>
<polygon stroke-width="1.15" points="127.1,-1323.4 125,-1317.4 122.9,-1323.4 127.1,-1323.4" class="a-edge s-edge"/>
</g>

<g id="edge4" class="edge">
<title>averify&#45;&gt;bind</title>
<path fill="none" stroke-width="1.15" d="M125,-1260.55C125,-1247.15 125,-1230.68 125,-1216.01" class="s-rec"/>
<polygon stroke-width="1.15" points="127.1,-1216.26 125,-1210.26 122.9,-1216.26 127.1,-1216.26" class="a-rec s-rec"/>
<text xml:space="preserve" text-anchor="middle" x="132.88" y="-1231.39" font-family="Helvetica,sans-Serif" font-size="8.20" class="t-hum">valid</text>
</g>

<g id="node8" class="node">
<title>e0</title>
<polygon stroke-width="1.3" points="351.43,-1084.47 282.57,-1084.47 282.57,-1048.47 357.43,-1048.47 357.43,-1078.47 351.43,-1084.47" class="f-fmt s-fmt"/>
<polyline fill="none" stroke-width="1.3" points="351.43,-1084.47 351.43,-1078.47" class="s-fmt"/>
<polyline fill="none" stroke-width="1.3" points="357.43,-1078.47 351.43,-1078.47" class="s-fmt"/>
<text xml:space="preserve" text-anchor="middle" x="320" y="-1067.19" font-family="Helvetica,sans-Serif" font-size="9.50" class="t-ink">entry 0</text>
<text xml:space="preserve" text-anchor="middle" x="320" y="-1057.44" font-family="Helvetica,sans-Serif" font-size="9.50" class="t-ink">session.start</text>
</g>

<g id="edge6" class="edge">
<title>bind&#45;&gt;e0</title>
<path fill="none" stroke-width="1.15" d="M160.28,-1145.94C176.89,-1132.64 197.42,-1117.57 217.5,-1106.47 235.59,-1096.46 256.78,-1087.93 275.18,-1081.42" class="s-fmt"/>
<polygon stroke-width="1.15" points="275.72,-1083.45 280.7,-1079.5 274.34,-1079.49 275.72,-1083.45" class="a-fmt s-fmt"/>
<text xml:space="preserve" text-anchor="middle" x="266.25" y="-1116.68" font-family="Helvetica,sans-Serif" font-size="8.20" class="t-hum">entry 0 carries manifest_sig</text>
<text xml:space="preserve" text-anchor="middle" x="266.25" y="-1107.68" font-family="Helvetica,sans-Serif" font-size="8.20" class="t-hum">+ the session pubkey</text>
</g>

<g id="node7" class="node">
<title>gen</title>
<path stroke-width="1.3" d="M369.8,-1195.33C369.8,-1195.33 270.2,-1195.33 270.2,-1195.33 264.2,-1195.33 258.2,-1189.33 258.2,-1183.33 258.2,-1183.33 258.2,-1171.33 258.2,-1171.33 258.2,-1165.33 264.2,-1159.33 270.2,-1159.33 270.2,-1159.33 369.8,-1159.33 369.8,-1159.33 375.8,-1159.33 381.8,-1165.33 381.8,-1171.33 381.8,-1171.33 381.8,-1183.33 381.8,-1183.33 381.8,-1189.33 375.8,-1195.33 369.8,-1195.33" class="f-hum s-hum"/>
<text xml:space="preserve" text-anchor="middle" x="320" y="-1178.05" font-family="Helvetica,sans-Serif" font-size="9.50" class="t-ink2">GENESIS_PREV_HASH</text>
<text xml:space="preserve" text-anchor="middle" x="320" y="-1168.3" font-family="Helvetica,sans-Serif" font-size="9.50" class="t-ink2">seq 0 only</text>
</g>

<g id="edge7" class="edge">
<title>gen&#45;&gt;e0</title>
<path fill="none" stroke-width="1.15" stroke-dasharray="5,2" d="M320,-1158.84C320,-1140.9 320,-1112.84 320,-1092.55" class="s-hum"/>
<polygon stroke-width="1.15" points="322.1,-1092.66 320,-1086.66 317.9,-1092.66 322.1,-1092.66" class="a-hum s-hum"/>
<text xml:space="preserve" text-anchor="middle" x="338.75" y="-1112.18" font-family="Helvetica,sans-Serif" font-size="8.20" class="t-hum">prev_hash</text>
</g>

<g id="node9" class="node">
<title>e1</title>
<polygon stroke-width="1.3" points="348.3,-977.47 293.7,-977.47 293.7,-941.47 354.3,-941.47 354.3,-971.47 348.3,-977.47" class="f-fmt s-fmt"/>
<polyline fill="none" stroke-width="1.3" points="348.3,-977.47 348.3,-971.47" class="s-fmt"/>
<polyline fill="none" stroke-width="1.3" points="354.3,-971.47 348.3,-971.47" class="s-fmt"/>
<text xml:space="preserve" text-anchor="middle" x="324" y="-960.2" font-family="Helvetica,sans-Serif" font-size="9.50" class="t-ink">entry 1</text>
<text xml:space="preserve" text-anchor="middle" x="324" y="-950.45" font-family="Helvetica,sans-Serif" font-size="9.50" class="t-ink">doc.open</text>
</g>

<g id="edge8" class="edge">
<title>e0&#45;&gt;e1</title>
<path fill="none" stroke-width="1.15" d="M320.66,-1048.13C321.31,-1031.03 322.31,-1004.72 323.05,-985.39" class="s-fmt"/>
<polygon stroke-width="1.15" points="325.14,-985.65 323.27,-979.57 320.95,-985.49 325.14,-985.65" class="a-fmt s-fmt"/>
<text xml:space="preserve" text-anchor="middle" x="346.48" y="-1014.18" font-family="Helvetica,sans-Serif" font-size="8.20" class="t-hum">prev_hash =</text>
<text xml:space="preserve" text-anchor="middle" x="346.48" y="-1005.18" font-family="Helvetica,sans-Serif" font-size="8.20" class="t-hum">hash(entry 0)</text>
</g>

<g id="node10" class="node">
<title>e2</title>
<polygon stroke-width="1.3" points="369.18,-888.47 304.82,-888.47 304.82,-852.47 375.18,-852.47 375.18,-882.47 369.18,-888.47" class="f-fmt s-fmt"/>
<polyline fill="none" stroke-width="1.3" points="369.18,-888.47 369.18,-882.47" class="s-fmt"/>
<polyline fill="none" stroke-width="1.3" points="375.18,-882.47 369.18,-882.47" class="s-fmt"/>
<text xml:space="preserve" text-anchor="middle" x="340" y="-871.2" font-family="Helvetica,sans-Serif" font-size="9.50" class="t-ink">entry 2</text>
<text xml:space="preserve" text-anchor="middle" x="340" y="-861.45" font-family="Helvetica,sans-Serif" font-size="9.50" class="t-ink">doc.change</text>
</g>

<g id="edge9" class="edge">
<title>e1&#45;&gt;e2</title>
<path fill="none" stroke-width="1.15" d="M327.24,-940.86C329.58,-928.13 332.78,-910.74 335.39,-896.55" class="s-fmt"/>
<polygon stroke-width="1.15" points="337.43,-897.04 336.45,-890.76 333.3,-896.28 337.43,-897.04" class="a-fmt s-fmt"/>
</g>

<g id="node11" class="node">
<title>edots</title>
<path stroke-width="1.3" d="M347.23,-807.47C347.23,-807.47 336.77,-807.47 336.77,-807.47 331.55,-807.47 326.32,-802.25 326.32,-797.02 326.32,-797.02 326.32,-781.92 326.32,-781.92 326.32,-776.7 331.55,-771.47 336.77,-771.47 336.77,-771.47 347.23,-771.47 347.23,-771.47 352.45,-771.47 357.68,-776.7 357.68,-781.92 357.68,-781.92 357.68,-797.02 357.68,-797.02 357.68,-802.25 352.45,-807.47 347.23,-807.47" class="f-fmt s-fmt"/>
<text xml:space="preserve" text-anchor="middle" x="342" y="-785.32" font-family="Helvetica,sans-Serif" font-size="9.50" class="t-hum">…</text>
</g>

<g id="edge10" class="edge">
<title>e2&#45;&gt;edots</title>
<path fill="none" stroke-width="1.15" d="M340.44,-851.94C340.72,-841.2 341.07,-827.28 341.37,-815.41" class="s-fmt"/>
<polygon stroke-width="1.15" points="343.46,-815.74 341.51,-809.69 339.26,-815.64 343.46,-815.74" class="a-fmt s-fmt"/>
</g>

<g id="node12" class="node">
<title>e99</title>
<polygon stroke-width="1.3" points="372.55,-726.47 319.45,-726.47 319.45,-690.47 378.55,-690.47 378.55,-720.47 372.55,-726.47" class="f-fmt s-fmt"/>
<polyline fill="none" stroke-width="1.3" points="372.55,-726.47 372.55,-720.47" class="s-fmt"/>
<polyline fill="none" stroke-width="1.3" points="378.55,-720.47 372.55,-720.47" class="s-fmt"/>
<text xml:space="preserve" text-anchor="middle" x="349" y="-709.2" font-family="Helvetica,sans-Serif" font-size="9.50" class="t-ink">entry 99</text>
<text xml:space="preserve" text-anchor="middle" x="349" y="-699.45" font-family="Helvetica,sans-Serif" font-size="9.50" class="t-ink">doc.save</text>
</g>

<g id="edge11" class="edge">
<title>edots&#45;&gt;e99</title>
<path fill="none" stroke-width="1.15" d="M343.55,-770.94C344.51,-760.2 345.74,-746.28 346.79,-734.41" class="s-fmt"/>
<polygon stroke-width="1.15" points="348.86,-734.85 347.3,-728.69 344.68,-734.48 348.86,-734.85" class="a-fmt s-fmt"/>
</g>

<g id="edge12" class="edge">
<title>e99&#45;&gt;e100</title>
<path fill="none" stroke-width="1.15" d="M363.87,-689.94C373.34,-678.76 385.74,-664.15 396.06,-651.98" class="s-fmt"/>
<polygon stroke-width="1.15" points="397.54,-653.49 399.81,-647.55 394.33,-650.77 397.54,-653.49" class="a-fmt s-fmt"/>
</g>

<g id="node14" class="node">
<title>bman</title>
<polygon stroke-width="1.3" points="538.42,-544.72 397.57,-544.72 397.57,-502.51 544.42,-502.51 544.42,-538.72 538.42,-544.72" class="f-tra s-tra"/>
<polyline fill="none" stroke-width="1.3" points="538.42,-544.72 538.42,-538.72" class="s-tra"/>
<polyline fill="none" stroke-width="1.3" points="544.42,-538.72 538.42,-538.72" class="s-tra"/>
<text xml:space="preserve" text-anchor="middle" x="471" y="-529.22" font-family="Helvetica,sans-Serif" font-size="9.50" class="t-ink">manifest.json</text>
<text xml:space="preserve" text-anchor="middle" x="471" y="-519.47" font-family="Helvetica,sans-Serif" font-size="9.50" class="t-ink">extension_hash + per&#45;session</text>
<text xml:space="preserve" text-anchor="middle" x="471" y="-509.72" font-family="Helvetica,sans-Serif" font-size="9.50" class="t-ink">slog_sha256 / meta_sha256</text>
</g>

<g id="edge14" class="edge">
<title>e100&#45;&gt;bman</title>
<path fill="none" stroke-width="1.15" d="M425.58,-608.73C434.08,-592.99 446.62,-569.77 456.37,-551.71" class="s-tra"/>
<polygon stroke-width="1.15" points="457.99,-553.12 459,-546.84 454.3,-551.12 457.99,-553.12" class="a-tra s-tra"/>
<text xml:space="preserve" text-anchor="middle" x="454.6" y="-579.68" font-family="Helvetica,sans-Serif" font-size="8.20" class="t-hum">on seal</text>
</g>

<g id="edge15" class="edge">
<title>bman&#45;&gt;bsig</title>
<path fill="none" stroke-width="1.15" d="M476.55,-501.9C479.54,-490.75 483.24,-476.93 486.38,-465.23" class="s-edge"/>
<polygon stroke-width="1.15" points="488.37,-465.91 487.89,-459.57 484.31,-464.82 488.37,-465.91" class="a-edge s-edge"/>
</g>

<g id="node16" class="node">
<title>zip</title>
<polygon stroke-width="2" points="490.05,-376.51 427.95,-376.51 427.95,-340.51 496.05,-340.51 496.05,-370.51 490.05,-376.51" class="f-tra s-tra"/>
<polyline fill="none" stroke-width="2" points="490.05,-376.51 490.05,-370.51" class="s-tra"/>
<polyline fill="none" stroke-width="2" points="496.05,-370.51 490.05,-370.51" class="s-tra"/>
<text xml:space="preserve" text-anchor="middle" x="462" y="-354.36" font-family="Helvetica,sans-Serif" font-size="9.50" class="t-ink">bundle .zip</text>
</g>

<g id="edge17" class="edge">
<title>bman&#45;&gt;zip</title>
<path fill="none" stroke-width="1.15" d="M444.5,-502.13C431.77,-490.58 417.82,-474.98 411,-457.51 405.18,-442.61 405.6,-436.57 411,-421.51 416.21,-406.99 426.45,-393.43 436.39,-382.72" class="s-edge"/>
<polygon stroke-width="1.15" points="437.68,-384.42 440.33,-378.64 434.65,-381.5 437.68,-384.42" class="a-edge s-edge"/>
</g>

<g id="edge18" class="edge">
<title>bsig&#45;&gt;zip</title>
<path fill="none" stroke-width="1.15" d="M486.12,-420.98C481.9,-410.21 476.42,-396.25 471.75,-384.36" class="s-edge"/>
<polygon stroke-width="1.15" points="473.75,-383.71 469.6,-378.89 469.84,-385.24 473.75,-383.71" class="a-edge s-edge"/>
</g>

<g id="node17" class="node">
<title>vchain</title>
<path stroke-width="1.3" d="M378.68,-258.78C378.68,-258.78 293.32,-258.78 293.32,-258.78 287.32,-258.78 281.32,-252.78 281.32,-246.78 281.32,-246.78 281.32,-234.78 281.32,-234.78 281.32,-228.78 287.32,-222.78 293.32,-222.78 293.32,-222.78 378.68,-222.78 378.68,-222.78 384.68,-222.78 390.68,-228.78 390.68,-234.78 390.68,-234.78 390.68,-246.78 390.68,-246.78 390.68,-252.78 384.68,-258.78 378.68,-258.78" class="f-ana s-ana"/>
<text xml:space="preserve" text-anchor="middle" x="336" y="-241.51" font-family="Helvetica,sans-Serif" font-size="9.50" class="t-ink">walk the chain</text>
<text xml:space="preserve" text-anchor="middle" x="336" y="-231.76" font-family="Helvetica,sans-Serif" font-size="9.50" class="t-ink">recompute every link</text>
</g>

<g id="edge19" class="edge">
<title>zip&#45;&gt;vchain</title>
<path fill="none" stroke-width="1.15" d="M427,-351.48C405.78,-346.14 379.59,-336.31 362.5,-318.51 348.96,-304.4 342.31,-283.05 339.06,-266.45" class="s-ana"/>
<polygon stroke-width="1.15" points="341.2,-266.46 338.1,-260.91 337.06,-267.18 341.2,-266.46" class="a-ana s-ana"/>
<text xml:space="preserve" text-anchor="middle" x="409.75" y="-310.72" font-family="Helvetica,sans-Serif" font-size="8.20" class="t-hum">ingest, or a drag&#45;and&#45;drop</text>
<text xml:space="preserve" text-anchor="middle" x="409.75" y="-301.72" font-family="Helvetica,sans-Serif" font-size="8.20" class="t-hum">into /local</text>
</g>

<g id="node18" class="node">
<title>vsig</title>
<path stroke-width="1.3" d="M499.43,-258.78C499.43,-258.78 424.57,-258.78 424.57,-258.78 418.57,-258.78 412.57,-252.78 412.57,-246.78 412.57,-246.78 412.57,-234.78 412.57,-234.78 412.57,-228.78 418.57,-222.78 424.57,-222.78 424.57,-222.78 499.43,-222.78 499.43,-222.78 505.43,-222.78 511.43,-228.78 511.43,-234.78 511.43,-234.78 511.43,-246.78 511.43,-246.78 511.43,-252.78 505.43,-258.78 499.43,-258.78" class="f-ana s-ana"/>
<text xml:space="preserve" text-anchor="middle" x="462" y="-236.63" font-family="Helvetica,sans-Serif" font-size="9.50" class="t-ink">verify manifest.sig</text>
</g>

<g id="edge23" class="edge">
<title>zip&#45;&gt;vsig</title>
<path fill="none" stroke-width="1.15" d="M462,-339.68C462,-320.14 462,-288.66 462,-266.69" class="s-edge"/>
<polygon stroke-width="1.15" points="464.1,-266.8 462,-260.8 459.9,-266.8 464.1,-266.8" class="a-edge s-edge"/>
</g>

<g id="node19" class="node">
<title>vbind</title>
<path stroke-width="1.3" d="M720.3,-266.76C720.3,-266.76 545.7,-266.76 545.7,-266.76 539.7,-266.76 533.7,-260.76 533.7,-254.76 533.7,-254.76 533.7,-226.8 533.7,-226.8 533.7,-220.8 539.7,-214.8 545.7,-214.8 545.7,-214.8 720.3,-214.8 720.3,-214.8 726.3,-214.8 732.3,-220.8 732.3,-226.8 732.3,-226.8 732.3,-254.76 732.3,-254.76 732.3,-260.76 726.3,-266.76 720.3,-266.76" class="f-ana s-ana"/>
<text xml:space="preserve" text-anchor="middle" x="633" y="-251.26" font-family="Helvetica,sans-Serif" font-size="9.50" class="t-ink">verify session binding</text>
<text xml:space="preserve" text-anchor="middle" x="633" y="-241.51" font-family="Helvetica,sans-Serif" font-size="9.50" class="t-ink">all sessions share one manifest_sig</text>
<text xml:space="preserve" text-anchor="middle" x="633" y="-231.76" font-family="Helvetica,sans-Serif" font-size="9.50" class="t-ink">(session&#45;to&#45;session only — the stored</text>
<text xml:space="preserve" text-anchor="middle" x="633" y="-222.01" font-family="Helvetica,sans-Serif" font-size="9.50" class="t-ink">bundle carries no course&#45;key sig to check)</text>
</g>

<g id="edge24" class="edge">
<title>zip&#45;&gt;vbind</title>
<path fill="none" stroke-width="1.15" d="M488.34,-339.68C515.13,-321.55 557.12,-293.14 588.97,-271.58" class="s-edge"/>
<polygon stroke-width="1.15" points="589.96,-273.44 593.75,-268.34 587.61,-269.96 589.96,-273.44" class="a-edge s-edge"/>
</g>

<g id="node20" class="node">
<title>verdict</title>
<path stroke-width="1.3" d="M450.63,-165.97C450.63,-165.97 377.06,-141.23 377.06,-141.23 371.37,-139.31 371.37,-135.49 377.06,-133.57 377.06,-133.57 450.63,-108.83 450.63,-108.83 456.31,-106.91 467.69,-106.91 473.37,-108.83 473.37,-108.83 546.94,-133.57 546.94,-133.57 552.63,-135.49 552.63,-139.31 546.94,-141.23 546.94,-141.23 473.37,-165.97 473.37,-165.97 467.69,-167.89 456.31,-167.89 450.63,-165.97" class="f-panel s-ana"/>
<text xml:space="preserve" text-anchor="middle" x="462" y="-143.47" font-family="Helvetica,sans-Serif" font-size="9.00" class="t-ink">any link,</text>
<text xml:space="preserve" text-anchor="middle" x="462" y="-133.72" font-family="Helvetica,sans-Serif" font-size="9.00" class="t-ink">signature or binding</text>
<text xml:space="preserve" text-anchor="middle" x="462" y="-123.98" font-family="Helvetica,sans-Serif" font-size="9.00" class="t-ink">broken?</text>
</g>

<g id="edge20" class="edge">
<title>vchain&#45;&gt;verdict</title>
<path fill="none" stroke-width="1.15" d="M357.66,-222.35C377.04,-206.76 405.76,-183.65 428.16,-165.63" class="s-edge"/>
<polygon stroke-width="1.15" points="429.29,-167.41 432.65,-162.02 426.66,-164.14 429.29,-167.41" class="a-edge s-edge"/>
</g>

<g id="edge21" class="edge">
<title>vsig&#45;&gt;verdict</title>
<path fill="none" stroke-width="1.15" d="M462,-222.58C462,-210.35 462,-193.4 462,-177.92" class="s-edge"/>
<polygon stroke-width="1.15" points="464.1,-178.2 462,-172.2 459.9,-178.2 464.1,-178.2" class="a-edge s-edge"/>
</g>

<g id="edge22" class="edge">
<title>vbind&#45;&gt;verdict</title>
<path fill="none" stroke-width="1.15" d="M589.85,-214.2C563.22,-198.41 529.25,-178.27 503.02,-162.72" class="s-edge"/>
<polygon stroke-width="1.15" points="504.26,-161.01 498.02,-159.76 502.11,-164.62 504.26,-161.01" class="a-edge s-edge"/>
</g>

<g id="node21" class="node">
<title>ok</title>
<path stroke-width="1.3" d="M434.18,-52C434.18,-52 387.82,-52 387.82,-52 381.82,-52 375.82,-46 375.82,-40 375.82,-40 375.82,-28 375.82,-28 375.82,-22 381.82,-16 387.82,-16 387.82,-16 434.18,-16 434.18,-16 440.18,-16 446.18,-22 446.18,-28 446.18,-28 446.18,-40 446.18,-40 446.18,-46 440.18,-52 434.18,-52" class="f-ana s-ana"/>
<text xml:space="preserve" text-anchor="middle" x="411" y="-34.73" font-family="Helvetica,sans-Serif" font-size="9.50" class="t-ink">valid</text>
<text xml:space="preserve" text-anchor="middle" x="411" y="-24.98" font-family="Helvetica,sans-Serif" font-size="9.50" class="t-ink">chain intact</text>
</g>

<g id="edge25" class="edge">
<title>verdict&#45;&gt;ok</title>
<path fill="none" stroke-width="1.15" d="M448.2,-108.96C440.37,-93.4 430.66,-74.1 423.13,-59.12" class="s-ana"/>
<polygon stroke-width="1.15" points="425.19,-58.54 420.62,-54.12 421.44,-60.43 425.19,-58.54" class="a-ana s-ana"/>
<text xml:space="preserve" text-anchor="middle" x="439.47" y="-75.21" font-family="Helvetica,sans-Serif" font-size="8.20" class="t-hum">no</text>
</g>

<g id="node22" class="node">
<title>bad</title>
<path stroke-width="1.3" d="M583.67,-52C583.67,-52 480.32,-52 480.32,-52 474.32,-52 468.32,-46 468.32,-40 468.32,-40 468.32,-28 468.32,-28 468.32,-22 474.32,-16 480.32,-16 480.32,-16 583.67,-16 583.67,-16 589.67,-16 595.67,-22 595.67,-28 595.67,-28 595.67,-40 595.67,-40 595.67,-46 589.67,-52 583.67,-52" class="f-bad s-bad"/>
<text xml:space="preserve" text-anchor="middle" x="532" y="-34.73" font-family="Helvetica,sans-Serif" font-size="9.50" class="t-ink">HIGH&#45;severity flag</text>
<text xml:space="preserve" text-anchor="middle" x="532" y="-24.98" font-family="Helvetica,sans-Serif" font-size="9.50" class="t-ink">with the exact failing seq</text>
</g>

<g id="edge26" class="edge">
<title>verdict&#45;&gt;bad</title>
<path fill="none" stroke-width="1.15" d="M479.85,-110.55C490.83,-94.63 504.82,-74.38 515.54,-58.85" class="s-bad"/>
<polygon stroke-width="1.15" points="517.25,-60.07 518.93,-53.94 513.79,-57.68 517.25,-60.07" class="a-bad s-bad"/>
<text xml:space="preserve" text-anchor="middle" x="509.27" y="-75.21" font-family="Helvetica,sans-Serif" font-size="8.20" class="t-hum">yes</text>
</g>
</g>
</svg>