<svg width="1649pt" height="781pt"
 viewBox="0.00 0.00 1649.00 781.00" xmlns="http://www.w3.org/2000/svg" xmlns:xlink="http://www.w3.org/1999/xlink">
<g id="graph0" class="graph" transform="scale(1 1) rotate(0) translate(4 777.12)">
<title>deploy</title>
<g id="clust1" class="cluster">
<title>cluster_edge</title>
<path stroke-width="1.5" d="M1169,-577.85C1169,-577.85 1311,-577.85 1311,-577.85 1317,-577.85 1323,-583.85 1323,-589.85 1323,-589.85 1323,-694.1 1323,-694.1 1323,-700.1 1317,-706.1 1311,-706.1 1311,-706.1 1169,-706.1 1169,-706.1 1163,-706.1 1157,-700.1 1157,-694.1 1157,-694.1 1157,-589.85 1157,-589.85 1157,-583.85 1163,-577.85 1169,-577.85" class="f-hum s-hum"/>
<text xml:space="preserve" text-anchor="middle" x="1198" y="-693.07" font-family="Helvetica,sans-Serif" font-size="9.50" class="t-hum"> &#160;EECS EDGE &#160;</text>
</g>
<g id="clust2" class="cluster">
<title>cluster_host</title>
<path stroke-width="1.5" d="M1014,-139.68C1014,-139.68 1349,-139.68 1349,-139.68 1355,-139.68 1361,-145.68 1361,-151.68 1361,-151.68 1361,-545.85 1361,-545.85 1361,-551.85 1355,-557.85 1349,-557.85 1349,-557.85 1014,-557.85 1014,-557.85 1008,-557.85 1002,-551.85 1002,-545.85 1002,-545.85 1002,-151.68 1002,-151.68 1002,-145.68 1008,-139.68 1014,-139.68" class="f-srv s-srv"/>
<text xml:space="preserve" text-anchor="middle" x="1181.38" y="-544.82" font-family="Helvetica,sans-Serif" font-size="9.50" class="t-srv"> &#160;instapphost.eecs.berkeley.edu — rootless Docker, provenance service account &#160;</text>
</g>
<g id="clust3" class="cluster">
<title>cluster_nfs</title>
<path stroke-width="1.5" d="M1093,-8C1093,-8 1395,-8 1395,-8 1401,-8 1407,-14 1407,-20 1407,-20 1407,-85.81 1407,-85.81 1407,-91.81 1401,-97.81 1395,-97.81 1395,-97.81 1093,-97.81 1093,-97.81 1087,-97.81 1081,-91.81 1081,-85.81 1081,-85.81 1081,-20 1081,-20 1081,-14 1087,-8 1093,-8" class="f-rec s-rec"/>
<text xml:space="preserve" text-anchor="middle" x="1243.88" y="-84.78" font-family="Helvetica,sans-Serif" font-size="9.50" class="t-rec"> &#160;/home/submit/provenance — NFS, 1 TB HARD QUOTA, no headroom &#160;</text>
</g>
<g id="clust4" class="cluster">
<title>cluster_cron</title>
<path stroke-width="1.5" d="M20,-134.81C20,-134.81 982,-134.81 982,-134.81 988,-134.81 994,-140.81 994,-146.81 994,-146.81 994,-197.33 994,-197.33 994,-203.33 988,-209.33 982,-209.33 982,-209.33 20,-209.33 20,-209.33 14,-209.33 8,-203.33 8,-197.33 8,-197.33 8,-146.81 8,-146.81 8,-140.81 14,-134.81 20,-134.81" class="f-ana s-ana"/>
<text xml:space="preserve" text-anchor="middle" x="145" y="-196.3" font-family="Helvetica,sans-Serif" font-size="9.50" class="t-ana"> &#160;pg&#45;boss JOBS — every one has an explicit shutdown path &#160;</text>
</g>
<g id="clust5" class="cluster">
<title>cluster_alert</title>
<path stroke-width="1.5" d="M592,-15.64C592,-15.64 1018,-15.64 1018,-15.64 1024,-15.64 1030,-21.64 1030,-27.64 1030,-27.64 1030,-78.16 1030,-78.16 1030,-84.16 1024,-90.16 1018,-90.16 1018,-90.16 592,-90.16 592,-90.16 586,-90.16 580,-84.16 580,-78.16 580,-78.16 580,-27.64 580,-27.64 580,-21.64 586,-15.64 592,-15.64" class="f-uix s-uix"/>
<text xml:space="preserve" text-anchor="middle" x="617.25" y="-77.14" font-family="Helvetica,sans-Serif" font-size="9.50" class="t-uix"> &#160;ALERTING &#160;</text>
</g>

<g id="node1" class="node">
<title>browser</title>
<path stroke-width="1.3" d="M1208.39,-769.85C1208.39,-769.85 1111.61,-769.85 1111.61,-769.85 1107.53,-769.85 1103.45,-765.77 1103.45,-761.69 1103.45,-761.69 1103.45,-753.53 1103.45,-753.53 1103.45,-749.45 1107.53,-745.37 1111.61,-745.37 1111.61,-745.37 1208.39,-745.37 1208.39,-745.37 1212.47,-745.37 1216.55,-749.45 1216.55,-753.53 1216.55,-753.53 1216.55,-761.69 1216.55,-761.69 1216.55,-765.77 1212.47,-769.85 1208.39,-769.85" class="f-hum s-hum"/>
<text xml:space="preserve" text-anchor="middle" x="1160" y="-753.73" font-family="Helvetica,sans-Serif" font-size="10.00" class="t-ink">Course staff browser</text>
</g>

<g id="node3" class="node">
<title>dns</title>
<path stroke-width="1.3" d="M1306.39,-680.35C1306.39,-680.35 1173.61,-680.35 1173.61,-680.35 1169.53,-680.35 1165.45,-676.27 1165.45,-672.19 1165.45,-672.19 1165.45,-664.03 1165.45,-664.03 1165.45,-659.95 1169.53,-655.87 1173.61,-655.87 1173.61,-655.87 1306.39,-655.87 1306.39,-655.87 1310.47,-655.87 1314.55,-659.95 1314.55,-664.03 1314.55,-664.03 1314.55,-672.19 1314.55,-672.19 1314.55,-676.27 1310.47,-680.35 1306.39,-680.35" class="f-hum s-hum"/>
<text xml:space="preserve" text-anchor="middle" x="1240" y="-663.96" font-family="Helvetica,sans-Serif" font-size="9.50" class="t-ink">provenance.eecs.berkeley.edu</text>
</g>

<g id="edge1" class="edge">
<title>browser&#45;&gt;dns</title>
<path fill="none" stroke-width="1.15" d="M1170.79,-744.81C1184.58,-729.72 1208.57,-703.49 1224.37,-686.21" class="s-edge"/>
<polygon stroke-width="1.15" points="1225.71,-687.85 1228.21,-682.01 1222.61,-685.02 1225.71,-687.85" class="a-edge s-edge"/>
</g>

<g id="node2" class="node">
<title>gwclient</title>
<path stroke-width="1.3" d="M1391.34,-773.12C1391.34,-773.12 1248.66,-773.12 1248.66,-773.12 1243.5,-773.12 1238.33,-767.95 1238.33,-762.78 1238.33,-762.78 1238.33,-752.44 1238.33,-752.44 1238.33,-747.27 1243.5,-742.1 1248.66,-742.1 1248.66,-742.1 1391.34,-742.1 1391.34,-742.1 1396.5,-742.1 1401.67,-747.27 1401.67,-752.44 1401.67,-752.44 1401.67,-762.78 1401.67,-762.78 1401.67,-767.95 1396.5,-773.12 1391.34,-773.12" class="f-tra s-tra"/>
<text xml:space="preserve" text-anchor="middle" x="1320" y="-758.33" font-family="Helvetica,sans-Serif" font-size="9.50" class="t-ink">provgate</text>
<text xml:space="preserve" text-anchor="middle" x="1320" y="-748.58" font-family="Helvetica,sans-Serif" font-size="9.50" class="t-ink">running wherever staff schedule it</text>
</g>

<g id="edge2" class="edge">
<title>gwclient&#45;&gt;dns</title>
<path fill="none" stroke-width="1.15" d="M1306.43,-741.77C1292.45,-726.48 1270.69,-702.67 1255.91,-686.51" class="s-tra"/>
<polygon stroke-width="1.15" points="1257.58,-685.23 1251.98,-682.22 1254.48,-688.06 1257.58,-685.23" class="a-tra s-tra"/>
<text xml:space="preserve" text-anchor="middle" x="1304.42" y="-715.31" font-family="Helvetica,sans-Serif" font-size="8.20" class="t-hum">API token</text>
</g>

<g id="node4" class="node">
<title>prox</title>
<path stroke-width="1.3" d="M1286.96,-616.87C1286.96,-616.87 1193.04,-616.87 1193.04,-616.87 1187.87,-616.87 1182.7,-611.7 1182.7,-606.53 1182.7,-606.53 1182.7,-596.19 1182.7,-596.19 1182.7,-591.02 1187.87,-585.85 1193.04,-585.85 1193.04,-585.85 1286.96,-585.85 1286.96,-585.85 1292.13,-585.85 1297.3,-591.02 1297.3,-596.19 1297.3,-596.19 1297.3,-606.53 1297.3,-606.53 1297.3,-611.7 1292.13,-616.87 1286.96,-616.87" class="f-hum s-hum"/>
<text xml:space="preserve" text-anchor="middle" x="1240" y="-602.08" font-family="Helvetica,sans-Serif" font-size="9.50" class="t-ink">apphost reverse proxy</text>
<text xml:space="preserve" text-anchor="middle" x="1240" y="-592.33" font-family="Helvetica,sans-Serif" font-size="9.50" class="t-ink">terminates TLS</text>
</g>

<g id="edge3" class="edge">
<title>dns&#45;&gt;prox</title>
<path fill="none" stroke-width="1.15" d="M1240,-655.23C1240,-646.74 1240,-635.04 1240,-624.81" class="s-edge"/>
<polygon stroke-width="1.15" points="1242.1,-625.09 1240,-619.09 1237.9,-625.09 1242.1,-625.09" class="a-edge s-edge"/>
</g>

<g id="node5" class="node">
<title>sock</title>
<polygon stroke-width="1.3" points="1333.38,-532.1 1141.45,-532.1 1141.45,-501.08 1338.55,-501.08 1338.55,-526.93 1333.38,-532.1" class="f-hum s-hum"/>
<polyline fill="none" stroke-width="1.3" points="1333.38,-532.1 1333.38,-526.93" class="s-hum"/>
<polyline fill="none" stroke-width="1.3" points="1338.55,-526.93 1333.38,-526.93" class="s-hum"/>
<text xml:space="preserve" text-anchor="middle" x="1240" y="-517.79" font-family="Helvetica,sans-Serif" font-size="9.00" class="t-ink">/srv/appsockets/provenance/main/app.sock</text>
<text xml:space="preserve" text-anchor="middle" x="1240" y="-508.04" font-family="Helvetica,sans-Serif" font-size="9.00" class="t-ink">unix socket — no port is ever exposed</text>
</g>

<g id="edge4" class="edge">
<title>prox&#45;&gt;sock</title>
<path fill="none" stroke-width="1.15" d="M1240,-585.56C1240,-572.93 1240,-554.56 1240,-540.11" class="s-edge"/>
<polygon stroke-width="1.15" points="1242.1,-540.28 1240,-534.28 1237.9,-540.28 1242.1,-540.28" class="a-edge s-edge"/>
</g>

<g id="node6" class="node">
<title>apic</title>
<path stroke-width="1.7" d="M1342.46,-457.2C1342.46,-457.2 1137.54,-457.2 1137.54,-457.2 1132.37,-457.2 1127.2,-452.03 1127.2,-446.86 1127.2,-446.86 1127.2,-436.52 1127.2,-436.52 1127.2,-431.35 1132.37,-426.18 1137.54,-426.18 1137.54,-426.18 1342.46,-426.18 1342.46,-426.18 1347.63,-426.18 1352.8,-431.35 1352.8,-436.52 1352.8,-436.52 1352.8,-446.86 1352.8,-446.86 1352.8,-452.03 1347.63,-457.2 1342.46,-457.2" class="f-srv s-srv"/>
<text xml:space="preserve" text-anchor="middle" x="1240" y="-442.42" font-family="Helvetica,sans-Serif" font-size="9.50" class="t-ink">app container — mode=api</text>
<text xml:space="preserve" text-anchor="middle" x="1240" y="-432.67" font-family="Helvetica,sans-Serif" font-size="9.50" class="t-ink">Hono · OAuth · OpenAPI + Redoc · Prometheus</text>
</g>

<g id="edge5" class="edge">
<title>sock&#45;&gt;apic</title>
<path fill="none" stroke-width="1.15" d="M1240,-500.49C1240,-490.39 1240,-476.92 1240,-465.52" class="s-edge"/>
<polygon stroke-width="1.15" points="1242.1,-465.77 1240,-459.77 1237.9,-465.77 1242.1,-465.77" class="a-edge s-edge"/>
</g>

<g id="node7" class="node">
<title>wrkc</title>
<path stroke-width="1.7" d="M1203.46,-360.37C1203.46,-360.37 1028.54,-360.37 1028.54,-360.37 1023.37,-360.37 1018.2,-355.2 1018.2,-350.03 1018.2,-350.03 1018.2,-339.69 1018.2,-339.69 1018.2,-334.52 1023.37,-329.35 1028.54,-329.35 1028.54,-329.35 1203.46,-329.35 1203.46,-329.35 1208.63,-329.35 1213.8,-334.52 1213.8,-339.69 1213.8,-339.69 1213.8,-350.03 1213.8,-350.03 1213.8,-355.2 1208.63,-360.37 1203.46,-360.37" class="f-srv s-srv"/>
<text xml:space="preserve" text-anchor="middle" x="1116" y="-345.58" font-family="Helvetica,sans-Serif" font-size="9.50" class="t-ink">app container — mode=worker</text>
<text xml:space="preserve" text-anchor="middle" x="1116" y="-335.83" font-family="Helvetica,sans-Serif" font-size="9.50" class="t-ink">pg&#45;boss subscriber, bounded concurrency</text>
</g>

<g id="edge9" class="edge">
<title>apic&#45;&gt;wrkc</title>
<path fill="none" stroke-width="1.15" stroke-dasharray="5,2" d="M1155.3,-425.43C1145.75,-420.83 1136.89,-414.88 1129.75,-407.18 1120.22,-396.92 1116.79,-381.53 1115.74,-368.74" class="s-srv"/>
<polygon stroke-width="1.15" points="1117.85,-368.8 1115.45,-362.91 1113.65,-369.01 1117.85,-368.8" class="a-srv s-srv"/>
<text xml:space="preserve" text-anchor="middle" x="1180.38" y="-399.39" font-family="Helvetica,sans-Serif" font-size="8.20" class="t-hum">enqueue via pg&#45;boss</text>
<text xml:space="preserve" text-anchor="middle" x="1180.38" y="-390.39" font-family="Helvetica,sans-Serif" font-size="8.20" class="t-hum">(the queue lives in Postgres)</text>
</g>

<g id="node8" class="node">
<title>pgc</title>
<path stroke-width="1.3" d="M1166.8,-276.6C1166.8,-278.77 1144.48,-280.53 1117,-280.53 1089.52,-280.53 1067.2,-278.77 1067.2,-276.6 1067.2,-276.6 1067.2,-241.26 1067.2,-241.26 1067.2,-239.09 1089.52,-237.33 1117,-237.33 1144.48,-237.33 1166.8,-239.09 1166.8,-241.26 1166.8,-241.26 1166.8,-276.6 1166.8,-276.6" class="f-srv s-srv"/>
<path fill="none" stroke-width="1.3" d="M1166.8,-276.6C1166.8,-274.43 1144.48,-272.67 1117,-272.67 1089.52,-272.67 1067.2,-274.43 1067.2,-276.6" class="s-srv"/>
<text xml:space="preserve" text-anchor="middle" x="1117" y="-254.78" font-family="Helvetica,sans-Serif" font-size="9.50" class="t-ink">postgres container</text>
</g>

<g id="edge7" class="edge">
<title>apic&#45;&gt;pgc</title>
<path fill="none" stroke-width="1.15" d="M1242.25,-425.4C1245.02,-400.82 1246.97,-352.01 1225,-319.53 1212.82,-301.52 1193.31,-288.42 1174.2,-279.17" class="s-edge"/>
<polygon stroke-width="1.15" points="1175.1,-277.27 1168.78,-276.66 1173.34,-281.09 1175.1,-277.27" class="a-edge s-edge"/>
</g>

<g id="node10" class="node">
<title>blobs</title>
<path stroke-width="1.3" d="M1391.17,-66.96C1391.17,-69.77 1347.17,-72.06 1293,-72.06 1238.83,-72.06 1194.83,-69.77 1194.83,-66.96 1194.83,-66.96 1194.83,-21.1 1194.83,-21.1 1194.83,-18.28 1238.83,-16 1293,-16 1347.17,-16 1391.17,-18.28 1391.17,-21.1 1391.17,-21.1 1391.17,-66.96 1391.17,-66.96" class="f-rec s-rec"/>
<path fill="none" stroke-width="1.3" d="M1391.17,-66.96C1391.17,-64.15 1347.17,-61.87 1293,-61.87 1238.83,-61.87 1194.83,-64.15 1194.83,-66.96" class="s-rec"/>
<text xml:space="preserve" text-anchor="middle" x="1293" y="-49.63" font-family="Helvetica,sans-Serif" font-size="9.50" class="t-ink">blob store — filesystem backend</text>
<text xml:space="preserve" text-anchor="middle" x="1293" y="-39.88" font-family="Helvetica,sans-Serif" font-size="9.50" class="t-ink">behind the same S3&#45;compatible interface</text>
<text xml:space="preserve" text-anchor="middle" x="1293" y="-30.13" font-family="Helvetica,sans-Serif" font-size="9.50" class="t-ink">MinIO provides in development</text>
</g>

<g id="edge10" class="edge">
<title>apic&#45;&gt;blobs</title>
<path fill="none" stroke-width="1.15" d="M1257.64,-425.51C1275.66,-408.22 1301,-378.16 1301,-345.86 1301,-345.86 1301,-345.86 1301,-162.19 1301,-134.53 1298.75,-103.29 1296.64,-80.02" class="s-edge"/>
<polygon stroke-width="1.15" points="1298.75,-79.97 1296.1,-74.19 1294.56,-80.36 1298.75,-79.97" class="a-edge s-edge"/>
</g>

<g id="node21" class="node">
<title>goog</title>
<path stroke-width="1.3" d="M1630.19,-349.03C1630.19,-349.03 1584.47,-366.01 1584.47,-366.01 1578.84,-368.1 1567.22,-370.18 1561.22,-370.18 1561.22,-370.18 1448.78,-370.18 1448.78,-370.18 1442.78,-370.18 1431.16,-368.1 1425.53,-366.01 1425.53,-366.01 1379.81,-349.03 1379.81,-349.03 1374.19,-346.94 1374.19,-342.77 1379.81,-340.68 1379.81,-340.68 1425.53,-323.71 1425.53,-323.71 1431.16,-321.62 1442.78,-319.53 1448.78,-319.53 1448.78,-319.53 1561.22,-319.53 1561.22,-319.53 1567.22,-319.53 1578.84,-321.62 1584.47,-323.71 1584.47,-323.71 1630.19,-340.68 1630.19,-340.68 1635.81,-342.77 1635.81,-346.94 1630.19,-349.03" class="f-hum s-hum"/>
<text xml:space="preserve" text-anchor="middle" x="1505" y="-345.58" font-family="Helvetica,sans-Serif" font-size="9.50" class="t-ink">Google OAuth</text>
<text xml:space="preserve" text-anchor="middle" x="1505" y="-335.83" font-family="Helvetica,sans-Serif" font-size="9.50" class="t-ink">hd claim must match berkeley.edu</text>
</g>

<g id="edge6" class="edge">
<title>apic&#45;&gt;goog</title>
<path fill="none" stroke-width="1.15" stroke-dasharray="5,2" d="M1282.87,-425.35C1322.23,-411.26 1381.46,-390.07 1428.86,-373.1" class="s-hum"/>
<polygon stroke-width="1.15" points="1429.48,-375.11 1434.42,-371.11 1428.07,-371.16 1429.48,-375.11" class="a-hum s-hum"/>
<text xml:space="preserve" text-anchor="middle" x="1405.95" y="-394.89" font-family="Helvetica,sans-Serif" font-size="8.20" class="t-hum">verify ID token</text>
</g>

<g id="edge8" class="edge">
<title>wrkc&#45;&gt;pgc</title>
<path fill="none" stroke-width="1.15" d="M1116.18,-328.85C1116.31,-317.74 1116.5,-302.25 1116.66,-288.77" class="s-edge"/>
<polygon stroke-width="1.15" points="1118.76,-288.87 1116.73,-282.85 1114.56,-288.82 1118.76,-288.87" class="a-edge s-edge"/>
</g>

<g id="edge11" class="edge">
<title>wrkc&#45;&gt;blobs</title>
<path fill="none" stroke-width="1.15" d="M1132.11,-328.5C1144.98,-315.99 1163.23,-297.65 1178,-280.53 1203.94,-250.46 1212.88,-244.14 1232,-209.33 1255.22,-167.05 1273.07,-114.14 1283.3,-79.97" class="s-edge"/>
<polygon stroke-width="1.15" points="1285.31,-80.57 1285,-74.22 1281.28,-79.38 1285.31,-80.57" class="a-edge s-edge"/>
</g>

<g id="node12" class="node">
<title>j1</title>
<path stroke-width="1.3" d="M201.84,-178.7C201.84,-178.7 26.16,-178.7 26.16,-178.7 20.99,-178.7 15.83,-173.53 15.83,-168.36 15.83,-168.36 15.83,-158.02 15.83,-158.02 15.83,-152.85 21,-147.68 26.16,-147.68 26.16,-147.68 201.84,-147.68 201.84,-147.68 207.01,-147.68 212.18,-152.85 212.18,-158.02 212.18,-158.02 212.18,-168.36 212.18,-168.36 212.18,-173.53 207.01,-178.7 201.84,-178.7" class="f-ana s-ana"/>
<text xml:space="preserve" text-anchor="middle" x="114" y="-164.39" font-family="Helvetica,sans-Serif" font-size="9.00" class="t-ink">retention&#45;sweep</text>
<text xml:space="preserve" text-anchor="middle" x="114" y="-154.64" font-family="Helvetica,sans-Serif" font-size="9.00" class="t-ink">deletes BLOBS only — rows persist forever</text>
</g>

<g id="edge14" class="edge">
<title>wrkc&#45;&gt;j1</title>
<path fill="none" stroke-width="1.15" d="M1017.58,-336.89C852.76,-323.5 511.36,-288.4 230.46,-211.39" class="s-ana"/>
<polygon stroke-width="1.15" points="231.02,-209.36 224.68,-209.79 229.9,-213.41 231.02,-209.36" class="a-ana s-ana"/>
</g>

<g id="node9" class="node">
<title>dumpc</title>
<path stroke-width="1.3" d="M1210.46,-178.7C1210.46,-178.7 1023.54,-178.7 1023.54,-178.7 1018.37,-178.7 1013.2,-173.53 1013.2,-168.36 1013.2,-168.36 1013.2,-158.02 1013.2,-158.02 1013.2,-152.85 1018.37,-147.68 1023.54,-147.68 1023.54,-147.68 1210.46,-147.68 1210.46,-147.68 1215.63,-147.68 1220.8,-152.85 1220.8,-158.02 1220.8,-158.02 1220.8,-168.36 1220.8,-168.36 1220.8,-173.53 1215.63,-178.7 1210.46,-178.7" class="f-srv s-srv"/>
<text xml:space="preserve" text-anchor="middle" x="1117" y="-164.39" font-family="Helvetica,sans-Serif" font-size="9.00" class="t-ink">pgdump sidecar</text>
<text xml:space="preserve" text-anchor="middle" x="1117" y="-154.64" font-family="Helvetica,sans-Serif" font-size="9.00" class="t-ink">scheduled pg_dump into the backup directory</text>
</g>

<g id="edge12" class="edge">
<title>pgc&#45;&gt;dumpc</title>
<path fill="none" stroke-width="1.15" d="M1117,-237.13C1117,-222.15 1117,-201.98 1117,-186.64" class="s-edge"/>
<polygon stroke-width="1.15" points="1119.1,-186.85 1117,-180.85 1114.9,-186.85 1119.1,-186.85" class="a-edge s-edge"/>
</g>

<g id="node11" class="node">
<title>backs</title>
<path stroke-width="1.3" d="M1164.55,-58.76C1164.55,-60.56 1151.31,-62.03 1135,-62.03 1118.69,-62.03 1105.45,-60.56 1105.45,-58.76 1105.45,-58.76 1105.45,-29.3 1105.45,-29.3 1105.45,-27.5 1118.69,-26.03 1135,-26.03 1151.31,-26.03 1164.55,-27.5 1164.55,-29.3 1164.55,-29.3 1164.55,-58.76 1164.55,-58.76" class="f-rec s-rec"/>
<path fill="none" stroke-width="1.3" d="M1164.55,-58.76C1164.55,-56.95 1151.31,-55.48 1135,-55.48 1118.69,-55.48 1105.45,-56.95 1105.45,-58.76" class="s-rec"/>
<text xml:space="preserve" text-anchor="middle" x="1135" y="-39.88" font-family="Helvetica,sans-Serif" font-size="9.50" class="t-ink">backups/</text>
</g>

<g id="edge13" class="edge">
<title>dumpc&#45;&gt;backs</title>
<path fill="none" stroke-width="1.15" d="M1119.28,-147.35C1122.27,-127.88 1127.57,-93.42 1131.18,-69.92" class="s-edge"/>
<polygon stroke-width="1.15" points="1133.23,-70.38 1132.07,-64.13 1129.08,-69.74 1133.23,-70.38" class="a-edge s-edge"/>
</g>

<g id="node20" class="node">
<title>hchk</title>
<path stroke-width="1.7" d="M1009.67,-64.41C1009.67,-64.41 810.33,-64.41 810.33,-64.41 804.33,-64.41 798.33,-58.41 798.33,-52.41 798.33,-52.41 798.33,-35.64 798.33,-35.64 798.33,-29.64 804.33,-23.64 810.33,-23.64 810.33,-23.64 1009.67,-23.64 1009.67,-23.64 1015.67,-23.64 1021.67,-29.64 1021.67,-35.64 1021.67,-35.64 1021.67,-52.41 1021.67,-52.41 1021.67,-58.41 1015.67,-64.41 1009.67,-64.41" class="f-uix s-uix"/>
<text xml:space="preserve" text-anchor="middle" x="910" y="-49.63" font-family="Helvetica,sans-Serif" font-size="9.50" class="t-ink">healthchecks.io</text>
<text xml:space="preserve" text-anchor="middle" x="910" y="-39.88" font-family="Helvetica,sans-Serif" font-size="9.50" class="t-ink">dead&#45;man&#39;s switch — catches a SILENT failure,</text>
<text xml:space="preserve" text-anchor="middle" x="910" y="-30.13" font-family="Helvetica,sans-Serif" font-size="9.50" class="t-ink">which no alert&#45;on&#45;error ever will</text>
</g>

<g id="edge17" class="edge">
<title>dumpc&#45;&gt;hchk</title>
<path fill="none" stroke-width="1.15" stroke-dasharray="5,2" d="M1057.52,-147.1C1038.87,-142.72 1018.16,-138.2 999,-134.81 979.32,-131.32 922.99,-138.78 909.75,-123.81 897.65,-110.13 898.24,-89.28 901.58,-72.47" class="s-uix"/>
<polygon stroke-width="1.15" points="903.59,-73.08 902.88,-66.77 899.5,-72.15 903.59,-73.08" class="a-uix s-uix"/>
<text xml:space="preserve" text-anchor="middle" x="964.88" y="-116.02" font-family="Helvetica,sans-Serif" font-size="8.20" class="t-hum">ping after each</text>
<text xml:space="preserve" text-anchor="middle" x="964.88" y="-107.02" font-family="Helvetica,sans-Serif" font-size="8.20" class="t-hum">nightly pg_dump (/fail on error)</text>
</g>

<g id="edge18" class="edge">
<title>j1&#45;&gt;blobs</title>
<path fill="none" stroke-width="1.15" d="M164,-147.04C182.37,-142.16 203.46,-137.36 223,-134.81 398.85,-111.82 844.37,-139.75 1021,-123.81 1090.57,-117.53 1109.17,-118.12 1176,-97.81 1194.92,-92.06 1214.77,-83.96 1232.65,-75.82" class="s-rec"/>
<polygon stroke-width="1.15" points="1233.51,-77.74 1238.08,-73.32 1231.75,-73.93 1233.51,-77.74" class="a-rec s-rec"/>
<text xml:space="preserve" text-anchor="middle" x="1182.84" y="-111.52" font-family="Helvetica,sans-Serif" font-size="8.20" class="t-hum">delete expired blobs</text>
</g>

<g id="node13" class="node">
<title>j2</title>
<path stroke-width="1.3" d="M344.01,-175.43C344.01,-175.43 241.99,-175.43 241.99,-175.43 237.91,-175.43 233.83,-171.35 233.83,-167.27 233.83,-167.27 233.83,-159.11 233.83,-159.11 233.83,-155.03 237.91,-150.95 241.99,-150.95 241.99,-150.95 344.01,-150.95 344.01,-150.95 348.1,-150.95 352.18,-155.03 352.18,-159.11 352.18,-159.11 352.18,-167.27 352.18,-167.27 352.18,-171.35 348.1,-175.43 344.01,-175.43" class="f-ana s-ana"/>
<text xml:space="preserve" text-anchor="middle" x="293" y="-159.52" font-family="Helvetica,sans-Serif" font-size="9.00" class="t-ink">purge&#45;expired&#45;sessions</text>
</g>

<g id="node14" class="node">
<title>j3</title>
<path stroke-width="1.3" d="M465.26,-175.43C465.26,-175.43 382.74,-175.43 382.74,-175.43 378.65,-175.43 374.57,-171.35 374.57,-167.27 374.57,-167.27 374.57,-159.11 374.57,-159.11 374.57,-155.03 378.65,-150.95 382.74,-150.95 382.74,-150.95 465.26,-150.95 465.26,-150.95 469.35,-150.95 473.43,-155.03 473.43,-159.11 473.43,-159.11 473.43,-167.27 473.43,-167.27 473.43,-171.35 469.35,-175.43 465.26,-175.43" class="f-ana s-ana"/>
<text xml:space="preserve" text-anchor="middle" x="424" y="-159.52" font-family="Helvetica,sans-Serif" font-size="9.00" class="t-ink">reap&#45;stale&#45;uploads</text>
</g>

<g id="node15" class="node">
<title>j4</title>
<path stroke-width="1.3" d="M600.01,-175.43C600.01,-175.43 503.99,-175.43 503.99,-175.43 499.9,-175.43 495.82,-171.35 495.82,-167.27 495.82,-167.27 495.82,-159.11 495.82,-159.11 495.82,-155.03 499.9,-150.95 503.99,-150.95 503.99,-150.95 600.01,-150.95 600.01,-150.95 604.09,-150.95 608.17,-155.03 608.17,-159.11 608.17,-159.11 608.17,-167.27 608.17,-167.27 608.17,-171.35 604.09,-175.43 600.01,-175.43" class="f-ana s-ana"/>
<text xml:space="preserve" text-anchor="middle" x="552" y="-159.52" font-family="Helvetica,sans-Serif" font-size="9.00" class="t-ink">purge&#45;expired&#45;exports</text>
</g>

<g id="node16" class="node">
<title>j5</title>
<path stroke-width="1.3" d="M767.83,-178.7C767.83,-178.7 640.17,-178.7 640.17,-178.7 635,-178.7 629.83,-173.53 629.83,-168.36 629.83,-168.36 629.83,-158.02 629.83,-158.02 629.83,-152.85 635,-147.68 640.17,-147.68 640.17,-147.68 767.83,-147.68 767.83,-147.68 773,-147.68 778.17,-152.85 778.17,-158.02 778.17,-158.02 778.17,-168.36 778.17,-168.36 778.17,-173.53 773,-178.7 767.83,-178.7" class="f-ana s-ana"/>
<text xml:space="preserve" text-anchor="middle" x="704" y="-164.39" font-family="Helvetica,sans-Serif" font-size="9.00" class="t-ink">storage&#45;quota&#45;check</text>
<text xml:space="preserve" text-anchor="middle" x="704" y="-154.64" font-family="Helvetica,sans-Serif" font-size="9.00" class="t-ink">alerts before the 1 TB wall is hit</text>
</g>

<g id="node18" class="node">
<title>disc</title>
<path stroke-width="1.3" d="M768.64,-56.27C768.64,-56.27 691.36,-56.27 691.36,-56.27 687.28,-56.27 683.2,-52.19 683.2,-48.11 683.2,-48.11 683.2,-39.95 683.2,-39.95 683.2,-35.87 687.28,-31.79 691.36,-31.79 691.36,-31.79 768.64,-31.79 768.64,-31.79 772.72,-31.79 776.8,-35.87 776.8,-39.95 776.8,-39.95 776.8,-48.11 776.8,-48.11 776.8,-52.19 772.72,-56.27 768.64,-56.27" class="f-uix s-uix"/>
<text xml:space="preserve" text-anchor="middle" x="730" y="-39.88" font-family="Helvetica,sans-Serif" font-size="9.50" class="t-ink">Discord webhook</text>
</g>

<g id="edge15" class="edge">
<title>j5&#45;&gt;disc</title>
<path fill="none" stroke-width="1.15" d="M707.29,-147.35C711.99,-126.2 720.6,-87.38 725.77,-64.11" class="s-uix"/>
<polygon stroke-width="1.15" points="727.81,-64.6 727.06,-58.28 723.71,-63.69 727.81,-64.6" class="a-uix s-uix"/>
</g>

<g id="node19" class="node">
<title>smtp</title>
<path stroke-width="1.3" d="M653.51,-56.27C653.51,-56.27 596.49,-56.27 596.49,-56.27 592.41,-56.27 588.33,-52.19 588.33,-48.11 588.33,-48.11 588.33,-39.95 588.33,-39.95 588.33,-35.87 592.41,-31.79 596.49,-31.79 596.49,-31.79 653.51,-31.79 653.51,-31.79 657.59,-31.79 661.67,-35.87 661.67,-39.95 661.67,-39.95 661.67,-48.11 661.67,-48.11 661.67,-52.19 657.59,-56.27 653.51,-56.27" class="f-uix s-uix"/>
<text xml:space="preserve" text-anchor="middle" x="625" y="-39.88" font-family="Helvetica,sans-Serif" font-size="9.50" class="t-ink">SMTP alerts</text>
</g>

<g id="edge16" class="edge">
<title>j5&#45;&gt;smtp</title>
<path fill="none" stroke-width="1.15" d="M693.99,-147.35C679.48,-125.83 652.63,-86.01 637.05,-62.91" class="s-uix"/>
<polygon stroke-width="1.15" points="638.86,-61.83 633.76,-58.03 635.38,-64.18 638.86,-61.83" class="a-uix s-uix"/>
</g>

<g id="node17" class="node">
<title>j6</title>
<path stroke-width="1.3" d="M973.92,-183.58C973.92,-183.58 812.08,-183.58 812.08,-183.58 806.08,-183.58 800.08,-177.58 800.08,-171.58 800.08,-171.58 800.08,-154.81 800.08,-154.81 800.08,-148.81 806.08,-142.81 812.08,-142.81 812.08,-142.81 973.92,-142.81 973.92,-142.81 979.92,-142.81 985.92,-148.81 985.92,-154.81 985.92,-154.81 985.92,-171.58 985.92,-171.58 985.92,-177.58 979.92,-183.58 973.92,-183.58" class="f-ana s-ana"/>
<text xml:space="preserve" text-anchor="middle" x="893" y="-169.27" font-family="Helvetica,sans-Serif" font-size="9.00" class="t-ink">recompute / recompute&#45;cross&#45;flags</text>
<text xml:space="preserve" text-anchor="middle" x="893" y="-159.52" font-family="Helvetica,sans-Serif" font-size="9.00" class="t-ink">demand&#45;driven (tuning / ingest_finalize),</text>
<text xml:space="preserve" text-anchor="middle" x="893" y="-149.77" font-family="Helvetica,sans-Serif" font-size="9.00" class="t-ink">NOT cron&#45;scheduled</text>
</g>

<g id="node22" class="node">
<title>deploy</title>
<polygon stroke-width="1.3" points="1590.55,-536.97 1369.45,-536.97 1369.45,-496.2 1596.55,-496.2 1596.55,-530.97 1590.55,-536.97" class="f-rec s-rec"/>
<polyline fill="none" stroke-width="1.3" points="1590.55,-536.97 1590.55,-530.97" class="s-rec"/>
<polyline fill="none" stroke-width="1.3" points="1596.55,-530.97 1590.55,-530.97" class="s-rec"/>
<text xml:space="preserve" text-anchor="middle" x="1483" y="-522.66" font-family="Helvetica,sans-Serif" font-size="9.00" class="t-ink">deploy is manual, by hand, over SSH</text>
<text xml:space="preserve" text-anchor="middle" x="1483" y="-512.91" font-family="Helvetica,sans-Serif" font-size="9.00" class="t-ink">GitHub&#39;s hosted runners cannot reach instapphost,</text>
<text xml:space="preserve" text-anchor="middle" x="1483" y="-503.16" font-family="Helvetica,sans-Serif" font-size="9.00" class="t-ink">so there is no CI/CD for this environment</text>
</g>

<g id="edge19" class="edge">
<title>deploy&#45;&gt;apic</title>
<path fill="none" stroke-width="1.15" stroke-dasharray="5,2" d="M1416.28,-495.57C1379.42,-484.52 1334.05,-470.91 1298.57,-460.26" class="s-rec"/>
<polygon stroke-width="1.15" points="1299.18,-458.25 1292.83,-458.54 1297.97,-462.28 1299.18,-458.25" class="a-rec s-rec"/>
</g>
</g>
</svg>