<svg width="1766pt" height="773pt"
 viewBox="0.00 0.00 1766.00 773.00" xmlns="http://www.w3.org/2000/svg" xmlns:xlink="http://www.w3.org/1999/xlink">
<g id="graph0" class="graph" transform="scale(1 1) rotate(0) translate(4 768.78)">
<title>deploy</title>
<g id="clust1" class="cluster">
<title>cluster_edge</title>
<path stroke-width="1.5" d="M175,-569.51C175,-569.51 317,-569.51 317,-569.51 323,-569.51 329,-575.51 329,-581.51 329,-581.51 329,-685.76 329,-685.76 329,-691.76 323,-697.76 317,-697.76 317,-697.76 175,-697.76 175,-697.76 169,-697.76 163,-691.76 163,-685.76 163,-685.76 163,-581.51 163,-581.51 163,-575.51 169,-569.51 175,-569.51" class="f-hum s-hum"/>
<text xml:space="preserve" text-anchor="middle" x="204" y="-684.73" font-family="Helvetica,sans-Serif" font-size="9.50" class="t-hum"> &#160;EECS EDGE &#160;</text>
</g>
<g id="clust2" class="cluster">
<title>cluster_host</title>
<path stroke-width="1.5" d="M20,-122.68C20,-122.68 355,-122.68 355,-122.68 361,-122.68 367,-128.68 367,-134.68 367,-134.68 367,-537.51 367,-537.51 367,-543.51 361,-549.51 355,-549.51 355,-549.51 20,-549.51 20,-549.51 14,-549.51 8,-543.51 8,-537.51 8,-537.51 8,-134.68 8,-134.68 8,-128.68 14,-122.68 20,-122.68" class="f-srv s-srv"/>
<text xml:space="preserve" text-anchor="middle" x="187.38" y="-536.48" font-family="Helvetica,sans-Serif" font-size="9.50" class="t-srv"> &#160;instapphost.eecs.berkeley.edu — rootless Docker, provenance service account &#160;</text>
</g>
<g id="clust3" class="cluster">
<title>cluster_nfs</title>
<path stroke-width="1.5" d="M144,-8C144,-8 446,-8 446,-8 452,-8 458,-14 458,-20 458,-20 458,-85.81 458,-85.81 458,-91.81 452,-97.81 446,-97.81 446,-97.81 144,-97.81 144,-97.81 138,-97.81 132,-91.81 132,-85.81 132,-85.81 132,-20 132,-20 132,-14 138,-8 144,-8" class="f-rec s-rec"/>
<text xml:space="preserve" text-anchor="middle" x="294.88" y="-84.78" font-family="Helvetica,sans-Serif" font-size="9.50" class="t-rec"> &#160;/home/submit/provenance — NFS, 1 TB HARD QUOTA, no headroom &#160;</text>
</g>
<g id="clust4" class="cluster">
<title>cluster_cron</title>
<path stroke-width="1.5" d="M387,-218.42C387,-218.42 1325,-218.42 1325,-218.42 1331,-218.42 1337,-224.42 1337,-230.42 1337,-230.42 1337,-271.19 1337,-271.19 1337,-277.19 1331,-283.19 1325,-283.19 1325,-283.19 387,-283.19 387,-283.19 381,-283.19 375,-277.19 375,-271.19 375,-271.19 375,-230.42 375,-230.42 375,-224.42 381,-218.42 387,-218.42" class="f-ana s-ana"/>
<text xml:space="preserve" text-anchor="middle" x="524" y="-270.16" font-family="Helvetica,sans-Serif" font-size="9.50" class="t-ana"> &#160;SCHEDULED JOBS — every one has an explicit shutdown path &#160;</text>
</g>
<g id="clust5" class="cluster">
<title>cluster_alert</title>
<path stroke-width="1.5" d="M988,-117.81C988,-117.81 1414,-117.81 1414,-117.81 1420,-117.81 1426,-123.81 1426,-129.81 1426,-129.81 1426,-180.33 1426,-180.33 1426,-186.33 1420,-192.33 1414,-192.33 1414,-192.33 988,-192.33 988,-192.33 982,-192.33 976,-186.33 976,-180.33 976,-180.33 976,-129.81 976,-129.81 976,-123.81 982,-117.81 988,-117.81" class="f-uix s-uix"/>
<text xml:space="preserve" text-anchor="middle" x="1013.25" y="-179.3" font-family="Helvetica,sans-Serif" font-size="9.50" class="t-uix"> &#160;ALERTING &#160;</text>
</g>

<g id="node1" class="node">
<title>browser</title>
<path stroke-width="1.3" d="M214.39,-761.51C214.39,-761.51 117.61,-761.51 117.61,-761.51 113.53,-761.51 109.45,-757.43 109.45,-753.35 109.45,-753.35 109.45,-745.19 109.45,-745.19 109.45,-741.11 113.53,-737.03 117.61,-737.03 117.61,-737.03 214.39,-737.03 214.39,-737.03 218.47,-737.03 222.55,-741.11 222.55,-745.19 222.55,-745.19 222.55,-753.35 222.55,-753.35 222.55,-757.43 218.47,-761.51 214.39,-761.51" class="f-hum s-hum"/>
<text xml:space="preserve" text-anchor="middle" x="166" y="-745.39" font-family="Helvetica,sans-Serif" font-size="10.00" class="t-ink">Course staff browser</text>
</g>

<g id="node3" class="node">
<title>dns</title>
<path stroke-width="1.3" d="M312.39,-672.01C312.39,-672.01 179.61,-672.01 179.61,-672.01 175.53,-672.01 171.45,-667.93 171.45,-663.85 171.45,-663.85 171.45,-655.69 171.45,-655.69 171.45,-651.61 175.53,-647.53 179.61,-647.53 179.61,-647.53 312.39,-647.53 312.39,-647.53 316.47,-647.53 320.55,-651.61 320.55,-655.69 320.55,-655.69 320.55,-663.85 320.55,-663.85 320.55,-667.93 316.47,-672.01 312.39,-672.01" class="f-hum s-hum"/>
<text xml:space="preserve" text-anchor="middle" x="246" y="-655.62" font-family="Helvetica,sans-Serif" font-size="9.50" class="t-ink">provenance.eecs.berkeley.edu</text>
</g>

<g id="edge1" class="edge">
<title>browser&#45;&gt;dns</title>
<path fill="none" stroke-width="1.15" d="M176.79,-736.47C190.58,-721.38 214.57,-695.15 230.37,-677.87" class="s-edge"/>
<polygon stroke-width="1.15" points="231.71,-679.51 234.21,-673.67 228.61,-676.68 231.71,-679.51" class="a-edge s-edge"/>
</g>

<g id="node2" class="node">
<title>gwclient</title>
<path stroke-width="1.3" d="M397.34,-764.78C397.34,-764.78 254.66,-764.78 254.66,-764.78 249.49,-764.78 244.32,-759.61 244.32,-754.44 244.32,-754.44 244.32,-744.1 244.32,-744.1 244.32,-738.93 249.49,-733.76 254.66,-733.76 254.66,-733.76 397.34,-733.76 397.34,-733.76 402.5,-733.76 407.68,-738.93 407.68,-744.1 407.68,-744.1 407.68,-754.44 407.68,-754.44 407.68,-759.61 402.5,-764.78 397.34,-764.78" class="f-tra s-tra"/>
<text xml:space="preserve" text-anchor="middle" x="326" y="-749.99" font-family="Helvetica,sans-Serif" font-size="9.50" class="t-ink">provgate</text>
<text xml:space="preserve" text-anchor="middle" x="326" y="-740.24" font-family="Helvetica,sans-Serif" font-size="9.50" class="t-ink">running wherever staff schedule it</text>
</g>

<g id="edge2" class="edge">
<title>gwclient&#45;&gt;dns</title>
<path fill="none" stroke-width="1.15" d="M312.43,-733.43C298.45,-718.14 276.69,-694.33 261.91,-678.17" class="s-tra"/>
<polygon stroke-width="1.15" points="263.58,-676.89 257.98,-673.88 260.48,-679.72 263.58,-676.89" class="a-tra s-tra"/>
<text xml:space="preserve" text-anchor="middle" x="310.42" y="-706.97" font-family="Helvetica,sans-Serif" font-size="8.20" class="t-hum">API token</text>
</g>

<g id="node4" class="node">
<title>prox</title>
<path stroke-width="1.3" d="M292.96,-608.53C292.96,-608.53 199.04,-608.53 199.04,-608.53 193.87,-608.53 188.7,-603.36 188.7,-598.19 188.7,-598.19 188.7,-587.85 188.7,-587.85 188.7,-582.68 193.87,-577.51 199.04,-577.51 199.04,-577.51 292.96,-577.51 292.96,-577.51 298.13,-577.51 303.3,-582.68 303.3,-587.85 303.3,-587.85 303.3,-598.19 303.3,-598.19 303.3,-603.36 298.13,-608.53 292.96,-608.53" class="f-hum s-hum"/>
<text xml:space="preserve" text-anchor="middle" x="246" y="-593.74" font-family="Helvetica,sans-Serif" font-size="9.50" class="t-ink">apphost reverse proxy</text>
<text xml:space="preserve" text-anchor="middle" x="246" y="-583.99" font-family="Helvetica,sans-Serif" font-size="9.50" class="t-ink">terminates TLS</text>
</g>

<g id="edge3" class="edge">
<title>dns&#45;&gt;prox</title>
<path fill="none" stroke-width="1.15" d="M246,-646.89C246,-638.4 246,-626.7 246,-616.47" class="s-edge"/>
<polygon stroke-width="1.15" points="248.1,-616.75 246,-610.75 243.9,-616.75 248.1,-616.75" class="a-edge s-edge"/>
</g>

<g id="node5" class="node">
<title>sock</title>
<polygon stroke-width="1.3" points="339.38,-523.76 147.45,-523.76 147.45,-492.74 344.55,-492.74 344.55,-518.59 339.38,-523.76" class="f-hum s-hum"/>
<polyline fill="none" stroke-width="1.3" points="339.38,-523.76 339.38,-518.59" class="s-hum"/>
<polyline fill="none" stroke-width="1.3" points="344.55,-518.59 339.38,-518.59" class="s-hum"/>
<text xml:space="preserve" text-anchor="middle" x="246" y="-509.45" font-family="Helvetica,sans-Serif" font-size="9.00" class="t-ink">/srv/appsockets/provenance/main/app.sock</text>
<text xml:space="preserve" text-anchor="middle" x="246" y="-499.7" font-family="Helvetica,sans-Serif" font-size="9.00" class="t-ink">unix socket — no port is ever exposed</text>
</g>

<g id="edge4" class="edge">
<title>prox&#45;&gt;sock</title>
<path fill="none" stroke-width="1.15" d="M246,-577.22C246,-564.59 246,-546.22 246,-531.77" class="s-edge"/>
<polygon stroke-width="1.15" points="248.1,-531.94 246,-525.94 243.9,-531.94 248.1,-531.94" class="a-edge s-edge"/>
</g>

<g id="node6" class="node">
<title>apic</title>
<path stroke-width="1.7" d="M348.46,-448.86C348.46,-448.86 143.54,-448.86 143.54,-448.86 138.37,-448.86 133.2,-443.69 133.2,-438.52 133.2,-438.52 133.2,-428.18 133.2,-428.18 133.2,-423.01 138.37,-417.84 143.54,-417.84 143.54,-417.84 348.46,-417.84 348.46,-417.84 353.63,-417.84 358.8,-423.01 358.8,-428.18 358.8,-428.18 358.8,-438.52 358.8,-438.52 358.8,-443.69 353.63,-448.86 348.46,-448.86" class="f-srv s-srv"/>
<text xml:space="preserve" text-anchor="middle" x="246" y="-434.08" font-family="Helvetica,sans-Serif" font-size="9.50" class="t-ink">app container — mode=api</text>
<text xml:space="preserve" text-anchor="middle" x="246" y="-424.33" font-family="Helvetica,sans-Serif" font-size="9.50" class="t-ink">Hono · OAuth · OpenAPI + Redoc · Prometheus</text>
</g>

<g id="edge5" class="edge">
<title>sock&#45;&gt;apic</title>
<path fill="none" stroke-width="1.15" d="M246,-492.15C246,-482.05 246,-468.58 246,-457.18" class="s-edge"/>
<polygon stroke-width="1.15" points="248.1,-457.43 246,-451.43 243.9,-457.43 248.1,-457.43" class="a-edge s-edge"/>
</g>

<g id="node7" class="node">
<title>wrkc</title>
<path stroke-width="1.7" d="M348.46,-352.03C348.46,-352.03 173.54,-352.03 173.54,-352.03 168.37,-352.03 163.2,-346.86 163.2,-341.69 163.2,-341.69 163.2,-331.35 163.2,-331.35 163.2,-326.18 168.37,-321.01 173.54,-321.01 173.54,-321.01 348.46,-321.01 348.46,-321.01 353.63,-321.01 358.8,-326.18 358.8,-331.35 358.8,-331.35 358.8,-341.69 358.8,-341.69 358.8,-346.86 353.63,-352.03 348.46,-352.03" class="f-srv s-srv"/>
<text xml:space="preserve" text-anchor="middle" x="261" y="-337.24" font-family="Helvetica,sans-Serif" font-size="9.50" class="t-ink">app container — mode=worker</text>
<text xml:space="preserve" text-anchor="middle" x="261" y="-327.49" font-family="Helvetica,sans-Serif" font-size="9.50" class="t-ink">pg&#45;boss subscriber, bounded concurrency</text>
</g>

<g id="edge9" class="edge">
<title>apic&#45;&gt;wrkc</title>
<path fill="none" stroke-width="1.15" stroke-dasharray="5,2" d="M248.41,-417.12C250.84,-401.77 254.61,-377.91 257.4,-360.31" class="s-srv"/>
<polygon stroke-width="1.15" points="259.46,-360.69 258.32,-354.44 255.31,-360.03 259.46,-360.69" class="a-srv s-srv"/>
<text xml:space="preserve" text-anchor="middle" x="304.57" y="-391.05" font-family="Helvetica,sans-Serif" font-size="8.20" class="t-hum">enqueue via pg&#45;boss</text>
<text xml:space="preserve" text-anchor="middle" x="304.57" y="-382.05" font-family="Helvetica,sans-Serif" font-size="8.20" class="t-hum">(the queue lives in Postgres)</text>
</g>

<g id="node8" class="node">
<title>pgc</title>
<path stroke-width="1.3" d="M226.8,-259.6C226.8,-261.77 204.48,-263.53 177,-263.53 149.52,-263.53 127.2,-261.77 127.2,-259.6 127.2,-259.6 127.2,-224.26 127.2,-224.26 127.2,-222.09 149.52,-220.33 177,-220.33 204.48,-220.33 226.8,-222.09 226.8,-224.26 226.8,-224.26 226.8,-259.6 226.8,-259.6" class="f-srv s-srv"/>
<path fill="none" stroke-width="1.3" d="M226.8,-259.6C226.8,-257.43 204.48,-255.67 177,-255.67 149.52,-255.67 127.2,-257.43 127.2,-259.6" class="s-srv"/>
<text xml:space="preserve" text-anchor="middle" x="177" y="-237.78" font-family="Helvetica,sans-Serif" font-size="9.50" class="t-ink">postgres container</text>
</g>

<g id="edge7" class="edge">
<title>apic&#45;&gt;pgc</title>
<path fill="none" stroke-width="1.15" d="M212.05,-417.02C190.54,-405.28 164.5,-386.84 152,-361.84 137.43,-332.7 149.54,-295.43 161.45,-270.45" class="s-edge"/>
<polygon stroke-width="1.15" points="163.21,-271.61 164,-265.31 159.45,-269.74 163.21,-271.61" class="a-edge s-edge"/>
</g>

<g id="node10" class="node">
<title>blobs</title>
<path stroke-width="1.3" d="M446.18,-66.96C446.18,-69.77 402.17,-72.06 348,-72.06 293.83,-72.06 249.82,-69.77 249.82,-66.96 249.82,-66.96 249.82,-21.1 249.82,-21.1 249.82,-18.28 293.83,-16 348,-16 402.17,-16 446.18,-18.28 446.18,-21.1 446.18,-21.1 446.18,-66.96 446.18,-66.96" class="f-rec s-rec"/>
<path fill="none" stroke-width="1.3" d="M446.18,-66.96C446.18,-64.15 402.17,-61.87 348,-61.87 293.83,-61.87 249.82,-64.15 249.82,-66.96" class="s-rec"/>
<text xml:space="preserve" text-anchor="middle" x="348" y="-49.63" font-family="Helvetica,sans-Serif" font-size="9.50" class="t-ink">blob store — filesystem backend</text>
<text xml:space="preserve" text-anchor="middle" x="348" y="-39.88" font-family="Helvetica,sans-Serif" font-size="9.50" class="t-ink">behind the same S3&#45;compatible interface</text>
<text xml:space="preserve" text-anchor="middle" x="348" y="-30.13" font-family="Helvetica,sans-Serif" font-size="9.50" class="t-ink">MinIO provides in development</text>
</g>

<g id="edge10" class="edge">
<title>apic&#45;&gt;blobs</title>
<path fill="none" stroke-width="1.15" d="M359.46,-429.3C659.67,-420.46 1452,-391.99 1452,-337.52 1452,-337.52 1452,-337.52 1452,-145.19 1452,-129.86 1444.52,-125.05 1431,-117.81 1346.34,-72.45 709.72,-53.18 453.92,-47.21" class="s-edge"/>
<polygon stroke-width="1.15" points="454.25,-45.12 448.21,-47.08 454.16,-49.32 454.25,-45.12" class="a-edge s-edge"/>
</g>

<g id="node21" class="node">
<title>goog</title>
<path stroke-width="1.3" d="M1747.19,-340.69C1747.19,-340.69 1701.47,-357.67 1701.47,-357.67 1695.84,-359.76 1684.22,-361.84 1678.22,-361.84 1678.22,-361.84 1565.78,-361.84 1565.78,-361.84 1559.78,-361.84 1548.16,-359.76 1542.53,-357.67 1542.53,-357.67 1496.81,-340.69 1496.81,-340.69 1491.19,-338.6 1491.19,-334.43 1496.81,-332.34 1496.81,-332.34 1542.53,-315.37 1542.53,-315.37 1548.16,-313.28 1559.78,-311.19 1565.78,-311.19 1565.78,-311.19 1678.22,-311.19 1678.22,-311.19 1684.22,-311.19 1695.84,-313.28 1701.47,-315.37 1701.47,-315.37 1747.19,-332.34 1747.19,-332.34 1752.81,-334.43 1752.81,-338.6 1747.19,-340.69" class="f-hum s-hum"/>
<text xml:space="preserve" text-anchor="middle" x="1622" y="-337.24" font-family="Helvetica,sans-Serif" font-size="9.50" class="t-ink">Google OAuth</text>
<text xml:space="preserve" text-anchor="middle" x="1622" y="-327.49" font-family="Helvetica,sans-Serif" font-size="9.50" class="t-ink">hd claim must match berkeley.edu</text>
</g>

<g id="edge6" class="edge">
<title>apic&#45;&gt;goog</title>
<path fill="none" stroke-width="1.15" stroke-dasharray="5,2" d="M359.58,-431.52C642.28,-429.13 1362.41,-420.93 1469,-398.84 1502.19,-391.97 1537.43,-378.32 1565.71,-365.65" class="s-hum"/>
<polygon stroke-width="1.15" points="1566.57,-367.56 1571.16,-363.17 1564.83,-363.74 1566.57,-367.56" class="a-hum s-hum"/>
<text xml:space="preserve" text-anchor="middle" x="1550.79" y="-386.55" font-family="Helvetica,sans-Serif" font-size="8.20" class="t-hum">verify ID token</text>
</g>

<g id="edge8" class="edge">
<title>wrkc&#45;&gt;pgc</title>
<path fill="none" stroke-width="1.15" d="M247.13,-320.23C234.65,-306.48 216.05,-285.97 201.14,-269.53" class="s-edge"/>
<polygon stroke-width="1.15" points="202.99,-268.45 197.4,-265.42 199.88,-271.27 202.99,-268.45" class="a-edge s-edge"/>
</g>

<g id="edge11" class="edge">
<title>wrkc&#45;&gt;blobs</title>
<path fill="none" stroke-width="1.15" d="M265.56,-320.31C278.96,-275.55 318.52,-143.45 337.55,-79.93" class="s-edge"/>
<polygon stroke-width="1.15" points="339.55,-80.55 339.26,-74.2 335.53,-79.34 339.55,-80.55" class="a-edge s-edge"/>
</g>

<g id="node12" class="node">
<title>j1</title>
<path stroke-width="1.3" d="M568.83,-257.44C568.83,-257.44 393.17,-257.44 393.17,-257.44 388,-257.44 382.82,-252.27 382.82,-247.1 382.82,-247.1 382.82,-236.76 382.82,-236.76 382.82,-231.59 388,-226.42 393.16,-226.42 393.16,-226.42 568.83,-226.42 568.83,-226.42 574,-226.42 579.17,-231.59 579.17,-236.76 579.17,-236.76 579.17,-247.1 579.17,-247.1 579.17,-252.27 574,-257.44 568.83,-257.44" class="f-ana s-ana"/>
<text xml:space="preserve" text-anchor="middle" x="481" y="-243.13" font-family="Helvetica,sans-Serif" font-size="9.00" class="t-ink">retention&#45;sweep</text>
<text xml:space="preserve" text-anchor="middle" x="481" y="-233.38" font-family="Helvetica,sans-Serif" font-size="9.00" class="t-ink">deletes BLOBS only — rows persist forever</text>
</g>

<g id="edge14" class="edge">
<title>wrkc&#45;&gt;j1</title>
<path fill="none" stroke-width="1.15" d="M297.33,-320.23C319.6,-310.85 349.33,-298.34 378.38,-286.12" class="s-ana"/>
<polygon stroke-width="1.15" points="379.02,-288.12 383.74,-283.86 377.39,-284.25 379.02,-288.12" class="a-ana s-ana"/>
</g>

<g id="node20" class="node">
<title>hchk</title>
<path stroke-width="1.7" d="M1405.67,-166.58C1405.67,-166.58 1206.33,-166.58 1206.33,-166.58 1200.33,-166.58 1194.33,-160.58 1194.33,-154.58 1194.33,-154.58 1194.33,-137.81 1194.33,-137.81 1194.33,-131.81 1200.33,-125.81 1206.33,-125.81 1206.33,-125.81 1405.67,-125.81 1405.67,-125.81 1411.67,-125.81 1417.67,-131.81 1417.67,-137.81 1417.67,-137.81 1417.67,-154.58 1417.67,-154.58 1417.67,-160.58 1411.67,-166.58 1405.67,-166.58" class="f-uix s-uix"/>
<text xml:space="preserve" text-anchor="middle" x="1306" y="-151.79" font-family="Helvetica,sans-Serif" font-size="9.50" class="t-ink">healthchecks.io</text>
<text xml:space="preserve" text-anchor="middle" x="1306" y="-142.04" font-family="Helvetica,sans-Serif" font-size="9.50" class="t-ink">dead&#45;man&#39;s switch — catches a SILENT failure,</text>
<text xml:space="preserve" text-anchor="middle" x="1306" y="-132.29" font-family="Helvetica,sans-Serif" font-size="9.50" class="t-ink">which no alert&#45;on&#45;error ever will</text>
</g>

<g id="edge17" class="edge">
<title>wrkc&#45;&gt;hchk</title>
<path fill="none" stroke-width="1.15" stroke-dasharray="5,2" d="M359.55,-334.39C619.89,-330.92 1308.4,-318.45 1342,-283.19 1370.47,-253.31 1345.67,-203.62 1325.52,-173.29" class="s-uix"/>
<polygon stroke-width="1.15" points="1327.41,-172.34 1322.29,-168.57 1323.94,-174.71 1327.41,-172.34" class="a-uix s-uix"/>
<text xml:space="preserve" text-anchor="middle" x="1377.36" y="-238.64" font-family="Helvetica,sans-Serif" font-size="8.20" class="t-hum">periodic ping</text>
</g>

<g id="node9" class="node">
<title>dumpc</title>
<path stroke-width="1.3" d="M270.46,-161.7C270.46,-161.7 83.54,-161.7 83.54,-161.7 78.37,-161.7 73.2,-156.53 73.2,-151.36 73.2,-151.36 73.2,-141.02 73.2,-141.02 73.2,-135.85 78.37,-130.68 83.54,-130.68 83.54,-130.68 270.46,-130.68 270.46,-130.68 275.63,-130.68 280.8,-135.85 280.8,-141.02 280.8,-141.02 280.8,-151.36 280.8,-151.36 280.8,-156.53 275.63,-161.7 270.46,-161.7" class="f-srv s-srv"/>
<text xml:space="preserve" text-anchor="middle" x="177" y="-147.39" font-family="Helvetica,sans-Serif" font-size="9.00" class="t-ink">pgdump sidecar</text>
<text xml:space="preserve" text-anchor="middle" x="177" y="-137.64" font-family="Helvetica,sans-Serif" font-size="9.00" class="t-ink">scheduled pg_dump into the backup directory</text>
</g>

<g id="edge12" class="edge">
<title>pgc&#45;&gt;dumpc</title>
<path fill="none" stroke-width="1.15" d="M177,-220.13C177,-205.15 177,-184.98 177,-169.64" class="s-edge"/>
<polygon stroke-width="1.15" points="179.1,-169.85 177,-163.85 174.9,-169.85 179.1,-169.85" class="a-edge s-edge"/>
</g>

<g id="node11" class="node">
<title>backs</title>
<path stroke-width="1.3" d="M206.55,-58.76C206.55,-60.56 193.31,-62.03 177,-62.03 160.69,-62.03 147.45,-60.56 147.45,-58.76 147.45,-58.76 147.45,-29.3 147.45,-29.3 147.45,-27.5 160.69,-26.03 177,-26.03 193.31,-26.03 206.55,-27.5 206.55,-29.3 206.55,-29.3 206.55,-58.76 206.55,-58.76" class="f-rec s-rec"/>
<path fill="none" stroke-width="1.3" d="M206.55,-58.76C206.55,-56.95 193.31,-55.48 177,-55.48 160.69,-55.48 147.45,-56.95 147.45,-58.76" class="s-rec"/>
<text xml:space="preserve" text-anchor="middle" x="177" y="-39.88" font-family="Helvetica,sans-Serif" font-size="9.50" class="t-ink">backups/</text>
</g>

<g id="edge13" class="edge">
<title>dumpc&#45;&gt;backs</title>
<path fill="none" stroke-width="1.15" d="M177,-130.41C177,-114.61 177,-89.25 177,-70.27" class="s-edge"/>
<polygon stroke-width="1.15" points="179.1,-70.31 177,-64.31 174.9,-70.31 179.1,-70.31" class="a-edge s-edge"/>
</g>

<g id="edge18" class="edge">
<title>j1&#45;&gt;blobs</title>
<path fill="none" stroke-width="1.15" d="M470.78,-225.88C449.55,-194.61 400.2,-121.91 370.94,-78.81" class="s-rec"/>
<polygon stroke-width="1.15" points="372.68,-77.64 367.57,-73.86 369.2,-80 372.68,-77.64" class="a-rec s-rec"/>
<text xml:space="preserve" text-anchor="middle" x="483.12" y="-142.9" font-family="Helvetica,sans-Serif" font-size="8.20" class="t-hum">delete expired blobs</text>
</g>

<g id="node13" class="node">
<title>j2</title>
<path stroke-width="1.3" d="M711.01,-254.17C711.01,-254.17 608.99,-254.17 608.99,-254.17 604.91,-254.17 600.83,-250.09 600.83,-246.01 600.83,-246.01 600.83,-237.85 600.83,-237.85 600.83,-233.77 604.91,-229.69 608.99,-229.69 608.99,-229.69 711.01,-229.69 711.01,-229.69 715.09,-229.69 719.17,-233.77 719.17,-237.85 719.17,-237.85 719.17,-246.01 719.17,-246.01 719.17,-250.09 715.09,-254.17 711.01,-254.17" class="f-ana s-ana"/>
<text xml:space="preserve" text-anchor="middle" x="660" y="-238.25" font-family="Helvetica,sans-Serif" font-size="9.00" class="t-ink">purge&#45;expired&#45;sessions</text>
</g>

<g id="node14" class="node">
<title>j3</title>
<path stroke-width="1.3" d="M832.26,-254.17C832.26,-254.17 749.74,-254.17 749.74,-254.17 745.66,-254.17 741.58,-250.09 741.58,-246.01 741.58,-246.01 741.58,-237.85 741.58,-237.85 741.58,-233.77 745.66,-229.69 749.74,-229.69 749.74,-229.69 832.26,-229.69 832.26,-229.69 836.34,-229.69 840.42,-233.77 840.42,-237.85 840.42,-237.85 840.42,-246.01 840.42,-246.01 840.42,-250.09 836.34,-254.17 832.26,-254.17" class="f-ana s-ana"/>
<text xml:space="preserve" text-anchor="middle" x="791" y="-238.25" font-family="Helvetica,sans-Serif" font-size="9.00" class="t-ink">reap&#45;stale&#45;uploads</text>
</g>

<g id="node15" class="node">
<title>j4</title>
<path stroke-width="1.3" d="M967.01,-254.17C967.01,-254.17 870.99,-254.17 870.99,-254.17 866.91,-254.17 862.83,-250.09 862.83,-246.01 862.83,-246.01 862.83,-237.85 862.83,-237.85 862.83,-233.77 866.91,-229.69 870.99,-229.69 870.99,-229.69 967.01,-229.69 967.01,-229.69 971.09,-229.69 975.17,-233.77 975.17,-237.85 975.17,-237.85 975.17,-246.01 975.17,-246.01 975.17,-250.09 971.09,-254.17 967.01,-254.17" class="f-ana s-ana"/>
<text xml:space="preserve" text-anchor="middle" x="919" y="-238.25" font-family="Helvetica,sans-Serif" font-size="9.00" class="t-ink">purge&#45;expired&#45;exports</text>
</g>

<g id="node16" class="node">
<title>j5</title>
<path stroke-width="1.3" d="M1134.84,-257.44C1134.84,-257.44 1007.17,-257.44 1007.17,-257.44 1002,-257.44 996.83,-252.27 996.83,-247.1 996.83,-247.1 996.83,-236.76 996.83,-236.76 996.83,-231.59 1002,-226.42 1007.17,-226.42 1007.17,-226.42 1134.84,-226.42 1134.84,-226.42 1140,-226.42 1145.17,-231.59 1145.17,-236.76 1145.17,-236.76 1145.17,-247.1 1145.17,-247.1 1145.17,-252.27 1140,-257.44 1134.84,-257.44" class="f-ana s-ana"/>
<text xml:space="preserve" text-anchor="middle" x="1071" y="-243.13" font-family="Helvetica,sans-Serif" font-size="9.00" class="t-ink">storage&#45;quota&#45;check</text>
<text xml:space="preserve" text-anchor="middle" x="1071" y="-233.38" font-family="Helvetica,sans-Serif" font-size="9.00" class="t-ink">alerts before the 1 TB wall is hit</text>
</g>

<g id="node18" class="node">
<title>disc</title>
<path stroke-width="1.3" d="M1069.64,-158.43C1069.64,-158.43 992.36,-158.43 992.36,-158.43 988.28,-158.43 984.2,-154.35 984.2,-150.27 984.2,-150.27 984.2,-142.11 984.2,-142.11 984.2,-138.03 988.28,-133.95 992.36,-133.95 992.36,-133.95 1069.64,-133.95 1069.64,-133.95 1073.72,-133.95 1077.8,-138.03 1077.8,-142.11 1077.8,-142.11 1077.8,-150.27 1077.8,-150.27 1077.8,-154.35 1073.72,-158.43 1069.64,-158.43" class="f-uix s-uix"/>
<text xml:space="preserve" text-anchor="middle" x="1031" y="-142.04" font-family="Helvetica,sans-Serif" font-size="9.50" class="t-ink">Discord webhook</text>
</g>

<g id="edge15" class="edge">
<title>j5&#45;&gt;disc</title>
<path fill="none" stroke-width="1.15" d="M1064.57,-225.87C1057.62,-209.57 1046.51,-183.54 1039,-165.93" class="s-uix"/>
<polygon stroke-width="1.15" points="1040.99,-165.25 1036.7,-160.55 1037.12,-166.9 1040.99,-165.25" class="a-uix s-uix"/>
</g>

<g id="node19" class="node">
<title>smtp</title>
<path stroke-width="1.3" d="M1164.51,-158.43C1164.51,-158.43 1107.49,-158.43 1107.49,-158.43 1103.4,-158.43 1099.33,-154.35 1099.33,-150.27 1099.33,-150.27 1099.33,-142.11 1099.33,-142.11 1099.33,-138.03 1103.4,-133.95 1107.49,-133.95 1107.49,-133.95 1164.51,-133.95 1164.51,-133.95 1168.6,-133.95 1172.67,-138.03 1172.67,-142.11 1172.67,-142.11 1172.67,-150.27 1172.67,-150.27 1172.67,-154.35 1168.6,-158.43 1164.51,-158.43" class="f-uix s-uix"/>
<text xml:space="preserve" text-anchor="middle" x="1136" y="-142.04" font-family="Helvetica,sans-Serif" font-size="9.50" class="t-ink">SMTP alerts</text>
</g>

<g id="edge16" class="edge">
<title>j5&#45;&gt;smtp</title>
<path fill="none" stroke-width="1.15" d="M1081.44,-225.87C1092.95,-209.28 1111.44,-182.61 1123.65,-165" class="s-uix"/>
<polygon stroke-width="1.15" points="1125.16,-166.51 1126.85,-160.38 1121.71,-164.12 1125.16,-166.51" class="a-uix s-uix"/>
</g>

<g id="node17" class="node">
<title>j6</title>
<path stroke-width="1.3" d="M1321.14,-254.17C1321.14,-254.17 1174.86,-254.17 1174.86,-254.17 1170.78,-254.17 1166.7,-250.09 1166.7,-246.01 1166.7,-246.01 1166.7,-237.85 1166.7,-237.85 1166.7,-233.77 1170.78,-229.69 1174.86,-229.69 1174.86,-229.69 1321.14,-229.69 1321.14,-229.69 1325.22,-229.69 1329.3,-233.77 1329.3,-237.85 1329.3,-237.85 1329.3,-246.01 1329.3,-246.01 1329.3,-250.09 1325.22,-254.17 1321.14,-254.17" class="f-ana s-ana"/>
<text xml:space="preserve" text-anchor="middle" x="1248" y="-238.25" font-family="Helvetica,sans-Serif" font-size="9.00" class="t-ink">recompute / recompute&#45;cross&#45;flags</text>
</g>

<g id="node22" class="node">
<title>deploy</title>
<polygon stroke-width="1.3" points="596.55,-528.63 375.45,-528.63 375.45,-487.86 602.55,-487.86 602.55,-522.63 596.55,-528.63" class="f-rec s-rec"/>
<polyline fill="none" stroke-width="1.3" points="596.55,-528.63 596.55,-522.63" class="s-rec"/>
<polyline fill="none" stroke-width="1.3" points="602.55,-522.63 596.55,-522.63" class="s-rec"/>
<text xml:space="preserve" text-anchor="middle" x="489" y="-514.32" font-family="Helvetica,sans-Serif" font-size="9.00" class="t-ink">deploy is manual, by hand, over SSH</text>
<text xml:space="preserve" text-anchor="middle" x="489" y="-504.57" font-family="Helvetica,sans-Serif" font-size="9.00" class="t-ink">GitHub&#39;s hosted runners cannot reach instapphost,</text>
<text xml:space="preserve" text-anchor="middle" x="489" y="-494.82" font-family="Helvetica,sans-Serif" font-size="9.00" class="t-ink">so there is no CI/CD for this environment</text>
</g>

<g id="edge19" class="edge">
<title>deploy&#45;&gt;apic</title>
<path fill="none" stroke-width="1.15" stroke-dasharray="5,2" d="M422.28,-487.23C385.42,-476.18 340.05,-462.57 304.57,-451.92" class="s-rec"/>
<polygon stroke-width="1.15" points="305.18,-449.91 298.83,-450.2 303.97,-453.94 305.18,-449.91" class="a-rec s-rec"/>
</g>
</g>
</svg>