<svg width="1912pt" height="1078pt"
 viewBox="0.00 0.00 1912.00 1078.00" xmlns="http://www.w3.org/2000/svg" xmlns:xlink="http://www.w3.org/1999/xlink">
<g id="graph0" class="graph" transform="scale(1 1) rotate(0) translate(21.6 1056.13)">
<title>deploy</title>
<g id="clust1" class="cluster">

<path stroke-width="1.5" d="M1309,-775.13C1309,-775.13 1455,-775.13 1455,-775.13 1461,-775.13 1467,-781.13 1467,-787.13 1467,-787.13 1467,-930.82 1467,-930.82 1467,-936.82 1461,-942.82 1455,-942.82 1455,-942.82 1309,-942.82 1309,-942.82 1303,-942.82 1297,-936.82 1297,-930.82 1297,-930.82 1297,-787.13 1297,-787.13 1297,-781.13 1303,-775.13 1309,-775.13" class="f-hum s-hum"/>
<text xml:space="preserve" text-anchor="middle" x="1338" y="-929.79" font-family="Helvetica,sans-Serif" font-size="9.50" class="t-hum"> &#160;EECS EDGE &#160;</text>
</g>
<g id="clust2" class="cluster">

<path stroke-width="1.5" d="M1164,-164.91C1164,-164.91 1499,-164.91 1499,-164.91 1505,-164.91 1511,-170.91 1511,-176.91 1511,-176.91 1511,-715 1511,-715 1511,-721 1505,-727 1499,-727 1499,-727 1164,-727 1164,-727 1158,-727 1152,-721 1152,-715 1152,-715 1152,-176.91 1152,-176.91 1152,-170.91 1158,-164.91 1164,-164.91" class="f-srv s-srv"/>
<text xml:space="preserve" text-anchor="middle" x="1331.38" y="-713.98" font-family="Helvetica,sans-Serif" font-size="9.50" class="t-srv"> &#160;instapphost.eecs.berkeley.edu — rootless Docker, provenance service account &#160;</text>
</g>
<g id="clust3" class="cluster">

<path stroke-width="1.5" d="M1293,-8C1293,-8 1595,-8 1595,-8 1601,-8 1607,-14 1607,-20 1607,-20 1607,-87.79 1607,-87.79 1607,-93.79 1601,-99.79 1595,-99.79 1595,-99.79 1293,-99.79 1293,-99.79 1287,-99.79 1281,-93.79 1281,-87.79 1281,-87.79 1281,-20 1281,-20 1281,-14 1287,-8 1293,-8" class="f-rec s-rec"/>
<text xml:space="preserve" text-anchor="middle" x="1443.88" y="-86.76" font-family="Helvetica,sans-Serif" font-size="9.50" class="t-rec"> &#160;/home/submit/provenance — NFS, 1 TB HARD QUOTA, no headroom &#160;</text>
</g>
<g id="clust4" class="cluster">

<path stroke-width="1.5" d="M20,-160.04C20,-160.04 1113,-160.04 1113,-160.04 1119,-160.04 1125,-166.04 1125,-172.04 1125,-172.04 1125,-224 1125,-224 1125,-230 1119,-236 1113,-236 1113,-236 20,-236 20,-236 14,-236 8,-230 8,-224 8,-224 8,-172.04 8,-172.04 8,-166.04 14,-160.04 20,-160.04" class="f-ana s-ana"/>
<text xml:space="preserve" text-anchor="middle" x="145" y="-222.97" font-family="Helvetica,sans-Serif" font-size="9.50" class="t-ana"> &#160;pg&#45;boss JOBS — every one has an explicit shutdown path &#160;</text>
</g>
<g id="clust5" class="cluster">

<path stroke-width="1.5" d="M694,-15.91C694,-15.91 1176,-15.91 1176,-15.91 1182,-15.91 1188,-21.91 1188,-27.91 1188,-27.91 1188,-79.87 1188,-79.87 1188,-85.87 1182,-91.87 1176,-91.87 1176,-91.87 694,-91.87 694,-91.87 688,-91.87 682,-85.87 682,-79.87 682,-79.87 682,-27.91 682,-27.91 682,-21.91 688,-15.91 694,-15.91" class="f-uix s-uix"/>
<text xml:space="preserve" text-anchor="middle" x="719.25" y="-78.85" font-family="Helvetica,sans-Serif" font-size="9.50" class="t-uix"> &#160;ALERTING &#160;</text>
</g>

<g id="node1" class="node">
<title>browser</title>
<path stroke-width="1.3" d="M1339.55,-1030.54C1339.55,-1030.54 1238.45,-1030.54 1238.45,-1030.54 1234.37,-1030.54 1230.29,-1026.46 1230.29,-1022.38 1230.29,-1022.38 1230.29,-1014.22 1230.29,-1014.22 1230.29,-1010.14 1234.37,-1006.06 1238.45,-1006.06 1238.45,-1006.06 1339.55,-1006.06 1339.55,-1006.06 1343.63,-1006.06 1347.71,-1010.14 1347.71,-1014.22 1347.71,-1014.22 1347.71,-1022.38 1347.71,-1022.38 1347.71,-1026.46 1343.63,-1030.54 1339.55,-1030.54" class="f-hum s-hum"/>
<text xml:space="preserve" text-anchor="middle" x="1289" y="-1014.42" font-family="Helvetica,sans-Serif" font-size="10.00" class="t-ink">Course staff browser</text>
</g>

<g id="node3" class="node">
<title>dns</title>
<path stroke-width="1.3" d="M1450.55,-917.07C1450.55,-917.07 1313.45,-917.07 1313.45,-917.07 1309.37,-917.07 1305.29,-912.99 1305.29,-908.91 1305.29,-908.91 1305.29,-900.75 1305.29,-900.75 1305.29,-896.67 1309.37,-892.59 1313.45,-892.59 1313.45,-892.59 1450.55,-892.59 1450.55,-892.59 1454.63,-892.59 1458.71,-896.67 1458.71,-900.75 1458.71,-900.75 1458.71,-908.91 1458.71,-908.91 1458.71,-912.99 1454.63,-917.07 1450.55,-917.07" class="f-hum s-hum"/>
<text xml:space="preserve" text-anchor="middle" x="1382" y="-900.68" font-family="Helvetica,sans-Serif" font-size="9.50" class="t-ink">provenance.eecs.berkeley.edu</text>
</g>

<g id="edge1" class="edge">

<path fill="none" stroke-width="1.15" d="M1298.6,-1005.79C1314.96,-986.18 1348.33,-946.19 1367.52,-923.18" class="s-edge"/>
<polygon stroke-width="1.15" points="1368.96,-924.73 1371.2,-918.78 1365.74,-922.04 1368.96,-924.73" class="a-edge s-edge"/>
</g>

<g id="node2" class="node">
<title>gwclient</title>
<path stroke-width="1.3" d="M1548.02,-1034.53C1548.02,-1034.53 1401.98,-1034.53 1401.98,-1034.53 1396.58,-1034.53 1391.16,-1029.12 1391.16,-1023.71 1391.16,-1023.71 1391.16,-1012.89 1391.16,-1012.89 1391.16,-1007.48 1396.58,-1002.07 1401.98,-1002.07 1401.98,-1002.07 1548.02,-1002.07 1548.02,-1002.07 1553.42,-1002.07 1558.84,-1007.48 1558.84,-1012.89 1558.84,-1012.89 1558.84,-1023.71 1558.84,-1023.71 1558.84,-1029.12 1553.42,-1034.53 1548.02,-1034.53" class="f-tra s-tra"/>
<text xml:space="preserve" text-anchor="middle" x="1475" y="-1019.02" font-family="Helvetica,sans-Serif" font-size="9.50" class="t-ink">provgate</text>
<text xml:space="preserve" text-anchor="middle" x="1475" y="-1009.27" font-family="Helvetica,sans-Serif" font-size="9.50" class="t-ink">running wherever staff schedule it</text>
</g>

<g id="edge2" class="edge">

<path fill="none" stroke-width="1.15" d="M1462.07,-1001.8C1444.9,-981.22 1414.65,-944.96 1396.65,-923.39" class="s-tra"/>
<polygon stroke-width="1.15" points="1398.28,-922.06 1392.82,-918.8 1395.05,-924.75 1398.28,-922.06" class="a-tra s-tra"/>
<text xml:space="preserve" text-anchor="middle" x="1445.75" y="-956.28" font-family="Helvetica,sans-Serif" font-size="8.20" class="t-hum">API token</text>
</g>

<g id="node4" class="node">
<title>prox</title>
<path stroke-width="1.3" d="M1430.64,-815.59C1430.64,-815.59 1333.36,-815.59 1333.36,-815.59 1327.95,-815.59 1322.54,-810.18 1322.54,-804.77 1322.54,-804.77 1322.54,-793.95 1322.54,-793.95 1322.54,-788.54 1327.95,-783.13 1333.36,-783.13 1333.36,-783.13 1430.64,-783.13 1430.64,-783.13 1436.05,-783.13 1441.46,-788.54 1441.46,-793.95 1441.46,-793.95 1441.46,-804.77 1441.46,-804.77 1441.46,-810.18 1436.05,-815.59 1430.64,-815.59" class="f-hum s-hum"/>
<text xml:space="preserve" text-anchor="middle" x="1382" y="-800.08" font-family="Helvetica,sans-Serif" font-size="9.50" class="t-ink">apphost reverse proxy</text>
<text xml:space="preserve" text-anchor="middle" x="1382" y="-790.33" font-family="Helvetica,sans-Serif" font-size="9.50" class="t-ink">terminates TLS</text>
</g>

<g id="edge3" class="edge">

<path fill="none" stroke-width="1.15" d="M1382,-891.96C1382,-875.39 1382,-844.98 1382,-823.76" class="s-edge"/>
<polygon stroke-width="1.15" points="1384.1,-823.87 1382,-817.87 1379.9,-823.87 1384.1,-823.87" class="a-edge s-edge"/>
</g>

<g id="node5" class="node">
<title>sock</title>
<polygon stroke-width="1.3" points="1477.3,-701.25 1281.29,-701.25 1281.29,-668.79 1482.71,-668.79 1482.71,-695.84 1477.3,-701.25" class="f-hum s-hum"/>
<polyline fill="none" stroke-width="1.3" points="1477.3,-701.25 1477.3,-695.84" class="s-hum"/>
<polyline fill="none" stroke-width="1.3" points="1482.71,-695.84 1477.3,-695.84" class="s-hum"/>
<text xml:space="preserve" text-anchor="middle" x="1382" y="-686.22" font-family="Helvetica,sans-Serif" font-size="9.00" class="t-ink">/srv/appsockets/provenance/main/app.sock</text>
<text xml:space="preserve" text-anchor="middle" x="1382" y="-676.47" font-family="Helvetica,sans-Serif" font-size="9.00" class="t-ink">unix socket — no port is ever exposed</text>
</g>

<g id="edge4" class="edge">

<path fill="none" stroke-width="1.15" d="M1382,-782.74C1382,-763.73 1382,-731.46 1382,-709.46" class="s-edge"/>
<polygon stroke-width="1.15" points="1384.1,-709.61 1382,-703.61 1379.9,-709.61 1384.1,-709.61" class="a-edge s-edge"/>
</g>

<g id="node6" class="node">
<title>apic</title>
<path stroke-width="1.7" d="M1492.14,-586.92C1492.14,-586.92 1283.86,-586.92 1283.86,-586.92 1278.45,-586.92 1273.04,-581.51 1273.04,-576.1 1273.04,-576.1 1273.04,-565.28 1273.04,-565.28 1273.04,-559.87 1278.45,-554.46 1283.86,-554.46 1283.86,-554.46 1492.14,-554.46 1492.14,-554.46 1497.55,-554.46 1502.96,-559.87 1502.96,-565.28 1502.96,-565.28 1502.96,-576.1 1502.96,-576.1 1502.96,-581.51 1497.55,-586.92 1492.14,-586.92" class="f-srv s-srv"/>
<text xml:space="preserve" text-anchor="middle" x="1388" y="-571.41" font-family="Helvetica,sans-Serif" font-size="9.50" class="t-ink">app container — mode=api</text>
<text xml:space="preserve" text-anchor="middle" x="1388" y="-561.66" font-family="Helvetica,sans-Serif" font-size="9.50" class="t-ink">Hono · OAuth · OpenAPI + Redoc · Prometheus</text>
</g>

<g id="edge5" class="edge">

<path fill="none" stroke-width="1.15" d="M1382.83,-668.4C1383.85,-649.39 1385.57,-617.12 1386.75,-595.13" class="s-edge"/>
<polygon stroke-width="1.15" points="1388.84,-595.38 1387.06,-589.27 1384.64,-595.15 1388.84,-595.38" class="a-edge s-edge"/>
</g>

<g id="node7" class="node">
<title>wrkc</title>
<path stroke-width="1.7" d="M1352.14,-450.18C1352.14,-450.18 1173.86,-450.18 1173.86,-450.18 1168.45,-450.18 1163.04,-444.77 1163.04,-439.36 1163.04,-439.36 1163.04,-428.54 1163.04,-428.54 1163.04,-423.13 1168.45,-417.72 1173.86,-417.72 1173.86,-417.72 1352.14,-417.72 1352.14,-417.72 1357.55,-417.72 1362.96,-423.13 1362.96,-428.54 1362.96,-428.54 1362.96,-439.36 1362.96,-439.36 1362.96,-444.77 1357.55,-450.18 1352.14,-450.18" class="f-srv s-srv"/>
<text xml:space="preserve" text-anchor="middle" x="1263" y="-434.68" font-family="Helvetica,sans-Serif" font-size="9.50" class="t-ink">app container — mode=worker</text>
<text xml:space="preserve" text-anchor="middle" x="1263" y="-424.93" font-family="Helvetica,sans-Serif" font-size="9.50" class="t-ink">pg&#45;boss subscriber, bounded concurrency</text>
</g>

<g id="edge9" class="edge">

<path fill="none" stroke-width="1.15" stroke-dasharray="5,2" d="M1347.04,-553.8C1328.99,-545.08 1308.75,-532.69 1294.75,-516.46 1280.34,-499.75 1272.06,-475.77 1267.6,-458.14" class="s-srv"/>
<polygon stroke-width="1.15" points="1269.74,-458.06 1266.31,-452.71 1265.65,-459.03 1269.74,-458.06" class="a-srv s-srv"/>
<text xml:space="preserve" text-anchor="middle" x="1345.38" y="-508.67" font-family="Helvetica,sans-Serif" font-size="8.20" class="t-hum">enqueue via pg&#45;boss</text>
<text xml:space="preserve" text-anchor="middle" x="1345.38" y="-499.67" font-family="Helvetica,sans-Serif" font-size="8.20" class="t-hum">(the queue lives in Postgres)</text>
</g>

<g id="node8" class="node">
<title>pgc</title>
<path stroke-width="1.3" d="M1317.96,-326.52C1317.96,-328.69 1294.67,-330.45 1266,-330.45 1237.33,-330.45 1214.04,-328.69 1214.04,-326.52 1214.04,-326.52 1214.04,-291.18 1214.04,-291.18 1214.04,-289.01 1237.33,-287.25 1266,-287.25 1294.67,-287.25 1317.96,-289.01 1317.96,-291.18 1317.96,-291.18 1317.96,-326.52 1317.96,-326.52" class="f-srv s-srv"/>
<path fill="none" stroke-width="1.3" d="M1317.96,-326.52C1317.96,-324.35 1294.67,-322.59 1266,-322.59 1237.33,-322.59 1214.04,-324.35 1214.04,-326.52" class="s-srv"/>
<text xml:space="preserve" text-anchor="middle" x="1266" y="-304.7" font-family="Helvetica,sans-Serif" font-size="9.50" class="t-ink">postgres container</text>
</g>

<g id="edge7" class="edge">

<path fill="none" stroke-width="1.15" d="M1393.25,-554.06C1396.49,-543.56 1400.33,-529.34 1402,-516.46 1407.15,-476.62 1385,-409.12 1384,-407.45 1365.87,-377.03 1334.66,-351.84 1308.88,-334.67" class="s-edge"/>
<polygon stroke-width="1.15" points="1310.09,-332.95 1303.92,-331.44 1307.8,-336.47 1310.09,-332.95" class="a-edge s-edge"/>
</g>

<g id="node10" class="node">
<title>blobs</title>
<path stroke-width="1.3" d="M1598.34,-68.76C1598.34,-71.67 1553.36,-74.04 1498,-74.04 1442.64,-74.04 1397.66,-71.67 1397.66,-68.76 1397.66,-68.76 1397.66,-21.28 1397.66,-21.28 1397.66,-18.36 1442.64,-16 1498,-16 1553.36,-16 1598.34,-18.36 1598.34,-21.28 1598.34,-21.28 1598.34,-68.76 1598.34,-68.76" class="f-rec s-rec"/>
<path fill="none" stroke-width="1.3" d="M1598.34,-68.76C1598.34,-65.85 1553.36,-63.49 1498,-63.49 1442.64,-63.49 1397.66,-65.85 1397.66,-68.76" class="s-rec"/>
<text xml:space="preserve" text-anchor="middle" x="1498" y="-50.62" font-family="Helvetica,sans-Serif" font-size="9.50" class="t-ink">blob store — filesystem backend</text>
<text xml:space="preserve" text-anchor="middle" x="1498" y="-40.87" font-family="Helvetica,sans-Serif" font-size="9.50" class="t-ink">behind the same S3&#45;compatible interface</text>
<text xml:space="preserve" text-anchor="middle" x="1498" y="-31.12" font-family="Helvetica,sans-Serif" font-size="9.50" class="t-ink">MinIO provides in development</text>
</g>

<g id="edge10" class="edge">

<path fill="none" stroke-width="1.15" d="M1423.02,-553.79C1463.32,-532.81 1524,-491.79 1524,-434.95 1524,-434.95 1524,-434.95 1524,-188.14 1524,-151.53 1515.55,-110.47 1508.28,-81.93" class="s-edge"/>
<polygon stroke-width="1.15" points="1510.35,-81.55 1506.81,-76.28 1506.29,-82.61 1510.35,-81.55" class="a-edge s-edge"/>
</g>

<g id="node21" class="node">
<title>goog</title>
<path stroke-width="1.3" d="M1857.74,-438.2C1857.74,-438.2 1810.2,-456.21 1810.2,-456.21 1804.59,-458.33 1792.98,-460.46 1786.98,-460.46 1786.98,-460.46 1671.02,-460.46 1671.02,-460.46 1665.02,-460.46 1653.41,-458.33 1647.8,-456.21 1647.8,-456.21 1600.26,-438.2 1600.26,-438.2 1594.65,-436.08 1594.65,-431.83 1600.26,-429.7 1600.26,-429.7 1647.8,-411.7 1647.8,-411.7 1653.41,-409.57 1665.02,-407.45 1671.02,-407.45 1671.02,-407.45 1786.98,-407.45 1786.98,-407.45 1792.98,-407.45 1804.59,-409.57 1810.2,-411.7 1810.2,-411.7 1857.74,-429.7 1857.74,-429.7 1863.35,-431.83 1863.35,-436.08 1857.74,-438.2" class="f-hum s-hum"/>
<text xml:space="preserve" text-anchor="middle" x="1729" y="-434.68" font-family="Helvetica,sans-Serif" font-size="9.50" class="t-ink">Google OAuth</text>
<text xml:space="preserve" text-anchor="middle" x="1729" y="-424.93" font-family="Helvetica,sans-Serif" font-size="9.50" class="t-ink">hd claim must match berkeley.edu</text>
</g>

<g id="edge6" class="edge">

<path fill="none" stroke-width="1.15" stroke-dasharray="5,2" d="M1445.04,-553.68C1477.87,-543.95 1519.68,-530.69 1556,-516.46 1595.41,-501.01 1638.48,-480.73 1671.78,-464.27" class="s-hum"/>
<polygon stroke-width="1.15" points="1672.31,-466.35 1676.75,-461.8 1670.44,-462.59 1672.31,-466.35" class="a-hum s-hum"/>
<text xml:space="preserve" text-anchor="middle" x="1620.17" y="-504.17" font-family="Helvetica,sans-Serif" font-size="8.20" class="t-hum">verify ID token</text>
</g>

<g id="edge8" class="edge">

<path fill="none" stroke-width="1.15" d="M1263.39,-417.11C1263.87,-397.31 1264.7,-363.03 1265.3,-338.56" class="s-edge"/>
<polygon stroke-width="1.15" points="1267.4,-338.78 1265.44,-332.73 1263.2,-338.68 1267.4,-338.78" class="a-edge s-edge"/>
</g>

<g id="edge11" class="edge">

<path fill="none" stroke-width="1.15" d="M1275.72,-417.04C1291.33,-397.24 1318.28,-362.16 1339,-330.45 1395.52,-243.93 1452.35,-136.05 1480.26,-81.35" class="s-edge"/>
<polygon stroke-width="1.15" points="1482.04,-82.48 1482.89,-76.18 1478.29,-80.58 1482.04,-82.48" class="a-edge s-edge"/>
</g>

<g id="node12" class="node">
<title>j1</title>
<path stroke-width="1.3" d="M205.51,-205.37C205.51,-205.37 26.49,-205.37 26.49,-205.37 21.08,-205.37 15.67,-199.96 15.67,-194.55 15.67,-194.55 15.67,-183.73 15.67,-183.73 15.67,-178.32 21.08,-172.91 26.48,-172.91 26.48,-172.91 205.51,-172.91 205.51,-172.91 210.92,-172.91 216.33,-178.32 216.33,-183.73 216.33,-183.73 216.33,-194.55 216.33,-194.55 216.33,-199.96 210.92,-205.37 205.51,-205.37" class="f-ana s-ana"/>
<text xml:space="preserve" text-anchor="middle" x="116" y="-190.34" font-family="Helvetica,sans-Serif" font-size="9.00" class="t-ink">retention&#45;sweep</text>
<text xml:space="preserve" text-anchor="middle" x="116" y="-180.59" font-family="Helvetica,sans-Serif" font-size="9.00" class="t-ink">deletes BLOBS only — rows persist forever</text>
</g>

<g id="edge14" class="edge">

<path fill="none" stroke-width="1.15" d="M1162.38,-419.41C978.56,-393.41 576.85,-330.74 245.33,-238.06" class="s-ana"/>
<polygon stroke-width="1.15" points="246.02,-236.07 239.68,-236.47 244.89,-240.11 246.02,-236.07" class="a-ana s-ana"/>
</g>

<g id="node9" class="node">
<title>dumpc</title>
<path stroke-width="1.3" d="M1361.14,-205.37C1361.14,-205.37 1170.86,-205.37 1170.86,-205.37 1165.45,-205.37 1160.04,-199.96 1160.04,-194.55 1160.04,-194.55 1160.04,-183.73 1160.04,-183.73 1160.04,-178.32 1165.45,-172.91 1170.86,-172.91 1170.86,-172.91 1361.14,-172.91 1361.14,-172.91 1366.55,-172.91 1371.96,-178.32 1371.96,-183.73 1371.96,-183.73 1371.96,-194.55 1371.96,-194.55 1371.96,-199.96 1366.55,-205.37 1361.14,-205.37" class="f-srv s-srv"/>
<text xml:space="preserve" text-anchor="middle" x="1266" y="-190.34" font-family="Helvetica,sans-Serif" font-size="9.00" class="t-ink">pgdump sidecar</text>
<text xml:space="preserve" text-anchor="middle" x="1266" y="-180.59" font-family="Helvetica,sans-Serif" font-size="9.00" class="t-ink">scheduled pg_dump into the backup directory</text>
</g>

<g id="edge12" class="edge">

<path fill="none" stroke-width="1.15" d="M1266,-286.81C1266,-266.17 1266,-234.77 1266,-213.4" class="s-edge"/>
<polygon stroke-width="1.15" points="1268.1,-213.48 1266,-207.48 1263.9,-213.48 1268.1,-213.48" class="a-edge s-edge"/>
</g>

<g id="node11" class="node">
<title>backs</title>
<path stroke-width="1.3" d="M1353.71,-59.75C1353.71,-61.55 1339.5,-63.02 1322,-63.02 1304.5,-63.02 1290.29,-61.55 1290.29,-59.75 1290.29,-59.75 1290.29,-30.29 1290.29,-30.29 1290.29,-28.49 1304.5,-27.02 1322,-27.02 1339.5,-27.02 1353.71,-28.49 1353.71,-30.29 1353.71,-30.29 1353.71,-59.75 1353.71,-59.75" class="f-rec s-rec"/>
<path fill="none" stroke-width="1.3" d="M1353.71,-59.75C1353.71,-57.94 1339.5,-56.47 1322,-56.47 1304.5,-56.47 1290.29,-57.94 1290.29,-59.75" class="s-rec"/>
<text xml:space="preserve" text-anchor="middle" x="1322" y="-40.87" font-family="Helvetica,sans-Serif" font-size="9.50" class="t-ink">backups/</text>
</g>

<g id="edge13" class="edge">

<path fill="none" stroke-width="1.15" d="M1274.92,-172.72C1281.33,-161.21 1289.9,-144.96 1296,-130.04 1303.97,-110.55 1310.9,-87.68 1315.59,-70.73" class="s-edge"/>
<polygon stroke-width="1.15" points="1317.59,-71.41 1317.13,-65.07 1313.53,-70.31 1317.59,-71.41" class="a-edge s-edge"/>
</g>

<g id="node20" class="node">
<title>hchk</title>
<path stroke-width="1.7" d="M1167.84,-66.12C1167.84,-66.12 964.16,-66.12 964.16,-66.12 958.16,-66.12 952.16,-60.12 952.16,-54.12 952.16,-54.12 952.16,-35.91 952.16,-35.91 952.16,-29.91 958.16,-23.91 964.16,-23.91 964.16,-23.91 1167.84,-23.91 1167.84,-23.91 1173.84,-23.91 1179.84,-29.91 1179.84,-35.91 1179.84,-35.91 1179.84,-54.12 1179.84,-54.12 1179.84,-60.12 1173.84,-66.12 1167.84,-66.12" class="f-uix s-uix"/>
<text xml:space="preserve" text-anchor="middle" x="1066" y="-50.62" font-family="Helvetica,sans-Serif" font-size="9.50" class="t-ink">healthchecks.io</text>
<text xml:space="preserve" text-anchor="middle" x="1066" y="-40.87" font-family="Helvetica,sans-Serif" font-size="9.50" class="t-ink">dead&#45;man&#39;s switch — catches a SILENT failure,</text>
<text xml:space="preserve" text-anchor="middle" x="1066" y="-31.12" font-family="Helvetica,sans-Serif" font-size="9.50" class="t-ink">which no alert&#45;on&#45;error ever will</text>
</g>

<g id="edge17" class="edge">

<path fill="none" stroke-width="1.15" stroke-dasharray="5,2" d="M1194.16,-172.27C1138.38,-159.22 1069.14,-141.13 1060.75,-130.04 1048.87,-114.33 1050.95,-91.88 1055.59,-74.14" class="s-uix"/>
<polygon stroke-width="1.15" points="1057.56,-74.87 1057.21,-68.53 1053.53,-73.71 1057.56,-74.87" class="a-uix s-uix"/>
<text xml:space="preserve" text-anchor="middle" x="1115.88" y="-122.25" font-family="Helvetica,sans-Serif" font-size="8.20" class="t-hum">ping after each</text>
<text xml:space="preserve" text-anchor="middle" x="1115.88" y="-113.25" font-family="Helvetica,sans-Serif" font-size="8.20" class="t-hum">nightly pg_dump (/fail on error)</text>
</g>

<g id="edge18" class="edge">

<path fill="none" stroke-width="1.15" d="M174.22,-172.3C194.28,-167.5 216.98,-162.77 238,-160.04 652.07,-106.25 761.21,-168.3 1177,-130.04 1265.65,-121.88 1289.49,-124.55 1375,-99.79 1394.84,-94.04 1415.68,-85.83 1434.45,-77.55" class="s-rec"/>
<polygon stroke-width="1.15" points="1435.06,-79.58 1439.68,-75.21 1433.35,-75.75 1435.06,-79.58" class="a-rec s-rec"/>
<text xml:space="preserve" text-anchor="middle" x="1361.8" y="-117.75" font-family="Helvetica,sans-Serif" font-size="8.20" class="t-hum">delete expired blobs</text>
</g>

<g id="node13" class="node">
<title>j2</title>
<path stroke-width="1.3" d="M374.17,-201.38C374.17,-201.38 267.83,-201.38 267.83,-201.38 263.75,-201.38 259.67,-197.3 259.67,-193.22 259.67,-193.22 259.67,-185.06 259.67,-185.06 259.67,-180.98 263.75,-176.9 267.83,-176.9 267.83,-176.9 374.17,-176.9 374.17,-176.9 378.25,-176.9 382.33,-180.98 382.33,-185.06 382.33,-185.06 382.33,-193.22 382.33,-193.22 382.33,-197.3 378.25,-201.38 374.17,-201.38" class="f-ana s-ana"/>
<text xml:space="preserve" text-anchor="middle" x="321" y="-185.47" font-family="Helvetica,sans-Serif" font-size="9.00" class="t-ink">purge&#45;expired&#45;sessions</text>
</g>

<g id="node14" class="node">
<title>j3</title>
<path stroke-width="1.3" d="M520.43,-201.38C520.43,-201.38 433.58,-201.38 433.58,-201.38 429.5,-201.38 425.42,-197.3 425.42,-193.22 425.42,-193.22 425.42,-185.06 425.42,-185.06 425.42,-180.98 429.5,-176.9 433.58,-176.9 433.58,-176.9 520.43,-176.9 520.43,-176.9 524.5,-176.9 528.59,-180.98 528.59,-185.06 528.59,-185.06 528.59,-193.22 528.59,-193.22 528.59,-197.3 524.5,-201.38 520.43,-201.38" class="f-ana s-ana"/>
<text xml:space="preserve" text-anchor="middle" x="477" y="-185.47" font-family="Helvetica,sans-Serif" font-size="9.00" class="t-ink">reap&#45;stale&#45;uploads</text>
</g>

<g id="node15" class="node">
<title>j4</title>
<path stroke-width="1.3" d="M680.18,-201.38C680.18,-201.38 579.82,-201.38 579.82,-201.38 575.75,-201.38 571.66,-197.3 571.66,-193.22 571.66,-193.22 571.66,-185.06 571.66,-185.06 571.66,-180.98 575.75,-176.9 579.82,-176.9 579.82,-176.9 680.18,-176.9 680.18,-176.9 684.25,-176.9 688.34,-180.98 688.34,-185.06 688.34,-185.06 688.34,-193.22 688.34,-193.22 688.34,-197.3 684.25,-201.38 680.18,-201.38" class="f-ana s-ana"/>
<text xml:space="preserve" text-anchor="middle" x="630" y="-185.47" font-family="Helvetica,sans-Serif" font-size="9.00" class="t-ink">purge&#45;expired&#45;exports</text>
</g>

<g id="node16" class="node">
<title>j5</title>
<path stroke-width="1.3" d="M873.51,-205.37C873.51,-205.37 742.48,-205.37 742.48,-205.37 737.07,-205.37 731.66,-199.96 731.66,-194.55 731.66,-194.55 731.66,-183.73 731.66,-183.73 731.66,-178.32 737.07,-172.91 742.49,-172.91 742.49,-172.91 873.52,-172.91 873.52,-172.91 878.93,-172.91 884.34,-178.32 884.34,-183.73 884.34,-183.73 884.34,-194.55 884.34,-194.55 884.34,-199.96 878.93,-205.37 873.51,-205.37" class="f-ana s-ana"/>
<text xml:space="preserve" text-anchor="middle" x="808" y="-190.34" font-family="Helvetica,sans-Serif" font-size="9.00" class="t-ink">storage&#45;quota&#45;check</text>
<text xml:space="preserve" text-anchor="middle" x="808" y="-180.59" font-family="Helvetica,sans-Serif" font-size="9.00" class="t-ink">alerts before the 1 TB wall is hit</text>
</g>

<g id="node18" class="node">
<title>disc</title>
<path stroke-width="1.3" d="M900.8,-57.26C900.8,-57.26 819.2,-57.26 819.2,-57.26 815.12,-57.26 811.04,-53.18 811.04,-49.1 811.04,-49.1 811.04,-40.94 811.04,-40.94 811.04,-36.86 815.12,-32.78 819.2,-32.78 819.2,-32.78 900.8,-32.78 900.8,-32.78 904.88,-32.78 908.96,-36.86 908.96,-40.94 908.96,-40.94 908.96,-49.1 908.96,-49.1 908.96,-53.18 904.88,-57.26 900.8,-57.26" class="f-uix s-uix"/>
<text xml:space="preserve" text-anchor="middle" x="860" y="-40.87" font-family="Helvetica,sans-Serif" font-size="9.50" class="t-ink">Discord webhook</text>
</g>

<g id="edge15" class="edge">

<path fill="none" stroke-width="1.15" d="M813.76,-172.39C823.42,-145.99 842.84,-92.92 853.17,-64.68" class="s-uix"/>
<polygon stroke-width="1.15" points="855.02,-65.74 855.11,-59.38 851.08,-64.29 855.02,-65.74" class="a-uix s-uix"/>
</g>

<g id="node19" class="node">
<title>smtp</title>
<path stroke-width="1.3" d="M759.68,-57.26C759.68,-57.26 698.32,-57.26 698.32,-57.26 694.25,-57.26 690.16,-53.18 690.16,-49.1 690.16,-49.1 690.16,-40.94 690.16,-40.94 690.16,-36.86 694.25,-32.78 698.32,-32.78 698.32,-32.78 759.68,-32.78 759.68,-32.78 763.75,-32.78 767.84,-36.86 767.84,-40.94 767.84,-40.94 767.84,-49.1 767.84,-49.1 767.84,-53.18 763.75,-57.26 759.68,-57.26" class="f-uix s-uix"/>
<text xml:space="preserve" text-anchor="middle" x="729" y="-40.87" font-family="Helvetica,sans-Serif" font-size="9.50" class="t-ink">SMTP alerts</text>
</g>

<g id="edge16" class="edge">

<path fill="none" stroke-width="1.15" d="M799.24,-172.39C784.5,-145.87 754.82,-92.47 739.17,-64.32" class="s-uix"/>
<polygon stroke-width="1.15" points="741.11,-63.49 736.36,-59.27 737.44,-65.53 741.11,-63.49" class="a-uix s-uix"/>
</g>

<g id="node17" class="node">
<title>j6</title>
<path stroke-width="1.3" d="M1105.09,-210.25C1105.09,-210.25 938.91,-210.25 938.91,-210.25 932.91,-210.25 926.91,-204.25 926.91,-198.25 926.91,-198.25 926.91,-180.04 926.91,-180.04 926.91,-174.04 932.91,-168.04 938.91,-168.04 938.91,-168.04 1105.09,-168.04 1105.09,-168.04 1111.09,-168.04 1117.09,-174.04 1117.09,-180.04 1117.09,-180.04 1117.09,-198.25 1117.09,-198.25 1117.09,-204.25 1111.09,-210.25 1105.09,-210.25" class="f-ana s-ana"/>
<text xml:space="preserve" text-anchor="middle" x="1022" y="-195.22" font-family="Helvetica,sans-Serif" font-size="9.00" class="t-ink">recompute / recompute&#45;cross&#45;flags</text>
<text xml:space="preserve" text-anchor="middle" x="1022" y="-185.47" font-family="Helvetica,sans-Serif" font-size="9.00" class="t-ink">demand&#45;driven (tuning / ingest_finalize),</text>
<text xml:space="preserve" text-anchor="middle" x="1022" y="-175.72" font-family="Helvetica,sans-Serif" font-size="9.00" class="t-ink">NOT cron&#45;scheduled</text>
</g>

<g id="node22" class="node">
<title>deploy</title>
<polygon stroke-width="1.3" points="1750.71,-706.13 1525.29,-706.13 1525.29,-663.92 1756.71,-663.92 1756.71,-700.13 1750.71,-706.13" class="f-rec s-rec"/>
<polyline fill="none" stroke-width="1.3" points="1750.71,-706.13 1750.71,-700.13" class="s-rec"/>
<polyline fill="none" stroke-width="1.3" points="1756.71,-700.13 1750.71,-700.13" class="s-rec"/>
<text xml:space="preserve" text-anchor="middle" x="1641" y="-691.1" font-family="Helvetica,sans-Serif" font-size="9.00" class="t-ink">deploy is manual, by hand, over SSH</text>
<text xml:space="preserve" text-anchor="middle" x="1641" y="-681.35" font-family="Helvetica,sans-Serif" font-size="9.00" class="t-ink">GitHub&#39;s hosted runners cannot reach instapphost,</text>
<text xml:space="preserve" text-anchor="middle" x="1641" y="-671.6" font-family="Helvetica,sans-Serif" font-size="9.00" class="t-ink">so there is no CI/CD for this environment</text>
</g>

<g id="edge19" class="edge">

<path fill="none" stroke-width="1.15" stroke-dasharray="5,2" d="M1594.3,-663.29C1547.68,-642.59 1476.61,-611.03 1431.25,-590.89" class="s-rec"/>
<polygon stroke-width="1.15" points="1432.12,-588.98 1425.78,-588.46 1430.42,-592.82 1432.12,-588.98" class="a-rec s-rec"/>
</g>
</g>
</svg>