<svg width="1762pt" height="588pt"
 viewBox="0.00 0.00 1762.00 588.00" xmlns="http://www.w3.org/2000/svg" xmlns:xlink="http://www.w3.org/1999/xlink">
<g id="graph0" class="graph" transform="scale(1 1) rotate(0) translate(4 584)">
<title>ecosystem</title>
<g id="clust1" class="cluster">
<title>cluster_r1</title>
<path stroke-width="1.5" d="M370.41,-8C370.41,-8 893.74,-8 893.74,-8 899.74,-8 905.74,-14 905.74,-20 905.74,-20 905.74,-66 905.74,-66 905.74,-72 899.74,-78 893.74,-78 893.74,-78 370.41,-78 370.41,-78 364.41,-78 358.41,-72 358.41,-66 358.41,-66 358.41,-20 358.41,-20 358.41,-14 364.41,-8 370.41,-8" class="f-rec s-rec"/>
<text xml:space="preserve" text-anchor="middle" x="447.04" y="-64.97" font-family="Helvetica,sans-Serif" font-size="9.50" class="t-rec"> &#160;REPO 2 · provjet — Kotlin / Gradle &#160;</text>
</g>
<g id="clust2" class="cluster">
<title>cluster_r2</title>
<path stroke-width="1.5" d="M20,-378C20,-378 885.12,-378 885.12,-378 891.12,-378 897.12,-384 897.12,-390 897.12,-390 897.12,-442 897.12,-442 897.12,-448 891.12,-454 885.12,-454 885.12,-454 20,-454 20,-454 14,-454 8,-448 8,-442 8,-442 8,-390 8,-390 8,-384 14,-378 20,-378" class="f-rec s-rec"/>
<text xml:space="preserve" text-anchor="middle" x="78.62" y="-440.98" font-family="Helvetica,sans-Serif" font-size="9.50" class="t-rec"> &#160;REPO 3 · provnvim — Lua &#160;</text>
</g>
<g id="clust3" class="cluster">
<title>cluster_mono</title>
<path stroke-width="1.6" d="M299.54,-86C299.54,-86 1309.78,-86 1309.78,-86 1315.78,-86 1321.78,-92 1321.78,-98 1321.78,-98 1321.78,-358 1321.78,-358 1321.78,-364 1315.78,-370 1309.78,-370 1309.78,-370 299.54,-370 299.54,-370 293.54,-370 287.54,-364 287.54,-358 287.54,-358 287.54,-98 287.54,-98 287.54,-92 293.54,-86 299.54,-86" class="f-fmt s-fmt"/>
<text xml:space="preserve" text-anchor="middle" x="455.29" y="-356.98" font-family="Helvetica,sans-Serif" font-size="9.50" class="t-fmt"> &#160;REPO 1 · provenance — the monorepo, npm workspace of six packages &#160;</text>
</g>
<g id="clust4" class="cluster">
<title>cluster_r3</title>
<path stroke-width="1.5" d="M1164.24,-438C1164.24,-438 1734.45,-438 1734.45,-438 1740.45,-438 1746.45,-444 1746.45,-450 1746.45,-450 1746.45,-560 1746.45,-560 1746.45,-566 1740.45,-572 1734.45,-572 1734.45,-572 1164.24,-572 1164.24,-572 1158.24,-572 1152.24,-566 1152.24,-560 1152.24,-560 1152.24,-450 1152.24,-450 1152.24,-444 1158.24,-438 1164.24,-438" class="f-tra s-tra"/>
<text xml:space="preserve" text-anchor="middle" x="1238.24" y="-558.98" font-family="Helvetica,sans-Serif" font-size="9.50" class="t-tra"> &#160;REPO 4 · provgate — Python / uv &#160;</text>
</g>

<g id="node1" class="node">
<title>jcore</title>
<path stroke-width="1.3" d="M501.2,-52C501.2,-52 378.41,-52 378.41,-52 372.41,-52 366.41,-46 366.41,-40 366.41,-40 366.41,-28 366.41,-28 366.41,-22 372.41,-16 378.41,-16 378.41,-16 501.2,-16 501.2,-16 507.2,-16 513.2,-22 513.2,-28 513.2,-28 513.2,-40 513.2,-40 513.2,-46 507.2,-52 501.2,-52" class="f-rec s-rec"/>
<text xml:space="preserve" text-anchor="middle" x="439.81" y="-34.73" font-family="Helvetica,sans-Serif" font-size="9.50" class="t-ink">core/</text>
<text xml:space="preserve" text-anchor="middle" x="439.81" y="-24.98" font-family="Helvetica,sans-Serif" font-size="9.50" class="t-ink">pure Kotlin port of the format</text>
</g>

<g id="node2" class="node">
<title>jrec</title>
<path stroke-width="1.3" d="M885.74,-52C885.74,-52 792.2,-52 792.2,-52 786.2,-52 780.2,-46 780.2,-40 780.2,-40 780.2,-28 780.2,-28 780.2,-22 786.2,-16 792.2,-16 792.2,-16 885.74,-16 885.74,-16 891.74,-16 897.74,-22 897.74,-28 897.74,-28 897.74,-40 897.74,-40 897.74,-46 891.74,-52 885.74,-52" class="f-rec s-rec"/>
<text xml:space="preserve" text-anchor="middle" x="838.97" y="-34.73" font-family="Helvetica,sans-Serif" font-size="9.50" class="t-ink">recorder/</text>
<text xml:space="preserve" text-anchor="middle" x="838.97" y="-24.98" font-family="Helvetica,sans-Serif" font-size="9.50" class="t-ink">IntelliJ Platform wiring</text>
</g>

<g id="edge11" class="edge">
<title>jcore&#45;&gt;jrec</title>
<path fill="none" stroke-width="1.15" d="M513.66,-34C587.55,-34 700.91,-34 772.17,-34" class="s-edge"/>
<polygon stroke-width="1.15" points="772.04,-36.1 778.04,-34 772.04,-31.9 772.04,-36.1" class="a-edge s-edge"/>
</g>

<g id="node13" class="node">
<title>allow</title>
<polygon stroke-width="1.3" points="1307.78,-137.1 1119.74,-137.1 1119.74,-94.89 1313.78,-94.89 1313.78,-131.1 1307.78,-137.1" class="f-fmt s-fmt"/>
<polyline fill="none" stroke-width="1.3" points="1307.78,-137.1 1307.78,-131.1" class="s-fmt"/>
<polyline fill="none" stroke-width="1.3" points="1313.78,-131.1 1307.78,-131.1" class="s-fmt"/>
<text xml:space="preserve" text-anchor="middle" x="1216.76" y="-122.08" font-family="Helvetica,sans-Serif" font-size="9.00" class="t-ink">known&#45;good&#45;extension&#45;hashes.json</text>
<text xml:space="preserve" text-anchor="middle" x="1216.76" y="-112.33" font-family="Helvetica,sans-Serif" font-size="9.00" class="t-ink">refreshed by npm run update&#45;hashes after</text>
<text xml:space="preserve" text-anchor="middle" x="1216.76" y="-102.58" font-family="Helvetica,sans-Serif" font-size="9.00" class="t-ink">every recorder release, in any language</text>
</g>

<g id="edge14" class="edge">
<title>jrec&#45;&gt;allow</title>
<path fill="none" stroke-width="1.15" stroke-dasharray="5,2" d="M898.28,-46.72C955.17,-59.14 1042.96,-78.29 1111.81,-93.32" class="s-rec"/>
<polygon stroke-width="1.15" points="1111.25,-95.34 1117.56,-94.57 1112.15,-91.24 1111.25,-95.34" class="a-rec s-rec"/>
<text xml:space="preserve" text-anchor="middle" x="1031.99" y="-83.55" font-family="Helvetica,sans-Serif" font-size="8.20" class="t-hum">adds its build hash</text>
</g>

<g id="node3" class="node">
<title>ncore</title>
<path stroke-width="1.3" d="M497.08,-424C497.08,-424 382.54,-424 382.54,-424 376.54,-424 370.54,-418 370.54,-412 370.54,-412 370.54,-400 370.54,-400 370.54,-394 376.54,-388 382.54,-388 382.54,-388 497.08,-388 497.08,-388 503.08,-388 509.08,-394 509.08,-400 509.08,-400 509.08,-412 509.08,-412 509.08,-418 503.08,-424 497.08,-424" class="f-rec s-rec"/>
<text xml:space="preserve" text-anchor="middle" x="439.81" y="-406.73" font-family="Helvetica,sans-Serif" font-size="9.50" class="t-ink">core/</text>
<text xml:space="preserve" text-anchor="middle" x="439.81" y="-396.98" font-family="Helvetica,sans-Serif" font-size="9.50" class="t-ink">pure Lua port of the format</text>
</g>

<g id="node5" class="node">
<title>nrec</title>
<path stroke-width="1.3" d="M877.12,-424C877.12,-424 800.83,-424 800.83,-424 794.83,-424 788.83,-418 788.83,-412 788.83,-412 788.83,-400 788.83,-400 788.83,-394 794.83,-388 800.83,-388 800.83,-388 877.12,-388 877.12,-388 883.12,-388 889.12,-394 889.12,-400 889.12,-400 889.12,-412 889.12,-412 889.12,-418 883.12,-424 877.12,-424" class="f-rec s-rec"/>
<text xml:space="preserve" text-anchor="middle" x="838.97" y="-406.73" font-family="Helvetica,sans-Serif" font-size="9.50" class="t-ink">recorder/</text>
<text xml:space="preserve" text-anchor="middle" x="838.97" y="-396.98" font-family="Helvetica,sans-Serif" font-size="9.50" class="t-ink">Neovim API wiring</text>
</g>

<g id="edge12" class="edge">
<title>ncore&#45;&gt;nrec</title>
<path fill="none" stroke-width="1.15" d="M509.54,-406C586.23,-406 708.92,-406 780.65,-406" class="s-edge"/>
<polygon stroke-width="1.15" points="780.54,-408.1 786.54,-406 780.54,-403.9 780.54,-408.1" class="a-edge s-edge"/>
</g>

<g id="node4" class="node">
<title>nvend</title>
<path stroke-width="1.3" d="M183.79,-428.11C183.79,-428.11 28,-428.11 28,-428.11 22,-428.11 16,-422.11 16,-416.11 16,-416.11 16,-397.89 16,-397.89 16,-391.89 22,-385.89 28,-385.89 28,-385.89 183.79,-385.89 183.79,-385.89 189.79,-385.89 195.79,-391.89 195.79,-397.89 195.79,-397.89 195.79,-416.11 195.79,-416.11 195.79,-422.11 189.79,-428.11 183.79,-428.11" class="f-rec s-rec"/>
<text xml:space="preserve" text-anchor="middle" x="105.89" y="-412.6" font-family="Helvetica,sans-Serif" font-size="9.50" class="t-ink">vendor/</text>
<text xml:space="preserve" text-anchor="middle" x="105.89" y="-402.85" font-family="Helvetica,sans-Serif" font-size="9.50" class="t-ink">ed25519 + XChaCha20&#45;Poly1305,</text>
<text xml:space="preserve" text-anchor="middle" x="105.89" y="-393.1" font-family="Helvetica,sans-Serif" font-size="9.50" class="t-ink">vendored under a licence&#45;notice gate</text>
</g>

<g id="edge13" class="edge">
<title>nvend&#45;&gt;ncore</title>
<path fill="none" stroke-width="1.15" d="M196.28,-406.73C248.24,-406.57 313.02,-406.38 362.56,-406.23" class="s-road"/>
<polygon stroke-width="1.15" points="362.33,-408.33 368.33,-406.21 362.32,-404.13 362.33,-408.33" class="a-road s-road"/>
<text xml:space="preserve" text-anchor="middle" x="245.66" y="-407.83" font-family="Helvetica,sans-Serif" font-size="8.20" class="t-hum">vendored</text>
</g>

<g id="edge15" class="edge">
<title>nrec&#45;&gt;allow</title>
<path fill="none" stroke-width="1.15" stroke-dasharray="5,2" d="M889.53,-401.99C914.13,-398.05 943.28,-390.29 965.62,-375 1029.27,-331.44 1026.43,-299.57 1065.37,-233 1082.53,-203.66 1073.65,-187.33 1098.37,-164 1108.17,-154.76 1119.98,-147.19 1132.3,-141.02" class="s-rec"/>
<polygon stroke-width="1.15" points="1133.1,-142.97 1137.61,-138.49 1131.29,-139.18 1133.1,-142.97" class="a-rec s-rec"/>
<text xml:space="preserve" text-anchor="middle" x="1031.99" y="-348.66" font-family="Helvetica,sans-Serif" font-size="8.20" class="t-hum">adds its tree hash</text>
</g>

<g id="node6" class="node">
<title>logcore</title>
<path stroke-width="2.2" d="M572.08,-262.61C572.08,-262.61 307.54,-262.61 307.54,-262.61 301.54,-262.61 295.54,-256.61 295.54,-250.61 295.54,-250.61 295.54,-193.4 295.54,-193.4 295.54,-187.4 301.54,-181.4 307.54,-181.4 307.54,-181.4 572.08,-181.4 572.08,-181.4 578.08,-181.4 584.08,-187.4 584.08,-193.4 584.08,-193.4 584.08,-250.61 584.08,-250.61 584.08,-256.61 578.08,-262.61 572.08,-262.61" class="f-fmt s-fmt"/>
<text xml:space="preserve" text-anchor="middle" x="439.81" y="-246.62" font-family="Helvetica,sans-Serif" font-size="10.00" class="t-ink">log&#45;core</text>
<text xml:space="preserve" text-anchor="middle" x="439.81" y="-235.38" font-family="Helvetica,sans-Serif" font-size="10.00" class="t-ink">event types · JCS · hash chain · validator</text>
<text xml:space="preserve" text-anchor="middle" x="439.81" y="-224.12" font-family="Helvetica,sans-Serif" font-size="10.00" class="t-ink">ndjson · bundle + manifest · ed25519</text>
<text xml:space="preserve" text-anchor="middle" x="439.81" y="-200.88" font-family="Helvetica,sans-Serif" font-size="10.00" class="t-ink">ZERO dependencies on vscode, node:*, fs, path or the DOM</text>
<text xml:space="preserve" text-anchor="middle" x="439.81" y="-189.62" font-family="Helvetica,sans-Serif" font-size="10.00" class="t-ink">— enforced by an ESLint no&#45;restricted&#45;imports rule</text>
</g>

<g id="node7" class="node">
<title>vsrec</title>
<path stroke-width="1.3" d="M878.99,-130C878.99,-130 798.95,-130 798.95,-130 792.95,-130 786.95,-124 786.95,-118 786.95,-118 786.95,-106 786.95,-106 786.95,-100 792.95,-94 798.95,-94 798.95,-94 878.99,-94 878.99,-94 884.99,-94 890.99,-100 890.99,-106 890.99,-106 890.99,-118 890.99,-118 890.99,-124 884.99,-130 878.99,-130" class="f-rec s-rec"/>
<text xml:space="preserve" text-anchor="middle" x="838.97" y="-112.72" font-family="Helvetica,sans-Serif" font-size="9.50" class="t-ink">recorder</text>
<text xml:space="preserve" text-anchor="middle" x="838.97" y="-102.97" font-family="Helvetica,sans-Serif" font-size="9.50" class="t-ink">VS Code extension</text>
</g>

<g id="edge1" class="edge">
<title>logcore&#45;&gt;vsrec</title>
<path fill="none" stroke-width="1.15" d="M574.3,-180.35C618.11,-167.17 667.15,-152.94 712.33,-141 734.01,-135.27 757.97,-129.58 779.1,-124.78" class="s-edge"/>
<polygon stroke-width="1.15" points="779.36,-126.88 784.75,-123.51 778.43,-122.78 779.36,-126.88" class="a-edge s-edge"/>
<text xml:space="preserve" text-anchor="middle" x="648.2" y="-167.35" font-family="Helvetica,sans-Serif" font-size="8.20" class="t-hum">implements</text>
</g>

<g id="node8" class="node">
<title>shared</title>
<path stroke-width="1.3" d="M932.24,-194.1C932.24,-194.1 745.7,-194.1 745.7,-194.1 739.7,-194.1 733.7,-188.1 733.7,-182.1 733.7,-182.1 733.7,-163.9 733.7,-163.9 733.7,-157.9 739.7,-151.9 745.7,-151.9 745.7,-151.9 932.24,-151.9 932.24,-151.9 938.24,-151.9 944.24,-157.9 944.24,-163.9 944.24,-163.9 944.24,-182.1 944.24,-182.1 944.24,-188.1 938.24,-194.1 932.24,-194.1" class="f-fmt s-fmt"/>
<text xml:space="preserve" text-anchor="middle" x="838.97" y="-178.6" font-family="Helvetica,sans-Serif" font-size="9.50" class="t-ink">shared</text>
<text xml:space="preserve" text-anchor="middle" x="838.97" y="-168.85" font-family="Helvetica,sans-Serif" font-size="9.50" class="t-ink">Zod schemas — the HTTP API contract,</text>
<text xml:space="preserve" text-anchor="middle" x="838.97" y="-159.1" font-family="Helvetica,sans-Serif" font-size="9.50" class="t-ink">imported by BOTH ends so they cannot drift</text>
</g>


<g id="node9" class="node">
<title>acore</title>
<path stroke-width="2" d="M953.62,-285.98C953.62,-285.98 724.33,-285.98 724.33,-285.98 718.33,-285.98 712.33,-279.98 712.33,-273.98 712.33,-273.98 712.33,-228.02 712.33,-228.02 712.33,-222.02 718.33,-216.02 724.33,-216.02 724.33,-216.02 953.62,-216.02 953.62,-216.02 959.62,-216.02 965.62,-222.02 965.62,-228.02 965.62,-228.02 965.62,-273.98 965.62,-273.98 965.62,-279.98 959.62,-285.98 953.62,-285.98" class="f-ana s-ana"/>
<text xml:space="preserve" text-anchor="middle" x="838.97" y="-270" font-family="Helvetica,sans-Serif" font-size="10.00" class="t-ink">analysis&#45;core</text>
<text xml:space="preserve" text-anchor="middle" x="838.97" y="-258.75" font-family="Helvetica,sans-Serif" font-size="10.00" class="t-ink">loader · 8 checks · EventIndex · heuristics</text>
<text xml:space="preserve" text-anchor="middle" x="838.97" y="-235.5" font-family="Helvetica,sans-Serif" font-size="10.00" class="t-ink">ISOMORPHIC — same restricted&#45;import rule, so the</text>
<text xml:space="preserve" text-anchor="middle" x="838.97" y="-224.25" font-family="Helvetica,sans-Serif" font-size="10.00" class="t-ink">identical code runs in Node and in the browser</text>
</g>

<g id="edge3" class="edge">
<title>logcore&#45;&gt;acore</title>
<path fill="none" stroke-width="1.15" d="M585.04,-232.53C623.84,-235.36 665.63,-238.42 703.85,-241.21" class="s-fmt"/>
<polygon stroke-width="1.15" points="703.58,-243.29 709.71,-241.63 703.88,-239.1 703.58,-243.29" class="a-fmt s-fmt"/>
<text xml:space="preserve" text-anchor="middle" x="648.2" y="-240.31" font-family="Helvetica,sans-Serif" font-size="8.20" class="t-hum">depends on</text>
</g>

<g id="node12" class="node">
<title>vectors</title>
<polygon stroke-width="1.3" points="917.62,-344 754.33,-344 754.33,-308 923.62,-308 923.62,-338 917.62,-344" class="f-fmt s-fmt"/>
<polyline fill="none" stroke-width="1.3" points="917.62,-344 917.62,-338" class="s-fmt"/>
<polyline fill="none" stroke-width="1.3" points="923.62,-338 917.62,-338" class="s-fmt"/>
<text xml:space="preserve" text-anchor="middle" x="838.97" y="-327.2" font-family="Helvetica,sans-Serif" font-size="9.00" class="t-ink">conformance vectors</text>
<text xml:space="preserve" text-anchor="middle" x="838.97" y="-317.45" font-family="Helvetica,sans-Serif" font-size="9.00" class="t-ink">exported from log&#45;core&#39;s test vectors</text>
</g>

<g id="edge8" class="edge">
<title>logcore&#45;&gt;vectors</title>
<path fill="none" stroke-width="1.15" d="M584.94,-263.04C626,-274.4 670.85,-286.49 712.33,-297 723.74,-299.89 735.77,-302.82 747.67,-305.65" class="s-fmt"/>
<polygon stroke-width="1.15" points="747.05,-307.66 753.37,-306.99 748.01,-303.57 747.05,-307.66" class="a-fmt s-fmt"/>
</g>

<g id="edge16" class="edge">
<title>vsrec&#45;&gt;allow</title>
<path fill="none" stroke-width="1.15" stroke-dasharray="5,2" d="M891.44,-112.55C947.99,-113.15 1040.32,-114.13 1112.03,-114.9" class="s-rec"/>
<polygon stroke-width="1.15" points="1111.58,-116.99 1117.61,-114.96 1111.63,-112.79 1111.58,-116.99" class="a-rec s-rec"/>
<text xml:space="preserve" text-anchor="middle" x="1031.99" y="-115.57" font-family="Helvetica,sans-Serif" font-size="8.20" class="t-hum">adds its VSIX hash</text>
</g>

<g id="node10" class="node">
<title>server</title>
<path stroke-width="1.3" d="M1277.41,-211C1277.41,-211 1156.12,-211 1156.12,-211 1150.12,-211 1144.12,-205 1144.12,-199 1144.12,-199 1144.12,-187 1144.12,-187 1144.12,-181 1150.12,-175 1156.12,-175 1156.12,-175 1277.41,-175 1277.41,-175 1283.41,-175 1289.41,-181 1289.41,-187 1289.41,-187 1289.41,-199 1289.41,-199 1289.41,-205 1283.41,-211 1277.41,-211" class="f-srv s-srv"/>
<text xml:space="preserve" text-anchor="middle" x="1216.76" y="-193.72" font-family="Helvetica,sans-Serif" font-size="9.50" class="t-ink">server</text>
<text xml:space="preserve" text-anchor="middle" x="1216.76" y="-183.97" font-family="Helvetica,sans-Serif" font-size="9.50" class="t-ink">Hono · Drizzle · pg&#45;boss · S3</text>
</g>

<g id="edge6" class="edge">
<title>shared&#45;&gt;server</title>
<path fill="none" stroke-width="1.15" d="M944.69,-173.64C982.72,-174.32 1026.01,-175.6 1065.37,-178 1088.31,-179.4 1113.16,-181.59 1135.93,-183.88" class="s-fmt"/>
<polygon stroke-width="1.15" points="1135.65,-185.96 1141.83,-184.48 1136.08,-181.78 1135.65,-185.96" class="a-fmt s-fmt"/>
<text xml:space="preserve" text-anchor="middle" x="1031.99" y="-179.21" font-family="Helvetica,sans-Serif" font-size="8.20" class="t-hum">same schemas</text>
</g>

<g id="node11" class="node">
<title>analyzer</title>
<path stroke-width="1.3" d="M1251.91,-269C1251.91,-269 1181.62,-269 1181.62,-269 1175.62,-269 1169.62,-263 1169.62,-257 1169.62,-257 1169.62,-245 1169.62,-245 1169.62,-239 1175.62,-233 1181.62,-233 1181.62,-233 1251.91,-233 1251.91,-233 1257.91,-233 1263.91,-239 1263.91,-245 1263.91,-245 1263.91,-257 1263.91,-257 1263.91,-263 1257.91,-269 1251.91,-269" class="f-uix s-uix"/>
<text xml:space="preserve" text-anchor="middle" x="1216.76" y="-251.72" font-family="Helvetica,sans-Serif" font-size="9.50" class="t-ink">analyzer</text>
<text xml:space="preserve" text-anchor="middle" x="1216.76" y="-241.97" font-family="Helvetica,sans-Serif" font-size="9.50" class="t-ink">React / Vite SPA</text>
</g>

<g id="edge7" class="edge">
<title>shared&#45;&gt;analyzer</title>
<path fill="none" stroke-width="1.15" d="M944.65,-194.73C1015.11,-209.35 1105.14,-228.04 1161.64,-239.77" class="s-fmt"/>
<polygon stroke-width="1.15" points="1161.03,-241.78 1167.34,-240.95 1161.89,-237.67 1161.03,-241.78" class="a-fmt s-fmt"/>
<text xml:space="preserve" text-anchor="middle" x="1031.99" y="-220.2" font-family="Helvetica,sans-Serif" font-size="8.20" class="t-hum">same schemas</text>
</g>

<g id="edge4" class="edge">
<title>acore&#45;&gt;server</title>
<path fill="none" stroke-width="1.15" d="M966.42,-240.95C998.78,-237.59 1033.46,-233.32 1065.37,-228 1088.75,-224.1 1113.93,-218.72 1136.87,-213.35" class="s-ana"/>
<polygon stroke-width="1.15" points="1137.18,-215.43 1142.53,-212 1136.21,-211.34 1137.18,-215.43" class="a-ana s-ana"/>
</g>

<g id="edge5" class="edge">
<title>acore&#45;&gt;analyzer</title>
<path fill="none" stroke-width="1.15" d="M966.41,-251C1032.91,-251 1110.96,-251 1161.78,-251" class="s-ana"/>
<polygon stroke-width="1.15" points="1161.65,-253.1 1167.65,-251 1161.65,-248.9 1161.65,-253.1" class="a-ana s-ana"/>
</g>

<g id="node15" class="node">
<title>gapi</title>
<path stroke-width="1.3" d="M1726.45,-482C1726.45,-482 1543.66,-482 1543.66,-482 1537.66,-482 1531.66,-476 1531.66,-470 1531.66,-470 1531.66,-458 1531.66,-458 1531.66,-452 1537.66,-446 1543.66,-446 1543.66,-446 1726.45,-446 1726.45,-446 1732.45,-446 1738.45,-452 1738.45,-458 1738.45,-458 1738.45,-470 1738.45,-470 1738.45,-476 1732.45,-482 1726.45,-482" class="f-tra s-tra"/>
<text xml:space="preserve" text-anchor="middle" x="1635.05" y="-464.73" font-family="Helvetica,sans-Serif" font-size="9.50" class="t-ink">provenance/</text>
<text xml:space="preserve" text-anchor="middle" x="1635.05" y="-454.98" font-family="Helvetica,sans-Serif" font-size="9.50" class="t-ink">HTTP client — three public behaviours only</text>
</g>

<g id="edge17" class="edge">
<title>server&#45;&gt;gapi</title>
<path fill="none" stroke-width="1.15" d="M1297.22,-207.58C1310.25,-211.39 1323.34,-216.13 1335.16,-222 1457.12,-282.64 1574.51,-400.31 1617.16,-445.61" class="s-tra"/>
<polygon stroke-width="1.15" points="1298.02,-205.62 1291.68,-206.03 1296.89,-209.67 1298.02,-205.62" class="a-tra s-tra"/>
<text xml:space="preserve" text-anchor="middle" x="1433.41" y="-346.38" font-family="Helvetica,sans-Serif" font-size="8.20" class="t-hum">public HTTP API only —</text>
<text xml:space="preserve" text-anchor="middle" x="1433.41" y="-337.38" font-family="Helvetica,sans-Serif" font-size="8.20" class="t-hum">provgate holds no Provenance code,</text>
<text xml:space="preserve" text-anchor="middle" x="1433.41" y="-328.38" font-family="Helvetica,sans-Serif" font-size="8.20" class="t-hum">database or storage</text>
</g>

<g id="edge9" class="edge">
<title>vectors&#45;&gt;jcore</title>
<path fill="none" stroke-width="1.15" d="M753.92,-320.55C738.37,-315.95 723.53,-308.59 712.33,-297 659.14,-241.97 725.8,-188.8 679.33,-128 641.77,-78.86 574.7,-55.37 521.23,-44.16" class="s-fmt"/>
<polygon stroke-width="1.15" points="521.79,-42.13 515.49,-43.01 520.96,-46.25 521.79,-42.13" class="a-fmt s-fmt"/>
<text xml:space="preserve" text-anchor="middle" x="648.2" y="-138.21" font-family="Helvetica,sans-Serif" font-size="8.20" class="t-hum">MUST reproduce</text>
<text xml:space="preserve" text-anchor="middle" x="648.2" y="-129.21" font-family="Helvetica,sans-Serif" font-size="8.20" class="t-hum">byte for byte</text>
</g>

<g id="edge10" class="edge">
<title>vectors&#45;&gt;ncore</title>
<path fill="none" stroke-width="1.15" d="M753.89,-342.94C683.74,-357.07 584.63,-377.03 516.82,-390.69" class="s-fmt"/>
<polygon stroke-width="1.15" points="516.71,-388.57 511.24,-391.81 517.54,-392.69 516.71,-388.57" class="a-fmt s-fmt"/>
<text xml:space="preserve" text-anchor="middle" x="648.2" y="-378.61" font-family="Helvetica,sans-Serif" font-size="8.20" class="t-hum">MUST reproduce</text>
<text xml:space="preserve" text-anchor="middle" x="648.2" y="-369.61" font-family="Helvetica,sans-Serif" font-size="8.20" class="t-hum">byte for byte</text>
</g>

<g id="node17" class="node">
<title>rule</title>
<polygon stroke-width="1.3" points="1329.16,-429.98 1098.37,-429.98 1098.37,-378.02 1335.16,-378.02 1335.16,-423.98 1329.16,-429.98" class="f-rec s-rec"/>
<polyline fill="none" stroke-width="1.3" points="1329.16,-429.98 1329.16,-423.98" class="s-rec"/>
<polyline fill="none" stroke-width="1.3" points="1335.16,-423.98 1329.16,-423.98" class="s-rec"/>
<text xml:space="preserve" text-anchor="middle" x="1216.76" y="-414.95" font-family="Helvetica,sans-Serif" font-size="9.00" class="t-ink">A format change is a cross&#45;repo, signature&#45;affecting,</text>
<text xml:space="preserve" text-anchor="middle" x="1216.76" y="-405.2" font-family="Helvetica,sans-Serif" font-size="9.00" class="t-ink">test&#45;vector&#45;pinned decision owned by the monorepo.</text>
<text xml:space="preserve" text-anchor="middle" x="1216.76" y="-395.45" font-family="Helvetica,sans-Serif" font-size="9.00" class="t-ink">It is never made unilaterally in a sibling repo to make</text>
<text xml:space="preserve" text-anchor="middle" x="1216.76" y="-385.7" font-family="Helvetica,sans-Serif" font-size="9.00" class="t-ink">an implementation easier.</text>
</g>

<g id="edge20" class="edge">
<title>vectors&#45;&gt;rule</title>
<path fill="none" stroke-width="1.15" stroke-dasharray="5,2" d="M923.84,-343.41C972.91,-353.59 1035.79,-366.64 1090.62,-378.02" class="s-rec"/>
<polygon stroke-width="1.15" points="1089.95,-380.03 1096.25,-379.19 1090.8,-375.92 1089.95,-380.03" class="a-rec s-rec"/>
</g>

<g id="node14" class="node">
<title>gsync</title>
<path stroke-width="1.3" d="M1261.28,-512C1261.28,-512 1172.24,-512 1172.24,-512 1166.24,-512 1160.24,-506 1160.24,-500 1160.24,-500 1160.24,-488 1160.24,-488 1160.24,-482 1166.24,-476 1172.24,-476 1172.24,-476 1261.28,-476 1261.28,-476 1267.28,-476 1273.28,-482 1273.28,-488 1273.28,-488 1273.28,-500 1273.28,-500 1273.28,-506 1267.28,-512 1261.28,-512" class="f-tra s-tra"/>
<text xml:space="preserve" text-anchor="middle" x="1216.76" y="-489.85" font-family="Helvetica,sans-Serif" font-size="9.50" class="t-ink">sync/ · store/ · notify/</text>
</g>

<g id="edge18" class="edge">
<title>gsync&#45;&gt;gapi</title>
<path fill="none" stroke-width="1.15" d="M1273.91,-489.95C1337.65,-485.36 1443.22,-477.75 1523.63,-471.96" class="s-edge"/>
<polygon stroke-width="1.15" points="1523.76,-474.05 1529.59,-471.53 1523.46,-469.86 1523.76,-474.05" class="a-edge s-edge"/>
</g>

<g id="node16" class="node">
<title>gweb</title>
<path stroke-width="1.3" stroke-dasharray="5,2" d="M1708.07,-546.11C1708.07,-546.11 1562.03,-546.11 1562.03,-546.11 1556.03,-546.11 1550.03,-540.11 1550.03,-534.11 1550.03,-534.11 1550.03,-515.89 1550.03,-515.89 1550.03,-509.89 1556.03,-503.89 1562.03,-503.89 1562.03,-503.89 1708.07,-503.89 1708.07,-503.89 1714.07,-503.89 1720.07,-509.89 1720.07,-515.89 1720.07,-515.89 1720.07,-534.11 1720.07,-534.11 1720.07,-540.11 1714.07,-546.11 1708.07,-546.11" class="f-road s-road"/>
<text xml:space="preserve" text-anchor="middle" x="1635.05" y="-531.08" font-family="Helvetica,sans-Serif" font-size="9.00" class="t-ink">web/</text>
<text xml:space="preserve" text-anchor="middle" x="1635.05" y="-521.33" font-family="Helvetica,sans-Serif" font-size="9.00" class="t-ink">reserved: a second frontend reusing</text>
<text xml:space="preserve" text-anchor="middle" x="1635.05" y="-511.57" font-family="Helvetica,sans-Serif" font-size="9.00" class="t-ink">store and sync unchanged</text>
</g>

<g id="edge19" class="edge">
<title>gsync&#45;&gt;gweb</title>
<path fill="none" stroke-width="1.15" stroke-dasharray="5,2" d="M1273.91,-498.18C1342.74,-503.31 1460.33,-512.06 1542.35,-518.17" class="s-road"/>
<polygon stroke-width="1.15" points="1541.8,-520.24 1547.94,-518.59 1542.11,-516.05 1541.8,-520.24" class="a-road s-road"/>
</g>
</g>
</svg>