<svg width="1852pt" height="708pt"
 viewBox="0.00 0.00 1852.00 708.00" xmlns="http://www.w3.org/2000/svg" xmlns:xlink="http://www.w3.org/1999/xlink">
<g id="graph0" class="graph" transform="scale(1 1) rotate(0) translate(21.6 686.6)">
<title>ecosystem</title>
<g id="clust1" class="cluster">

<path stroke-width="1.5" d="M383.3,-8C383.3,-8 922.39,-8 922.39,-8 928.39,-8 934.39,-14 934.39,-20 934.39,-20 934.39,-66 934.39,-66 934.39,-72 928.39,-78 922.39,-78 922.39,-78 383.3,-78 383.3,-78 377.3,-78 371.3,-72 371.3,-66 371.3,-66 371.3,-20 371.3,-20 371.3,-14 377.3,-8 383.3,-8" class="f-rec s-rec"/>
<text xml:space="preserve" text-anchor="middle" x="459.92" y="-64.97" font-family="Helvetica,sans-Serif" font-size="9.50" class="t-rec"> &#160;REPO 2 · provjet — Kotlin / Gradle &#160;</text>
</g>
<g id="clust2" class="cluster">

<path stroke-width="1.5" d="M20,-442C20,-442 913.76,-442 913.76,-442 919.76,-442 925.76,-448 925.76,-454 925.76,-454 925.76,-516 925.76,-516 925.76,-522 919.76,-528 913.76,-528 913.76,-528 20,-528 20,-528 14,-528 8,-522 8,-516 8,-516 8,-454 8,-454 8,-448 14,-442 20,-442" class="f-rec s-rec"/>
<text xml:space="preserve" text-anchor="middle" x="78.62" y="-514.98" font-family="Helvetica,sans-Serif" font-size="9.50" class="t-rec"> &#160;REPO 3 · provnvim — Lua &#160;</text>
</g>
<g id="clust3" class="cluster">

<path stroke-width="1.6" d="M312.42,-87C312.42,-87 1351.31,-87 1351.31,-87 1357.31,-87 1363.31,-93 1363.31,-99 1363.31,-99 1363.31,-422 1363.31,-422 1363.31,-428 1357.31,-434 1351.31,-434 1351.31,-434 312.42,-434 312.42,-434 306.42,-434 300.42,-428 300.42,-422 300.42,-422 300.42,-99 300.42,-99 300.42,-93 306.42,-87 312.42,-87" class="f-fmt s-fmt"/>
<text xml:space="preserve" text-anchor="middle" x="468.17" y="-420.98" font-family="Helvetica,sans-Serif" font-size="9.50" class="t-fmt"> &#160;REPO 1 · provenance — the monorepo, npm workspace of six packages &#160;</text>
</g>
<g id="clust4" class="cluster">

<path stroke-width="1.5" d="M1202.89,-502C1202.89,-502 1788.85,-502 1788.85,-502 1794.85,-502 1800.85,-508 1800.85,-514 1800.85,-514 1800.85,-645 1800.85,-645 1800.85,-651 1794.85,-657 1788.85,-657 1788.85,-657 1202.89,-657 1202.89,-657 1196.89,-657 1190.89,-651 1190.89,-645 1190.89,-645 1190.89,-514 1190.89,-514 1190.89,-508 1196.89,-502 1202.89,-502" class="f-tra s-tra"/>
<text xml:space="preserve" text-anchor="middle" x="1276.89" y="-643.98" font-family="Helvetica,sans-Serif" font-size="9.50" class="t-tra"> &#160;REPO 4 · provgate — Python / uv &#160;</text>
</g>

<g id="node1" class="node">
<title>jcore</title>
<path stroke-width="1.3" d="M516.97,-52C516.97,-52 391.3,-52 391.3,-52 385.3,-52 379.3,-46 379.3,-40 379.3,-40 379.3,-28 379.3,-28 379.3,-22 385.3,-16 391.3,-16 391.3,-16 516.97,-16 516.97,-16 522.97,-16 528.97,-22 528.97,-28 528.97,-28 528.97,-40 528.97,-40 528.97,-46 522.97,-52 516.97,-52" class="f-rec s-rec"/>
<text xml:space="preserve" text-anchor="middle" x="454.13" y="-34.73" font-family="Helvetica,sans-Serif" font-size="9.50" class="t-ink">core/</text>
<text xml:space="preserve" text-anchor="middle" x="454.13" y="-24.98" font-family="Helvetica,sans-Serif" font-size="9.50" class="t-ink">pure Kotlin port of the format</text>
</g>

<g id="node2" class="node">
<title>jrec</title>
<path stroke-width="1.3" d="M914.39,-52C914.39,-52 817.97,-52 817.97,-52 811.97,-52 805.97,-46 805.97,-40 805.97,-40 805.97,-28 805.97,-28 805.97,-22 811.97,-16 817.97,-16 817.97,-16 914.39,-16 914.39,-16 920.39,-16 926.39,-22 926.39,-28 926.39,-28 926.39,-40 926.39,-40 926.39,-46 920.39,-52 914.39,-52" class="f-rec s-rec"/>
<text xml:space="preserve" text-anchor="middle" x="866.18" y="-34.73" font-family="Helvetica,sans-Serif" font-size="9.50" class="t-ink">recorder/</text>
<text xml:space="preserve" text-anchor="middle" x="866.18" y="-24.98" font-family="Helvetica,sans-Serif" font-size="9.50" class="t-ink">IntelliJ Platform wiring</text>
</g>

<g id="edge11" class="edge">

<path fill="none" stroke-width="1.15" d="M529.39,-34C605.92,-34 724.17,-34 798,-34" class="s-edge"/>
<polygon stroke-width="1.15" points="797.71,-36.1 803.71,-34 797.71,-31.9 797.71,-36.1" class="a-edge s-edge"/>
</g>

<g id="node13" class="node">
<title>allow</title>
<polygon stroke-width="1.3" points="1349.31,-157.1 1158.39,-157.1 1158.39,-114.89 1355.31,-114.89 1355.31,-151.1 1349.31,-157.1" class="f-fmt s-fmt"/>
<polyline fill="none" stroke-width="1.3" points="1349.31,-157.1 1349.31,-151.1" class="s-fmt"/>
<polyline fill="none" stroke-width="1.3" points="1355.31,-151.1 1349.31,-151.1" class="s-fmt"/>
<text xml:space="preserve" text-anchor="middle" x="1256.85" y="-142.07" font-family="Helvetica,sans-Serif" font-size="9.00" class="t-ink">known&#45;good&#45;extension&#45;hashes.json</text>
<text xml:space="preserve" text-anchor="middle" x="1256.85" y="-132.32" font-family="Helvetica,sans-Serif" font-size="9.00" class="t-ink">refreshed by npm run update&#45;hashes after</text>
<text xml:space="preserve" text-anchor="middle" x="1256.85" y="-122.58" font-family="Helvetica,sans-Serif" font-size="9.00" class="t-ink">every recorder release, in any language</text>
</g>

<g id="edge14" class="edge">

<path fill="none" stroke-width="1.15" stroke-dasharray="5,2" d="M926.63,-49.6C990.26,-66.3 1091.96,-92.99 1165.5,-112.29" class="s-rec"/>
<polygon stroke-width="1.15" points="1164.95,-114.32 1171.29,-113.81 1166.02,-110.26 1164.95,-114.32" class="a-rec s-rec"/>
<text xml:space="preserve" text-anchor="middle" x="1065.64" y="-95.35" font-family="Helvetica,sans-Serif" font-size="8.20" class="t-hum">adds its build hash</text>
</g>

<g id="node3" class="node">
<title>ncore</title>
<path stroke-width="1.3" d="M512.84,-494C512.84,-494 395.42,-494 395.42,-494 389.42,-494 383.42,-488 383.42,-482 383.42,-482 383.42,-470 383.42,-470 383.42,-464 389.42,-458 395.42,-458 395.42,-458 512.84,-458 512.84,-458 518.84,-458 524.84,-464 524.84,-470 524.84,-470 524.84,-482 524.84,-482 524.84,-488 518.84,-494 512.84,-494" class="f-rec s-rec"/>
<text xml:space="preserve" text-anchor="middle" x="454.13" y="-476.73" font-family="Helvetica,sans-Serif" font-size="9.50" class="t-ink">core/</text>
<text xml:space="preserve" text-anchor="middle" x="454.13" y="-466.98" font-family="Helvetica,sans-Serif" font-size="9.50" class="t-ink">pure Lua port of the format</text>
</g>

<g id="node5" class="node">
<title>nrec</title>
<path stroke-width="1.3" d="M905.76,-494C905.76,-494 826.59,-494 826.59,-494 820.59,-494 814.59,-488 814.59,-482 814.59,-482 814.59,-470 814.59,-470 814.59,-464 820.59,-458 826.59,-458 826.59,-458 905.76,-458 905.76,-458 911.76,-458 917.76,-464 917.76,-470 917.76,-470 917.76,-482 917.76,-482 917.76,-488 911.76,-494 905.76,-494" class="f-rec s-rec"/>
<text xml:space="preserve" text-anchor="middle" x="866.18" y="-476.73" font-family="Helvetica,sans-Serif" font-size="9.50" class="t-ink">recorder/</text>
<text xml:space="preserve" text-anchor="middle" x="866.18" y="-466.98" font-family="Helvetica,sans-Serif" font-size="9.50" class="t-ink">Neovim API wiring</text>
</g>

<g id="edge12" class="edge">

<path fill="none" stroke-width="1.15" d="M525.15,-476C604.54,-476 732.55,-476 806.78,-476" class="s-edge"/>
<polygon stroke-width="1.15" points="806.49,-478.1 812.49,-476 806.49,-473.9 806.49,-478.1" class="a-edge s-edge"/>
</g>

<g id="node4" class="node">
<title>nvend</title>
<path stroke-width="1.3" d="M186.67,-502.11C186.67,-502.11 28,-502.11 28,-502.11 22,-502.11 16,-496.11 16,-490.11 16,-490.11 16,-471.89 16,-471.89 16,-465.89 22,-459.89 28,-459.89 28,-459.89 186.67,-459.89 186.67,-459.89 192.67,-459.89 198.67,-465.89 198.67,-471.89 198.67,-471.89 198.67,-490.11 198.67,-490.11 198.67,-496.11 192.67,-502.11 186.67,-502.11" class="f-rec s-rec"/>
<text xml:space="preserve" text-anchor="middle" x="107.34" y="-486.6" font-family="Helvetica,sans-Serif" font-size="9.50" class="t-ink">vendor/</text>
<text xml:space="preserve" text-anchor="middle" x="107.34" y="-476.85" font-family="Helvetica,sans-Serif" font-size="9.50" class="t-ink">ed25519 + XChaCha20&#45;Poly1305,</text>
<text xml:space="preserve" text-anchor="middle" x="107.34" y="-467.1" font-family="Helvetica,sans-Serif" font-size="9.50" class="t-ink">vendored under a licence&#45;notice gate</text>
</g>

<g id="edge13" class="edge">

<path fill="none" stroke-width="1.15" d="M198.93,-479.69C253.79,-478.89 323.05,-477.89 375.41,-477.13" class="s-road"/>
<polygon stroke-width="1.15" points="375.3,-479.23 381.27,-477.04 375.24,-475.03 375.3,-479.23" class="a-road s-road"/>
<text xml:space="preserve" text-anchor="middle" x="253.55" y="-480.3" font-family="Helvetica,sans-Serif" font-size="8.20" class="t-hum">vendored</text>
</g>

<g id="edge15" class="edge">

<path fill="none" stroke-width="1.15" stroke-dasharray="5,2" d="M918.34,-472.12C943.18,-468.12 972.33,-460.08 994.26,-444 1065.83,-391.53 1059.11,-353.27 1099.01,-274 1119.46,-233.38 1104.32,-210.62 1137.01,-179 1144.31,-171.94 1152.85,-166.03 1161.95,-161.08" class="s-rec"/>
<polygon stroke-width="1.15" points="1162.72,-163.04 1167.11,-158.44 1160.81,-159.3 1162.72,-163.04" class="a-rec s-rec"/>
<text xml:space="preserve" text-anchor="middle" x="1065.64" y="-409.12" font-family="Helvetica,sans-Serif" font-size="8.20" class="t-hum">adds its tree hash</text>
</g>

<g id="node6" class="node">
<title>logcore</title>
<path stroke-width="2.2" d="M587.84,-278.61C587.84,-278.61 320.42,-278.61 320.42,-278.61 314.42,-278.61 308.42,-272.61 308.42,-266.61 308.42,-266.61 308.42,-209.4 308.42,-209.4 308.42,-203.4 314.42,-197.4 320.42,-197.4 320.42,-197.4 587.84,-197.4 587.84,-197.4 593.84,-197.4 599.84,-203.4 599.84,-209.4 599.84,-209.4 599.84,-266.61 599.84,-266.61 599.84,-272.61 593.84,-278.61 587.84,-278.61" class="f-fmt s-fmt"/>
<text xml:space="preserve" text-anchor="middle" x="454.13" y="-262.62" font-family="Helvetica,sans-Serif" font-size="10.00" class="t-ink">log&#45;core</text>
<text xml:space="preserve" text-anchor="middle" x="454.13" y="-251.38" font-family="Helvetica,sans-Serif" font-size="10.00" class="t-ink">event types · JCS · hash chain · validator</text>
<text xml:space="preserve" text-anchor="middle" x="454.13" y="-240.12" font-family="Helvetica,sans-Serif" font-size="10.00" class="t-ink">ndjson · bundle + manifest · ed25519</text>
<text xml:space="preserve" text-anchor="middle" x="454.13" y="-216.88" font-family="Helvetica,sans-Serif" font-size="10.00" class="t-ink">ZERO dependencies on vscode, node:*, fs, path or the DOM</text>
<text xml:space="preserve" text-anchor="middle" x="454.13" y="-205.62" font-family="Helvetica,sans-Serif" font-size="10.00" class="t-ink">— enforced by an ESLint no&#45;restricted&#45;imports rule</text>
</g>

<g id="node7" class="node">
<title>vsrec</title>
<path stroke-width="1.3" d="M907.64,-131C907.64,-131 824.72,-131 824.72,-131 818.72,-131 812.72,-125 812.72,-119 812.72,-119 812.72,-107 812.72,-107 812.72,-101 818.72,-95 824.72,-95 824.72,-95 907.64,-95 907.64,-95 913.64,-95 919.64,-101 919.64,-107 919.64,-107 919.64,-119 919.64,-119 919.64,-125 913.64,-131 907.64,-131" class="f-rec s-rec"/>
<text xml:space="preserve" text-anchor="middle" x="866.18" y="-113.72" font-family="Helvetica,sans-Serif" font-size="9.50" class="t-ink">recorder</text>
<text xml:space="preserve" text-anchor="middle" x="866.18" y="-103.97" font-family="Helvetica,sans-Serif" font-size="9.50" class="t-ink">VS Code extension</text>
</g>

<g id="edge1" class="edge">

<path fill="none" stroke-width="1.15" d="M591.67,-196.38C663.91,-174.35 748.96,-148.43 804.82,-131.4" class="s-edge"/>
<polygon stroke-width="1.15" points="805.37,-133.43 810.49,-129.67 804.14,-129.41 805.37,-133.43" class="a-edge s-edge"/>
<text xml:space="preserve" text-anchor="middle" x="668.97" y="-180.46" font-family="Helvetica,sans-Serif" font-size="8.20" class="t-hum">implements</text>
</g>

<g id="node8" class="node">
<title>shared</title>
<path stroke-width="1.3" d="M960.89,-216.1C960.89,-216.1 771.47,-216.1 771.47,-216.1 765.47,-216.1 759.47,-210.1 759.47,-204.1 759.47,-204.1 759.47,-185.9 759.47,-185.9 759.47,-179.9 765.47,-173.9 771.47,-173.9 771.47,-173.9 960.89,-173.9 960.89,-173.9 966.89,-173.9 972.89,-179.9 972.89,-185.9 972.89,-185.9 972.89,-204.1 972.89,-204.1 972.89,-210.1 966.89,-216.1 960.89,-216.1" class="f-fmt s-fmt"/>
<text xml:space="preserve" text-anchor="middle" x="866.18" y="-200.6" font-family="Helvetica,sans-Serif" font-size="9.50" class="t-ink">shared</text>
<text xml:space="preserve" text-anchor="middle" x="866.18" y="-190.85" font-family="Helvetica,sans-Serif" font-size="9.50" class="t-ink">Zod schemas — the HTTP API contract,</text>
<text xml:space="preserve" text-anchor="middle" x="866.18" y="-181.1" font-family="Helvetica,sans-Serif" font-size="9.50" class="t-ink">imported by BOTH ends so they cannot drift</text>
</g>


<g id="node9" class="node">
<title>acore</title>
<path stroke-width="2" d="M982.26,-328.98C982.26,-328.98 750.09,-328.98 750.09,-328.98 744.09,-328.98 738.09,-322.98 738.09,-316.98 738.09,-316.98 738.09,-271.02 738.09,-271.02 738.09,-265.02 744.09,-259.02 750.09,-259.02 750.09,-259.02 982.26,-259.02 982.26,-259.02 988.26,-259.02 994.26,-265.02 994.26,-271.02 994.26,-271.02 994.26,-316.98 994.26,-316.98 994.26,-322.98 988.26,-328.98 982.26,-328.98" class="f-ana s-ana"/>
<text xml:space="preserve" text-anchor="middle" x="866.18" y="-313" font-family="Helvetica,sans-Serif" font-size="10.00" class="t-ink">analysis&#45;core</text>
<text xml:space="preserve" text-anchor="middle" x="866.18" y="-301.75" font-family="Helvetica,sans-Serif" font-size="10.00" class="t-ink">loader · 8 checks · EventIndex · heuristics</text>
<text xml:space="preserve" text-anchor="middle" x="866.18" y="-278.5" font-family="Helvetica,sans-Serif" font-size="10.00" class="t-ink">ISOMORPHIC — same restricted&#45;import rule, so the</text>
<text xml:space="preserve" text-anchor="middle" x="866.18" y="-267.25" font-family="Helvetica,sans-Serif" font-size="10.00" class="t-ink">identical code runs in Node and in the browser</text>
</g>

<g id="edge3" class="edge">

<path fill="none" stroke-width="1.15" d="M600.85,-257.9C642.78,-263.63 688.34,-269.85 729.63,-275.49" class="s-fmt"/>
<polygon stroke-width="1.15" points="729.33,-277.57 735.56,-276.3 729.9,-273.41 729.33,-277.57" class="a-fmt s-fmt"/>
<text xml:space="preserve" text-anchor="middle" x="668.97" y="-272.23" font-family="Helvetica,sans-Serif" font-size="8.20" class="t-hum">depends on</text>
</g>

<g id="node12" class="node">
<title>vectors</title>
<polygon stroke-width="1.3" points="946.26,-408 780.09,-408 780.09,-372 952.26,-372 952.26,-402 946.26,-408" class="f-fmt s-fmt"/>
<polyline fill="none" stroke-width="1.3" points="946.26,-408 946.26,-402" class="s-fmt"/>
<polyline fill="none" stroke-width="1.3" points="952.26,-402 946.26,-402" class="s-fmt"/>
<text xml:space="preserve" text-anchor="middle" x="866.18" y="-391.2" font-family="Helvetica,sans-Serif" font-size="9.00" class="t-ink">conformance vectors</text>
<text xml:space="preserve" text-anchor="middle" x="866.18" y="-381.45" font-family="Helvetica,sans-Serif" font-size="9.00" class="t-ink">exported from log&#45;core&#39;s test vectors</text>
</g>

<g id="edge8" class="edge">

<path fill="none" stroke-width="1.15" d="M555.3,-279.69C609.13,-301.57 676.85,-328.27 738.09,-350 756.56,-356.55 776.74,-363.15 795.45,-369.05" class="s-fmt"/>
<polygon stroke-width="1.15" points="794.81,-371.05 801.16,-370.84 796.07,-367.04 794.81,-371.05" class="a-fmt s-fmt"/>
</g>

<g id="edge16" class="edge">

<path fill="none" stroke-width="1.15" stroke-dasharray="5,2" d="M920,-116.13C978.89,-119.61 1075.66,-125.34 1150.24,-129.75" class="s-rec"/>
<polygon stroke-width="1.15" points="1149.99,-131.84 1156.1,-130.1 1150.24,-127.65 1149.99,-131.84" class="a-rec s-rec"/>
<text xml:space="preserve" text-anchor="middle" x="1065.64" y="-127.77" font-family="Helvetica,sans-Serif" font-size="8.20" class="t-hum">adds its VSIX hash</text>
</g>

<g id="node10" class="node">
<title>server</title>
<path stroke-width="1.3" d="M1318.93,-236C1318.93,-236 1194.76,-236 1194.76,-236 1188.76,-236 1182.76,-230 1182.76,-224 1182.76,-224 1182.76,-212 1182.76,-212 1182.76,-206 1188.76,-200 1194.76,-200 1194.76,-200 1318.93,-200 1318.93,-200 1324.93,-200 1330.93,-206 1330.93,-212 1330.93,-212 1330.93,-224 1330.93,-224 1330.93,-230 1324.93,-236 1318.93,-236" class="f-srv s-srv"/>
<text xml:space="preserve" text-anchor="middle" x="1256.85" y="-218.72" font-family="Helvetica,sans-Serif" font-size="9.50" class="t-ink">server</text>
<text xml:space="preserve" text-anchor="middle" x="1256.85" y="-208.97" font-family="Helvetica,sans-Serif" font-size="9.50" class="t-ink">Hono · Drizzle · pg&#45;boss · S3</text>
</g>

<g id="edge6" class="edge">

<path fill="none" stroke-width="1.15" d="M973.46,-193.84C1012.93,-194.07 1058.05,-195.13 1099.01,-198 1123.7,-199.73 1150.46,-202.72 1174.76,-205.87" class="s-fmt"/>
<polygon stroke-width="1.15" points="1174.27,-207.93 1180.49,-206.63 1174.82,-203.76 1174.27,-207.93" class="a-fmt s-fmt"/>
<text xml:space="preserve" text-anchor="middle" x="1065.64" y="-199.21" font-family="Helvetica,sans-Serif" font-size="8.20" class="t-hum">same schemas</text>
</g>

<g id="node11" class="node">
<title>analyzer</title>
<path stroke-width="1.3" d="M1293.43,-315C1293.43,-315 1220.26,-315 1220.26,-315 1214.26,-315 1208.26,-309 1208.26,-303 1208.26,-303 1208.26,-291 1208.26,-291 1208.26,-285 1214.26,-279 1220.26,-279 1220.26,-279 1293.43,-279 1293.43,-279 1299.43,-279 1305.43,-285 1305.43,-291 1305.43,-291 1305.43,-303 1305.43,-303 1305.43,-309 1299.43,-315 1293.43,-315" class="f-uix s-uix"/>
<text xml:space="preserve" text-anchor="middle" x="1256.85" y="-297.73" font-family="Helvetica,sans-Serif" font-size="9.50" class="t-ink">analyzer</text>
<text xml:space="preserve" text-anchor="middle" x="1256.85" y="-287.98" font-family="Helvetica,sans-Serif" font-size="9.50" class="t-ink">React / Vite SPA</text>
</g>

<g id="edge7" class="edge">

<path fill="none" stroke-width="1.15" d="M949.6,-216.63C1025.13,-236.45 1134.86,-265.25 1200.42,-282.45" class="s-fmt"/>
<polygon stroke-width="1.15" points="1199.78,-284.46 1206.11,-283.95 1200.84,-280.39 1199.78,-284.46" class="a-fmt s-fmt"/>
<text xml:space="preserve" text-anchor="middle" x="1065.64" y="-256.35" font-family="Helvetica,sans-Serif" font-size="8.20" class="t-hum">same schemas</text>
</g>

<g id="edge4" class="edge">

<path fill="none" stroke-width="1.15" d="M995.15,-288.95C1037.53,-286.34 1078.97,-282.51 1099.01,-277 1117.22,-271.99 1119.58,-265.25 1137.01,-258 1153.28,-251.23 1171.14,-244.75 1187.96,-239.04" class="s-ana"/>
<polygon stroke-width="1.15" points="1188.42,-241.1 1193.44,-237.2 1187.09,-237.12 1188.42,-241.1" class="a-ana s-ana"/>
</g>

<g id="edge5" class="edge">

<path fill="none" stroke-width="1.15" d="M995.25,-294.99C1064.61,-295.52 1146.76,-296.16 1200.02,-296.57" class="s-ana"/>
<polygon stroke-width="1.15" points="1199.9,-298.67 1205.92,-296.61 1199.93,-294.47 1199.9,-298.67" class="a-ana s-ana"/>
</g>

<g id="node15" class="node">
<title>gapi</title>
<path stroke-width="1.3" d="M1780.85,-546C1780.85,-546 1595.18,-546 1595.18,-546 1589.18,-546 1583.18,-540 1583.18,-534 1583.18,-534 1583.18,-522 1583.18,-522 1583.18,-516 1589.18,-510 1595.18,-510 1595.18,-510 1780.85,-510 1780.85,-510 1786.85,-510 1792.85,-516 1792.85,-522 1792.85,-522 1792.85,-534 1792.85,-534 1792.85,-540 1786.85,-546 1780.85,-546" class="f-tra s-tra"/>
<text xml:space="preserve" text-anchor="middle" x="1688.02" y="-528.73" font-family="Helvetica,sans-Serif" font-size="9.50" class="t-ink">provenance/</text>
<text xml:space="preserve" text-anchor="middle" x="1688.02" y="-518.98" font-family="Helvetica,sans-Serif" font-size="9.50" class="t-ink">HTTP client — three public behaviours only</text>
</g>

<g id="edge17" class="edge">

<path fill="none" stroke-width="1.15" d="M1335,-239.05C1349.3,-244.31 1363.78,-250.61 1376.68,-258 1504.32,-331.14 1627.49,-461.4 1670.73,-509.49" class="s-tra"/>
<polygon stroke-width="1.15" points="1336,-237.18 1329.64,-237.14 1334.59,-241.13 1336,-237.18" class="a-tra s-tra"/>
<text xml:space="preserve" text-anchor="middle" x="1479.93" y="-397.2" font-family="Helvetica,sans-Serif" font-size="8.20" class="t-hum">public HTTP API only —</text>
<text xml:space="preserve" text-anchor="middle" x="1479.93" y="-388.2" font-family="Helvetica,sans-Serif" font-size="8.20" class="t-hum">provgate holds no Provenance code,</text>
<text xml:space="preserve" text-anchor="middle" x="1479.93" y="-379.2" font-family="Helvetica,sans-Serif" font-size="8.20" class="t-hum">database or storage</text>
</g>

<g id="edge9" class="edge">

<path fill="none" stroke-width="1.15" d="M779.63,-377.1C763.94,-371.15 749.08,-362.51 738.09,-350 674.34,-277.43 755.21,-215.33 700.09,-136 663.11,-82.78 592.79,-57.25 536.95,-45.05" class="s-fmt"/>
<polygon stroke-width="1.15" points="537.53,-43.02 531.23,-43.84 536.66,-47.13 537.53,-43.02" class="a-fmt s-fmt"/>
<text xml:space="preserve" text-anchor="middle" x="668.97" y="-146.21" font-family="Helvetica,sans-Serif" font-size="8.20" class="t-hum">MUST reproduce</text>
<text xml:space="preserve" text-anchor="middle" x="668.97" y="-137.21" font-family="Helvetica,sans-Serif" font-size="8.20" class="t-hum">byte for byte</text>
</g>

<g id="edge10" class="edge">

<path fill="none" stroke-width="1.15" d="M779.8,-407.9C706.99,-423.18 603.21,-444.94 532.72,-459.73" class="s-fmt"/>
<polygon stroke-width="1.15" points="532.3,-457.67 526.86,-460.96 533.16,-461.78 532.3,-457.67" class="a-fmt s-fmt"/>
<text xml:space="preserve" text-anchor="middle" x="668.97" y="-445.79" font-family="Helvetica,sans-Serif" font-size="8.20" class="t-hum">MUST reproduce</text>
<text xml:space="preserve" text-anchor="middle" x="668.97" y="-436.79" font-family="Helvetica,sans-Serif" font-size="8.20" class="t-hum">byte for byte</text>
</g>

<g id="node17" class="node">
<title>rule</title>
<polygon stroke-width="1.3" points="1370.68,-493.98 1137.01,-493.98 1137.01,-442.02 1376.68,-442.02 1376.68,-487.98 1370.68,-493.98" class="f-rec s-rec"/>
<polyline fill="none" stroke-width="1.3" points="1370.68,-493.98 1370.68,-487.98" class="s-rec"/>
<polyline fill="none" stroke-width="1.3" points="1376.68,-487.98 1370.68,-487.98" class="s-rec"/>
<text xml:space="preserve" text-anchor="middle" x="1256.85" y="-478.95" font-family="Helvetica,sans-Serif" font-size="9.00" class="t-ink">A format change is a cross&#45;repo, signature&#45;affecting,</text>
<text xml:space="preserve" text-anchor="middle" x="1256.85" y="-469.2" font-family="Helvetica,sans-Serif" font-size="9.00" class="t-ink">test&#45;vector&#45;pinned decision owned by the monorepo.</text>
<text xml:space="preserve" text-anchor="middle" x="1256.85" y="-459.45" font-family="Helvetica,sans-Serif" font-size="9.00" class="t-ink">It is never made unilaterally in a sibling repo to make</text>
<text xml:space="preserve" text-anchor="middle" x="1256.85" y="-449.7" font-family="Helvetica,sans-Serif" font-size="9.00" class="t-ink">an implementation easier.</text>
</g>

<g id="edge20" class="edge">

<path fill="none" stroke-width="1.15" stroke-dasharray="5,2" d="M952.69,-404.51C996.53,-412.2 1050.73,-422.09 1099.01,-432 1110.91,-434.44 1123.28,-437.09 1135.64,-439.81" class="s-rec"/>
<polygon stroke-width="1.15" points="1134.89,-441.8 1141.2,-441.04 1135.8,-437.69 1134.89,-441.8" class="a-rec s-rec"/>
</g>

<g id="node14" class="node">
<title>gsync</title>
<path stroke-width="1.3" d="M1302.81,-600C1302.81,-600 1210.89,-600 1210.89,-600 1204.89,-600 1198.89,-594 1198.89,-588 1198.89,-588 1198.89,-576 1198.89,-576 1198.89,-570 1204.89,-564 1210.89,-564 1210.89,-564 1302.81,-564 1302.81,-564 1308.81,-564 1314.81,-570 1314.81,-576 1314.81,-576 1314.81,-588 1314.81,-588 1314.81,-594 1308.81,-600 1302.81,-600" class="f-tra s-tra"/>
<text xml:space="preserve" text-anchor="middle" x="1256.85" y="-577.85" font-family="Helvetica,sans-Serif" font-size="9.50" class="t-ink">sync/ · store/ · notify/</text>
</g>

<g id="edge18" class="edge">

<path fill="none" stroke-width="1.15" d="M1315.28,-574.77C1381.46,-566.45 1491.79,-552.56 1575.11,-542.08" class="s-edge"/>
<polygon stroke-width="1.15" points="1575.16,-544.19 1580.85,-541.36 1574.63,-540.02 1575.16,-544.19" class="a-edge s-edge"/>
</g>

<g id="node16" class="node">
<title>gweb</title>
<path stroke-width="1.3" stroke-dasharray="5,2" d="M1762.48,-631.11C1762.48,-631.11 1613.56,-631.11 1613.56,-631.11 1607.56,-631.11 1601.56,-625.11 1601.56,-619.11 1601.56,-619.11 1601.56,-600.89 1601.56,-600.89 1601.56,-594.89 1607.56,-588.89 1613.56,-588.89 1613.56,-588.89 1762.48,-588.89 1762.48,-588.89 1768.48,-588.89 1774.48,-594.89 1774.48,-600.89 1774.48,-600.89 1774.48,-619.11 1774.48,-619.11 1774.48,-625.11 1768.48,-631.11 1762.48,-631.11" class="f-road s-road"/>
<text xml:space="preserve" text-anchor="middle" x="1688.02" y="-616.08" font-family="Helvetica,sans-Serif" font-size="9.00" class="t-ink">web/</text>
<text xml:space="preserve" text-anchor="middle" x="1688.02" y="-606.33" font-family="Helvetica,sans-Serif" font-size="9.00" class="t-ink">reserved: a second frontend reusing</text>
<text xml:space="preserve" text-anchor="middle" x="1688.02" y="-596.58" font-family="Helvetica,sans-Serif" font-size="9.00" class="t-ink">store and sync unchanged</text>
</g>

<g id="edge19" class="edge">

<path fill="none" stroke-width="1.15" stroke-dasharray="5,2" d="M1315.28,-585.75C1386.45,-590.39 1508.68,-598.36 1593.45,-603.9" class="s-road"/>
<polygon stroke-width="1.15" points="1593.16,-605.98 1599.29,-604.28 1593.44,-601.79 1593.16,-605.98" class="a-road s-road"/>
</g>
</g>
</svg>