<svg width="938pt" height="602pt"
 viewBox="0.00 0.00 938.00 602.00" xmlns="http://www.w3.org/2000/svg" xmlns:xlink="http://www.w3.org/1999/xlink">
<g id="graph0" class="graph" transform="scale(1 1) rotate(0) translate(4 598)">
<title>er</title>
<g id="clust1" class="cluster">
<title>cluster_id</title>
<path stroke-width="1.5" d="M272.33,-454C272.33,-454 586.53,-454 586.53,-454 592.53,-454 598.53,-460 598.53,-466 598.53,-466 598.53,-574 598.53,-574 598.53,-580 592.53,-586 586.53,-586 586.53,-586 272.33,-586 272.33,-586 266.33,-586 260.33,-580 260.33,-574 260.33,-574 260.33,-466 260.33,-466 260.33,-460 266.33,-454 272.33,-454" class="f-hum s-hum"/>
<text xml:space="preserve" text-anchor="middle" x="320.08" y="-572.98" font-family="Helvetica,sans-Serif" font-size="9.50" class="t-hum"> &#160;IDENTITY &amp; ACCESS &#160;</text>
</g>
<g id="clust2" class="cluster">
<title>cluster_org</title>
<path stroke-width="1.5" d="M20,-191C20,-191 358.62,-191 358.62,-191 364.62,-191 370.62,-197 370.62,-203 370.62,-203 370.62,-273 370.62,-273 370.62,-279 364.62,-285 358.62,-285 358.62,-285 20,-285 20,-285 14,-285 8,-279 8,-273 8,-273 8,-203 8,-203 8,-197 14,-191 20,-191" class="f-srv s-srv"/>
<text xml:space="preserve" text-anchor="middle" x="58" y="-271.98" font-family="Helvetica,sans-Serif" font-size="9.50" class="t-srv"> &#160;ORGANISATION &#160;</text>
</g>
<g id="clust3" class="cluster">
<title>cluster_sub</title>
<path stroke-width="1.5" d="M480.37,-174C480.37,-174 874.07,-174 874.07,-174 880.07,-174 886.07,-180 886.07,-186 886.07,-186 886.07,-294 886.07,-294 886.07,-300 880.07,-306 874.07,-306 874.07,-306 480.37,-306 480.37,-306 474.37,-306 468.37,-300 468.37,-294 468.37,-294 468.37,-186 468.37,-186 468.37,-180 474.37,-174 480.37,-174" class="f-ana s-ana"/>
<text xml:space="preserve" text-anchor="middle" x="514.99" y="-292.98" font-family="Helvetica,sans-Serif" font-size="9.50" class="t-ana"> &#160;SUBMISSIONS &#160;</text>
</g>
<g id="clust4" class="cluster">
<title>cluster_x</title>
<path stroke-width="1.5" d="M517.12,-8C517.12,-8 886.45,-8 886.45,-8 892.45,-8 898.45,-14 898.45,-20 898.45,-20 898.45,-52 898.45,-52 898.45,-58 892.45,-64 886.45,-64 886.45,-64 517.12,-64 517.12,-64 511.12,-64 505.12,-58 505.12,-52 505.12,-52 505.12,-20 505.12,-20 505.12,-14 511.12,-8 517.12,-8" class="f-uix s-uix"/>
<text xml:space="preserve" text-anchor="middle" x="566.74" y="-50.98" font-family="Helvetica,sans-Serif" font-size="9.50" class="t-uix"> &#160;CROSS&#45;SUBMISSION &#160;</text>
</g>
<g id="clust5" class="cluster">
<title>cluster_ing</title>
<path stroke-width="1.5" d="M279.45,-72C279.45,-72 582.03,-72 582.03,-72 588.03,-72 594.03,-78 594.03,-84 594.03,-84 594.03,-154 594.03,-154 594.03,-160 588.03,-166 582.03,-166 582.03,-166 279.45,-166 279.45,-166 273.45,-166 267.45,-160 267.45,-154 267.45,-154 267.45,-84 267.45,-84 267.45,-78 273.45,-72 279.45,-72" class="f-tra s-tra"/>
<text xml:space="preserve" text-anchor="middle" x="298.7" y="-152.97" font-family="Helvetica,sans-Serif" font-size="9.50" class="t-tra"> &#160;INGEST &#160;</text>
</g>
<g id="clust6" class="cluster">
<title>cluster_ops</title>
<path stroke-width="1.5" d="M502.49,-314C502.49,-314 597.03,-314 597.03,-314 603.03,-314 609.03,-320 609.03,-326 609.03,-326 609.03,-434 609.03,-434 609.03,-440 603.03,-446 597.03,-446 597.03,-446 502.49,-446 502.49,-446 496.49,-446 490.49,-440 490.49,-434 490.49,-434 490.49,-326 490.49,-326 490.49,-320 496.49,-314 502.49,-314" class="f-road s-road"/>
<text xml:space="preserve" text-anchor="middle" x="534.87" y="-432.98" font-family="Helvetica,sans-Serif" font-size="9.50" class="t-road"> &#160;OPERATIONS &#160;</text>
</g>

<g id="node1" class="node">
<title>users</title>
<polygon stroke-width="1.3" points="348.47,-483.8 294.47,-483.8 294.47,-462.2 348.47,-462.2 348.47,-483.8" class="f-hum s-hum"/>
<text xml:space="preserve" text-anchor="middle" x="321.47" y="-469.12" font-family="Helvetica,sans-Serif" font-size="10.00" class="t-ink">users</text>
</g>

<g id="node2" class="node">
<title>sessions</title>
<polygon stroke-width="1.3" points="580.78,-483.8 518.74,-483.8 518.74,-462.2 580.78,-462.2 580.78,-483.8" class="f-hum s-hum"/>
<text xml:space="preserve" text-anchor="middle" x="549.76" y="-469.12" font-family="Helvetica,sans-Serif" font-size="10.00" class="t-ink">sessions</text>
</g>

<g id="edge1" class="edge">
<title>users&#45;&gt;sessions</title>
<path fill="none" stroke-width="1.1" d="M348.88,-473C389.27,-473 466.52,-473 512.25,-473" class="s-edge"/>
<polygon stroke-width="1.1" points="512.35,-473 517.85,-475.48 515.47,-473 517.48,-473 517.48,-473 517.48,-473 515.47,-473 517.85,-470.53 512.35,-473" class="a-edge s-edge"/>
</g>

<g id="node3" class="node">
<title>api_tokens</title>
<polygon stroke-width="1.3" points="584.91,-521.8 514.62,-521.8 514.62,-500.2 584.91,-500.2 584.91,-521.8" class="f-hum s-hum"/>
<text xml:space="preserve" text-anchor="middle" x="549.76" y="-507.12" font-family="Helvetica,sans-Serif" font-size="10.00" class="t-ink">api_tokens</text>
</g>

<g id="edge2" class="edge">
<title>users&#45;&gt;api_tokens</title>
<path fill="none" stroke-width="1.1" d="M348.88,-477.43C388.12,-484.02 462.16,-496.46 508.28,-504.2" class="s-edge"/>
<polygon stroke-width="1.1" points="508.25,-504.2 513.27,-507.55 511.33,-504.71 513.31,-505.05 513.31,-505.05 513.31,-505.05 511.33,-504.71 514.09,-502.67 508.25,-504.2" class="a-edge s-edge"/>
</g>

<g id="node4" class="node">
<title>memberships</title>
<polygon stroke-width="1.3" points="590.53,-559.8 508.99,-559.8 508.99,-538.2 590.53,-538.2 590.53,-559.8" class="f-hum s-hum"/>
<text xml:space="preserve" text-anchor="middle" x="549.76" y="-545.12" font-family="Helvetica,sans-Serif" font-size="10.00" class="t-ink">memberships</text>
</g>

<g id="edge3" class="edge">
<title>users&#45;&gt;memberships</title>
<path fill="none" stroke-width="1.1" d="M349.07,-482.48C357.29,-485.47 366.35,-488.82 374.62,-492 416.58,-508.14 425.53,-516.35 468.37,-530 479.31,-533.49 491.27,-536.65 502.54,-539.35" class="s-edge"/>
<polygon stroke-width="1.1" points="502.65,-539.38 507.43,-543.05 505.68,-540.09 507.64,-540.55 507.64,-540.55 507.64,-540.55 505.68,-540.09 508.57,-538.23 502.65,-539.38" class="a-edge s-edge"/>
</g>

<g id="node20" class="node">
<title>audit</title>
<polygon stroke-width="1.3" points="580.78,-381.8 518.74,-381.8 518.74,-360.2 580.78,-360.2 580.78,-381.8" class="f-road s-road"/>
<text xml:space="preserve" text-anchor="middle" x="549.76" y="-367.12" font-family="Helvetica,sans-Serif" font-size="10.00" class="t-ink">audit_log</text>
</g>

<g id="edge22" class="edge">
<title>users&#45;&gt;audit</title>
<path fill="none" stroke-width="1.1" d="M338.76,-461.65C364.93,-443.92 418.47,-409.62 468.37,-390 482.51,-384.44 498.71,-380.23 512.85,-377.2" class="s-edge"/>
<polygon stroke-width="1.1" points="512.62,-377.25 518.51,-378.56 515.67,-376.62 517.64,-376.21 517.64,-376.21 517.64,-376.21 515.67,-376.62 517.5,-373.71 512.62,-377.25" class="a-edge s-edge"/>
</g>

<g id="node5" class="node">
<title>pending</title>
<polygon stroke-width="1.3" points="374.62,-521.8 268.33,-521.8 268.33,-500.2 374.62,-500.2 374.62,-521.8" class="f-hum s-hum"/>
<text xml:space="preserve" text-anchor="middle" x="321.47" y="-507.12" font-family="Helvetica,sans-Serif" font-size="10.00" class="t-ink">pending_invitations</text>
</g>

<g id="node6" class="node">
<title>courses</title>
<polygon stroke-width="1.3" points="73.54,-239.8 16,-239.8 16,-218.2 73.54,-218.2 73.54,-239.8" class="f-srv s-srv"/>
<text xml:space="preserve" text-anchor="middle" x="44.77" y="-225.12" font-family="Helvetica,sans-Serif" font-size="10.00" class="t-ink">courses</text>
</g>

<g id="node7" class="node">
<title>semesters</title>
<polygon stroke-width="1.3" points="205.33,-239.8 136.54,-239.8 136.54,-218.2 205.33,-218.2 205.33,-239.8" class="f-srv s-srv"/>
<text xml:space="preserve" text-anchor="middle" x="170.93" y="-225.12" font-family="Helvetica,sans-Serif" font-size="10.00" class="t-ink">semesters</text>
</g>

<g id="edge4" class="edge">
<title>courses&#45;&gt;semesters</title>
<path fill="none" stroke-width="1.1" d="M73.94,-229C90.67,-229 112.14,-229 130.53,-229" class="s-edge"/>
<polygon stroke-width="1.1" points="130.26,-229 135.76,-231.48 133.38,-229 135.4,-229 135.4,-229 135.4,-229 133.38,-229 135.76,-226.53 130.26,-229" class="a-edge s-edge"/>
</g>

<g id="edge5" class="edge">
<title>semesters&#45;&gt;memberships</title>
<path fill="none" stroke-width="1.1" d="M173.38,-240.31C180.12,-290.86 210.18,-495.27 260.33,-530 332.87,-580.24 441.83,-570.43 502.96,-559.36" class="s-edge"/>
<polygon stroke-width="1.1" points="502.96,-559.36 508.82,-560.78 506.02,-558.79 508,-558.42 508,-558.42 508,-558.42 506.02,-558.79 507.91,-555.92 502.96,-559.36" class="a-edge s-edge"/>
</g>

<g id="edge8" class="edge">
<title>semesters&#45;&gt;pending</title>
<path fill="none" stroke-width="1.1" d="M172.27,-240.35C174.09,-280.72 185.75,-418.77 260.33,-492 262.04,-493.68 263.91,-495.22 265.88,-496.62" class="s-edge"/>
<polygon stroke-width="1.1" points="265.7,-496.5 269.03,-501.53 268.34,-498.17 270.04,-499.25 270.04,-499.25 270.04,-499.25 268.34,-498.17 271.67,-497.35 265.7,-496.5" class="a-edge s-edge"/>
</g>

<g id="node8" class="node">
<title>assignments</title>
<polygon stroke-width="1.3" points="360.74,-220.8 282.2,-220.8 282.2,-199.2 360.74,-199.2 360.74,-220.8" class="f-srv s-srv"/>
<text xml:space="preserve" text-anchor="middle" x="321.47" y="-206.12" font-family="Helvetica,sans-Serif" font-size="10.00" class="t-ink">assignments</text>
</g>

<g id="edge6" class="edge">
<title>semesters&#45;&gt;assignments</title>
<path fill="none" stroke-width="1.1" d="M205.64,-224.69C226.38,-222.04 253.22,-218.6 275.73,-215.72" class="s-edge"/>
<polygon stroke-width="1.1" points="275.83,-215.71 281.6,-217.47 278.93,-215.31 280.92,-215.06 280.92,-215.06 280.92,-215.06 278.93,-215.31 280.97,-212.56 275.83,-215.71" class="a-edge s-edge"/>
</g>

<g id="node9" class="node">
<title>roster</title>
<polygon stroke-width="1.3" points="362.62,-258.8 280.33,-258.8 280.33,-237.2 362.62,-237.2 362.62,-258.8" class="f-srv s-srv"/>
<text xml:space="preserve" text-anchor="middle" x="321.47" y="-244.12" font-family="Helvetica,sans-Serif" font-size="10.00" class="t-ink">roster_entries</text>
</g>

<g id="edge7" class="edge">
<title>semesters&#45;&gt;roster</title>
<path fill="none" stroke-width="1.1" d="M205.64,-233.31C225.83,-235.89 251.8,-239.22 273.93,-242.05" class="s-edge"/>
<polygon stroke-width="1.1" points="273.94,-242.05 279.09,-245.2 277.04,-242.44 279.03,-242.7 279.03,-242.7 279.03,-242.7 277.04,-242.44 279.71,-240.29 273.94,-242.05" class="a-edge s-edge"/>
</g>

<g id="node14" class="node">
<title>xflags</title>
<polygon stroke-width="1.3" points="586.41,-37.8 513.12,-37.8 513.12,-16.2 586.41,-16.2 586.41,-37.8" class="f-uix s-uix"/>
<text xml:space="preserve" text-anchor="middle" x="549.76" y="-23.12" font-family="Helvetica,sans-Serif" font-size="10.00" class="t-ink">cross_flags</text>
</g>

<g id="edge18" class="edge">
<title>semesters&#45;&gt;xflags</title>
<path fill="none" stroke-width="1.1" d="M174.44,-217.69C181.75,-187.64 206.04,-105.54 260.33,-68 335.09,-16.31 447.02,-16.99 507.1,-21.98" class="s-edge"/>
<polygon stroke-width="1.1" points="506.9,-21.96 512.16,-24.91 510.01,-22.24 512.01,-22.41 512.01,-22.41 512.01,-22.41 510.01,-22.24 512.6,-19.98 506.9,-21.96" class="a-edge s-edge"/>
</g>

<g id="node16" class="node">
<title>ijobs</title>
<polygon stroke-width="1.3" points="357.74,-101.8 285.2,-101.8 285.2,-80.2 357.74,-80.2 357.74,-101.8" class="f-tra s-tra"/>
<text xml:space="preserve" text-anchor="middle" x="321.47" y="-87.12" font-family="Helvetica,sans-Serif" font-size="10.00" class="t-ink">ingest_jobs</text>
</g>

<g id="edge10" class="edge">
<title>semesters&#45;&gt;ijobs</title>
<path fill="none" stroke-width="1.1" d="M177.28,-217.64C188.95,-194.03 219.04,-139.41 260.33,-110 265.97,-105.98 272.5,-102.79 279.13,-100.26" class="s-edge"/>
<polygon stroke-width="1.1" points="279.18,-100.24 285.19,-100.74 282.12,-99.2 284.02,-98.53 284.02,-98.53 284.02,-98.53 282.12,-99.2 283.54,-96.07 279.18,-100.24" class="a-edge s-edge"/>
</g>

<g id="node18" class="node">
<title>rjobs</title>
<polygon stroke-width="1.3" points="367.49,-139.8 275.45,-139.8 275.45,-118.2 367.49,-118.2 367.49,-139.8" class="f-tra s-tra"/>
<text xml:space="preserve" text-anchor="middle" x="321.47" y="-125.12" font-family="Helvetica,sans-Serif" font-size="10.00" class="t-ink">recompute_jobs</text>
</g>

<g id="edge21" class="edge">
<title>semesters&#45;&gt;rjobs</title>
<path fill="none" stroke-width="1.1" d="M188.69,-217.72C215.65,-199.57 268.69,-163.86 298.61,-143.72" class="s-edge"/>
<polygon stroke-width="1.1" points="298.69,-143.67 304.63,-142.65 301.28,-141.92 302.95,-140.8 302.95,-140.8 302.95,-140.8 301.28,-141.92 301.87,-138.54 298.69,-143.67" class="a-edge s-edge"/>
</g>

<g id="node19" class="node">
<title>hcfg</title>
<polygon stroke-width="1.3" points="598.03,-343.8 501.49,-343.8 501.49,-322.2 598.03,-322.2 598.03,-343.8" class="f-road s-road"/>
<text xml:space="preserve" text-anchor="middle" x="549.76" y="-329.12" font-family="Helvetica,sans-Serif" font-size="10.00" class="t-ink">heuristic_configs</text>
</g>

<g id="edge9" class="edge">
<title>semesters&#45;&gt;hcfg</title>
<path fill="none" stroke-width="1.1" d="M195.13,-240.34C212.7,-248.6 237.62,-259.59 260.33,-267 340.75,-293.25 437.07,-313.04 495.55,-323.82" class="s-edge"/>
<polygon stroke-width="1.1" points="495.32,-323.78 500.28,-327.2 498.38,-324.34 500.37,-324.7 500.37,-324.7 500.37,-324.7 498.38,-324.34 501.17,-322.33 495.32,-323.78" class="a-edge s-edge"/>
</g>

<g id="node10" class="node">
<title>submissions</title>
<polygon stroke-width="1.9" points="623.16,-230.29 476.37,-230.29 476.37,-197.71 623.16,-197.71 623.16,-230.29" class="f-ana s-ana"/>
<text xml:space="preserve" text-anchor="middle" x="549.76" y="-215.75" font-family="Helvetica,sans-Serif" font-size="10.00" class="t-ink">submissions</text>
<text xml:space="preserve" text-anchor="middle" x="549.76" y="-204.5" font-family="Helvetica,sans-Serif" font-size="10.00" class="t-ink">blob_sha256 · version_index</text>
</g>

<g id="edge11" class="edge">
<title>assignments&#45;&gt;submissions</title>
<path fill="none" stroke-width="1.1" d="M361.38,-210.69C391.12,-211.21 433.13,-211.96 469.83,-212.6" class="s-edge"/>
<polygon stroke-width="1.1" points="469.81,-212.6 475.26,-215.18 472.93,-212.66 474.94,-212.7 474.94,-212.7 474.94,-212.7 472.93,-212.66 475.35,-210.23 469.81,-212.6" class="a-edge s-edge"/>
</g>

<g id="edge12" class="edge">
<title>roster&#45;&gt;submissions</title>
<path fill="none" stroke-width="1.1" d="M363.19,-241.88C392.78,-237.44 433.78,-231.28 469.71,-225.88" class="s-edge"/>
<polygon stroke-width="1.1" points="469.63,-225.89 475.44,-227.52 472.72,-225.43 474.71,-225.13 474.71,-225.13 474.71,-225.13 472.72,-225.43 474.7,-222.62 469.63,-225.89" class="a-edge s-edge"/>
<text xml:space="preserve" text-anchor="middle" x="425.49" y="-236.45" font-family="Helvetica,sans-Serif" font-size="8.00" class="t-hum">matched to</text>
</g>

<g id="node11" class="node">
<title>stats</title>
<polygon stroke-width="1.3" points="869.45,-203.8 787.91,-203.8 787.91,-182.2 869.45,-182.2 869.45,-203.8" class="f-ana s-ana"/>
<text xml:space="preserve" text-anchor="middle" x="828.68" y="-189.12" font-family="Helvetica,sans-Serif" font-size="10.00" class="t-ink">per_file_stats</text>
</g>

<g id="edge13" class="edge">
<title>submissions&#45;&gt;stats</title>
<path fill="none" stroke-width="1.1" d="M623.88,-208.46C673.93,-204.66 738.75,-199.74 781.7,-196.49" class="s-edge"/>
<polygon stroke-width="1.1" points="781.76,-196.48 787.43,-198.53 784.87,-196.25 786.88,-196.09 786.88,-196.09 786.88,-196.09 784.87,-196.25 787.05,-193.6 781.76,-196.48" class="a-edge s-edge"/>
</g>

<g id="node12" class="node">
<title>valres</title>
<polygon stroke-width="1.3" points="878.07,-241.8 779.28,-241.8 779.28,-220.2 878.07,-220.2 878.07,-241.8" class="f-ana s-ana"/>
<text xml:space="preserve" text-anchor="middle" x="828.68" y="-227.12" font-family="Helvetica,sans-Serif" font-size="10.00" class="t-ink">validation_results</text>
</g>

<g id="edge14" class="edge">
<title>submissions&#45;&gt;valres</title>
<path fill="none" stroke-width="1.1" d="M623.88,-218.49C670.56,-221.35 730.09,-225.01 772.74,-227.63" class="s-edge"/>
<polygon stroke-width="1.1" points="772.79,-227.63 778.13,-230.44 775.9,-227.82 777.91,-227.94 777.91,-227.94 777.91,-227.94 775.9,-227.82 778.43,-225.5 772.79,-227.63" class="a-edge s-edge"/>
<text xml:space="preserve" text-anchor="middle" x="675.16" y="-223.9" font-family="Helvetica,sans-Serif" font-size="8.00" class="t-hum">1:1</text>
</g>

<g id="node13" class="node">
<title>flags</title>
<polygon stroke-width="1.3" points="855.68,-279.8 801.68,-279.8 801.68,-258.2 855.68,-258.2 855.68,-279.8" class="f-ana s-ana"/>
<text xml:space="preserve" text-anchor="middle" x="828.68" y="-265.12" font-family="Helvetica,sans-Serif" font-size="10.00" class="t-ink">flags</text>
</g>

<g id="edge15" class="edge">
<title>submissions&#45;&gt;flags</title>
<path fill="none" stroke-width="1.1" d="M623.88,-229.75C634.04,-231.88 644.36,-234.02 654.16,-236 686.54,-242.55 694.71,-243.82 727.16,-250 750.03,-254.35 775.83,-259.23 795.56,-262.95" class="s-edge"/>
<polygon stroke-width="1.1" points="795.45,-262.93 800.4,-266.38 798.52,-263.51 800.5,-263.88 800.5,-263.88 800.5,-263.88 798.52,-263.51 801.32,-261.52 795.45,-262.93" class="a-edge s-edge"/>
</g>

<g id="node15" class="node">
<title>xparts</title>
<polygon stroke-width="1.3" points="890.45,-37.8 766.91,-37.8 766.91,-16.2 890.45,-16.2 890.45,-37.8" class="f-uix s-uix"/>
<text xml:space="preserve" text-anchor="middle" x="828.68" y="-23.12" font-family="Helvetica,sans-Serif" font-size="10.00" class="t-ink">cross_flag_participants</text>
</g>

<g id="edge16" class="edge">
<title>submissions&#45;&gt;xparts</title>
<path fill="none" stroke-width="1.1" d="M579.92,-196.86C593.23,-188.89 609.12,-179.16 623.16,-170 692.09,-125.02 771.34,-68.05 807.64,-41.66" class="s-edge"/>
<polygon stroke-width="1.1" points="807.52,-41.74 813.42,-40.51 810.04,-39.91 811.67,-38.72 811.67,-38.72 811.67,-38.72 810.04,-39.91 810.51,-36.5 807.52,-41.74" class="a-edge s-edge"/>
</g>

<g id="node22" class="node">
<title>blobstore</title>
<path stroke-width="1.9" d="M930.2,-363.12C930.2,-365.84 884.7,-368.04 828.68,-368.04 772.66,-368.04 727.16,-365.84 727.16,-363.12 727.16,-363.12 727.16,-318.88 727.16,-318.88 727.16,-316.16 772.66,-313.96 828.68,-313.96 884.7,-313.96 930.2,-316.16 930.2,-318.88 930.2,-318.88 930.2,-363.12 930.2,-363.12" class="f-rec s-rec"/>
<path fill="none" stroke-width="1.9" d="M930.2,-363.12C930.2,-360.41 884.7,-358.21 828.68,-358.21 772.66,-358.21 727.16,-360.41 727.16,-363.12" class="s-rec"/>
<text xml:space="preserve" text-anchor="middle" x="828.68" y="-346.6" font-family="Helvetica,sans-Serif" font-size="9.50" class="t-ink">Blob store</text>
<text xml:space="preserve" text-anchor="middle" x="828.68" y="-336.85" font-family="Helvetica,sans-Serif" font-size="9.50" class="t-ink">the stored bundle — the ONLY place the</text>
<text xml:space="preserve" text-anchor="middle" x="828.68" y="-327.1" font-family="Helvetica,sans-Serif" font-size="9.50" class="t-ink">event stream lives. No events table exists.</text>
</g>

<g id="edge23" class="edge">
<title>submissions&#45;&gt;blobstore</title>
<path fill="none" stroke-width="1.1" d="M578.02,-231.07C611.97,-251.79 672.22,-286.85 727.16,-310 728.82,-310.7 730.49,-311.39 732.19,-312.07" class="s-rec"/>
<polygon stroke-width="1.1" points="731.43,-313.84 737.25,-314.05 732.83,-310.25 731.43,-313.84" class="a-rec s-rec"/>
<text xml:space="preserve" text-anchor="middle" x="675.16" y="-297.02" font-family="Helvetica,sans-Serif" font-size="8.00" class="t-hum">blob_key →</text>
</g>

<g id="edge17" class="edge">
<title>xflags&#45;&gt;xparts</title>
<path fill="none" stroke-width="1.1" d="M586.97,-27C630.89,-27 705.82,-27 760.44,-27" class="s-edge"/>
<polygon stroke-width="1.1" points="760.46,-27 765.96,-29.48 763.58,-27 765.59,-27 765.59,-27 765.59,-27 763.58,-27 765.96,-24.53 760.46,-27" class="a-edge s-edge"/>
</g>

<g id="edge20" class="edge">
<title>ijobs&#45;&gt;submissions</title>
<path fill="none" stroke-width="1.1" stroke-dasharray="5,2" d="M357.15,-102.42C363.07,-104.71 369.09,-107.27 374.62,-110 418.96,-131.93 425.81,-144.78 468.37,-170 482.27,-178.24 497.79,-186.86 511.46,-194.27" class="s-edge"/>
<polygon stroke-width="1.1" points="511.24,-194.15 514.9,-198.94 513.98,-195.63 515.75,-196.59 515.75,-196.59 515.75,-196.59 513.98,-195.63 517.25,-194.59 511.24,-194.15" class="a-edge s-edge"/>
<text xml:space="preserve" text-anchor="middle" x="425.49" y="-156.32" font-family="Helvetica,sans-Serif" font-size="8.00" class="t-hum">created by</text>
</g>

<g id="node17" class="node">
<title>ifiles</title>
<polygon stroke-width="1.3" points="586.03,-101.8 513.49,-101.8 513.49,-80.2 586.03,-80.2 586.03,-101.8" class="f-tra s-tra"/>
<text xml:space="preserve" text-anchor="middle" x="549.76" y="-87.12" font-family="Helvetica,sans-Serif" font-size="10.00" class="t-ink">ingest_files</text>
</g>

<g id="edge19" class="edge">
<title>ijobs&#45;&gt;ifiles</title>
<path fill="none" stroke-width="1.1" d="M358.33,-91C398.8,-91 464.54,-91 507.21,-91" class="s-edge"/>
<polygon stroke-width="1.1" points="507.21,-91 512.71,-93.48 510.33,-91 512.34,-91 512.34,-91 512.34,-91 510.33,-91 512.71,-88.53 507.21,-91" class="a-edge s-edge"/>
</g>

<g id="node21" class="node">
<title>rate</title>
<polygon stroke-width="1.3" points="601.03,-419.8 498.49,-419.8 498.49,-398.2 601.03,-398.2 601.03,-419.8" class="f-road s-road"/>
<text xml:space="preserve" text-anchor="middle" x="549.76" y="-405.12" font-family="Helvetica,sans-Serif" font-size="10.00" class="t-ink">rate_limit_buckets</text>
</g>
</g>
</svg>