<svg width="1278pt" height="1636pt"
 viewBox="0.00 0.00 1278.00 1636.00" xmlns="http://www.w3.org/2000/svg" xmlns:xlink="http://www.w3.org/1999/xlink">
<g id="graph0" class="graph" transform="scale(1 1) rotate(0) translate(4 1632)">
<title>ingest</title>
<g id="clust1" class="cluster">
<title>cluster_in</title>
<path stroke-width="1.5" d="M20,-1545.48C20,-1545.48 507,-1545.48 507,-1545.48 513,-1545.48 519,-1551.48 519,-1557.48 519,-1557.48 519,-1608 519,-1608 519,-1614 513,-1620 507,-1620 507,-1620 20,-1620 20,-1620 14,-1620 8,-1614 8,-1608 8,-1608 8,-1557.48 8,-1557.48 8,-1551.48 14,-1545.48 20,-1545.48" class="f-tra s-tra"/>
<text xml:space="preserve" text-anchor="middle" x="37.38" y="-1606.98" font-family="Helvetica,sans-Serif" font-size="9.50" class="t-tra"> &#160;ENTRY &#160;</text>
</g>
<g id="clust2" class="cluster">
<title>cluster_stage</title>
<path stroke-width="1.5" d="M208,-1101.6C208,-1101.6 442,-1101.6 442,-1101.6 448,-1101.6 454,-1107.6 454,-1113.6 454,-1113.6 454,-1514.48 454,-1514.48 454,-1520.48 448,-1526.48 442,-1526.48 442,-1526.48 208,-1526.48 208,-1526.48 202,-1526.48 196,-1520.48 196,-1514.48 196,-1514.48 196,-1113.6 196,-1113.6 196,-1107.6 202,-1101.6 208,-1101.6" class="f-srv s-srv"/>
<text xml:space="preserve" text-anchor="middle" x="249.38" y="-1513.46" font-family="Helvetica,sans-Serif" font-size="9.50" class="t-srv"> &#160;STAGE 1 · PARSE &#160;</text>
</g>
<g id="clust3" class="cluster">
<title>cluster_dd</title>
<path stroke-width="1.5" d="M474,-991.33C474,-991.33 686,-991.33 686,-991.33 692,-991.33 698,-997.33 698,-1003.33 698,-1003.33 698,-1176.13 698,-1176.13 698,-1182.13 692,-1188.13 686,-1188.13 686,-1188.13 474,-1188.13 474,-1188.13 468,-1188.13 462,-1182.13 462,-1176.13 462,-1176.13 462,-1003.33 462,-1003.33 462,-997.33 468,-991.33 474,-991.33" class="f-srv s-srv"/>
<text xml:space="preserve" text-anchor="middle" x="547.25" y="-1175.11" font-family="Helvetica,sans-Serif" font-size="9.50" class="t-srv"> &#160;DEDUP — before any heavy work &#160;</text>
</g>
<g id="clust4" class="cluster">
<title>cluster_match</title>
<path stroke-width="1.5" d="M718,-796.16C718,-796.16 886,-796.16 886,-796.16 892,-796.16 898,-802.16 898,-808.16 898,-808.16 898,-1050.58 898,-1050.58 898,-1056.58 892,-1062.58 886,-1062.58 886,-1062.58 718,-1062.58 718,-1062.58 712,-1062.58 706,-1056.58 706,-1050.58 706,-1050.58 706,-808.16 706,-808.16 706,-802.16 712,-796.16 718,-796.16" class="f-srv s-srv"/>
<text xml:space="preserve" text-anchor="middle" x="760.5" y="-1049.56" font-family="Helvetica,sans-Serif" font-size="9.50" class="t-srv"> &#160;STAGE 2 · MATCH &#160;</text>
</g>
<g id="clust5" class="cluster">
<title>cluster_h</title>
<path stroke-width="1.5" d="M918,-650.37C918,-650.37 1250,-650.37 1250,-650.37 1256,-650.37 1262,-656.37 1262,-662.37 1262,-662.37 1262,-850.53 1262,-850.53 1262,-856.53 1256,-862.53 1250,-862.53 1250,-862.53 918,-862.53 918,-862.53 912,-862.53 906,-856.53 906,-850.53 906,-850.53 906,-662.37 906,-662.37 906,-656.37 912,-650.37 918,-650.37" class="f-ana s-ana"/>
<text xml:space="preserve" text-anchor="middle" x="1083.88" y="-849.51" font-family="Helvetica,sans-Serif" font-size="9.50" class="t-ana"> &#160;STAGE 3 · ANALYSE — against the in&#45;memory bundle, which still has source &#160;</text>
</g>
<g id="clust6" class="cluster">
<title>cluster_tx</title>
<path stroke-width="1.5" d="M801,-227.52C801,-227.52 1165,-227.52 1165,-227.52 1171,-227.52 1177,-233.52 1177,-239.52 1177,-239.52 1177,-611.37 1177,-611.37 1177,-617.37 1171,-623.37 1165,-623.37 1165,-623.37 801,-623.37 801,-623.37 795,-623.37 789,-617.37 789,-611.37 789,-611.37 789,-239.52 789,-239.52 789,-233.52 795,-227.52 801,-227.52" class="f-srv s-srv"/>
<text xml:space="preserve" text-anchor="middle" x="878.38" y="-610.34" font-family="Helvetica,sans-Serif" font-size="9.50" class="t-srv"> &#160;PER&#45;SUBMISSION TRANSACTION &#160;</text>
</g>
<g id="clust7" class="cluster">
<title>cluster_x</title>
<path stroke-width="1.5" d="M814,-74.27C814,-74.27 978,-74.27 978,-74.27 984,-74.27 990,-80.27 990,-86.27 990,-86.27 990,-188.52 990,-188.52 990,-194.52 984,-200.52 978,-200.52 978,-200.52 814,-200.52 814,-200.52 808,-200.52 802,-194.52 802,-188.52 802,-188.52 802,-86.27 802,-86.27 802,-80.27 808,-74.27 814,-74.27" class="f-ana s-ana"/>
<text xml:space="preserve" text-anchor="middle" x="856.5" y="-187.49" font-family="Helvetica,sans-Serif" font-size="9.50" class="t-ana"> &#160;STAGE 4 · CROSS &#160;</text>
</g>

<g id="node1" class="node">
<title>e_http</title>
<path stroke-width="1.3" d="M173.68,-1594.25C173.68,-1594.25 28.32,-1594.25 28.32,-1594.25 22.32,-1594.25 16.33,-1588.25 16.33,-1582.25 16.33,-1582.25 16.33,-1565.48 16.33,-1565.48 16.33,-1559.48 22.33,-1553.48 28.33,-1553.48 28.33,-1553.48 173.68,-1553.48 173.68,-1553.48 179.68,-1553.48 185.68,-1559.48 185.68,-1565.48 185.68,-1565.48 185.68,-1582.25 185.68,-1582.25 185.68,-1588.25 179.68,-1594.25 173.68,-1594.25" class="f-tra s-tra"/>
<text xml:space="preserve" text-anchor="middle" x="101" y="-1579.47" font-family="Helvetica,sans-Serif" font-size="9.50" class="t-ink">HTTP upload</text>
<text xml:space="preserve" text-anchor="middle" x="101" y="-1569.72" font-family="Helvetica,sans-Serif" font-size="9.50" class="t-ink">streamed to disk, never buffered;</text>
<text xml:space="preserve" text-anchor="middle" x="101" y="-1559.97" font-family="Helvetica,sans-Serif" font-size="9.50" class="t-ink">resumable in chunks when ≥ 1 GiB</text>
</g>

<g id="node4" class="node">
<title>meta</title>
<path stroke-width="1.3" d="M382.01,-1500.73C382.01,-1500.73 243.98,-1500.73 243.98,-1500.73 239.91,-1500.73 235.82,-1496.65 235.82,-1492.57 235.82,-1492.57 235.82,-1484.41 235.82,-1484.41 235.82,-1480.33 239.91,-1476.25 243.98,-1476.25 243.98,-1476.25 382.01,-1476.25 382.01,-1476.25 386.1,-1476.25 390.18,-1480.33 390.18,-1484.41 390.18,-1484.41 390.18,-1492.57 390.18,-1492.57 390.18,-1496.65 386.1,-1500.73 382.01,-1500.73" class="f-srv s-srv"/>
<text xml:space="preserve" text-anchor="middle" x="313" y="-1484.34" font-family="Helvetica,sans-Serif" font-size="9.50" class="t-ink">read submission_metadata.yml</text>
</g>

<g id="edge1" class="edge">
<title>e_http&#45;&gt;meta</title>
<path fill="none" stroke-width="1.15" d="M151.78,-1552.9C189.98,-1537.88 241.45,-1517.64 275.85,-1504.1" class="s-edge"/>
<polygon stroke-width="1.15" points="276.49,-1506.11 281.31,-1501.96 274.95,-1502.2 276.49,-1506.11" class="a-edge s-edge"/>
</g>

<g id="node2" class="node">
<title>e_cli</title>
<path stroke-width="1.3" d="M405.92,-1594.25C405.92,-1594.25 220.08,-1594.25 220.08,-1594.25 214.08,-1594.25 208.08,-1588.25 208.08,-1582.25 208.08,-1582.25 208.08,-1565.48 208.08,-1565.48 208.08,-1559.48 214.08,-1553.48 220.08,-1553.48 220.08,-1553.48 405.92,-1553.48 405.92,-1553.48 411.92,-1553.48 417.92,-1559.48 417.92,-1565.48 417.92,-1565.48 417.92,-1582.25 417.92,-1582.25 417.92,-1588.25 411.92,-1594.25 405.92,-1594.25" class="f-tra s-tra"/>
<text xml:space="preserve" text-anchor="middle" x="313" y="-1579.47" font-family="Helvetica,sans-Serif" font-size="9.50" class="t-ink">ingest:local</text>
<text xml:space="preserve" text-anchor="middle" x="313" y="-1569.72" font-family="Helvetica,sans-Serif" font-size="9.50" class="t-ink">streaming read from the server&#39;s</text>
<text xml:space="preserve" text-anchor="middle" x="313" y="-1559.97" font-family="Helvetica,sans-Serif" font-size="9.50" class="t-ink">own disk — memory bounded to one bundle</text>
</g>

<g id="edge2" class="edge">
<title>e_cli&#45;&gt;meta</title>
<path fill="none" stroke-width="1.15" d="M313,-1553.11C313,-1539.71 313,-1522.09 313,-1508.79" class="s-edge"/>
<polygon stroke-width="1.15" points="315.1,-1508.88 313,-1502.88 310.9,-1508.88 315.1,-1508.88" class="a-edge s-edge"/>
</g>

<g id="node3" class="node">
<title>e_gate</title>
<path stroke-width="1.3" d="M500.21,-1589.38C500.21,-1589.38 449.79,-1589.38 449.79,-1589.38 444.62,-1589.38 439.45,-1584.21 439.45,-1579.04 439.45,-1579.04 439.45,-1568.7 439.45,-1568.7 439.45,-1563.53 444.62,-1558.36 449.79,-1558.36 449.79,-1558.36 500.21,-1558.36 500.21,-1558.36 505.38,-1558.36 510.55,-1563.53 510.55,-1568.7 510.55,-1568.7 510.55,-1579.04 510.55,-1579.04 510.55,-1584.21 505.38,-1589.38 500.21,-1589.38" class="f-tra s-tra"/>
<text xml:space="preserve" text-anchor="middle" x="475" y="-1574.59" font-family="Helvetica,sans-Serif" font-size="9.50" class="t-ink">provgate</text>
<text xml:space="preserve" text-anchor="middle" x="475" y="-1564.84" font-family="Helvetica,sans-Serif" font-size="9.50" class="t-ink">hourly delta</text>
</g>

<g id="edge3" class="edge">
<title>e_gate&#45;&gt;meta</title>
<path fill="none" stroke-width="1.15" d="M450.88,-1557.97C443.89,-1553.8 436.2,-1549.36 429,-1545.48 401.51,-1530.71 369.52,-1515.4 346.1,-1504.53" class="s-edge"/>
<polygon stroke-width="1.15" points="347.03,-1502.65 340.71,-1502.04 345.27,-1506.46 347.03,-1502.65" class="a-edge s-edge"/>
</g>

<g id="node5" class="node">
<title>hasmeta</title>
<path stroke-width="1.3" d="M301.69,-1435.23C301.69,-1435.23 238.3,-1412.68 238.3,-1412.68 232.65,-1410.67 232.65,-1406.64 238.3,-1404.63 238.3,-1404.63 301.69,-1382.08 301.69,-1382.08 307.35,-1380.07 318.65,-1380.07 324.31,-1382.08 324.31,-1382.08 387.7,-1404.63 387.7,-1404.63 393.35,-1406.64 393.35,-1410.67 387.7,-1412.68 387.7,-1412.68 324.31,-1435.23 324.31,-1435.23 318.65,-1437.24 307.35,-1437.24 301.69,-1435.23" class="f-panel s-srv"/>
<text xml:space="preserve" text-anchor="middle" x="313" y="-1409.86" font-family="Helvetica,sans-Serif" font-size="9.00" class="t-ink">is this actually a</text>
<text xml:space="preserve" text-anchor="middle" x="313" y="-1400.11" font-family="Helvetica,sans-Serif" font-size="9.00" class="t-ink">Gradescope export?</text>
</g>

<g id="edge4" class="edge">
<title>meta&#45;&gt;hasmeta</title>
<path fill="none" stroke-width="1.15" d="M313,-1475.67C313,-1468.01 313,-1457.56 313,-1447.23" class="s-edge"/>
<polygon stroke-width="1.15" points="315.1,-1447.52 313,-1441.52 310.9,-1447.52 315.1,-1447.52" class="a-edge s-edge"/>
</g>

<g id="node6" class="node">
<title>fanout</title>
<polygon stroke-width="1.3" points="435.17,-1327.41 227.53,-1327.41 227.53,-1304.8 435.17,-1304.8 446.47,-1316.11 435.17,-1327.41" class="f-srv s-srv"/>
<text xml:space="preserve" text-anchor="middle" x="337" y="-1316.83" font-family="Helvetica,sans-Serif" font-size="9.50" class="t-ink">fan out — one job per submission</text>
<text xml:space="preserve" text-anchor="middle" x="337" y="-1307.08" font-family="Helvetica,sans-Serif" font-size="9.50" class="t-ink">pg&#45;boss, bounded concurrency, cancellable</text>
</g>

<g id="edge6" class="edge">
<title>hasmeta&#45;&gt;fanout</title>
<path fill="none" stroke-width="1.15" d="M320.33,-1379.99C323.63,-1367.54 327.49,-1352.97 330.67,-1341" class="s-srv"/>
<polygon stroke-width="1.15" points="332.69,-1341.57 332.2,-1335.23 328.63,-1340.49 332.69,-1341.57" class="a-srv s-srv"/>
<text xml:space="preserve" text-anchor="middle" x="333.86" y="-1352.27" font-family="Helvetica,sans-Serif" font-size="8.20" class="t-hum">yes</text>
</g>

<g id="node8" class="node">
<title>pfail</title>
<path stroke-width="1.3" d="M368.43,-1150.37C368.43,-1150.37 245.57,-1150.37 245.57,-1150.37 239.57,-1150.37 233.57,-1144.37 233.57,-1138.37 233.57,-1138.37 233.57,-1121.6 233.57,-1121.6 233.57,-1115.6 239.57,-1109.6 245.57,-1109.6 245.57,-1109.6 368.43,-1109.6 368.43,-1109.6 374.43,-1109.6 380.43,-1115.6 380.43,-1121.6 380.43,-1121.6 380.43,-1138.37 380.43,-1138.37 380.43,-1144.37 374.43,-1150.37 368.43,-1150.37" class="f-bad s-bad"/>
<text xml:space="preserve" text-anchor="middle" x="307" y="-1136.06" font-family="Helvetica,sans-Serif" font-size="9.00" class="t-ink">invalid_manifest / unparseable</text>
<text xml:space="preserve" text-anchor="middle" x="307" y="-1126.31" font-family="Helvetica,sans-Serif" font-size="9.00" class="t-ink">recorded on the job, not fatal</text>
<text xml:space="preserve" text-anchor="middle" x="307" y="-1116.56" font-family="Helvetica,sans-Serif" font-size="9.00" class="t-ink">to the rest of the export</text>
</g>

<g id="edge5" class="edge">
<title>hasmeta&#45;&gt;pfail</title>
<path fill="none" stroke-width="1.15" stroke-dasharray="5,2" d="M276.84,-1390.29C255.15,-1377.71 229.43,-1358.46 217,-1333.06 186.35,-1270.42 244.45,-1194.98 280.83,-1156.41" class="s-bad"/>
<polygon stroke-width="1.15" points="282.18,-1158.04 284.82,-1152.25 279.15,-1155.13 282.18,-1158.04" class="a-bad s-bad"/>
<text xml:space="preserve" text-anchor="middle" x="240.16" y="-1273.37" font-family="Helvetica,sans-Serif" font-size="8.20" class="t-hum">no — clear error</text>
</g>

<g id="node7" class="node">
<title>pbun</title>
<path stroke-width="1.3" d="M384.34,-1254.15C384.34,-1254.15 289.66,-1254.15 289.66,-1254.15 284.5,-1254.15 279.32,-1248.98 279.32,-1243.82 279.32,-1243.82 279.32,-1233.47 279.32,-1233.47 279.32,-1228.31 284.5,-1223.13 289.66,-1223.13 289.66,-1223.13 384.34,-1223.13 384.34,-1223.13 389.5,-1223.13 394.68,-1228.31 394.68,-1233.47 394.68,-1233.47 394.68,-1243.82 394.68,-1243.82 394.68,-1248.98 389.5,-1254.15 384.34,-1254.15" class="f-srv s-srv"/>
<text xml:space="preserve" text-anchor="middle" x="337" y="-1239.37" font-family="Helvetica,sans-Serif" font-size="9.50" class="t-ink">parse bundle</text>
<text xml:space="preserve" text-anchor="middle" x="337" y="-1229.62" font-family="Helvetica,sans-Serif" font-size="9.50" class="t-ink">manifest + every .slog</text>
</g>

<g id="edge7" class="edge">
<title>fanout&#45;&gt;pbun</title>
<path fill="none" stroke-width="1.15" d="M337,-1298.73C337,-1288.1 337,-1274.08 337,-1262.37" class="s-edge"/>
<polygon stroke-width="1.15" points="339.1,-1262.44 337,-1256.44 334.9,-1262.45 339.1,-1262.44" class="a-edge s-edge"/>
</g>

<g id="edge8" class="edge">
<title>pbun&#45;&gt;pfail</title>
<path fill="none" stroke-width="1.15" stroke-dasharray="5,2" d="M332.83,-1222.81C328.13,-1206.09 320.38,-1178.56 314.6,-1157.99" class="s-bad"/>
<polygon stroke-width="1.15" points="316.68,-1157.65 313.03,-1152.44 312.64,-1158.79 316.68,-1157.65" class="a-bad s-bad"/>
<text xml:space="preserve" text-anchor="middle" x="346.42" y="-1197.35" font-family="Helvetica,sans-Serif" font-size="8.20" class="t-hum">malformed</text>
</g>

<g id="node9" class="node">
<title>dd</title>
<path stroke-width="1.3" d="M568.49,-1158.99C568.49,-1158.99 481.7,-1133.38 481.7,-1133.38 475.94,-1131.68 475.94,-1128.29 481.7,-1126.59 481.7,-1126.59 568.49,-1100.98 568.49,-1100.98 574.25,-1099.28 585.75,-1099.28 591.51,-1100.98 591.51,-1100.98 678.3,-1126.59 678.3,-1126.59 684.06,-1128.29 684.06,-1131.68 678.3,-1133.38 678.3,-1133.38 591.51,-1158.99 591.51,-1158.99 585.75,-1160.69 574.25,-1160.69 568.49,-1158.99" class="f-panel s-srv"/>
<text xml:space="preserve" text-anchor="middle" x="580" y="-1131.18" font-family="Helvetica,sans-Serif" font-size="9.00" class="t-ink">(semester_id, blob_sha256)</text>
<text xml:space="preserve" text-anchor="middle" x="580" y="-1121.43" font-family="Helvetica,sans-Serif" font-size="9.00" class="t-ink">already present?</text>
</g>

<g id="edge9" class="edge">
<title>pbun&#45;&gt;dd</title>
<path fill="none" stroke-width="1.15" d="M375.69,-1222.58C399.8,-1213.04 431.37,-1200.26 459,-1188.13 483.49,-1177.39 510.41,-1164.76 532.64,-1154.1" class="s-srv"/>
<polygon stroke-width="1.15" points="533.31,-1156.11 537.8,-1151.62 531.49,-1152.33 533.31,-1156.11" class="a-srv s-srv"/>
<text xml:space="preserve" text-anchor="middle" x="451.59" y="-1197.35" font-family="Helvetica,sans-Serif" font-size="8.20" class="t-hum">parsed</text>
</g>

<g id="node10" class="node">
<title>ddskip</title>
<path stroke-width="1.3" stroke-dasharray="5,2" d="M665.42,-1049.85C665.42,-1049.85 494.57,-1049.85 494.57,-1049.85 488.57,-1049.85 482.57,-1043.85 482.57,-1037.85 482.57,-1037.85 482.57,-1011.33 482.57,-1011.33 482.57,-1005.33 488.57,-999.33 494.57,-999.33 494.57,-999.33 665.42,-999.33 665.42,-999.33 671.42,-999.33 677.42,-1005.33 677.42,-1011.33 677.42,-1011.33 677.42,-1037.85 677.42,-1037.85 677.42,-1043.85 671.42,-1049.85 665.42,-1049.85" class="f-hum s-hum"/>
<text xml:space="preserve" text-anchor="middle" x="580" y="-1035.54" font-family="Helvetica,sans-Serif" font-size="9.00" class="t-ink2">skip</text>
<text xml:space="preserve" text-anchor="middle" x="580" y="-1025.79" font-family="Helvetica,sans-Serif" font-size="9.00" class="t-ink2">re&#45;sending an unchanged bundle is cheap</text>
<text xml:space="preserve" text-anchor="middle" x="580" y="-1016.04" font-family="Helvetica,sans-Serif" font-size="9.00" class="t-ink2">— this is what lets provgate treat its</text>
<text xml:space="preserve" text-anchor="middle" x="580" y="-1006.29" font-family="Helvetica,sans-Serif" font-size="9.00" class="t-ink2">watermark as an optimisation</text>
</g>

<g id="edge10" class="edge">
<title>dd&#45;&gt;ddskip</title>
<path fill="none" stroke-width="1.15" stroke-dasharray="5,2" d="M580,-1097.12C580,-1084.64 580,-1070.34 580,-1057.83" class="s-hum"/>
<polygon stroke-width="1.15" points="582.1,-1058.04 580,-1052.04 577.9,-1058.04 582.1,-1058.04" class="a-hum s-hum"/>
<text xml:space="preserve" text-anchor="middle" x="586" y="-1071.79" font-family="Helvetica,sans-Serif" font-size="8.20" class="t-hum">yes</text>
</g>

<g id="node11" class="node">
<title>roster</title>
<path stroke-width="1.3" d="M876.89,-1036.83C876.89,-1036.83 723.11,-1036.83 723.11,-1036.83 719.03,-1036.83 714.95,-1032.75 714.95,-1028.67 714.95,-1028.67 714.95,-1020.51 714.95,-1020.51 714.95,-1016.43 719.03,-1012.35 723.11,-1012.35 723.11,-1012.35 876.89,-1012.35 876.89,-1012.35 880.97,-1012.35 885.05,-1016.43 885.05,-1020.51 885.05,-1020.51 885.05,-1028.67 885.05,-1028.67 885.05,-1032.75 880.97,-1036.83 876.89,-1036.83" class="f-srv s-srv"/>
<text xml:space="preserve" text-anchor="middle" x="800" y="-1020.44" font-family="Helvetica,sans-Serif" font-size="9.50" class="t-ink">upsert roster from export metadata</text>
</g>

<g id="edge11" class="edge">
<title>dd&#45;&gt;roster</title>
<path fill="none" stroke-width="1.15" d="M621.9,-1109.29C664.38,-1089.33 729.22,-1058.86 767.83,-1040.72" class="s-srv"/>
<polygon stroke-width="1.15" points="768.61,-1042.67 773.14,-1038.22 766.82,-1038.87 768.61,-1042.67" class="a-srv s-srv"/>
<text xml:space="preserve" text-anchor="middle" x="707.67" y="-1071.79" font-family="Helvetica,sans-Serif" font-size="8.20" class="t-hum">no</text>
</g>

<g id="node12" class="node">
<title>match</title>
<path stroke-width="1.3" d="M790.74,-958.19C790.74,-958.19 725.19,-934.08 725.19,-934.08 719.56,-932.01 719.56,-927.86 725.19,-925.79 725.19,-925.79 790.74,-901.68 790.74,-901.68 796.37,-899.61 807.63,-899.61 813.26,-901.68 813.26,-901.68 878.81,-925.79 878.81,-925.79 884.44,-927.86 884.44,-932.01 878.81,-934.08 878.81,-934.08 813.26,-958.19 813.26,-958.19 807.63,-960.26 796.37,-960.26 790.74,-958.19" class="f-panel s-srv"/>
<text xml:space="preserve" text-anchor="middle" x="802" y="-931.13" font-family="Helvetica,sans-Serif" font-size="9.00" class="t-ink">does this bundle map</text>
<text xml:space="preserve" text-anchor="middle" x="802" y="-921.38" font-family="Helvetica,sans-Serif" font-size="9.00" class="t-ink">to a roster entry?</text>
</g>

<g id="edge12" class="edge">
<title>roster&#45;&gt;match</title>
<path fill="none" stroke-width="1.15" d="M800.25,-1011.86C800.48,-1001.23 800.83,-984.95 801.16,-969.78" class="s-edge"/>
<polygon stroke-width="1.15" points="803.25,-970.23 801.28,-964.19 799.05,-970.14 803.25,-970.23" class="a-edge s-edge"/>
</g>

<g id="node13" class="node">
<title>unm</title>
<path stroke-width="1.3" d="M867.55,-844.93C867.55,-844.93 736.45,-844.93 736.45,-844.93 730.45,-844.93 724.45,-838.93 724.45,-832.93 724.45,-832.93 724.45,-816.16 724.45,-816.16 724.45,-810.16 730.45,-804.16 736.45,-804.16 736.45,-804.16 867.55,-804.16 867.55,-804.16 873.55,-804.16 879.55,-810.16 879.55,-816.16 879.55,-816.16 879.55,-832.93 879.55,-832.93 879.55,-838.93 873.55,-844.93 867.55,-844.93" class="f-rec s-rec"/>
<text xml:space="preserve" text-anchor="middle" x="802" y="-830.62" font-family="Helvetica,sans-Serif" font-size="9.00" class="t-ink">unmatched queue</text>
<text xml:space="preserve" text-anchor="middle" x="802" y="-820.87" font-family="Helvetica,sans-Serif" font-size="9.00" class="t-ink">surfaced in its own triage view —</text>
<text xml:space="preserve" text-anchor="middle" x="802" y="-811.12" font-family="Helvetica,sans-Serif" font-size="9.00" class="t-ink">never silently dropped</text>
</g>

<g id="edge13" class="edge">
<title>match&#45;&gt;unm</title>
<path fill="none" stroke-width="1.15" stroke-dasharray="5,2" d="M802,-897.07C802,-882.98 802,-866.58 802,-853.04" class="s-rec"/>
<polygon stroke-width="1.15" points="804.1,-853.18 802,-847.18 799.9,-853.18 804.1,-853.18" class="a-rec s-rec"/>
<text xml:space="preserve" text-anchor="middle" x="806.5" y="-871.74" font-family="Helvetica,sans-Serif" font-size="8.20" class="t-hum">no</text>
</g>

<g id="node14" class="node">
<title>stats</title>
<path stroke-width="1.3" d="M1010.76,-836.78C1010.76,-836.78 937.24,-836.78 937.24,-836.78 933.16,-836.78 929.08,-832.7 929.08,-828.62 929.08,-828.62 929.08,-820.46 929.08,-820.46 929.08,-816.38 933.16,-812.3 937.24,-812.3 937.24,-812.3 1010.76,-812.3 1010.76,-812.3 1014.84,-812.3 1018.92,-816.38 1018.92,-820.46 1018.92,-820.46 1018.92,-828.62 1018.92,-828.62 1018.92,-832.7 1014.84,-836.78 1010.76,-836.78" class="f-ana s-ana"/>
<text xml:space="preserve" text-anchor="middle" x="974" y="-820.39" font-family="Helvetica,sans-Serif" font-size="9.50" class="t-ink">per&#45;file statistics</text>
</g>

<g id="edge14" class="edge">
<title>match&#45;&gt;stats</title>
<path fill="none" stroke-width="1.15" d="M834.76,-909.24C867.56,-889.53 917.4,-859.57 947.71,-841.35" class="s-srv"/>
<polygon stroke-width="1.15" points="948.68,-843.21 952.74,-838.32 946.52,-839.61 948.68,-843.21" class="a-srv s-srv"/>
<text xml:space="preserve" text-anchor="middle" x="904.3" y="-871.74" font-family="Helvetica,sans-Serif" font-size="8.20" class="t-hum">yes</text>
</g>

<g id="node15" class="node">
<title>val</title>
<path stroke-width="1.3" d="M1054.42,-767.16C1054.42,-767.16 925.58,-767.16 925.58,-767.16 919.58,-767.16 913.58,-761.16 913.58,-755.16 913.58,-755.16 913.58,-738.39 913.58,-738.39 913.58,-732.39 919.58,-726.39 925.58,-726.39 925.58,-726.39 1054.42,-726.39 1054.42,-726.39 1060.42,-726.39 1066.42,-732.39 1066.42,-738.39 1066.42,-738.39 1066.42,-755.16 1066.42,-755.16 1066.42,-761.16 1060.42,-767.16 1054.42,-767.16" class="f-ana s-ana"/>
<text xml:space="preserve" text-anchor="middle" x="990" y="-752.37" font-family="Helvetica,sans-Serif" font-size="9.50" class="t-ink">8 validation checks</text>
<text xml:space="preserve" text-anchor="middle" x="990" y="-742.62" font-family="Helvetica,sans-Serif" font-size="9.50" class="t-ink">including check 8, which needs</text>
<text xml:space="preserve" text-anchor="middle" x="990" y="-732.87" font-family="Helvetica,sans-Serif" font-size="9.50" class="t-ink">the submitted bytes</text>
</g>

<g id="edge15" class="edge">
<title>stats&#45;&gt;val</title>
<path fill="none" stroke-width="1.15" d="M976.5,-811.71C978.55,-801.99 981.54,-787.83 984.19,-775.31" class="s-edge"/>
<polygon stroke-width="1.15" points="986.23,-775.79 985.42,-769.48 982.12,-774.92 986.23,-775.79" class="a-edge s-edge"/>
</g>

<g id="node16" class="node">
<title>heur</title>
<path stroke-width="1.3" d="M1050.84,-689.39C1050.84,-689.39 929.17,-689.39 929.17,-689.39 924,-689.39 918.83,-684.22 918.83,-679.05 918.83,-679.05 918.83,-668.71 918.83,-668.71 918.83,-663.54 924,-658.37 929.17,-658.37 929.17,-658.37 1050.84,-658.37 1050.84,-658.37 1056,-658.37 1061.17,-663.54 1061.17,-668.71 1061.17,-668.71 1061.17,-679.05 1061.17,-679.05 1061.17,-684.22 1056,-689.39 1050.84,-689.39" class="f-ana s-ana"/>
<text xml:space="preserve" text-anchor="middle" x="990" y="-674.6" font-family="Helvetica,sans-Serif" font-size="9.50" class="t-ink">18 heuristics + integrity flags</text>
<text xml:space="preserve" text-anchor="middle" x="990" y="-664.85" font-family="Helvetica,sans-Serif" font-size="9.50" class="t-ink">lifted from failed checks</text>
</g>

<g id="edge16" class="edge">
<title>val&#45;&gt;heur</title>
<path fill="none" stroke-width="1.15" d="M990,-726.03C990,-717.15 990,-706.64 990,-697.45" class="s-edge"/>
<polygon stroke-width="1.15" points="992.1,-697.54 990,-691.54 987.9,-697.54 992.1,-697.54" class="a-edge s-edge"/>
</g>

<g id="node17" class="node">
<title>upa</title>
<path stroke-width="1.3" d="M1089.67,-597.62C1089.67,-597.62 890.33,-597.62 890.33,-597.62 884.33,-597.62 878.33,-591.62 878.33,-585.62 878.33,-585.62 878.33,-559.1 878.33,-559.1 878.33,-553.1 884.33,-547.1 890.33,-547.1 890.33,-547.1 1089.67,-547.1 1089.67,-547.1 1095.67,-547.1 1101.67,-553.1 1101.67,-559.1 1101.67,-559.1 1101.67,-585.62 1101.67,-585.62 1101.67,-591.62 1095.67,-597.62 1089.67,-597.62" class="f-srv s-srv"/>
<text xml:space="preserve" text-anchor="middle" x="990" y="-582.83" font-family="Helvetica,sans-Serif" font-size="9.50" class="t-ink">upsert assignment</text>
<text xml:space="preserve" text-anchor="middle" x="990" y="-573.08" font-family="Helvetica,sans-Serif" font-size="9.50" class="t-ink">ON CONFLICT DO NOTHING RETURNING id,</text>
<text xml:space="preserve" text-anchor="middle" x="990" y="-563.33" font-family="Helvetica,sans-Serif" font-size="9.50" class="t-ink">falling back to SELECT — avoids a write</text>
<text xml:space="preserve" text-anchor="middle" x="990" y="-553.58" font-family="Helvetica,sans-Serif" font-size="9.50" class="t-ink">lock on the conflicting row</text>
</g>

<g id="edge17" class="edge">
<title>heur&#45;&gt;upa</title>
<path fill="none" stroke-width="1.15" d="M990,-657.77C990,-643.87 990,-622.83 990,-605.23" class="s-srv"/>
<polygon stroke-width="1.15" points="992.1,-605.67 990,-599.67 987.9,-605.67 992.1,-605.67" class="a-srv s-srv"/>
<text xml:space="preserve" text-anchor="middle" x="1026.75" y="-632.58" font-family="Helvetica,sans-Serif" font-size="8.20" class="t-hum">all computation done</text>
</g>

<g id="node18" class="node">
<title>ver</title>
<path stroke-width="1.3" d="M1090.8,-510.1C1090.8,-510.1 889.2,-510.1 889.2,-510.1 883.2,-510.1 877.2,-504.1 877.2,-498.1 877.2,-498.1 877.2,-481.33 877.2,-481.33 877.2,-475.33 883.2,-469.33 889.2,-469.33 889.2,-469.33 1090.8,-469.33 1090.8,-469.33 1096.8,-469.33 1102.8,-475.33 1102.8,-481.33 1102.8,-481.33 1102.8,-498.1 1102.8,-498.1 1102.8,-504.1 1096.8,-510.1 1090.8,-510.1" class="f-srv s-srv"/>
<text xml:space="preserve" text-anchor="middle" x="990" y="-495.31" font-family="Helvetica,sans-Serif" font-size="9.50" class="t-ink">allocate version_index</text>
<text xml:space="preserve" text-anchor="middle" x="990" y="-485.56" font-family="Helvetica,sans-Serif" font-size="9.50" class="t-ink">raw FOR UPDATE over the cohort&#39;s rows so two</text>
<text xml:space="preserve" text-anchor="middle" x="990" y="-475.81" font-family="Helvetica,sans-Serif" font-size="9.50" class="t-ink">workers cannot claim the same index</text>
</g>

<g id="edge18" class="edge">
<title>upa&#45;&gt;ver</title>
<path fill="none" stroke-width="1.15" d="M990,-546.73C990,-537.68 990,-527.38 990,-518.11" class="s-edge"/>
<polygon stroke-width="1.15" points="992.1,-518.35 990,-512.35 987.9,-518.35 992.1,-518.35" class="a-edge s-edge"/>
</g>

<g id="node19" class="node">
<title>mv</title>
<path stroke-width="1.3" d="M1061.17,-432.33C1061.17,-432.33 918.83,-432.33 918.83,-432.33 912.83,-432.33 906.83,-426.33 906.83,-420.33 906.83,-420.33 906.83,-401.31 906.83,-401.31 906.83,-395.31 912.83,-389.31 918.83,-389.31 918.83,-389.31 1061.17,-389.31 1061.17,-389.31 1067.17,-389.31 1073.17,-395.31 1073.17,-401.31 1073.17,-401.31 1073.17,-420.33 1073.17,-420.33 1073.17,-426.33 1067.17,-432.33 1061.17,-432.33" class="f-srv s-srv"/>
<text xml:space="preserve" text-anchor="middle" x="990" y="-417.54" font-family="Helvetica,sans-Serif" font-size="9.50" class="t-ink">move blob</text>
<text xml:space="preserve" text-anchor="middle" x="990" y="-407.79" font-family="Helvetica,sans-Serif" font-size="9.50" class="t-ink">staging key → final key, inside the</text>
<text xml:space="preserve" text-anchor="middle" x="990" y="-395.79" font-family="Helvetica,sans-Serif" font-size="9.50" class="t-ink">transaction</text>
</g>

<g id="edge19" class="edge">
<title>ver&#45;&gt;mv</title>
<path fill="none" stroke-width="1.15" d="M990,-468.91C990,-460.29 990,-450.02 990,-440.58" class="s-edge"/>
<polygon stroke-width="1.15" points="992.1,-440.64 990,-434.64 987.9,-440.64 992.1,-440.64" class="a-edge s-edge"/>
</g>

<g id="node20" class="node">
<title>strip</title>
<path stroke-width="2" d="M984.96,-339.43C984.96,-339.43 807.04,-339.43 807.04,-339.43 801.87,-339.43 796.7,-334.26 796.7,-329.09 796.7,-329.09 796.7,-318.75 796.7,-318.75 796.7,-313.58 801.87,-308.41 807.04,-308.41 807.04,-308.41 984.96,-308.41 984.96,-308.41 990.13,-308.41 995.3,-313.58 995.3,-318.75 995.3,-318.75 995.3,-329.09 995.3,-329.09 995.3,-334.26 990.13,-339.43 984.96,-339.43" class="f-rec s-rec"/>
<text xml:space="preserve" text-anchor="middle" x="896" y="-324.65" font-family="Helvetica,sans-Serif" font-size="9.50" class="t-ink">STRIP student source</text>
<text xml:space="preserve" text-anchor="middle" x="896" y="-314.9" font-family="Helvetica,sans-Serif" font-size="9.50" class="t-ink">the stored blob becomes provenance&#45;only</text>
</g>

<g id="edge21" class="edge">
<title>mv&#45;&gt;strip</title>
<path fill="none" stroke-width="1.15" d="M966.76,-388.83C952.08,-375.57 933.19,-358.51 918.62,-345.36" class="s-edge"/>
<polygon stroke-width="1.15" points="920.22,-343.97 914.36,-341.51 917.41,-347.09 920.22,-343.97" class="a-edge s-edge"/>
</g>

<g id="node22" class="node">
<title>fail</title>
<path stroke-width="1.3" d="M1156.67,-344.31C1156.67,-344.31 1029.33,-344.31 1029.33,-344.31 1023.33,-344.31 1017.33,-338.31 1017.33,-332.31 1017.33,-332.31 1017.33,-315.54 1017.33,-315.54 1017.33,-309.54 1023.33,-303.54 1029.33,-303.54 1029.33,-303.54 1156.67,-303.54 1156.67,-303.54 1162.67,-303.54 1168.67,-309.54 1168.67,-315.54 1168.67,-315.54 1168.67,-332.31 1168.67,-332.31 1168.67,-338.31 1162.67,-344.31 1156.67,-344.31" class="f-bad s-bad"/>
<text xml:space="preserve" text-anchor="middle" x="1093" y="-330" font-family="Helvetica,sans-Serif" font-size="9.00" class="t-ink">rollback</text>
<text xml:space="preserve" text-anchor="middle" x="1093" y="-320.25" font-family="Helvetica,sans-Serif" font-size="9.00" class="t-ink">blob orphan left for the retention</text>
<text xml:space="preserve" text-anchor="middle" x="1093" y="-310.5" font-family="Helvetica,sans-Serif" font-size="9.00" class="t-ink">sweep — non&#45;fatal by design</text>
</g>

<g id="edge20" class="edge">
<title>mv&#45;&gt;fail</title>
<path fill="none" stroke-width="1.15" stroke-dasharray="5,2" d="M1015.46,-388.83C1029.87,-376.96 1047.97,-362.04 1063.06,-349.6" class="s-bad"/>
<polygon stroke-width="1.15" points="1064.26,-351.34 1067.55,-345.9 1061.58,-348.1 1064.26,-351.34" class="a-bad s-bad"/>
<text xml:space="preserve" text-anchor="middle" x="1069.71" y="-363.52" font-family="Helvetica,sans-Serif" font-size="8.20" class="t-hum">blob write fails</text>
</g>

<g id="node21" class="node">
<title>ins</title>
<path stroke-width="1.3" d="M965.83,-266.54C965.83,-266.54 826.17,-266.54 826.17,-266.54 821,-266.54 815.83,-261.37 815.83,-256.2 815.83,-256.2 815.83,-245.86 815.83,-245.86 815.83,-240.69 821,-235.52 826.17,-235.52 826.17,-235.52 965.83,-235.52 965.83,-235.52 971,-235.52 976.17,-240.69 976.17,-245.86 976.17,-245.86 976.17,-256.2 976.17,-256.2 976.17,-261.37 971,-266.54 965.83,-266.54" class="f-srv s-srv"/>
<text xml:space="preserve" text-anchor="middle" x="896" y="-251.75" font-family="Helvetica,sans-Serif" font-size="9.50" class="t-ink">insert submission, per_file_stats,</text>
<text xml:space="preserve" text-anchor="middle" x="896" y="-242" font-family="Helvetica,sans-Serif" font-size="9.50" class="t-ink">validation_results, flags</text>
</g>

<g id="edge22" class="edge">
<title>strip&#45;&gt;ins</title>
<path fill="none" stroke-width="1.15" d="M896,-307.54C896,-297.84 896,-285.15 896,-274.36" class="s-edge"/>
<polygon stroke-width="1.15" points="898.1,-274.64 896,-268.64 893.9,-274.64 898.1,-274.64" class="a-edge s-edge"/>
</g>

<g id="node23" class="node">
<title>xf</title>
<path stroke-width="1.3" d="M971.83,-174.77C971.83,-174.77 820.17,-174.77 820.17,-174.77 815,-174.77 809.83,-169.6 809.83,-164.43 809.83,-164.43 809.83,-154.09 809.83,-154.09 809.83,-148.92 815,-143.75 820.17,-143.75 820.17,-143.75 971.83,-143.75 971.83,-143.75 977,-143.75 982.17,-148.92 982.17,-154.09 982.17,-154.09 982.17,-164.43 982.17,-164.43 982.17,-169.6 977,-174.77 971.83,-174.77" class="f-ana s-ana"/>
<text xml:space="preserve" text-anchor="middle" x="896" y="-159.98" font-family="Helvetica,sans-Serif" font-size="9.50" class="t-ink">cohort&#45;wide correlation</text>
<text xml:space="preserve" text-anchor="middle" x="896" y="-150.23" font-family="Helvetica,sans-Serif" font-size="9.50" class="t-ink">shared paste · editing&#45;pattern clone</text>
</g>

<g id="edge23" class="edge">
<title>ins&#45;&gt;xf</title>
<path fill="none" stroke-width="1.15" d="M896,-235.21C896,-221 896,-199.35 896,-182.97" class="s-ana"/>
<polygon stroke-width="1.15" points="898.1,-183.15 896,-177.15 893.9,-183.15 898.1,-183.15" class="a-ana s-ana"/>
<text xml:space="preserve" text-anchor="middle" x="908.75" y="-209.73" font-family="Helvetica,sans-Serif" font-size="8.20" class="t-hum">commit</text>
</g>

<g id="node24" class="node">
<title>xp</title>
<path stroke-width="1.3" d="M951.89,-106.75C951.89,-106.75 840.11,-106.75 840.11,-106.75 836.03,-106.75 831.95,-102.67 831.95,-98.59 831.95,-98.59 831.95,-90.43 831.95,-90.43 831.95,-86.35 836.03,-82.27 840.11,-82.27 840.11,-82.27 951.89,-82.27 951.89,-82.27 955.97,-82.27 960.05,-86.35 960.05,-90.43 960.05,-90.43 960.05,-98.59 960.05,-98.59 960.05,-102.67 955.97,-106.75 951.89,-106.75" class="f-ana s-ana"/>
<text xml:space="preserve" text-anchor="middle" x="896" y="-90.36" font-family="Helvetica,sans-Serif" font-size="9.50" class="t-ink">cross_flags + participants</text>
</g>

<g id="edge24" class="edge">
<title>xf&#45;&gt;xp</title>
<path fill="none" stroke-width="1.15" d="M896,-143.39C896,-134.87 896,-124.08 896,-114.9" class="s-edge"/>
<polygon stroke-width="1.15" points="898.1,-115.08 896,-109.08 893.9,-115.08 898.1,-115.08" class="a-edge s-edge"/>
</g>

<g id="node25" class="node">
<title>done</title>
<path stroke-width="2" d="M995.3,-45.27C995.3,-45.27 796.7,-45.27 796.7,-45.27 790.7,-45.27 784.7,-39.27 784.7,-33.27 784.7,-33.27 784.7,-12 784.7,-12 784.7,-6 790.7,0 796.7,0 796.7,0 995.3,0 995.3,0 1001.3,0 1007.3,-6 1007.3,-12 1007.3,-12 1007.3,-33.27 1007.3,-33.27 1007.3,-39.27 1001.3,-45.27 995.3,-45.27" class="f-ana s-ana"/>
<text xml:space="preserve" text-anchor="middle" x="896" y="-30.01" font-family="Helvetica,sans-Serif" font-size="10.00" class="t-ink">cohort is ready</text>
<text xml:space="preserve" text-anchor="middle" x="896" y="-18.76" font-family="Helvetica,sans-Serif" font-size="10.00" class="t-ink">a retry of this whole pipeline produces</text>
<text xml:space="preserve" text-anchor="middle" x="896" y="-7.51" font-family="Helvetica,sans-Serif" font-size="10.00" class="t-ink">byte&#45;identical flags and stats — tests assert it</text>
</g>

<g id="edge25" class="edge">
<title>xp&#45;&gt;done</title>
<path fill="none" stroke-width="1.15" d="M896,-81.66C896,-73.98 896,-63.6 896,-53.75" class="s-edge"/>
<polygon stroke-width="1.15" points="898.1,-53.76 896,-47.76 893.9,-53.76 898.1,-53.76" class="a-edge s-edge"/>
</g>
</g>
</svg>