<svg width="1378pt" height="2346pt"
 viewBox="0.00 0.00 1378.00 2346.00" xmlns="http://www.w3.org/2000/svg" xmlns:xlink="http://www.w3.org/1999/xlink">
<g id="graph0" class="graph" transform="scale(1 1) rotate(0) translate(21.6 2324.74)">
<title>ingest</title>
<g id="clust1" class="cluster">

<path stroke-width="1.5" d="M20,-2209.43C20,-2209.43 572,-2209.43 572,-2209.43 578,-2209.43 584,-2215.43 584,-2221.43 584,-2221.43 584,-2283.14 584,-2283.14 584,-2289.14 578,-2295.14 572,-2295.14 572,-2295.14 20,-2295.14 20,-2295.14 14,-2295.14 8,-2289.14 8,-2283.14 8,-2283.14 8,-2221.43 8,-2221.43 8,-2215.43 14,-2209.43 20,-2209.43" class="f-tra s-tra"/>
<text xml:space="preserve" text-anchor="middle" x="37.38" y="-2282.12" font-family="Helvetica,sans-Serif" font-size="9.50" class="t-tra"> &#160;ENTRY &#160;</text>
</g>
<g id="clust2" class="cluster">

<path stroke-width="1.5" d="M232,-1594.89C232,-1594.89 487,-1594.89 487,-1594.89 493,-1594.89 499,-1600.89 499,-1606.89 499,-1606.89 499,-2154.18 499,-2154.18 499,-2160.18 493,-2166.18 487,-2166.18 487,-2166.18 232,-2166.18 232,-2166.18 226,-2166.18 220,-2160.18 220,-2154.18 220,-2154.18 220,-1606.89 220,-1606.89 220,-1600.89 226,-1594.89 232,-1594.89" class="f-srv s-srv"/>
<text xml:space="preserve" text-anchor="middle" x="273.38" y="-2153.16" font-family="Helvetica,sans-Serif" font-size="9.50" class="t-srv"> &#160;STAGE 1 · PARSE &#160;</text>
</g>
<g id="clust3" class="cluster">

<path stroke-width="1.5" d="M519,-1446.63C519,-1446.63 741,-1446.63 741,-1446.63 747,-1446.63 753,-1452.63 753,-1458.63 753,-1458.63 753,-1670.14 753,-1670.14 753,-1676.14 747,-1682.14 741,-1682.14 741,-1682.14 519,-1682.14 519,-1682.14 513,-1682.14 507,-1676.14 507,-1670.14 507,-1670.14 507,-1458.63 507,-1458.63 507,-1452.63 513,-1446.63 519,-1446.63" class="f-srv s-srv"/>
<text xml:space="preserve" text-anchor="middle" x="592.25" y="-1669.12" font-family="Helvetica,sans-Serif" font-size="9.50" class="t-srv"> &#160;DEDUP — before any heavy work &#160;</text>
</g>
<g id="clust4" class="cluster">

<path stroke-width="1.5" d="M773,-1177.62C773,-1177.62 951,-1177.62 951,-1177.62 957,-1177.62 963,-1183.62 963,-1189.62 963,-1189.62 963,-1506.6 963,-1506.6 963,-1512.6 957,-1518.6 951,-1518.6 951,-1518.6 773,-1518.6 773,-1518.6 767,-1518.6 761,-1512.6 761,-1506.6 761,-1506.6 761,-1189.62 761,-1189.62 761,-1183.62 767,-1177.62 773,-1177.62" class="f-srv s-srv"/>
<text xml:space="preserve" text-anchor="middle" x="815.5" y="-1505.58" font-family="Helvetica,sans-Serif" font-size="9.50" class="t-srv"> &#160;STAGE 2 · MATCH &#160;</text>
</g>
<g id="clust5" class="cluster">

<path stroke-width="1.5" d="M983,-948.95C983,-948.95 1315,-948.95 1315,-948.95 1321,-948.95 1327,-954.95 1327,-960.95 1327,-960.95 1327,-1232.72 1327,-1232.72 1327,-1238.72 1321,-1244.72 1315,-1244.72 1315,-1244.72 983,-1244.72 983,-1244.72 977,-1244.72 971,-1238.72 971,-1232.72 971,-1232.72 971,-960.95 971,-960.95 971,-954.95 977,-948.95 983,-948.95" class="f-ana s-ana"/>
<text xml:space="preserve" text-anchor="middle" x="1148.88" y="-1231.69" font-family="Helvetica,sans-Serif" font-size="9.50" class="t-ana"> &#160;STAGE 3 · ANALYSE — against the in&#45;memory bundle, which still has source &#160;</text>
</g>
<g id="clust6" class="cluster">

<path stroke-width="1.5" d="M844,-334.65C844,-334.65 1237,-334.65 1237,-334.65 1243,-334.65 1249,-340.65 1249,-346.65 1249,-346.65 1249,-885.7 1249,-885.7 1249,-891.7 1243,-897.7 1237,-897.7 1237,-897.7 844,-897.7 844,-897.7 838,-897.7 832,-891.7 832,-885.7 832,-885.7 832,-346.65 832,-346.65 832,-340.65 838,-334.65 844,-334.65" class="f-srv s-srv"/>
<text xml:space="preserve" text-anchor="middle" x="921.38" y="-884.68" font-family="Helvetica,sans-Serif" font-size="9.50" class="t-srv"> &#160;PER&#45;SUBMISSION TRANSACTION &#160;</text>
</g>
<g id="clust7" class="cluster">

<path stroke-width="1.5" d="M857,-115.71C857,-115.71 1025,-115.71 1025,-115.71 1031,-115.71 1037,-121.71 1037,-127.71 1037,-127.71 1037,-271.4 1037,-271.4 1037,-277.4 1031,-283.4 1025,-283.4 1025,-283.4 857,-283.4 857,-283.4 851,-283.4 845,-277.4 845,-271.4 845,-271.4 845,-127.71 845,-127.71 845,-121.71 851,-115.71 857,-115.71" class="f-ana s-ana"/>
<text xml:space="preserve" text-anchor="middle" x="899.5" y="-270.38" font-family="Helvetica,sans-Serif" font-size="9.50" class="t-ana"> &#160;STAGE 4 · CROSS &#160;</text>
</g>

<g id="node1" class="node">
<title>e_http</title>
<path stroke-width="1.3" d="M187.71,-2269.39C187.71,-2269.39 28.29,-2269.39 28.29,-2269.39 22.29,-2269.39 16.29,-2263.39 16.29,-2257.39 16.29,-2257.39 16.29,-2229.43 16.29,-2229.43 16.29,-2223.43 22.29,-2217.43 28.29,-2217.43 28.29,-2217.43 187.71,-2217.43 187.71,-2217.43 193.71,-2217.43 199.71,-2223.43 199.71,-2229.43 199.71,-2229.43 199.71,-2257.39 199.71,-2257.39 199.71,-2263.39 193.71,-2269.39 187.71,-2269.39" class="f-tra s-tra"/>
<text xml:space="preserve" text-anchor="middle" x="108" y="-2253.89" font-family="Helvetica,sans-Serif" font-size="9.50" class="t-ink">HTTP upload</text>
<text xml:space="preserve" text-anchor="middle" x="108" y="-2244.14" font-family="Helvetica,sans-Serif" font-size="9.50" class="t-ink">streamed to disk, never buffered;</text>
<text xml:space="preserve" text-anchor="middle" x="108" y="-2234.39" font-family="Helvetica,sans-Serif" font-size="9.50" class="t-ink">chunked + resumable when ≥ 16 MiB</text>
<text xml:space="preserve" text-anchor="middle" x="108" y="-2224.64" font-family="Helvetica,sans-Serif" font-size="9.50" class="t-ink">(nginx caps a body at ~20 MiB)</text>
</g>

<g id="node4" class="node">
<title>meta</title>
<path stroke-width="1.3" d="M421.18,-2140.43C421.18,-2140.43 278.82,-2140.43 278.82,-2140.43 274.74,-2140.43 270.67,-2136.35 270.67,-2132.27 270.67,-2132.27 270.67,-2124.11 270.67,-2124.11 270.67,-2120.03 274.74,-2115.95 278.82,-2115.95 278.82,-2115.95 421.18,-2115.95 421.18,-2115.95 425.26,-2115.95 429.33,-2120.03 429.33,-2124.11 429.33,-2124.11 429.33,-2132.27 429.33,-2132.27 429.33,-2136.35 425.26,-2140.43 421.18,-2140.43" class="f-srv s-srv"/>
<text xml:space="preserve" text-anchor="middle" x="350" y="-2124.04" font-family="Helvetica,sans-Serif" font-size="9.50" class="t-ink">read submission_metadata.yml</text>
</g>

<g id="edge1" class="edge">

<path fill="none" stroke-width="1.15" d="M162.61,-2216.86C210.58,-2194.42 278.71,-2162.54 318.24,-2144.05" class="s-edge"/>
<polygon stroke-width="1.15" points="318.68,-2146.16 323.22,-2141.72 316.9,-2142.36 318.68,-2146.16" class="a-edge s-edge"/>
</g>

<g id="node2" class="node">
<title>e_cli</title>
<path stroke-width="1.3" d="M445.08,-2264.52C445.08,-2264.52 254.92,-2264.52 254.92,-2264.52 248.92,-2264.52 242.92,-2258.52 242.92,-2252.52 242.92,-2252.52 242.92,-2234.31 242.92,-2234.31 242.92,-2228.31 248.92,-2222.31 254.92,-2222.31 254.92,-2222.31 445.08,-2222.31 445.08,-2222.31 451.08,-2222.31 457.08,-2228.31 457.08,-2234.31 457.08,-2234.31 457.08,-2252.52 457.08,-2252.52 457.08,-2258.52 451.08,-2264.52 445.08,-2264.52" class="f-tra s-tra"/>
<text xml:space="preserve" text-anchor="middle" x="350" y="-2249.01" font-family="Helvetica,sans-Serif" font-size="9.50" class="t-ink">ingest:local</text>
<text xml:space="preserve" text-anchor="middle" x="350" y="-2239.26" font-family="Helvetica,sans-Serif" font-size="9.50" class="t-ink">streaming read from the server&#39;s</text>
<text xml:space="preserve" text-anchor="middle" x="350" y="-2229.51" font-family="Helvetica,sans-Serif" font-size="9.50" class="t-ink">own disk — memory bounded to one bundle</text>
</g>

<g id="edge2" class="edge">

<path fill="none" stroke-width="1.15" d="M350,-2221.91C350,-2201.07 350,-2169.04 350,-2148.6" class="s-edge"/>
<polygon stroke-width="1.15" points="352.1,-2148.62 350,-2142.62 347.9,-2148.62 352.1,-2148.62" class="a-edge s-edge"/>
</g>

<g id="node3" class="node">
<title>e_gate</title>
<path stroke-width="1.3" d="M564.89,-2259.64C564.89,-2259.64 511.11,-2259.64 511.11,-2259.64 505.7,-2259.64 500.29,-2254.23 500.29,-2248.82 500.29,-2248.82 500.29,-2238 500.29,-2238 500.29,-2232.59 505.7,-2227.18 511.11,-2227.18 511.11,-2227.18 564.89,-2227.18 564.89,-2227.18 570.3,-2227.18 575.71,-2232.59 575.71,-2238 575.71,-2238 575.71,-2248.82 575.71,-2248.82 575.71,-2254.23 570.3,-2259.64 564.89,-2259.64" class="f-tra s-tra"/>
<text xml:space="preserve" text-anchor="middle" x="538" y="-2244.14" font-family="Helvetica,sans-Serif" font-size="9.50" class="t-ink">provgate</text>
<text xml:space="preserve" text-anchor="middle" x="538" y="-2234.39" font-family="Helvetica,sans-Serif" font-size="9.50" class="t-ink">hourly delta</text>
</g>

<g id="edge3" class="edge">

<path fill="none" stroke-width="1.15" d="M511.86,-2226.67C475.96,-2205.05 411.77,-2166.39 375.96,-2144.83" class="s-edge"/>
<polygon stroke-width="1.15" points="377.33,-2143.2 371.11,-2141.9 375.17,-2146.8 377.33,-2143.2" class="a-edge s-edge"/>
</g>

<g id="node5" class="node">
<title>hasmeta</title>
<path stroke-width="1.3" d="M338.63,-2035.13C338.63,-2035.13 270.32,-2012.17 270.32,-2012.17 264.63,-2010.26 264.63,-2006.44 270.32,-2004.53 270.32,-2004.53 338.63,-1981.57 338.63,-1981.57 344.31,-1979.66 355.69,-1979.66 361.37,-1981.57 361.37,-1981.57 429.68,-2004.53 429.68,-2004.53 435.37,-2006.44 435.37,-2010.26 429.68,-2012.17 429.68,-2012.17 361.37,-2035.13 361.37,-2035.13 355.69,-2037.04 344.31,-2037.04 338.63,-2035.13" class="f-panel s-srv"/>
<text xml:space="preserve" text-anchor="middle" x="350" y="-2009.55" font-family="Helvetica,sans-Serif" font-size="9.00" class="t-ink">is this actually a</text>
<text xml:space="preserve" text-anchor="middle" x="350" y="-1999.8" font-family="Helvetica,sans-Serif" font-size="9.00" class="t-ink">Gradescope export?</text>
</g>

<g id="edge4" class="edge">

<path fill="none" stroke-width="1.15" d="M350,-2115.46C350,-2099.6 350,-2070.56 350,-2046.87" class="s-edge"/>
<polygon stroke-width="1.15" points="352.1,-2047.13 350,-2041.13 347.9,-2047.13 352.1,-2047.13" class="a-edge s-edge"/>
</g>

<g id="node6" class="node">
<title>fanout</title>
<polygon stroke-width="1.3" points="480.17,-1887.1 272.53,-1887.1 272.53,-1864.5 480.17,-1864.5 491.47,-1875.8 480.17,-1887.1" class="f-srv s-srv"/>
<text xml:space="preserve" text-anchor="middle" x="382" y="-1876.53" font-family="Helvetica,sans-Serif" font-size="9.50" class="t-ink">fan out — one job per submission</text>
<text xml:space="preserve" text-anchor="middle" x="382" y="-1866.78" font-family="Helvetica,sans-Serif" font-size="9.50" class="t-ink">pg&#45;boss, bounded concurrency, cancellable</text>
</g>

<g id="edge6" class="edge">

<path fill="none" stroke-width="1.15" d="M356.79,-1979.66C362.53,-1956.23 370.68,-1922.99 376.14,-1900.7" class="s-srv"/>
<polygon stroke-width="1.15" points="378.15,-1901.33 377.54,-1895 374.07,-1900.33 378.15,-1901.33" class="a-srv s-srv"/>
<text xml:space="preserve" text-anchor="middle" x="373.92" y="-1931.96" font-family="Helvetica,sans-Serif" font-size="8.20" class="t-hum">yes</text>
</g>

<g id="node8" class="node">
<title>pfail</title>
<path stroke-width="1.3" d="M391.58,-1645.1C391.58,-1645.1 264.42,-1645.1 264.42,-1645.1 258.42,-1645.1 252.42,-1639.1 252.42,-1633.1 252.42,-1633.1 252.42,-1614.89 252.42,-1614.89 252.42,-1608.89 258.42,-1602.89 264.42,-1602.89 264.42,-1602.89 391.58,-1602.89 391.58,-1602.89 397.58,-1602.89 403.58,-1608.89 403.58,-1614.89 403.58,-1614.89 403.58,-1633.1 403.58,-1633.1 403.58,-1639.1 397.58,-1645.1 391.58,-1645.1" class="f-bad s-bad"/>
<text xml:space="preserve" text-anchor="middle" x="328" y="-1630.07" font-family="Helvetica,sans-Serif" font-size="9.00" class="t-ink">invalid_manifest / unparseable</text>
<text xml:space="preserve" text-anchor="middle" x="328" y="-1620.32" font-family="Helvetica,sans-Serif" font-size="9.00" class="t-ink">recorded on the job, not fatal</text>
<text xml:space="preserve" text-anchor="middle" x="328" y="-1610.57" font-family="Helvetica,sans-Serif" font-size="9.00" class="t-ink">to the rest of the export</text>
</g>

<g id="edge5" class="edge">

<path fill="none" stroke-width="1.15" stroke-dasharray="5,2" d="M323.03,-1986.15C298.94,-1965.34 265.3,-1931.19 251,-1892.75 218.87,-1806.41 277.16,-1700.34 309.12,-1651.68" class="s-bad"/>
<polygon stroke-width="1.15" points="310.71,-1653.09 312.29,-1646.93 307.21,-1650.76 310.71,-1653.09" class="a-bad s-bad"/>
<text xml:space="preserve" text-anchor="middle" x="272.62" y="-1813.06" font-family="Helvetica,sans-Serif" font-size="8.20" class="t-hum">no — clear error</text>
</g>

<g id="node7" class="node">
<title>pbun</title>
<path stroke-width="1.3" d="M431.01,-1773.85C431.01,-1773.85 332.99,-1773.85 332.99,-1773.85 327.58,-1773.85 322.17,-1768.44 322.17,-1763.03 322.17,-1763.03 322.17,-1752.21 322.17,-1752.21 322.17,-1746.8 327.58,-1741.39 332.99,-1741.39 332.99,-1741.39 431.01,-1741.39 431.01,-1741.39 436.42,-1741.39 441.83,-1746.8 441.83,-1752.21 441.83,-1752.21 441.83,-1763.03 441.83,-1763.03 441.83,-1768.44 436.42,-1773.85 431.01,-1773.85" class="f-srv s-srv"/>
<text xml:space="preserve" text-anchor="middle" x="382" y="-1758.35" font-family="Helvetica,sans-Serif" font-size="9.50" class="t-ink">parse bundle</text>
<text xml:space="preserve" text-anchor="middle" x="382" y="-1748.6" font-family="Helvetica,sans-Serif" font-size="9.50" class="t-ink">manifest + every .slog</text>
</g>

<g id="edge7" class="edge">

<path fill="none" stroke-width="1.15" d="M382,-1858.65C382,-1838.68 382,-1804.56 382,-1781.8" class="s-edge"/>
<polygon stroke-width="1.15" points="384.1,-1782.01 382,-1776.01 379.9,-1782.01 384.1,-1782.01" class="a-edge s-edge"/>
</g>

<g id="edge8" class="edge">

<path fill="none" stroke-width="1.15" stroke-dasharray="5,2" d="M375.49,-1740.74C366.53,-1718.9 350.26,-1679.25 339.29,-1652.52" class="s-bad"/>
<polygon stroke-width="1.15" points="341.37,-1652.05 337.15,-1647.3 337.49,-1653.64 341.37,-1652.05" class="a-bad s-bad"/>
<text xml:space="preserve" text-anchor="middle" x="378.96" y="-1695.6" font-family="Helvetica,sans-Serif" font-size="8.20" class="t-hum">malformed</text>
</g>

<g id="node9" class="node">
<title>dd</title>
<path stroke-width="1.3" d="M618.45,-1653.13C618.45,-1653.13 526.62,-1627.25 526.62,-1627.25 520.85,-1625.62 520.85,-1622.36 526.62,-1620.73 526.62,-1620.73 618.45,-1594.85 618.45,-1594.85 624.23,-1593.22 635.77,-1593.22 641.55,-1594.85 641.55,-1594.85 733.38,-1620.73 733.38,-1620.73 739.15,-1622.36 739.15,-1625.62 733.38,-1627.25 733.38,-1627.25 641.55,-1653.13 641.55,-1653.13 635.77,-1654.76 624.23,-1654.76 618.45,-1653.13" class="f-panel s-srv"/>
<text xml:space="preserve" text-anchor="middle" x="630" y="-1625.19" font-family="Helvetica,sans-Serif" font-size="9.00" class="t-ink">(semester_id, blob_sha256)</text>
<text xml:space="preserve" text-anchor="middle" x="630" y="-1615.44" font-family="Helvetica,sans-Serif" font-size="9.00" class="t-ink">already present?</text>
</g>

<g id="edge9" class="edge">

<path fill="none" stroke-width="1.15" d="M411.91,-1740.74C454.7,-1718.03 533.73,-1676.09 583.99,-1649.41" class="s-srv"/>
<polygon stroke-width="1.15" points="584.73,-1651.4 589.04,-1646.73 582.76,-1647.69 584.73,-1651.4" class="a-srv s-srv"/>
<text xml:space="preserve" text-anchor="middle" x="510.94" y="-1695.6" font-family="Helvetica,sans-Serif" font-size="8.20" class="t-hum">parsed</text>
</g>

<g id="node10" class="node">
<title>ddskip</title>
<path stroke-width="1.3" stroke-dasharray="5,2" d="M717.59,-1506.59C717.59,-1506.59 542.41,-1506.59 542.41,-1506.59 536.41,-1506.59 530.41,-1500.59 530.41,-1494.59 530.41,-1494.59 530.41,-1466.63 530.41,-1466.63 530.41,-1460.63 536.41,-1454.63 542.41,-1454.63 542.41,-1454.63 717.59,-1454.63 717.59,-1454.63 723.59,-1454.63 729.59,-1460.63 729.59,-1466.63 729.59,-1466.63 729.59,-1494.59 729.59,-1494.59 729.59,-1500.59 723.59,-1506.59 717.59,-1506.59" class="f-hum s-hum"/>
<text xml:space="preserve" text-anchor="middle" x="630" y="-1491.56" font-family="Helvetica,sans-Serif" font-size="9.00" class="t-ink2">skip</text>
<text xml:space="preserve" text-anchor="middle" x="630" y="-1481.81" font-family="Helvetica,sans-Serif" font-size="9.00" class="t-ink2">re&#45;sending an unchanged bundle is cheap</text>
<text xml:space="preserve" text-anchor="middle" x="630" y="-1472.06" font-family="Helvetica,sans-Serif" font-size="9.00" class="t-ink2">— this is what lets provgate treat its</text>
<text xml:space="preserve" text-anchor="middle" x="630" y="-1462.31" font-family="Helvetica,sans-Serif" font-size="9.00" class="t-ink2">watermark as an optimisation</text>
</g>

<g id="edge10" class="edge">

<path fill="none" stroke-width="1.15" stroke-dasharray="5,2" d="M630,-1591.26C630,-1568.44 630,-1537.74 630,-1514.63" class="s-hum"/>
<polygon stroke-width="1.15" points="632.1,-1514.85 630,-1508.85 627.9,-1514.85 632.1,-1514.85" class="a-hum s-hum"/>
<text xml:space="preserve" text-anchor="middle" x="636" y="-1545.8" font-family="Helvetica,sans-Serif" font-size="8.20" class="t-hum">yes</text>
</g>

<g id="node11" class="node">
<title>roster</title>
<path stroke-width="1.3" d="M940.05,-1492.85C940.05,-1492.85 781.95,-1492.85 781.95,-1492.85 777.87,-1492.85 773.79,-1488.77 773.79,-1484.69 773.79,-1484.69 773.79,-1476.53 773.79,-1476.53 773.79,-1472.45 777.87,-1468.37 781.95,-1468.37 781.95,-1468.37 940.05,-1468.37 940.05,-1468.37 944.13,-1468.37 948.21,-1472.45 948.21,-1476.53 948.21,-1476.53 948.21,-1484.69 948.21,-1484.69 948.21,-1488.77 944.13,-1492.85 940.05,-1492.85" class="f-srv s-srv"/>
<text xml:space="preserve" text-anchor="middle" x="861" y="-1476.46" font-family="Helvetica,sans-Serif" font-size="9.50" class="t-ink">upsert roster from export metadata</text>
</g>

<g id="edge11" class="edge">

<path fill="none" stroke-width="1.15" d="M665.84,-1601.05C712.78,-1572.33 793.93,-1522.66 835.24,-1497.38" class="s-srv"/>
<polygon stroke-width="1.15" points="836.25,-1499.22 840.27,-1494.3 834.06,-1495.64 836.25,-1499.22" class="a-srv s-srv"/>
<text xml:space="preserve" text-anchor="middle" x="756.93" y="-1545.8" font-family="Helvetica,sans-Serif" font-size="8.20" class="t-hum">no</text>
</g>

<g id="node12" class="node">
<title>match</title>
<path stroke-width="1.3" d="M850.67,-1373.68C850.67,-1373.68 780.46,-1349.18 780.46,-1349.18 774.8,-1347.21 774.8,-1343.25 780.46,-1341.28 780.46,-1341.28 850.67,-1316.78 850.67,-1316.78 856.33,-1314.81 867.67,-1314.81 873.33,-1316.78 873.33,-1316.78 943.54,-1341.28 943.54,-1341.28 949.2,-1343.25 949.2,-1347.21 943.54,-1349.18 943.54,-1349.18 873.33,-1373.68 873.33,-1373.68 867.67,-1375.65 856.33,-1375.65 850.67,-1373.68" class="f-panel s-srv"/>
<text xml:space="preserve" text-anchor="middle" x="862" y="-1346.43" font-family="Helvetica,sans-Serif" font-size="9.00" class="t-ink">does this bundle map</text>
<text xml:space="preserve" text-anchor="middle" x="862" y="-1336.68" font-family="Helvetica,sans-Serif" font-size="9.00" class="t-ink">to a roster entry?</text>
</g>

<g id="edge12" class="edge">

<path fill="none" stroke-width="1.15" d="M861.09,-1467.77C861.23,-1449.53 861.49,-1413.73 861.7,-1385.68" class="s-edge"/>
<polygon stroke-width="1.15" points="863.8,-1385.75 861.75,-1379.74 859.6,-1385.72 863.8,-1385.75" class="a-edge s-edge"/>
</g>

<g id="node13" class="node">
<title>unm</title>
<path stroke-width="1.3" d="M929.71,-1227.83C929.71,-1227.83 794.29,-1227.83 794.29,-1227.83 788.29,-1227.83 782.29,-1221.83 782.29,-1215.83 782.29,-1215.83 782.29,-1197.62 782.29,-1197.62 782.29,-1191.62 788.29,-1185.62 794.29,-1185.62 794.29,-1185.62 929.71,-1185.62 929.71,-1185.62 935.71,-1185.62 941.71,-1191.62 941.71,-1197.62 941.71,-1197.62 941.71,-1215.83 941.71,-1215.83 941.71,-1221.83 935.71,-1227.83 929.71,-1227.83" class="f-rec s-rec"/>
<text xml:space="preserve" text-anchor="middle" x="862" y="-1212.8" font-family="Helvetica,sans-Serif" font-size="9.00" class="t-ink">unmatched queue</text>
<text xml:space="preserve" text-anchor="middle" x="862" y="-1203.05" font-family="Helvetica,sans-Serif" font-size="9.00" class="t-ink">surfaced in its own triage view —</text>
<text xml:space="preserve" text-anchor="middle" x="862" y="-1193.3" font-family="Helvetica,sans-Serif" font-size="9.00" class="t-ink">never silently dropped</text>
</g>

<g id="edge13" class="edge">

<path fill="none" stroke-width="1.15" stroke-dasharray="5,2" d="M862,-1312.23C862,-1288.96 862,-1257.79 862,-1235.56" class="s-rec"/>
<polygon stroke-width="1.15" points="864.1,-1235.83 862,-1229.83 859.9,-1235.83 864.1,-1235.83" class="a-rec s-rec"/>
<text xml:space="preserve" text-anchor="middle" x="866.5" y="-1267.04" font-family="Helvetica,sans-Serif" font-size="8.20" class="t-hum">no</text>
</g>

<g id="node14" class="node">
<title>stats</title>
<path stroke-width="1.3" d="M1083.92,-1218.97C1083.92,-1218.97 1006.07,-1218.97 1006.07,-1218.97 1002,-1218.97 997.91,-1214.89 997.91,-1210.81 997.91,-1210.81 997.91,-1202.65 997.91,-1202.65 997.91,-1198.57 1002,-1194.49 1006.07,-1194.49 1006.07,-1194.49 1083.92,-1194.49 1083.92,-1194.49 1088.01,-1194.49 1092.09,-1198.57 1092.09,-1202.65 1092.09,-1202.65 1092.09,-1210.81 1092.09,-1210.81 1092.09,-1214.89 1088.01,-1218.97 1083.92,-1218.97" class="f-ana s-ana"/>
<text xml:space="preserve" text-anchor="middle" x="1045" y="-1202.58" font-family="Helvetica,sans-Serif" font-size="9.50" class="t-ink">per&#45;file statistics</text>
</g>

<g id="edge14" class="edge">

<path fill="none" stroke-width="1.15" d="M891,-1322.6C927.66,-1295.25 989.96,-1248.78 1022.96,-1224.16" class="s-srv"/>
<polygon stroke-width="1.15" points="1024.21,-1225.85 1027.76,-1220.58 1021.7,-1222.49 1024.21,-1225.85" class="a-srv s-srv"/>
<text xml:space="preserve" text-anchor="middle" x="970.46" y="-1267.04" font-family="Helvetica,sans-Serif" font-size="8.20" class="t-hum">yes</text>
</g>

<g id="node15" class="node">
<title>val</title>
<path stroke-width="1.3" d="M1124.59,-1108.62C1124.59,-1108.62 991.41,-1108.62 991.41,-1108.62 985.41,-1108.62 979.41,-1102.62 979.41,-1096.62 979.41,-1096.62 979.41,-1078.41 979.41,-1078.41 979.41,-1072.41 985.41,-1066.41 991.41,-1066.41 991.41,-1066.41 1124.59,-1066.41 1124.59,-1066.41 1130.59,-1066.41 1136.59,-1072.41 1136.59,-1078.41 1136.59,-1078.41 1136.59,-1096.62 1136.59,-1096.62 1136.59,-1102.62 1130.59,-1108.62 1124.59,-1108.62" class="f-ana s-ana"/>
<text xml:space="preserve" text-anchor="middle" x="1058" y="-1093.12" font-family="Helvetica,sans-Serif" font-size="9.50" class="t-ink">8 validation checks</text>
<text xml:space="preserve" text-anchor="middle" x="1058" y="-1083.37" font-family="Helvetica,sans-Serif" font-size="9.50" class="t-ink">including check 8, which needs</text>
<text xml:space="preserve" text-anchor="middle" x="1058" y="-1073.62" font-family="Helvetica,sans-Serif" font-size="9.50" class="t-ink">the submitted bytes</text>
</g>

<g id="edge15" class="edge">

<path fill="none" stroke-width="1.15" d="M1046.29,-1194.06C1048.28,-1176.19 1052.12,-1141.52 1054.86,-1116.79" class="s-edge"/>
<polygon stroke-width="1.15" points="1056.95,-1117.07 1055.52,-1110.88 1052.77,-1116.61 1056.95,-1117.07" class="a-edge s-edge"/>
</g>

<g id="node16" class="node">
<title>heur</title>
<path stroke-width="1.3" d="M1120.52,-989.41C1120.52,-989.41 995.49,-989.41 995.49,-989.41 990.07,-989.41 984.66,-984 984.66,-978.59 984.66,-978.59 984.66,-967.77 984.66,-967.77 984.66,-962.36 990.07,-956.95 995.49,-956.95 995.49,-956.95 1120.52,-956.95 1120.52,-956.95 1125.92,-956.95 1131.34,-962.36 1131.34,-967.77 1131.34,-967.77 1131.34,-978.59 1131.34,-978.59 1131.34,-984 1125.92,-989.41 1120.52,-989.41" class="f-ana s-ana"/>
<text xml:space="preserve" text-anchor="middle" x="1058" y="-973.91" font-family="Helvetica,sans-Serif" font-size="9.50" class="t-ink">18 heuristics + integrity flags</text>
<text xml:space="preserve" text-anchor="middle" x="1058" y="-964.16" font-family="Helvetica,sans-Serif" font-size="9.50" class="t-ink">lifted from failed checks</text>
</g>

<g id="edge16" class="edge">

<path fill="none" stroke-width="1.15" d="M1058,-1065.91C1058,-1046.56 1058,-1017.65 1058,-997.47" class="s-edge"/>
<polygon stroke-width="1.15" points="1060.1,-997.68 1058,-991.68 1055.9,-997.68 1060.1,-997.68" class="a-edge s-edge"/>
</g>

<g id="node17" class="node">
<title>upa</title>
<path stroke-width="1.3" d="M1159.84,-871.95C1159.84,-871.95 956.16,-871.95 956.16,-871.95 950.16,-871.95 944.16,-865.95 944.16,-859.95 944.16,-859.95 944.16,-831.99 944.16,-831.99 944.16,-825.99 950.16,-819.99 956.16,-819.99 956.16,-819.99 1159.84,-819.99 1159.84,-819.99 1165.84,-819.99 1171.84,-825.99 1171.84,-831.99 1171.84,-831.99 1171.84,-859.95 1171.84,-859.95 1171.84,-865.95 1165.84,-871.95 1159.84,-871.95" class="f-srv s-srv"/>
<text xml:space="preserve" text-anchor="middle" x="1058" y="-856.45" font-family="Helvetica,sans-Serif" font-size="9.50" class="t-ink">upsert assignment</text>
<text xml:space="preserve" text-anchor="middle" x="1058" y="-846.7" font-family="Helvetica,sans-Serif" font-size="9.50" class="t-ink">ON CONFLICT DO NOTHING RETURNING id,</text>
<text xml:space="preserve" text-anchor="middle" x="1058" y="-836.95" font-family="Helvetica,sans-Serif" font-size="9.50" class="t-ink">falling back to SELECT — avoids a write</text>
<text xml:space="preserve" text-anchor="middle" x="1058" y="-827.2" font-family="Helvetica,sans-Serif" font-size="9.50" class="t-ink">lock on the conflicting row</text>
</g>

<g id="edge17" class="edge">

<path fill="none" stroke-width="1.15" d="M1058,-956.32C1058,-937.2 1058,-904.57 1058,-879.91" class="s-srv"/>
<polygon stroke-width="1.15" points="1060.1,-879.96 1058,-873.96 1055.9,-879.96 1060.1,-879.96" class="a-srv s-srv"/>
<text xml:space="preserve" text-anchor="middle" x="1094.75" y="-911.16" font-family="Helvetica,sans-Serif" font-size="8.20" class="t-hum">all computation done</text>
</g>

<g id="node18" class="node">
<title>ver</title>
<path stroke-width="1.3" d="M1160.96,-742.99C1160.96,-742.99 955.04,-742.99 955.04,-742.99 949.04,-742.99 943.04,-736.99 943.04,-730.99 943.04,-730.99 943.04,-712.78 943.04,-712.78 943.04,-706.78 949.04,-700.78 955.04,-700.78 955.04,-700.78 1160.96,-700.78 1160.96,-700.78 1166.96,-700.78 1172.96,-706.78 1172.96,-712.78 1172.96,-712.78 1172.96,-730.99 1172.96,-730.99 1172.96,-736.99 1166.96,-742.99 1160.96,-742.99" class="f-srv s-srv"/>
<text xml:space="preserve" text-anchor="middle" x="1058" y="-727.49" font-family="Helvetica,sans-Serif" font-size="9.50" class="t-ink">allocate version_index</text>
<text xml:space="preserve" text-anchor="middle" x="1058" y="-717.74" font-family="Helvetica,sans-Serif" font-size="9.50" class="t-ink">raw FOR UPDATE over the cohort&#39;s rows so two</text>
<text xml:space="preserve" text-anchor="middle" x="1058" y="-707.99" font-family="Helvetica,sans-Serif" font-size="9.50" class="t-ink">workers cannot claim the same index</text>
</g>

<g id="edge18" class="edge">

<path fill="none" stroke-width="1.15" d="M1058,-819.38C1058,-799.41 1058,-771.71 1058,-751.1" class="s-edge"/>
<polygon stroke-width="1.15" points="1060.1,-751.33 1058,-745.33 1055.9,-751.33 1060.1,-751.33" class="a-edge s-edge"/>
</g>

<g id="node19" class="node">
<title>mv</title>
<path stroke-width="1.3" d="M1131.34,-623.78C1131.34,-623.78 984.66,-623.78 984.66,-623.78 978.66,-623.78 972.66,-617.78 972.66,-611.78 972.66,-611.78 972.66,-591.32 972.66,-591.32 972.66,-585.32 978.66,-579.32 984.66,-579.32 984.66,-579.32 1131.34,-579.32 1131.34,-579.32 1137.34,-579.32 1143.34,-585.32 1143.34,-591.32 1143.34,-591.32 1143.34,-611.78 1143.34,-611.78 1143.34,-617.78 1137.34,-623.78 1131.34,-623.78" class="f-srv s-srv"/>
<text xml:space="preserve" text-anchor="middle" x="1058" y="-608.28" font-family="Helvetica,sans-Serif" font-size="9.50" class="t-ink">move blob</text>
<text xml:space="preserve" text-anchor="middle" x="1058" y="-598.53" font-family="Helvetica,sans-Serif" font-size="9.50" class="t-ink">staging key → final key, inside the</text>
<text xml:space="preserve" text-anchor="middle" x="1058" y="-586.53" font-family="Helvetica,sans-Serif" font-size="9.50" class="t-ink">transaction</text>
</g>

<g id="edge19" class="edge">

<path fill="none" stroke-width="1.15" d="M1058,-700.27C1058,-681.28 1058,-652.91 1058,-631.62" class="s-edge"/>
<polygon stroke-width="1.15" points="1060.1,-631.87 1058,-625.87 1055.9,-631.87 1060.1,-631.87" class="a-edge s-edge"/>
</g>

<g id="node20" class="node">
<title>strip</title>
<path stroke-width="2" d="M1031.64,-489.45C1031.64,-489.45 850.36,-489.45 850.36,-489.45 844.95,-489.45 839.54,-484.04 839.54,-478.63 839.54,-478.63 839.54,-467.81 839.54,-467.81 839.54,-462.4 844.95,-456.99 850.36,-456.99 850.36,-456.99 1031.64,-456.99 1031.64,-456.99 1037.05,-456.99 1042.46,-462.4 1042.46,-467.81 1042.46,-467.81 1042.46,-478.63 1042.46,-478.63 1042.46,-484.04 1037.05,-489.45 1031.64,-489.45" class="f-rec s-rec"/>
<text xml:space="preserve" text-anchor="middle" x="941" y="-473.94" font-family="Helvetica,sans-Serif" font-size="9.50" class="t-ink">STRIP student source</text>
<text xml:space="preserve" text-anchor="middle" x="941" y="-464.19" font-family="Helvetica,sans-Serif" font-size="9.50" class="t-ink">the stored blob becomes provenance&#45;only</text>
</g>

<g id="edge21" class="edge">

<path fill="none" stroke-width="1.15" d="M1037.89,-578.83C1016.44,-555.68 982.68,-519.22 961.21,-496.03" class="s-edge"/>
<polygon stroke-width="1.15" points="962.82,-494.69 957.21,-491.72 959.74,-497.54 962.82,-494.69" class="a-edge s-edge"/>
</g>

<g id="node22" class="node">
<title>fail</title>
<path stroke-width="1.3" d="M1228.84,-494.32C1228.84,-494.32 1097.16,-494.32 1097.16,-494.32 1091.16,-494.32 1085.16,-488.32 1085.16,-482.32 1085.16,-482.32 1085.16,-464.11 1085.16,-464.11 1085.16,-458.11 1091.16,-452.11 1097.16,-452.11 1097.16,-452.11 1228.84,-452.11 1228.84,-452.11 1234.84,-452.11 1240.84,-458.11 1240.84,-464.11 1240.84,-464.11 1240.84,-482.32 1240.84,-482.32 1240.84,-488.32 1234.84,-494.32 1228.84,-494.32" class="f-bad s-bad"/>
<text xml:space="preserve" text-anchor="middle" x="1163" y="-479.29" font-family="Helvetica,sans-Serif" font-size="9.00" class="t-ink">rollback</text>
<text xml:space="preserve" text-anchor="middle" x="1163" y="-469.54" font-family="Helvetica,sans-Serif" font-size="9.00" class="t-ink">blob orphan left for the retention</text>
<text xml:space="preserve" text-anchor="middle" x="1163" y="-459.79" font-family="Helvetica,sans-Serif" font-size="9.00" class="t-ink">sweep — non&#45;fatal by design</text>
</g>

<g id="edge20" class="edge">

<path fill="none" stroke-width="1.15" stroke-dasharray="5,2" d="M1076.05,-578.83C1094.1,-557.11 1121.89,-523.68 1141.17,-500.48" class="s-bad"/>
<polygon stroke-width="1.15" points="1142.55,-502.11 1144.77,-496.15 1139.32,-499.42 1142.55,-502.11" class="a-bad s-bad"/>
<text xml:space="preserve" text-anchor="middle" x="1138.77" y="-533.53" font-family="Helvetica,sans-Serif" font-size="8.20" class="t-hum">blob write fails</text>
</g>

<g id="node21" class="node">
<title>ins</title>
<path stroke-width="1.3" d="M1012.51,-375.11C1012.51,-375.11 869.49,-375.11 869.49,-375.11 864.07,-375.11 858.66,-369.7 858.66,-364.29 858.66,-364.29 858.66,-353.47 858.66,-353.47 858.66,-348.06 864.07,-342.65 869.49,-342.65 869.49,-342.65 1012.51,-342.65 1012.51,-342.65 1017.93,-342.65 1023.34,-348.06 1023.34,-353.47 1023.34,-353.47 1023.34,-364.29 1023.34,-364.29 1023.34,-369.7 1017.93,-375.11 1012.51,-375.11" class="f-srv s-srv"/>
<text xml:space="preserve" text-anchor="middle" x="941" y="-359.61" font-family="Helvetica,sans-Serif" font-size="9.50" class="t-ink">insert submission, per_file_stats,</text>
<text xml:space="preserve" text-anchor="middle" x="941" y="-349.86" font-family="Helvetica,sans-Serif" font-size="9.50" class="t-ink">validation_results, flags</text>
</g>

<g id="edge22" class="edge">

<path fill="none" stroke-width="1.15" d="M941,-456.12C941,-436.99 941,-404.93 941,-383.11" class="s-edge"/>
<polygon stroke-width="1.15" points="943.1,-383.32 941,-377.32 938.9,-383.32 943.1,-383.32" class="a-edge s-edge"/>
</g>

<g id="node23" class="node">
<title>xf</title>
<path stroke-width="1.3" d="M1018.51,-257.65C1018.51,-257.65 863.49,-257.65 863.49,-257.65 858.07,-257.65 852.66,-252.24 852.66,-246.83 852.66,-246.83 852.66,-236.01 852.66,-236.01 852.66,-230.6 858.07,-225.19 863.49,-225.19 863.49,-225.19 1018.51,-225.19 1018.51,-225.19 1023.93,-225.19 1029.34,-230.6 1029.34,-236.01 1029.34,-236.01 1029.34,-246.83 1029.34,-246.83 1029.34,-252.24 1023.93,-257.65 1018.51,-257.65" class="f-ana s-ana"/>
<text xml:space="preserve" text-anchor="middle" x="941" y="-242.15" font-family="Helvetica,sans-Serif" font-size="9.50" class="t-ink">cohort&#45;wide correlation</text>
<text xml:space="preserve" text-anchor="middle" x="941" y="-232.4" font-family="Helvetica,sans-Serif" font-size="9.50" class="t-ink">shared paste · editing&#45;pattern clone</text>
</g>

<g id="edge23" class="edge">

<path fill="none" stroke-width="1.15" d="M941,-342.31C941,-322.6 941,-288.47 941,-265.66" class="s-ana"/>
<polygon stroke-width="1.15" points="943.1,-265.85 941,-259.85 938.9,-265.85 943.1,-265.85" class="a-ana s-ana"/>
<text xml:space="preserve" text-anchor="middle" x="953.75" y="-296.86" font-family="Helvetica,sans-Serif" font-size="8.20" class="t-hum">commit</text>
</g>

<g id="node24" class="node">
<title>xp</title>
<path stroke-width="1.3" d="M999.05,-148.19C999.05,-148.19 882.95,-148.19 882.95,-148.19 878.87,-148.19 874.79,-144.11 874.79,-140.03 874.79,-140.03 874.79,-131.87 874.79,-131.87 874.79,-127.79 878.87,-123.71 882.95,-123.71 882.95,-123.71 999.05,-123.71 999.05,-123.71 1003.13,-123.71 1007.21,-127.79 1007.21,-131.87 1007.21,-131.87 1007.21,-140.03 1007.21,-140.03 1007.21,-144.11 1003.13,-148.19 999.05,-148.19" class="f-ana s-ana"/>
<text xml:space="preserve" text-anchor="middle" x="941" y="-131.8" font-family="Helvetica,sans-Serif" font-size="9.50" class="t-ink">cross_flags + participants</text>
</g>

<g id="edge24" class="edge">

<path fill="none" stroke-width="1.15" d="M941,-224.71C941,-206.32 941,-175.89 941,-156.13" class="s-edge"/>
<polygon stroke-width="1.15" points="943.1,-156.37 941,-150.37 938.9,-156.37 943.1,-156.37" class="a-edge s-edge"/>
</g>

<g id="node25" class="node">
<title>done</title>
<path stroke-width="2" d="M1042.46,-46.71C1042.46,-46.71 839.54,-46.71 839.54,-46.71 833.54,-46.71 827.54,-40.71 827.54,-34.71 827.54,-34.71 827.54,-12 827.54,-12 827.54,-6 833.54,0 839.54,0 839.54,0 1042.46,0 1042.46,0 1048.46,0 1054.46,-6 1054.46,-12 1054.46,-12 1054.46,-34.71 1054.46,-34.71 1054.46,-40.71 1048.46,-46.71 1042.46,-46.71" class="f-ana s-ana"/>
<text xml:space="preserve" text-anchor="middle" x="941" y="-30.73" font-family="Helvetica,sans-Serif" font-size="10.00" class="t-ink">cohort is ready</text>
<text xml:space="preserve" text-anchor="middle" x="941" y="-19.48" font-family="Helvetica,sans-Serif" font-size="10.00" class="t-ink">a retry of this whole pipeline produces</text>
<text xml:space="preserve" text-anchor="middle" x="941" y="-8.23" font-family="Helvetica,sans-Serif" font-size="10.00" class="t-ink">byte&#45;identical flags and stats — tests assert it</text>
</g>

<g id="edge25" class="edge">

<path fill="none" stroke-width="1.15" d="M941,-123.11C941,-107.06 941,-77.82 941,-55.3" class="s-edge"/>
<polygon stroke-width="1.15" points="943.1,-55.39 941,-49.39 938.9,-55.39 943.1,-55.39" class="a-edge s-edge"/>
</g>
</g>
</svg>