<svg width="886pt" height="2466pt"
 viewBox="0.00 0.00 886.00 2466.00" xmlns="http://www.w3.org/2000/svg" xmlns:xlink="http://www.w3.org/1999/xlink">
<g id="graph0" class="graph" transform="scale(1 1) rotate(0) translate(4 2461.59)">
<title>master</title>
<g id="clust1" class="cluster">
<title>cluster_stu</title>
<path stroke-width="1.6" d="M325,-1580.4C325,-1580.4 598,-1580.4 598,-1580.4 604,-1580.4 610,-1586.4 610,-1592.4 610,-1592.4 610,-2437.59 610,-2437.59 610,-2443.59 604,-2449.59 598,-2449.59 598,-2449.59 325,-2449.59 325,-2449.59 319,-2449.59 313,-2443.59 313,-2437.59 313,-2437.59 313,-1592.4 313,-1592.4 313,-1586.4 319,-1580.4 325,-1580.4" class="f-rec s-rec"/>
<text xml:space="preserve" text-anchor="middle" x="420.38" y="-2436.09" font-family="Helvetica,sans-Serif" font-size="10.00" class="t-rec"> &#160;STUDENT MACHINE — no network, ever &#160;</text>
</g>
<g id="clust2" class="cluster">
<title>cluster_tra</title>
<path stroke-width="1.6" d="M155,-1243.23C155,-1243.23 827,-1243.23 827,-1243.23 833,-1243.23 839,-1249.23 839,-1255.23 839,-1255.23 839,-1527.4 839,-1527.4 839,-1533.4 833,-1539.4 827,-1539.4 827,-1539.4 155,-1539.4 155,-1539.4 149,-1539.4 143,-1533.4 143,-1527.4 143,-1527.4 143,-1255.23 143,-1255.23 143,-1249.23 149,-1243.23 155,-1243.23" class="f-tra s-tra"/>
<text xml:space="preserve" text-anchor="middle" x="188.12" y="-1525.9" font-family="Helvetica,sans-Serif" font-size="10.00" class="t-tra"> &#160;TRANSPORT &#160;</text>
</g>
<g id="clust3" class="cluster">
<title>cluster_srv</title>
<path stroke-width="1.6" d="M446,-451.48C446,-451.48 752,-451.48 752,-451.48 758,-451.48 764,-457.48 764,-463.48 764,-463.48 764,-1190.23 764,-1190.23 764,-1196.23 758,-1202.23 752,-1202.23 752,-1202.23 446,-1202.23 446,-1202.23 440,-1202.23 434,-1196.23 434,-1190.23 434,-1190.23 434,-463.48 434,-463.48 434,-457.48 440,-451.48 446,-451.48" class="f-srv s-srv"/>
<text xml:space="preserve" text-anchor="middle" x="494.12" y="-1188.73" font-family="Helvetica,sans-Serif" font-size="10.00" class="t-srv"> &#160;SERVER — apphost &#160;</text>
</g>
<g id="clust4" class="cluster">
<title>cluster_ana</title>
<path stroke-width="1.6" d="M38,-544.46C38,-544.46 414,-544.46 414,-544.46 420,-544.46 426,-550.46 426,-556.46 426,-556.46 426,-827.87 426,-827.87 426,-833.87 420,-839.87 414,-839.87 414,-839.87 38,-839.87 38,-839.87 32,-839.87 26,-833.87 26,-827.87 26,-827.87 26,-556.46 26,-556.46 26,-550.46 32,-544.46 38,-544.46" class="f-ana s-ana"/>
<text xml:space="preserve" text-anchor="middle" x="127.38" y="-826.37" font-family="Helvetica,sans-Serif" font-size="10.00" class="t-ana"> &#160;ANALYSIS — analysis&#45;core, isomorphic &#160;</text>
</g>
<g id="clust5" class="cluster">
<title>cluster_stf</title>
<path stroke-width="1.6" d="M478,-8C478,-8 858,-8 858,-8 864,-8 870,-14 870,-20 870,-20 870,-398.48 870,-398.48 870,-404.48 864,-410.48 858,-410.48 858,-410.48 478,-410.48 478,-410.48 472,-410.48 466,-404.48 466,-398.48 466,-398.48 466,-20 466,-20 466,-14 472,-8 478,-8" class="f-uix s-uix"/>
<text xml:space="preserve" text-anchor="middle" x="518.62" y="-396.98" font-family="Helvetica,sans-Serif" font-size="10.00" class="t-uix"> &#160;COURSE STAFF &#160;</text>
</g>

<g id="node1" class="node">
<title>stu</title>
<path stroke-width="1.3" d="M482.25,-2403.09C482.25,-2403.09 439.75,-2403.09 439.75,-2403.09 435.43,-2403.09 431.11,-2398.77 431.11,-2394.45 431.11,-2394.45 431.11,-2385.81 431.11,-2385.81 431.11,-2381.49 435.43,-2377.17 439.75,-2377.17 439.75,-2377.17 482.25,-2377.17 482.25,-2377.17 486.57,-2377.17 490.89,-2381.49 490.89,-2385.81 490.89,-2385.81 490.89,-2394.45 490.89,-2394.45 490.89,-2398.77 486.57,-2403.09 482.25,-2403.09" class="f-hum s-hum"/>
<text xml:space="preserve" text-anchor="middle" x="461" y="-2385.78" font-family="Helvetica,sans-Serif" font-size="10.50" class="t-ink">Student</text>
</g>

<g id="node2" class="node">
<title>edt</title>
<path stroke-width="1.3" d="M530.82,-2322.17C530.82,-2322.17 391.18,-2322.17 391.18,-2322.17 385.27,-2322.17 379.36,-2316.26 379.36,-2310.35 379.36,-2310.35 379.36,-2298.53 379.36,-2298.53 379.36,-2292.62 385.27,-2286.71 391.18,-2286.71 391.18,-2286.71 530.82,-2286.71 530.82,-2286.71 536.74,-2286.71 542.64,-2292.62 542.64,-2298.53 542.64,-2298.53 542.64,-2310.35 542.64,-2310.35 542.64,-2316.26 536.74,-2322.17 530.82,-2322.17" class="f-rec s-rec"/>
<text xml:space="preserve" text-anchor="middle" x="461" y="-2305.72" font-family="Helvetica,sans-Serif" font-size="10.50" class="t-ink">Editor</text>
<text xml:space="preserve" text-anchor="middle" x="461" y="-2294.47" font-family="Helvetica,sans-Serif" font-size="10.50" class="t-ink">VS Code · JetBrains · Neovim</text>
</g>

<g id="edge1" class="edge">
<title>stu&#45;&gt;edt</title>
<path fill="none" stroke-width="1.15" d="M461,-2376.78C461,-2364.63 461,-2345.71 461,-2330.41" class="s-edge"/>
<polygon stroke-width="1.15" points="463.17,-2330.73 461,-2324.53 458.83,-2330.73 463.17,-2330.73" class="a-edge s-edge"/>
<text xml:space="preserve" text-anchor="middle" x="471.12" y="-2346.1" font-family="Helvetica,sans-Serif" font-size="8.50" class="t-hum">types</text>
</g>

<g id="node3" class="node">
<title>gate</title>
<path stroke-width="1.3" d="M449.5,-2228.29C449.5,-2228.29 363.66,-2202.74 363.66,-2202.74 357.91,-2201.02 357.91,-2197.6 363.66,-2195.89 363.66,-2195.89 449.5,-2170.34 449.5,-2170.34 455.25,-2168.62 466.75,-2168.62 472.5,-2170.34 472.5,-2170.34 558.34,-2195.89 558.34,-2195.89 564.09,-2197.6 564.09,-2201.02 558.34,-2202.74 558.34,-2202.74 472.5,-2228.29 472.5,-2228.29 466.75,-2230 455.25,-2230 449.5,-2228.29" class="f-rec s-rec"/>
<text xml:space="preserve" text-anchor="middle" x="461" y="-2204.91" font-family="Helvetica,sans-Serif" font-size="9.50" class="t-ink">Workspace has</text>
<text xml:space="preserve" text-anchor="middle" x="461" y="-2195.16" font-family="Helvetica,sans-Serif" font-size="9.50" class="t-ink">.provenance&#45;manifest</text>
<text xml:space="preserve" text-anchor="middle" x="461" y="-2185.41" font-family="Helvetica,sans-Serif" font-size="9.50" class="t-ink">signed by course key?</text>
</g>

<g id="edge2" class="edge">
<title>edt&#45;&gt;gate</title>
<path fill="none" stroke-width="1.15" d="M461,-2286.41C461,-2273.83 461,-2256.16 461,-2240.1" class="s-edge"/>
<polygon stroke-width="1.15" points="463.17,-2240.32 461,-2234.12 458.83,-2240.32 463.17,-2240.32" class="a-edge s-edge"/>
<text xml:space="preserve" text-anchor="middle" x="475.62" y="-2255.64" font-family="Helvetica,sans-Serif" font-size="8.50" class="t-hum">on open</text>
</g>

<g id="node4" class="node">
<title>dorm</title>
<path stroke-width="1.3" stroke-dasharray="5,2" d="M423.45,-2106.29C423.45,-2106.29 332.55,-2106.29 332.55,-2106.29 326.64,-2106.29 320.73,-2100.38 320.73,-2094.47 320.73,-2094.47 320.73,-2082.65 320.73,-2082.65 320.73,-2076.74 326.64,-2070.83 332.55,-2070.83 332.55,-2070.83 423.45,-2070.83 423.45,-2070.83 429.36,-2070.83 435.27,-2076.74 435.27,-2082.65 435.27,-2082.65 435.27,-2094.47 435.27,-2094.47 435.27,-2100.38 429.36,-2106.29 423.45,-2106.29" class="f-hum s-hum"/>
<text xml:space="preserve" text-anchor="middle" x="378" y="-2089.83" font-family="Helvetica,sans-Serif" font-size="10.50" class="t-hum">dormant</text>
<text xml:space="preserve" text-anchor="middle" x="378" y="-2078.58" font-family="Helvetica,sans-Serif" font-size="10.50" class="t-hum">nothing is recorded</text>
</g>

<g id="edge3" class="edge">
<title>gate&#45;&gt;dorm</title>
<path fill="none" stroke-width="1.15" stroke-dasharray="5,2" d="M441.12,-2172.26C427.37,-2154.24 409.22,-2130.46 395.91,-2113.03" class="s-hum"/>
<polygon stroke-width="1.15" points="397.79,-2111.91 392.3,-2108.3 394.34,-2114.54 397.79,-2111.91" class="a-hum s-hum"/>
<text xml:space="preserve" text-anchor="middle" x="421.51" y="-2135.84" font-family="Helvetica,sans-Serif" font-size="8.50" class="t-hum">no</text>
</g>

<g id="node5" class="node">
<title>sstart</title>
<path stroke-width="1.3" d="M590.27,-2111.91C590.27,-2111.91 469.73,-2111.91 469.73,-2111.91 463.73,-2111.91 457.73,-2105.91 457.73,-2099.91 457.73,-2099.91 457.73,-2077.2 457.73,-2077.2 457.73,-2071.2 463.73,-2065.2 469.73,-2065.2 469.73,-2065.2 590.27,-2065.2 590.27,-2065.2 596.27,-2065.2 602.27,-2071.2 602.27,-2077.2 602.27,-2077.2 602.27,-2099.91 602.27,-2099.91 602.27,-2105.91 596.27,-2111.91 590.27,-2111.91" class="f-rec s-rec"/>
<text xml:space="preserve" text-anchor="middle" x="530" y="-2095.46" font-family="Helvetica,sans-Serif" font-size="10.50" class="t-ink">session.start</text>
<text xml:space="preserve" text-anchor="middle" x="530" y="-2084.21" font-family="Helvetica,sans-Serif" font-size="10.50" class="t-ink">generate session keypair,</text>
<text xml:space="preserve" text-anchor="middle" x="530" y="-2072.96" font-family="Helvetica,sans-Serif" font-size="10.50" class="t-ink">bind it to the manifest sig</text>
</g>

<g id="edge4" class="edge">
<title>gate&#45;&gt;sstart</title>
<path fill="none" stroke-width="1.15" d="M478.06,-2171.43C488.2,-2155.44 501.08,-2135.14 511.48,-2118.75" class="s-rec"/>
<polygon stroke-width="1.15" points="513.05,-2120.32 514.54,-2113.92 509.39,-2118 513.05,-2120.32" class="a-rec s-rec"/>
<text xml:space="preserve" text-anchor="middle" x="506.38" y="-2135.84" font-family="Helvetica,sans-Serif" font-size="8.50" class="t-hum">yes</text>
</g>

<g id="node6" class="node">
<title>sig</title>
<path stroke-width="1.3" d="M590.14,-2018.2C590.14,-2018.2 441.86,-2018.2 441.86,-2018.2 435.86,-2018.2 429.86,-2012.2 429.86,-2006.2 429.86,-2006.2 429.86,-1983.49 429.86,-1983.49 429.86,-1977.49 435.86,-1971.49 441.86,-1971.49 441.86,-1971.49 590.14,-1971.49 590.14,-1971.49 596.14,-1971.49 602.14,-1977.49 602.14,-1983.49 602.14,-1983.49 602.14,-2006.2 602.14,-2006.2 602.14,-2012.2 596.14,-2018.2 590.14,-2018.2" class="f-rec s-rec"/>
<text xml:space="preserve" text-anchor="middle" x="516" y="-2001.75" font-family="Helvetica,sans-Serif" font-size="10.50" class="t-ink">signal capture</text>
<text xml:space="preserve" text-anchor="middle" x="516" y="-1990.5" font-family="Helvetica,sans-Serif" font-size="10.50" class="t-ink">edits · pastes · saves · focus</text>
<text xml:space="preserve" text-anchor="middle" x="516" y="-1979.25" font-family="Helvetica,sans-Serif" font-size="10.50" class="t-ink">external changes · terminal · git</text>
</g>

<g id="edge5" class="edge">
<title>sstart&#45;&gt;sig</title>
<path fill="none" stroke-width="1.15" d="M526.54,-2064.89C524.76,-2053.2 522.56,-2038.79 520.63,-2026.17" class="s-edge"/>
<polygon stroke-width="1.15" points="522.81,-2026.1 519.73,-2020.29 518.52,-2026.75 522.81,-2026.1" class="a-edge s-edge"/>
</g>

<g id="node7" class="node">
<title>chain</title>
<path stroke-width="1.3" d="M578.32,-1907.49C578.32,-1907.49 453.68,-1907.49 453.68,-1907.49 447.77,-1907.49 441.86,-1901.58 441.86,-1895.67 441.86,-1895.67 441.86,-1883.85 441.86,-1883.85 441.86,-1877.94 447.77,-1872.03 453.68,-1872.03 453.68,-1872.03 578.32,-1872.03 578.32,-1872.03 584.24,-1872.03 590.14,-1877.94 590.14,-1883.85 590.14,-1883.85 590.14,-1895.67 590.14,-1895.67 590.14,-1901.58 584.24,-1907.49 578.32,-1907.49" class="f-fmt s-fmt"/>
<text xml:space="preserve" text-anchor="middle" x="516" y="-1891.04" font-family="Helvetica,sans-Serif" font-size="10.50" class="t-ink">hash chain</text>
<text xml:space="preserve" text-anchor="middle" x="516" y="-1879.79" font-family="Helvetica,sans-Serif" font-size="10.50" class="t-ink">sha256(prev ‖ JCS(entry))</text>
</g>

<g id="edge6" class="edge">
<title>sig&#45;&gt;chain</title>
<path fill="none" stroke-width="1.15" d="M516,-1970.97C516,-1954.66 516,-1932.73 516,-1915.92" class="s-edge"/>
<polygon stroke-width="1.15" points="518.17,-1916.07 516,-1909.87 513.83,-1916.07 518.17,-1916.07" class="a-edge s-edge"/>
<text xml:space="preserve" text-anchor="middle" x="534.38" y="-1940.42" font-family="Helvetica,sans-Serif" font-size="8.50" class="t-hum">one entry</text>
<text xml:space="preserve" text-anchor="middle" x="534.38" y="-1931.42" font-family="Helvetica,sans-Serif" font-size="8.50" class="t-hum">per signal</text>
</g>

<g id="node8" class="node">
<title>slog</title>
<polygon stroke-width="1.3" points="568.49,-1808.03 457.61,-1808.03 457.61,-1772.57 574.39,-1772.57 574.39,-1802.12 568.49,-1808.03" class="f-fmt s-fmt"/>
<polyline fill="none" stroke-width="1.3" points="568.49,-1808.03 568.49,-1802.12" class="s-fmt"/>
<polyline fill="none" stroke-width="1.3" points="574.39,-1802.12 568.49,-1802.12" class="s-fmt"/>
<text xml:space="preserve" text-anchor="middle" x="516" y="-1791.58" font-family="Helvetica,sans-Serif" font-size="10.50" class="t-ink">*.slog</text>
<text xml:space="preserve" text-anchor="middle" x="516" y="-1780.33" font-family="Helvetica,sans-Serif" font-size="10.50" class="t-ink">append&#45;only ndjson</text>
</g>

<g id="edge7" class="edge">
<title>chain&#45;&gt;slog</title>
<path fill="none" stroke-width="1.15" d="M516,-1871.79C516,-1856.37 516,-1833.44 516,-1815.99" class="s-fmt"/>
<polygon stroke-width="1.15" points="518.17,-1816.35 516,-1810.15 513.83,-1816.35 518.17,-1816.35" class="a-fmt s-fmt"/>
<text xml:space="preserve" text-anchor="middle" x="535.12" y="-1840.96" font-family="Helvetica,sans-Serif" font-size="8.50" class="t-hum">append</text>
<text xml:space="preserve" text-anchor="middle" x="535.12" y="-1831.96" font-family="Helvetica,sans-Serif" font-size="8.50" class="t-hum">atomically</text>
</g>

<g id="node9" class="node">
<title>ckpt</title>
<path stroke-width="1.3" d="M408.57,-1716.07C408.57,-1716.07 331.43,-1716.07 331.43,-1716.07 326.02,-1716.07 320.61,-1710.66 320.61,-1705.25 320.61,-1705.25 320.61,-1694.43 320.61,-1694.43 320.61,-1689.02 326.02,-1683.61 331.43,-1683.61 331.43,-1683.61 408.57,-1683.61 408.57,-1683.61 413.98,-1683.61 419.39,-1689.02 419.39,-1694.43 419.39,-1694.43 419.39,-1705.25 419.39,-1705.25 419.39,-1710.66 413.98,-1716.07 408.57,-1716.07" class="f-fmt s-fmt"/>
<text xml:space="preserve" text-anchor="middle" x="370" y="-1700.57" font-family="Helvetica,sans-Serif" font-size="9.50" class="t-ink">signed checkpoint</text>
<text xml:space="preserve" text-anchor="middle" x="370" y="-1690.82" font-family="Helvetica,sans-Serif" font-size="9.50" class="t-ink">every 100 entries</text>
</g>

<g id="edge8" class="edge">
<title>slog&#45;&gt;ckpt</title>
<path fill="none" stroke-width="1.15" stroke-dasharray="5,2" d="M487.5,-1772.04C463.13,-1757.27 428.04,-1736.01 402.56,-1720.57" class="s-fmt"/>
<polygon stroke-width="1.15" points="403.89,-1718.84 397.46,-1717.48 401.64,-1722.55 403.89,-1718.84" class="a-fmt s-fmt"/>
<text xml:space="preserve" text-anchor="middle" x="465.75" y="-1741.5" font-family="Helvetica,sans-Serif" font-size="8.50" class="t-hum">every 100</text>
</g>

<g id="node10" class="node">
<title>seal</title>
<path stroke-width="1.3" d="M590.32,-1717.57C590.32,-1717.57 453.68,-1717.57 453.68,-1717.57 447.77,-1717.57 441.86,-1711.66 441.86,-1705.75 441.86,-1705.75 441.86,-1693.93 441.86,-1693.93 441.86,-1688.02 447.77,-1682.11 453.68,-1682.11 453.68,-1682.11 590.32,-1682.11 590.32,-1682.11 596.24,-1682.11 602.14,-1688.02 602.14,-1693.93 602.14,-1693.93 602.14,-1705.75 602.14,-1705.75 602.14,-1711.66 596.24,-1717.57 590.32,-1717.57" class="f-tra s-tra"/>
<text xml:space="preserve" text-anchor="middle" x="522" y="-1701.12" font-family="Helvetica,sans-Serif" font-size="10.50" class="t-ink">SEAL</text>
<text xml:space="preserve" text-anchor="middle" x="522" y="-1689.87" font-family="Helvetica,sans-Serif" font-size="10.50" class="t-ink">hash logs, sign manifest.json</text>
</g>

<g id="edge10" class="edge">
<title>slog&#45;&gt;seal</title>
<path fill="none" stroke-width="1.15" d="M517.16,-1772.25C518.05,-1759.11 519.29,-1740.76 520.3,-1725.95" class="s-edge"/>
<polygon stroke-width="1.15" points="522.45,-1726.22 520.71,-1719.88 518.12,-1725.92 522.45,-1726.22" class="a-edge s-edge"/>
<text xml:space="preserve" text-anchor="middle" x="537.18" y="-1741.5" font-family="Helvetica,sans-Serif" font-size="8.50" class="t-hum">on submit</text>
</g>

<g id="edge9" class="edge">
<title>ckpt&#45;&gt;slog</title>
<path fill="none" stroke-width="1.15" stroke-dasharray="5,2" d="M419.84,-1714.91C423.61,-1715.85 427.36,-1716.75 431,-1717.57 459.4,-1723.99 541.3,-1718.25 560,-1740.57 567.39,-1749.4 562.1,-1758.85 552.98,-1767.06" class="s-fmt"/>
<polygon stroke-width="1.15" points="551.69,-1765.31 548.24,-1770.89 554.42,-1768.68 551.69,-1765.31" class="a-fmt s-fmt"/>
</g>

<g id="node11" class="node">
<title>bundle</title>
<polygon stroke-width="1.3" points="595.39,-1635.11 442.61,-1635.11 442.61,-1588.4 601.39,-1588.4 601.39,-1629.11 595.39,-1635.11" class="f-tra s-tra"/>
<polyline fill="none" stroke-width="1.3" points="595.39,-1635.11 595.39,-1629.11" class="s-tra"/>
<polyline fill="none" stroke-width="1.3" points="601.39,-1629.11 595.39,-1629.11" class="s-tra"/>
<text xml:space="preserve" text-anchor="middle" x="522" y="-1618.66" font-family="Helvetica,sans-Serif" font-size="10.50" class="t-ink">bundle .zip</text>
<text xml:space="preserve" text-anchor="middle" x="522" y="-1607.41" font-family="Helvetica,sans-Serif" font-size="10.50" class="t-ink">manifest.json + .sig</text>
<text xml:space="preserve" text-anchor="middle" x="522" y="-1596.16" font-family="Helvetica,sans-Serif" font-size="10.50" class="t-ink">*.slog + *.slog.meta + source</text>
</g>

<g id="edge11" class="edge">
<title>seal&#45;&gt;bundle</title>
<path fill="none" stroke-width="1.15" d="M522,-1681.83C522,-1670.88 522,-1656.32 522,-1643.39" class="s-tra"/>
<polygon stroke-width="1.15" points="524.17,-1643.54 522,-1637.34 519.83,-1643.54 524.17,-1643.54" class="a-tra s-tra"/>
</g>

<g id="node12" class="node">
<title>gs</title>
<path stroke-width="1.3" d="M391.92,-1471.05C391.92,-1471.05 351.05,-1488.25 351.05,-1488.25 345.52,-1490.57 333.99,-1492.9 327.99,-1492.9 327.99,-1492.9 226.01,-1492.9 226.01,-1492.9 220.01,-1492.9 208.48,-1490.57 202.95,-1488.25 202.95,-1488.25 162.08,-1471.05 162.08,-1471.05 156.55,-1468.73 156.55,-1464.07 162.08,-1461.74 162.08,-1461.74 202.95,-1444.55 202.95,-1444.55 208.48,-1442.22 220.01,-1439.9 226.01,-1439.9 226.01,-1439.9 327.99,-1439.9 327.99,-1439.9 333.99,-1439.9 345.52,-1442.22 351.05,-1444.55 351.05,-1444.55 391.92,-1461.74 391.92,-1461.74 397.45,-1464.07 397.45,-1468.73 391.92,-1471.05" class="f-hum s-hum"/>
<text xml:space="preserve" text-anchor="middle" x="277" y="-1467.12" font-family="Helvetica,sans-Serif" font-size="9.50" class="t-ink">Gradescope</text>
<text xml:space="preserve" text-anchor="middle" x="277" y="-1457.37" font-family="Helvetica,sans-Serif" font-size="9.50" class="t-ink">auto&#45;extracts the zip on upload</text>
</g>

<g id="edge12" class="edge">
<title>bundle&#45;&gt;gs</title>
<path fill="none" stroke-width="1.15" d="M482.91,-1587.88C440.93,-1563.32 374.07,-1524.2 327.99,-1497.23" class="s-tra"/>
<polygon stroke-width="1.15" points="329.29,-1495.48 322.84,-1494.22 327.1,-1499.23 329.29,-1495.48" class="a-tra s-tra"/>
<text xml:space="preserve" text-anchor="middle" x="472" y="-1552.83" font-family="Helvetica,sans-Serif" font-size="8.50" class="t-hum">student uploads</text>
</g>

<g id="node15" class="node">
<title>upl</title>
<path stroke-width="1.3" d="M607.39,-1487.5C607.39,-1487.5 436.61,-1487.5 436.61,-1487.5 430.61,-1487.5 424.61,-1481.5 424.61,-1475.5 424.61,-1475.5 424.61,-1457.29 424.61,-1457.29 424.61,-1451.29 430.61,-1445.29 436.61,-1445.29 436.61,-1445.29 607.39,-1445.29 607.39,-1445.29 613.39,-1445.29 619.39,-1451.29 619.39,-1457.29 619.39,-1457.29 619.39,-1475.5 619.39,-1475.5 619.39,-1481.5 613.39,-1487.5 607.39,-1487.5" class="f-tra s-tra"/>
<text xml:space="preserve" text-anchor="middle" x="522" y="-1472" font-family="Helvetica,sans-Serif" font-size="9.50" class="t-ink">staff upload</text>
<text xml:space="preserve" text-anchor="middle" x="522" y="-1462.25" font-family="Helvetica,sans-Serif" font-size="9.50" class="t-ink">streamed · chunked+resumable ≥16 MiB</text>
<text xml:space="preserve" text-anchor="middle" x="522" y="-1452.5" font-family="Helvetica,sans-Serif" font-size="9.50" class="t-ink">(nginx caps a body at ~20 MiB)</text>
</g>

<g id="edge13" class="edge">
<title>bundle&#45;&gt;upl</title>
<path fill="none" stroke-width="1.15" stroke-dasharray="5,2" d="M522,-1588.04C522,-1563.03 522,-1522.8 522,-1495.74" class="s-tra"/>
<polygon stroke-width="1.15" points="524.17,-1496.09 522,-1489.89 519.83,-1496.09 524.17,-1496.09" class="a-tra s-tra"/>
<text xml:space="preserve" text-anchor="middle" x="552.38" y="-1557.33" font-family="Helvetica,sans-Serif" font-size="8.50" class="t-hum">or staff uploads</text>
<text xml:space="preserve" text-anchor="middle" x="552.38" y="-1548.33" font-family="Helvetica,sans-Serif" font-size="8.50" class="t-hum">the whole export</text>
</g>

<g id="node16" class="node">
<title>local</title>
<path stroke-width="1.3" stroke-dasharray="5,2" d="M818.77,-1487.5C818.77,-1487.5 653.23,-1487.5 653.23,-1487.5 647.23,-1487.5 641.23,-1481.5 641.23,-1475.5 641.23,-1475.5 641.23,-1457.29 641.23,-1457.29 641.23,-1451.29 647.23,-1445.29 653.23,-1445.29 653.23,-1445.29 818.77,-1445.29 818.77,-1445.29 824.77,-1445.29 830.77,-1451.29 830.77,-1457.29 830.77,-1457.29 830.77,-1475.5 830.77,-1475.5 830.77,-1481.5 824.77,-1487.5 818.77,-1487.5" class="f-ana s-ana"/>
<text xml:space="preserve" text-anchor="middle" x="736" y="-1472" font-family="Helvetica,sans-Serif" font-size="9.50" class="t-ink">/local offline mode</text>
<text xml:space="preserve" text-anchor="middle" x="736" y="-1462.25" font-family="Helvetica,sans-Serif" font-size="9.50" class="t-ink">the same analysis&#45;core runs in the</text>
<text xml:space="preserve" text-anchor="middle" x="736" y="-1452.5" font-family="Helvetica,sans-Serif" font-size="9.50" class="t-ink">browser — no server, nothing uploaded</text>
</g>

<g id="edge38" class="edge">
<title>bundle&#45;&gt;local</title>
<path fill="none" stroke-width="1.15" stroke-dasharray="5,2" d="M556.61,-1588.05C577.83,-1574.09 605.54,-1555.79 630,-1539.4 653.18,-1523.87 679.09,-1506.27 699.49,-1492.36" class="s-ana"/>
<polygon stroke-width="1.15" points="700.58,-1494.25 704.48,-1488.97 698.13,-1490.67 700.58,-1494.25" class="a-ana s-ana"/>
<text xml:space="preserve" text-anchor="middle" x="643.11" y="-1557.33" font-family="Helvetica,sans-Serif" font-size="8.50" class="t-hum">bypass:</text>
<text xml:space="preserve" text-anchor="middle" x="643.11" y="-1548.33" font-family="Helvetica,sans-Serif" font-size="8.50" class="t-hum">no server at all</text>
</g>

<g id="node13" class="node">
<title>pgate</title>
<path stroke-width="1.3" d="M366.95,-1375.9C366.95,-1375.9 279.05,-1375.9 279.05,-1375.9 273.14,-1375.9 267.23,-1369.99 267.23,-1364.08 267.23,-1364.08 267.23,-1352.26 267.23,-1352.26 267.23,-1346.35 273.14,-1340.44 279.05,-1340.44 279.05,-1340.44 366.95,-1340.44 366.95,-1340.44 372.86,-1340.44 378.77,-1346.35 378.77,-1352.26 378.77,-1352.26 378.77,-1364.08 378.77,-1364.08 378.77,-1369.99 372.86,-1375.9 366.95,-1375.9" class="f-tra s-tra"/>
<text xml:space="preserve" text-anchor="middle" x="323" y="-1359.44" font-family="Helvetica,sans-Serif" font-size="10.50" class="t-ink">provgate</text>
<text xml:space="preserve" text-anchor="middle" x="323" y="-1348.19" font-family="Helvetica,sans-Serif" font-size="10.50" class="t-ink">hourly · multi&#45;class</text>
</g>

<g id="edge14" class="edge">
<title>gs&#45;&gt;pgate</title>
<path fill="none" stroke-width="1.15" d="M288.25,-1439.41C295.63,-1422.37 305.22,-1400.22 312.45,-1383.52" class="s-tra"/>
<polygon stroke-width="1.15" points="314.43,-1384.41 314.9,-1377.86 310.45,-1382.69 314.43,-1384.41" class="a-tra s-tra"/>
<text xml:space="preserve" text-anchor="middle" x="342.22" y="-1408.82" font-family="Helvetica,sans-Serif" font-size="8.50" class="t-hum">bulk export</text>
<text xml:space="preserve" text-anchor="middle" x="342.22" y="-1399.82" font-family="Helvetica,sans-Serif" font-size="8.50" class="t-hum">without_evaluations</text>
</g>

<g id="node14" class="node">
<title>prune</title>
<path stroke-width="1.3" d="M403.77,-1293.44C403.77,-1293.44 274.23,-1293.44 274.23,-1293.44 268.23,-1293.44 262.23,-1287.44 262.23,-1281.44 262.23,-1281.44 262.23,-1263.23 262.23,-1263.23 262.23,-1257.23 268.23,-1251.23 274.23,-1251.23 274.23,-1251.23 403.77,-1251.23 403.77,-1251.23 409.77,-1251.23 415.77,-1257.23 415.77,-1263.23 415.77,-1263.23 415.77,-1281.44 415.77,-1281.44 415.77,-1287.44 409.77,-1293.44 403.77,-1293.44" class="f-tra s-tra"/>
<text xml:space="preserve" text-anchor="middle" x="339" y="-1277.93" font-family="Helvetica,sans-Serif" font-size="9.50" class="t-ink">prune to delta</text>
<text xml:space="preserve" text-anchor="middle" x="339" y="-1268.18" font-family="Helvetica,sans-Serif" font-size="9.50" class="t-ink">metadata copied byte&#45;for&#45;byte,</text>
<text xml:space="preserve" text-anchor="middle" x="339" y="-1258.43" font-family="Helvetica,sans-Serif" font-size="9.50" class="t-ink">only folders filtered</text>
</g>

<g id="edge15" class="edge">
<title>pgate&#45;&gt;prune</title>
<path fill="none" stroke-width="1.15" d="M326.32,-1339.79C328.42,-1328.75 331.2,-1314.2 333.62,-1301.53" class="s-edge"/>
<polygon stroke-width="1.15" points="335.71,-1302.14 334.74,-1295.64 331.45,-1301.33 335.71,-1302.14" class="a-edge s-edge"/>
</g>

<g id="node17" class="node">
<title>api</title>
<path stroke-width="1.3" d="M573.7,-1149.08C573.7,-1149.08 454.3,-1149.08 454.3,-1149.08 448.39,-1149.08 442.48,-1143.17 442.48,-1137.26 442.48,-1137.26 442.48,-1125.44 442.48,-1125.44 442.48,-1119.53 448.39,-1113.62 454.3,-1113.62 454.3,-1113.62 573.7,-1113.62 573.7,-1113.62 579.61,-1113.62 585.52,-1119.53 585.52,-1125.44 585.52,-1125.44 585.52,-1137.26 585.52,-1137.26 585.52,-1143.17 579.61,-1149.08 573.7,-1149.08" class="f-srv s-srv"/>
<text xml:space="preserve" text-anchor="middle" x="514" y="-1132.62" font-family="Helvetica,sans-Serif" font-size="10.50" class="t-ink">Hono API</text>
<text xml:space="preserve" text-anchor="middle" x="514" y="-1121.37" font-family="Helvetica,sans-Serif" font-size="10.50" class="t-ink">OAuth · tokens · rate limit</text>
</g>

<g id="edge16" class="edge">
<title>prune&#45;&gt;api</title>
<path fill="none" stroke-width="1.15" d="M358.74,-1250.66C370.85,-1238.4 386.92,-1222.83 402.25,-1210.23 427.35,-1189.58 457.71,-1168.65 480.44,-1153.7" class="s-tra"/>
<polygon stroke-width="1.15" points="481.48,-1155.62 485.48,-1150.41 479.11,-1151.98 481.48,-1155.62" class="a-tra s-tra"/>
<text xml:space="preserve" text-anchor="middle" x="450.62" y="-1220.15" font-family="Helvetica,sans-Serif" font-size="8.50" class="t-hum">POST /ingest:gradescope</text>
<text xml:space="preserve" text-anchor="middle" x="450.62" y="-1211.15" font-family="Helvetica,sans-Serif" font-size="8.50" class="t-hum">write&#45;scoped token</text>
</g>

<g id="edge17" class="edge">
<title>upl&#45;&gt;api</title>
<path fill="none" stroke-width="1.15" d="M521.51,-1444.82C520.11,-1386.59 516.13,-1220.82 514.6,-1157.42" class="s-tra"/>
<polygon stroke-width="1.15" points="516.77,-1157.41 514.45,-1151.26 512.43,-1157.51 516.77,-1157.41" class="a-tra s-tra"/>
</g>

<g id="node18" class="node">
<title>dedup</title>
<path stroke-width="1.3" d="M505.88,-1055.45C505.88,-1055.45 452.88,-1033.89 452.88,-1033.89 447.32,-1031.63 447.32,-1027.11 452.88,-1024.85 452.88,-1024.85 505.88,-1003.29 505.88,-1003.29 511.44,-1001.03 522.56,-1001.03 528.12,-1003.29 528.12,-1003.29 581.12,-1024.85 581.12,-1024.85 586.68,-1027.11 586.68,-1031.63 581.12,-1033.89 581.12,-1033.89 528.12,-1055.45 528.12,-1055.45 522.56,-1057.71 511.44,-1057.71 505.88,-1055.45" class="f-panel s-srv"/>
<text xml:space="preserve" text-anchor="middle" x="517" y="-1035.44" font-family="Helvetica,sans-Serif" font-size="9.00" class="t-ink">seen this</text>
<text xml:space="preserve" text-anchor="middle" x="517" y="-1025.69" font-family="Helvetica,sans-Serif" font-size="9.00" class="t-ink">blob_sha256</text>
<text xml:space="preserve" text-anchor="middle" x="517" y="-1015.94" font-family="Helvetica,sans-Serif" font-size="9.00" class="t-ink">before?</text>
</g>

<g id="edge18" class="edge">
<title>api&#45;&gt;dedup</title>
<path fill="none" stroke-width="1.15" d="M514.51,-1113.39C514.89,-1100.84 515.41,-1083.28 515.88,-1067.53" class="s-edge"/>
<polygon stroke-width="1.15" points="518.04,-1067.98 516.06,-1061.72 513.7,-1067.85 518.04,-1067.98" class="a-edge s-edge"/>
</g>

<g id="node19" class="node">
<title>skip</title>
<path stroke-width="1.3" stroke-dasharray="5,2" d="M531.7,-943.05C531.7,-943.05 454.3,-943.05 454.3,-943.05 448.39,-943.05 442.48,-937.14 442.48,-931.23 442.48,-931.23 442.48,-919.41 442.48,-919.41 442.48,-913.5 448.39,-907.59 454.3,-907.59 454.3,-907.59 531.7,-907.59 531.7,-907.59 537.61,-907.59 543.52,-913.5 543.52,-919.41 543.52,-919.41 543.52,-931.23 543.52,-931.23 543.52,-937.14 537.61,-943.05 531.7,-943.05" class="f-hum s-hum"/>
<text xml:space="preserve" text-anchor="middle" x="493" y="-926.59" font-family="Helvetica,sans-Serif" font-size="10.50" class="t-hum">skip</text>
<text xml:space="preserve" text-anchor="middle" x="493" y="-915.34" font-family="Helvetica,sans-Serif" font-size="10.50" class="t-hum">cheap by design</text>
</g>

<g id="edge19" class="edge">
<title>dedup&#45;&gt;skip</title>
<path fill="none" stroke-width="1.15" stroke-dasharray="5,2" d="M510.51,-1000.75C506.86,-985.27 502.36,-966.12 498.83,-951.12" class="s-hum"/>
<polygon stroke-width="1.15" points="501.02,-950.93 497.48,-945.39 496.79,-951.92 501.02,-950.93" class="a-hum s-hum"/>
<text xml:space="preserve" text-anchor="middle" x="508.78" y="-967.69" font-family="Helvetica,sans-Serif" font-size="8.50" class="t-hum">hit</text>
</g>

<g id="node20" class="node">
<title>queue</title>
<polygon stroke-width="1.3" points="704.28,-937.77 565.72,-937.77 565.72,-912.87 704.28,-912.87 716.28,-925.32 704.28,-937.77" class="f-srv s-srv"/>
<text xml:space="preserve" text-anchor="middle" x="641" y="-926.59" font-family="Helvetica,sans-Serif" font-size="10.50" class="t-ink">pg&#45;boss</text>
<text xml:space="preserve" text-anchor="middle" x="641" y="-915.34" font-family="Helvetica,sans-Serif" font-size="10.50" class="t-ink">one job per submission</text>
</g>

<g id="edge20" class="edge">
<title>dedup&#45;&gt;queue</title>
<path fill="none" stroke-width="1.15" d="M541.5,-1008.21C562.06,-991.29 591.42,-967.12 612.92,-949.42" class="s-srv"/>
<polygon stroke-width="1.15" points="614.29,-951.11 617.7,-945.49 611.54,-947.76 614.29,-951.11" class="a-srv s-srv"/>
<text xml:space="preserve" text-anchor="middle" x="599.11" y="-967.69" font-family="Helvetica,sans-Serif" font-size="8.50" class="t-hum">miss</text>
</g>

<g id="node21" class="node">
<title>pipe</title>
<path stroke-width="1.3" d="M737.39,-782.12C737.39,-782.12 518.61,-782.12 518.61,-782.12 512.61,-782.12 506.61,-776.12 506.61,-770.12 506.61,-770.12 506.61,-756.41 506.61,-756.41 506.61,-750.41 512.61,-744.41 518.61,-744.41 518.61,-744.41 737.39,-744.41 737.39,-744.41 743.39,-744.41 749.39,-750.41 749.39,-756.41 749.39,-756.41 749.39,-770.12 749.39,-770.12 749.39,-776.12 743.39,-782.12 737.39,-782.12" class="f-srv s-srv"/>
<text xml:space="preserve" text-anchor="middle" x="628" y="-765.66" font-family="Helvetica,sans-Serif" font-size="10.50" class="t-ink">ingest pipeline</text>
<text xml:space="preserve" text-anchor="middle" x="628" y="-754.41" font-family="Helvetica,sans-Serif" font-size="10.50" class="t-ink">parse → match → stats · validation · heuristics</text>
</g>

<g id="edge21" class="edge">
<title>queue&#45;&gt;pipe</title>
<path fill="none" stroke-width="1.15" d="M639.53,-906.27C637.24,-878.01 632.78,-823.17 630.13,-790.53" class="s-edge"/>
<polygon stroke-width="1.15" points="632.31,-790.48 629.64,-784.47 627.98,-790.83 632.31,-790.48" class="a-edge s-edge"/>
</g>

<g id="node28" class="node">
<title>cross</title>
<path stroke-width="1.3" d="M406.27,-793.37C406.27,-793.37 225.73,-793.37 225.73,-793.37 219.73,-793.37 213.73,-787.37 213.73,-781.37 213.73,-781.37 213.73,-745.16 213.73,-745.16 213.73,-739.16 219.73,-733.16 225.73,-733.16 225.73,-733.16 406.27,-733.16 406.27,-733.16 412.27,-733.16 418.27,-739.16 418.27,-745.16 418.27,-745.16 418.27,-781.37 418.27,-781.37 418.27,-787.37 412.27,-793.37 406.27,-793.37" class="f-ana s-ana"/>
<text xml:space="preserve" text-anchor="middle" x="316" y="-776.91" font-family="Helvetica,sans-Serif" font-size="10.50" class="t-ink">2 cross&#45;submission heuristics</text>
<text xml:space="preserve" text-anchor="middle" x="316" y="-765.66" font-family="Helvetica,sans-Serif" font-size="10.50" class="t-ink">shared paste · pattern clone</text>
<text xml:space="preserve" text-anchor="middle" x="316" y="-754.41" font-family="Helvetica,sans-Serif" font-size="10.50" class="t-ink">NOT a pipeline stage → cross_flags,</text>
<text xml:space="preserve" text-anchor="middle" x="316" y="-740.91" font-family="Helvetica,sans-Serif" font-size="10.50" class="t-ink">the semester&#39;s set replaced atomically</text>
</g>

<g id="edge26" class="edge">
<title>queue&#45;&gt;cross</title>
<path fill="none" stroke-width="1.15" stroke-dasharray="5,2" d="M565.11,-908.41C561.7,-907.86 558.32,-907.34 555,-906.87 524.18,-902.49 296.84,-906.77 275.75,-883.87 254.61,-860.91 269.45,-826.48 286.78,-800.44" class="s-ana"/>
<polygon stroke-width="1.15" points="288.49,-801.78 290.23,-795.45 284.92,-799.32 288.49,-801.78" class="a-ana s-ana"/>
<text xml:space="preserve" text-anchor="middle" x="344.38" y="-875.79" font-family="Helvetica,sans-Serif" font-size="8.50" class="t-hum">ingest_finalize enqueues ONE</text>
<text xml:space="preserve" text-anchor="middle" x="344.38" y="-866.79" font-family="Helvetica,sans-Serif" font-size="8.50" class="t-hum">semester&#45;scoped job (singletonKey):</text>
<text xml:space="preserve" text-anchor="middle" x="344.38" y="-857.79" font-family="Helvetica,sans-Serif" font-size="8.50" class="t-hum">once per batch,</text>
<text xml:space="preserve" text-anchor="middle" x="344.38" y="-848.79" font-family="Helvetica,sans-Serif" font-size="8.50" class="t-hum">never per bundle</text>
</g>

<g id="node22" class="node">
<title>strip</title>
<path stroke-width="1.3" d="M670.2,-676.66C670.2,-676.66 575.8,-676.66 575.8,-676.66 570.39,-676.66 564.98,-671.25 564.98,-665.84 564.98,-665.84 564.98,-655.02 564.98,-655.02 564.98,-649.61 570.39,-644.2 575.8,-644.2 575.8,-644.2 670.2,-644.2 670.2,-644.2 675.61,-644.2 681.02,-649.61 681.02,-655.02 681.02,-655.02 681.02,-665.84 681.02,-665.84 681.02,-671.25 675.61,-676.66 670.2,-676.66" class="f-rec s-rec"/>
<text xml:space="preserve" text-anchor="middle" x="623" y="-661.15" font-family="Helvetica,sans-Serif" font-size="9.50" class="t-ink">strip student source</text>
<text xml:space="preserve" text-anchor="middle" x="623" y="-651.4" font-family="Helvetica,sans-Serif" font-size="9.50" class="t-ink">store provenance&#45;only</text>
</g>

<g id="edge27" class="edge">
<title>pipe&#45;&gt;strip</title>
<path fill="none" stroke-width="1.15" d="M627.08,-743.77C626.26,-727.2 625.05,-702.82 624.16,-684.89" class="s-rec"/>
<polygon stroke-width="1.15" points="626.34,-684.98 623.87,-678.89 622.01,-685.19 626.34,-684.98" class="a-rec s-rec"/>
<text xml:space="preserve" text-anchor="middle" x="656.1" y="-702.08" font-family="Helvetica,sans-Serif" font-size="8.50" class="t-hum">after all compute</text>
</g>

<g id="node26" class="node">
<title>valid</title>
<path stroke-width="1.3" d="M179.82,-780.99C179.82,-780.99 46.18,-780.99 46.18,-780.99 40.27,-780.99 34.36,-775.08 34.36,-769.17 34.36,-769.17 34.36,-757.35 34.36,-757.35 34.36,-751.44 40.27,-745.53 46.18,-745.53 46.18,-745.53 179.82,-745.53 179.82,-745.53 185.73,-745.53 191.64,-751.44 191.64,-757.35 191.64,-757.35 191.64,-769.17 191.64,-769.17 191.64,-775.08 185.73,-780.99 179.82,-780.99" class="f-ana s-ana"/>
<text xml:space="preserve" text-anchor="middle" x="113" y="-764.54" font-family="Helvetica,sans-Serif" font-size="10.50" class="t-ink">8 validation checks</text>
<text xml:space="preserve" text-anchor="middle" x="113" y="-753.29" font-family="Helvetica,sans-Serif" font-size="10.50" class="t-ink">chain · sigs · ordering · code</text>
</g>

<g id="edge22" class="edge">
<title>pipe&#45;&gt;valid</title>
<path fill="none" stroke-width="1.15" d="M604.98,-782.69C578.08,-804.02 531.24,-836.96 484.38,-850.02 366.3,-882.91 321.24,-885.74 210.07,-842.64" class="s-ana"/>
<polygon stroke-width="1.15" points="211.19,-840.74 204.62,-840.5 209.6,-844.78 211.19,-840.74" class="a-ana s-ana"/>
<text xml:space="preserve" text-anchor="middle" x="451" y="-866.79" font-family="Helvetica,sans-Serif" font-size="8.50" class="t-hum">in&#45;memory bundle</text>
<text xml:space="preserve" text-anchor="middle" x="451" y="-857.79" font-family="Helvetica,sans-Serif" font-size="8.50" class="t-hum">still has source</text>
</g>

<g id="node24" class="node">
<title>blob</title>
<path stroke-width="1.3" d="M684.64,-591.27C684.64,-593.71 645.36,-595.7 597,-595.7 548.64,-595.7 509.36,-593.71 509.36,-591.27 509.36,-591.27 509.36,-551.37 509.36,-551.37 509.36,-548.93 548.64,-546.94 597,-546.94 645.36,-546.94 684.64,-548.93 684.64,-551.37 684.64,-551.37 684.64,-591.27 684.64,-591.27" class="f-srv s-srv"/>
<path fill="none" stroke-width="1.3" d="M684.64,-591.27C684.64,-588.82 645.36,-586.83 597,-586.83 548.64,-586.83 509.36,-588.82 509.36,-591.27" class="s-srv"/>
<text xml:space="preserve" text-anchor="middle" x="597" y="-572.59" font-family="Helvetica,sans-Serif" font-size="10.50" class="t-ink">Blob store</text>
<text xml:space="preserve" text-anchor="middle" x="597" y="-561.34" font-family="Helvetica,sans-Serif" font-size="10.50" class="t-ink">/home/submit/provenance · 1TB</text>
</g>

<g id="edge28" class="edge">
<title>strip&#45;&gt;blob</title>
<path fill="none" stroke-width="1.15" d="M618.35,-643.85C615.02,-632.71 610.43,-617.32 606.36,-603.67" class="s-srv"/>
<polygon stroke-width="1.15" points="608.51,-603.29 604.66,-597.97 604.35,-604.53 608.51,-603.29" class="a-srv s-srv"/>
</g>

<g id="node23" class="node">
<title>pg</title>
<path stroke-width="1.3" d="M756.14,-1151.29C756.14,-1153.74 722.91,-1155.73 682,-1155.73 641.09,-1155.73 607.86,-1153.74 607.86,-1151.29 607.86,-1151.29 607.86,-1111.4 607.86,-1111.4 607.86,-1108.95 641.09,-1106.97 682,-1106.97 722.91,-1106.97 756.14,-1108.95 756.14,-1111.4 756.14,-1111.4 756.14,-1151.29 756.14,-1151.29" class="f-srv s-srv"/>
<path fill="none" stroke-width="1.3" d="M756.14,-1151.29C756.14,-1148.85 722.91,-1146.86 682,-1146.86 641.09,-1146.86 607.86,-1148.85 607.86,-1151.29" class="s-srv"/>
<text xml:space="preserve" text-anchor="middle" x="682" y="-1132.62" font-family="Helvetica,sans-Serif" font-size="10.50" class="t-ink">Postgres</text>
<text xml:space="preserve" text-anchor="middle" x="682" y="-1121.37" font-family="Helvetica,sans-Serif" font-size="10.50" class="t-ink">21 tables · no events table</text>
</g>

<g id="node30" class="node">
<title>spa</title>
<path stroke-width="1.3" d="M648.07,-363.98C648.07,-363.98 563.93,-363.98 563.93,-363.98 558.01,-363.98 552.11,-358.07 552.11,-352.16 552.11,-352.16 552.11,-340.34 552.11,-340.34 552.11,-334.43 558.01,-328.52 563.93,-328.52 563.93,-328.52 648.07,-328.52 648.07,-328.52 653.99,-328.52 659.89,-334.43 659.89,-340.34 659.89,-340.34 659.89,-352.16 659.89,-352.16 659.89,-358.07 653.99,-363.98 648.07,-363.98" class="f-uix s-uix"/>
<text xml:space="preserve" text-anchor="middle" x="606" y="-347.53" font-family="Helvetica,sans-Serif" font-size="10.50" class="t-ink">Analyzer SPA</text>
<text xml:space="preserve" text-anchor="middle" x="606" y="-336.28" font-family="Helvetica,sans-Serif" font-size="10.50" class="t-ink">cohort list, ranked</text>
</g>

<g id="edge29" class="edge">
<title>pg&#45;&gt;spa</title>
<path fill="none" stroke-width="1.15" d="M732.99,-1106.32C760.55,-1089.46 789,-1063.93 789,-1030.37 789,-1030.37 789,-1030.37 789,-474.71 789,-414.25 720.91,-380.12 667.8,-362.7" class="s-uix"/>
<polygon stroke-width="1.15" points="668.64,-360.69 662.07,-360.88 667.32,-364.83 668.64,-360.69" class="a-uix s-uix"/>
<text xml:space="preserve" text-anchor="middle" x="823.12" y="-702.08" font-family="Helvetica,sans-Serif" font-size="8.50" class="t-hum">cohort, flags, stats</text>
</g>

<g id="node25" class="node">
<title>reparse</title>
<path stroke-width="1.3" d="M634.7,-491.94C634.7,-491.94 543.3,-491.94 543.3,-491.94 537.89,-491.94 532.48,-486.53 532.48,-481.12 532.48,-481.12 532.48,-470.3 532.48,-470.3 532.48,-464.89 537.89,-459.48 543.3,-459.48 543.3,-459.48 634.7,-459.48 634.7,-459.48 640.11,-459.48 645.52,-464.89 645.52,-470.3 645.52,-470.3 645.52,-481.12 645.52,-481.12 645.52,-486.53 640.11,-491.94 634.7,-491.94" class="f-srv s-srv"/>
<text xml:space="preserve" text-anchor="middle" x="589" y="-476.44" font-family="Helvetica,sans-Serif" font-size="9.50" class="t-ink">loadSubmissionIndex</text>
<text xml:space="preserve" text-anchor="middle" x="589" y="-466.69" font-family="Helvetica,sans-Serif" font-size="9.50" class="t-ink">LRU&#45;cached re&#45;parse</text>
</g>

<g id="edge30" class="edge">
<title>blob&#45;&gt;reparse</title>
<path fill="none" stroke-width="1.15" d="M594.98,-546.7C593.77,-532.48 592.23,-514.45 591.01,-500.25" class="s-srv"/>
<polygon stroke-width="1.15" points="593.18,-500.11 590.49,-494.12 588.85,-500.48 593.18,-500.11" class="a-srv s-srv"/>
<text xml:space="preserve" text-anchor="middle" x="613.25" y="-515.87" font-family="Helvetica,sans-Serif" font-size="8.50" class="t-hum">on demand</text>
</g>

<g id="edge31" class="edge">
<title>reparse&#45;&gt;spa</title>
<path fill="none" stroke-width="1.15" d="M591.08,-459.08C593.98,-437.37 599.25,-397.84 602.69,-372.07" class="s-srv"/>
<polygon stroke-width="1.15" points="604.84,-372.38 603.51,-365.95 600.54,-371.81 604.84,-372.38" class="a-srv s-srv"/>
<text xml:space="preserve" text-anchor="middle" x="623.48" y="-428.41" font-family="Helvetica,sans-Serif" font-size="8.50" class="t-hum">events, replay,</text>
<text xml:space="preserve" text-anchor="middle" x="623.48" y="-419.41" font-family="Helvetica,sans-Serif" font-size="8.50" class="t-hum">source tab</text>
</g>

<g id="node27" class="node">
<title>heur</title>
<path stroke-width="1.3" d="M197.82,-678.16C197.82,-678.16 46.18,-678.16 46.18,-678.16 40.27,-678.16 34.36,-672.25 34.36,-666.34 34.36,-666.34 34.36,-654.52 34.36,-654.52 34.36,-648.61 40.27,-642.7 46.18,-642.7 46.18,-642.7 197.82,-642.7 197.82,-642.7 203.73,-642.7 209.64,-648.61 209.64,-654.52 209.64,-654.52 209.64,-666.34 209.64,-666.34 209.64,-672.25 203.73,-678.16 197.82,-678.16" class="f-ana s-ana"/>
<text xml:space="preserve" text-anchor="middle" x="122" y="-661.7" font-family="Helvetica,sans-Serif" font-size="10.50" class="t-ink">18 per&#45;submission heuristics</text>
<text xml:space="preserve" text-anchor="middle" x="122" y="-650.45" font-family="Helvetica,sans-Serif" font-size="10.50" class="t-ink">process · environment · integrity</text>
</g>

<g id="edge23" class="edge">
<title>valid&#45;&gt;heur</title>
<path fill="none" stroke-width="1.15" d="M114.53,-745.16C115.97,-728.93 118.17,-704.38 119.8,-686.05" class="s-edge"/>
<polygon stroke-width="1.15" points="121.92,-686.72 120.31,-680.35 117.6,-686.33 121.92,-686.72" class="a-edge s-edge"/>
</g>

<g id="node29" class="node">
<title>flags</title>
<path stroke-width="1.3" d="M189.02,-590.17C189.02,-590.17 48.98,-590.17 48.98,-590.17 42.98,-590.17 36.98,-584.17 36.98,-578.17 36.98,-578.17 36.98,-564.46 36.98,-564.46 36.98,-558.46 42.98,-552.46 48.98,-552.46 48.98,-552.46 189.02,-552.46 189.02,-552.46 195.02,-552.46 201.02,-558.46 201.02,-564.46 201.02,-564.46 201.02,-578.17 201.02,-578.17 201.02,-584.17 195.02,-590.17 189.02,-590.17" class="f-ana s-ana"/>
<text xml:space="preserve" text-anchor="middle" x="119" y="-573.72" font-family="Helvetica,sans-Serif" font-size="10.50" class="t-ink">ranked flags</text>
<text xml:space="preserve" text-anchor="middle" x="119" y="-562.47" font-family="Helvetica,sans-Serif" font-size="10.50" class="t-ink">severity ↓ confidence ↓ seq ↑</text>
</g>

<g id="edge24" class="edge">
<title>heur&#45;&gt;flags</title>
<path fill="none" stroke-width="1.15" d="M121.41,-642.22C120.98,-629.78 120.39,-612.76 119.91,-598.63" class="s-edge"/>
<polygon stroke-width="1.15" points="122.08,-598.56 119.69,-592.44 117.74,-598.71 122.08,-598.56" class="a-edge s-edge"/>
</g>

<g id="edge25" class="edge">
<title>flags&#45;&gt;pg</title>
<path fill="none" stroke-width="1.15" d="M60.55,-590.82C30.45,-604.37 0,-626.27 0,-659.43 0,-1030.37 0,-1030.37 0,-1030.37 0,-1097.24 531.43,-1093.81 597,-1106.97 597.97,-1107.16 598.95,-1107.36 599.93,-1107.57" class="s-srv"/>
<polygon stroke-width="1.15" points="599.29,-1109.65 605.81,-1108.85 600.22,-1105.41 599.29,-1109.65" class="a-srv s-srv"/>
<text xml:space="preserve" text-anchor="middle" x="12.75" y="-862.29" font-family="Helvetica,sans-Serif" font-size="8.50" class="t-hum">persist</text>
</g>

<g id="node31" class="node">
<title>triage</title>
<path stroke-width="1.3" d="M595.68,-275.4C595.68,-275.4 567.71,-258.84 567.71,-258.84 562.55,-255.78 562.55,-249.66 567.71,-246.6 567.71,-246.6 595.68,-230.04 595.68,-230.04 600.84,-226.98 611.16,-226.98 616.32,-230.04 616.32,-230.04 644.29,-246.6 644.29,-246.6 649.45,-249.66 649.45,-255.78 644.29,-258.84 644.29,-258.84 616.32,-275.4 616.32,-275.4 611.16,-278.46 600.84,-278.46 595.68,-275.4" class="f-uix s-uix"/>
<text xml:space="preserve" text-anchor="middle" x="606" y="-253.92" font-family="Helvetica,sans-Serif" font-size="9.00" class="t-ink">worth a</text>
<text xml:space="preserve" text-anchor="middle" x="606" y="-244.17" font-family="Helvetica,sans-Serif" font-size="9.00" class="t-ink">human?</text>
</g>

<g id="edge32" class="edge">
<title>spa&#45;&gt;triage</title>
<path fill="none" stroke-width="1.15" d="M606,-328.03C606,-317.21 606,-302.84 606,-289.63" class="s-edge"/>
<polygon stroke-width="1.15" points="608.17,-289.95 606,-283.75 603.83,-289.95 608.17,-289.95" class="a-edge s-edge"/>
</g>

<g id="node32" class="node">
<title>drill</title>
<path stroke-width="1.3" d="M646.52,-168.92C646.52,-168.92 521.48,-168.92 521.48,-168.92 515.48,-168.92 509.48,-162.92 509.48,-156.92 509.48,-156.92 509.48,-134.21 509.48,-134.21 509.48,-128.21 515.48,-122.21 521.48,-122.21 521.48,-122.21 646.52,-122.21 646.52,-122.21 652.52,-122.21 658.52,-128.21 658.52,-134.21 658.52,-134.21 658.52,-156.92 658.52,-156.92 658.52,-162.92 652.52,-168.92 646.52,-168.92" class="f-uix s-uix"/>
<text xml:space="preserve" text-anchor="middle" x="584" y="-152.47" font-family="Helvetica,sans-Serif" font-size="10.50" class="t-ink">drill in — six tabs</text>
<text xml:space="preserve" text-anchor="middle" x="584" y="-141.22" font-family="Helvetica,sans-Serif" font-size="10.50" class="t-ink">overview · timeline · replay</text>
<text xml:space="preserve" text-anchor="middle" x="584" y="-129.97" font-family="Helvetica,sans-Serif" font-size="10.50" class="t-ink">validation · export · source</text>
</g>

<g id="edge34" class="edge">
<title>triage&#45;&gt;drill</title>
<path fill="none" stroke-width="1.15" d="M600.73,-226.53C597.61,-211.6 593.63,-192.58 590.33,-176.83" class="s-uix"/>
<polygon stroke-width="1.15" points="592.53,-176.72 589.13,-171.1 588.28,-177.61 592.53,-176.72" class="a-uix s-uix"/>
<text xml:space="preserve" text-anchor="middle" x="601.75" y="-192.85" font-family="Helvetica,sans-Serif" font-size="8.50" class="t-hum">yes</text>
</g>

<g id="node34" class="node">
<title>close</title>
<path stroke-width="1.3" stroke-dasharray="5,2" d="M738.63,-158.53C738.63,-158.53 689.37,-158.53 689.37,-158.53 685.05,-158.53 680.73,-154.21 680.73,-149.88 680.73,-149.88 680.73,-141.25 680.73,-141.25 680.73,-136.92 685.05,-132.6 689.37,-132.6 689.37,-132.6 738.63,-132.6 738.63,-132.6 742.95,-132.6 747.27,-136.92 747.27,-141.25 747.27,-141.25 747.27,-149.88 747.27,-149.88 747.27,-154.21 742.95,-158.53 738.63,-158.53" class="f-hum s-hum"/>
<text xml:space="preserve" text-anchor="middle" x="714" y="-141.22" font-family="Helvetica,sans-Serif" font-size="10.50" class="t-hum">no action</text>
</g>

<g id="edge33" class="edge">
<title>triage&#45;&gt;close</title>
<path fill="none" stroke-width="1.15" stroke-dasharray="5,2" d="M620,-231.84C629.03,-219.68 641.39,-204.16 654,-191.92 664.57,-181.65 677.48,-171.62 688.61,-163.62" class="s-hum"/>
<polygon stroke-width="1.15" points="689.7,-165.51 693.51,-160.16 687.2,-161.96 689.7,-165.51" class="a-hum s-hum"/>
<text xml:space="preserve" text-anchor="middle" x="658.5" y="-192.85" font-family="Helvetica,sans-Serif" font-size="8.50" class="t-hum">no</text>
</g>

<g id="node33" class="node">
<title>tune</title>
<path stroke-width="1.3" d="M626.02,-58.21C626.02,-58.21 485.98,-58.21 485.98,-58.21 479.98,-58.21 473.98,-52.21 473.98,-46.21 473.98,-46.21 473.98,-28 473.98,-28 473.98,-22 479.98,-16 485.98,-16 485.98,-16 626.02,-16 626.02,-16 632.02,-16 638.02,-22 638.02,-28 638.02,-28 638.02,-46.21 638.02,-46.21 638.02,-52.21 632.02,-58.21 626.02,-58.21" class="f-uix s-uix"/>
<text xml:space="preserve" text-anchor="middle" x="556" y="-42.71" font-family="Helvetica,sans-Serif" font-size="9.50" class="t-ink">tuning UI</text>
<text xml:space="preserve" text-anchor="middle" x="556" y="-32.96" font-family="Helvetica,sans-Serif" font-size="9.50" class="t-ink">25 flag weights (0.0–2.0) + on/off</text>
<text xml:space="preserve" text-anchor="middle" x="556" y="-23.21" font-family="Helvetica,sans-Serif" font-size="9.50" class="t-ink">not the heuristics&#39; own thresholds</text>
</g>

<g id="edge36" class="edge">
<title>drill&#45;&gt;tune</title>
<path fill="none" stroke-width="1.15" stroke-dasharray="5,2" d="M577.99,-121.73C573.73,-105.51 567.98,-83.64 563.43,-66.34" class="s-uix"/>
<polygon stroke-width="1.15" points="565.55,-65.87 561.87,-60.43 561.35,-66.97 565.55,-65.87" class="a-uix s-uix"/>
<text xml:space="preserve" text-anchor="middle" x="585.93" y="-91.14" font-family="Helvetica,sans-Serif" font-size="8.50" class="t-hum">weights</text>
<text xml:space="preserve" text-anchor="middle" x="585.93" y="-82.14" font-family="Helvetica,sans-Serif" font-size="8.50" class="t-hum">wrong</text>
</g>

<g id="node35" class="node">
<title>exp</title>
<path stroke-width="1.3" stroke-dasharray="5,2" d="M849.77,-58.21C849.77,-58.21 672.23,-58.21 672.23,-58.21 666.23,-58.21 660.23,-52.21 660.23,-46.21 660.23,-46.21 660.23,-28 660.23,-28 660.23,-22 666.23,-16 672.23,-16 672.23,-16 849.77,-16 849.77,-16 855.77,-16 861.77,-22 861.77,-28 861.77,-28 861.77,-46.21 861.77,-46.21 861.77,-52.21 855.77,-58.21 849.77,-58.21" class="f-hum s-hum"/>
<text xml:space="preserve" text-anchor="middle" x="761" y="-42.71" font-family="Helvetica,sans-Serif" font-size="9.50" class="t-hum">findings export</text>
<text xml:space="preserve" text-anchor="middle" x="761" y="-32.96" font-family="Helvetica,sans-Serif" font-size="9.50" class="t-hum">markdown + PDF w/ replay shots</text>
<text xml:space="preserve" text-anchor="middle" x="761" y="-23.21" font-family="Helvetica,sans-Serif" font-size="9.50" class="t-hum">/local only — the Export tab is a v3.1 stub</text>
</g>

<g id="edge35" class="edge">
<title>drill&#45;&gt;exp</title>
<path fill="none" stroke-width="1.15" stroke-dasharray="5,2" d="M621.97,-121.73C650.87,-104.35 690.58,-80.46 720.16,-62.67" class="s-hum"/>
<polygon stroke-width="1.15" points="721,-64.7 725.2,-59.64 718.76,-60.98 721,-64.7" class="a-hum s-hum"/>
<text xml:space="preserve" text-anchor="middle" x="719.85" y="-91.14" font-family="Helvetica,sans-Serif" font-size="8.50" class="t-hum">Export tab —</text>
<text xml:space="preserve" text-anchor="middle" x="719.85" y="-82.14" font-family="Helvetica,sans-Serif" font-size="8.50" class="t-hum">stub, not shipped</text>
</g>

<g id="edge37" class="edge">
<title>tune&#45;&gt;queue</title>
<path fill="none" stroke-width="1.15" stroke-dasharray="5,2" d="M638.54,-56.22C687.65,-67.15 740.87,-79.33 743,-81.21 757.55,-94.05 754.61,-103.1 758,-122.21 795.03,-331.19 832.35,-433.06 696,-595.7 653.29,-646.64 606.51,-601.93 554,-642.7 516.28,-671.98 509.43,-687.33 496,-733.16 482.66,-778.67 472.36,-798.75 496,-839.87 513.2,-869.8 545.55,-890.11 575.33,-903.3" class="s-uix"/>
<polygon stroke-width="1.15" points="574.28,-905.21 580.84,-905.65 575.99,-901.22 574.28,-905.21" class="a-uix s-uix"/>
<text xml:space="preserve" text-anchor="middle" x="811.65" y="-472.14" font-family="Helvetica,sans-Serif" font-size="8.50" class="t-hum">recompute cohort</text>
</g>
</g>
</svg>