<svg width="758pt" height="1530pt"
 viewBox="0.00 0.00 758.00 1530.00" xmlns="http://www.w3.org/2000/svg" xmlns:xlink="http://www.w3.org/1999/xlink">
<g id="graph0" class="graph" transform="scale(1 1) rotate(0) translate(4 1525.74)">
<title>provgate</title>
<g id="clust1" class="cluster">
<title>cluster_store</title>
<path stroke-width="1.5" d="M197.18,-1359.02C197.18,-1359.02 365.18,-1359.02 365.18,-1359.02 371.18,-1359.02 377.18,-1365.02 377.18,-1371.02 377.18,-1371.02 377.18,-1501.74 377.18,-1501.74 377.18,-1507.74 371.18,-1513.74 365.18,-1513.74 365.18,-1513.74 197.18,-1513.74 197.18,-1513.74 191.18,-1513.74 185.18,-1507.74 185.18,-1501.74 185.18,-1501.74 185.18,-1371.02 185.18,-1371.02 185.18,-1365.02 191.18,-1359.02 197.18,-1359.02" class="f-srv s-srv"/>
<text xml:space="preserve" text-anchor="middle" x="279.8" y="-1500.71" font-family="Helvetica,sans-Serif" font-size="9.50" class="t-srv"> &#160;store/ — the only place SQL is written &#160;</text>
</g>
<g id="clust2" class="cluster">
<title>cluster_gs</title>
<path stroke-width="1.5" d="M23.17,-814.14C23.17,-814.14 307.18,-814.14 307.18,-814.14 313.18,-814.14 319.18,-820.14 319.18,-826.14 319.18,-826.14 319.18,-1228.75 319.18,-1228.75 319.18,-1234.75 313.18,-1240.75 307.18,-1240.75 307.18,-1240.75 23.18,-1240.75 23.18,-1240.75 17.17,-1240.75 11.17,-1234.75 11.17,-1228.75 11.17,-1228.75 11.17,-826.14 11.17,-826.14 11.17,-820.14 17.17,-814.14 23.17,-814.14" class="f-hum s-hum"/>
<text xml:space="preserve" text-anchor="middle" x="165.05" y="-1227.72" font-family="Helvetica,sans-Serif" font-size="9.50" class="t-hum"> &#160;gradescope/ — all undocumented&#45;API fragility is quarantined here &#160;</text>
</g>
<g id="clust3" class="cluster">
<title>cluster_sync</title>
<path stroke-width="1.5" d="M37.17,-419.93C37.17,-419.93 365.18,-419.93 365.18,-419.93 371.17,-419.93 377.18,-425.93 377.18,-431.93 377.18,-431.93 377.18,-775.14 377.18,-775.14 377.18,-781.14 371.18,-787.14 365.18,-787.14 365.18,-787.14 37.17,-787.14 37.17,-787.14 31.18,-787.14 25.17,-781.14 25.17,-775.14 25.17,-775.14 25.17,-431.93 25.17,-431.93 25.17,-425.93 31.17,-419.93 37.17,-419.93" class="f-tra s-tra"/>
<text xml:space="preserve" text-anchor="middle" x="185.8" y="-774.12" font-family="Helvetica,sans-Serif" font-size="9.50" class="t-tra"> &#160;sync/ — orchestration; prune is a pure function over in&#45;memory bytes &#160;</text>
</g>
<g id="clust4" class="cluster">
<title>cluster_prov</title>
<path stroke-width="1.5" d="M397.18,-257.31C397.18,-257.31 700.17,-257.31 700.17,-257.31 706.17,-257.31 712.17,-263.31 712.17,-269.31 712.17,-269.31 712.17,-482.45 712.17,-482.45 712.17,-488.45 706.17,-494.45 700.17,-494.45 700.17,-494.45 397.18,-494.45 397.18,-494.45 391.18,-494.45 385.18,-488.45 385.18,-482.45 385.18,-482.45 385.18,-269.31 385.18,-269.31 385.18,-263.31 391.18,-257.31 397.18,-257.31" class="f-srv s-srv"/>
<text xml:space="preserve" text-anchor="middle" x="548.42" y="-481.42" font-family="Helvetica,sans-Serif" font-size="9.50" class="t-srv"> &#160;provenance/ — the only module that knows Provenance&#39;s HTTP shape &#160;</text>
</g>

<g id="node1" class="node">
<title>cron</title>
<path stroke-width="1.3" d="M162.13,-1402.91C162.13,-1402.91 38.21,-1402.91 38.21,-1402.91 33.04,-1402.91 27.88,-1397.74 27.88,-1392.57 27.88,-1392.57 27.88,-1382.23 27.88,-1382.23 27.88,-1377.06 33.04,-1371.89 38.21,-1371.89 38.21,-1371.89 162.13,-1371.89 162.13,-1371.89 167.31,-1371.89 172.47,-1377.06 172.47,-1382.23 172.47,-1382.23 172.47,-1392.57 172.47,-1392.57 172.47,-1397.74 167.31,-1402.91 162.13,-1402.91" class="f-hum s-hum"/>
<text xml:space="preserve" text-anchor="middle" x="100.17" y="-1388.13" font-family="Helvetica,sans-Serif" font-size="9.50" class="t-ink">external scheduler</text>
<text xml:space="preserve" text-anchor="middle" x="100.17" y="-1378.38" font-family="Helvetica,sans-Serif" font-size="9.50" class="t-ink">provgate sync &#45;&#45;all · one shot</text>
</g>

<g id="node4" class="node">
<title>loop</title>
<path stroke-width="1.8" d="M214.35,-1313.02C214.35,-1313.02 12,-1313.02 12,-1313.02 6,-1313.02 0,-1307.02 0,-1301.02 0,-1301.02 0,-1279.75 0,-1279.75 0,-1273.75 6,-1267.75 12,-1267.75 12,-1267.75 214.35,-1267.75 214.35,-1267.75 220.35,-1267.75 226.35,-1273.75 226.35,-1279.75 226.35,-1279.75 226.35,-1301.02 226.35,-1301.02 226.35,-1307.02 220.35,-1313.02 214.35,-1313.02" class="f-tra s-tra"/>
<text xml:space="preserve" text-anchor="middle" x="113.17" y="-1297.76" font-family="Helvetica,sans-Serif" font-size="10.00" class="t-ink">for each registered class</text>
<text xml:space="preserve" text-anchor="middle" x="113.17" y="-1286.51" font-family="Helvetica,sans-Serif" font-size="10.00" class="t-ink">each one is a try/except island with its own</text>
<text xml:space="preserve" text-anchor="middle" x="113.17" y="-1275.26" font-family="Helvetica,sans-Serif" font-size="10.00" class="t-ink">runs row — one outage never aborts the others</text>
</g>

<g id="edge1" class="edge">
<title>cron&#45;&gt;loop</title>
<path fill="none" stroke-width="1.15" d="M102.21,-1371.56C104.04,-1358.16 106.79,-1338.04 109.08,-1321.32" class="s-edge"/>
<polygon stroke-width="1.15" points="111.13,-1321.86 109.86,-1315.63 106.96,-1321.29 111.13,-1321.86" class="a-edge s-edge"/>
</g>

<g id="node2" class="node">
<title>sqlite</title>
<path stroke-width="1.3" d="M369.23,-1484.06C369.23,-1486.23 329.76,-1487.99 281.18,-1487.99 232.59,-1487.99 193.12,-1486.23 193.12,-1484.06 193.12,-1484.06 193.12,-1448.72 193.12,-1448.72 193.12,-1446.55 232.59,-1444.79 281.18,-1444.79 329.76,-1444.79 369.23,-1446.55 369.23,-1448.72 369.23,-1448.72 369.23,-1484.06 369.23,-1484.06" class="f-srv s-srv"/>
<path fill="none" stroke-width="1.3" d="M369.23,-1484.06C369.23,-1481.9 329.76,-1480.14 281.18,-1480.14 232.59,-1480.14 193.12,-1481.9 193.12,-1484.06" class="s-srv"/>
<text xml:space="preserve" text-anchor="middle" x="281.18" y="-1467.11" font-family="Helvetica,sans-Serif" font-size="9.50" class="t-ink">SQLite</text>
<text xml:space="preserve" text-anchor="middle" x="281.18" y="-1457.36" font-family="Helvetica,sans-Serif" font-size="9.50" class="t-ink">classes · secrets · watermarks · runs</text>
</g>

<g id="node3" class="node">
<title>fern</title>
<path stroke-width="1.3" d="M357.6,-1407.79C357.6,-1407.79 204.75,-1407.79 204.75,-1407.79 198.75,-1407.79 192.75,-1401.79 192.75,-1395.79 192.75,-1395.79 192.75,-1379.02 192.75,-1379.02 192.75,-1373.02 198.75,-1367.02 204.75,-1367.02 204.75,-1367.02 357.6,-1367.02 357.6,-1367.02 363.6,-1367.02 369.6,-1373.02 369.6,-1379.02 369.6,-1379.02 369.6,-1395.79 369.6,-1395.79 369.6,-1401.79 363.6,-1407.79 357.6,-1407.79" class="f-uix s-uix"/>
<text xml:space="preserve" text-anchor="middle" x="281.18" y="-1393.48" font-family="Helvetica,sans-Serif" font-size="9.00" class="t-ink">Fernet encrypt / decrypt</text>
<text xml:space="preserve" text-anchor="middle" x="281.18" y="-1383.73" font-family="Helvetica,sans-Serif" font-size="9.00" class="t-ink">exactly one seam; plaintext exists only</text>
<text xml:space="preserve" text-anchor="middle" x="281.18" y="-1373.98" font-family="Helvetica,sans-Serif" font-size="9.00" class="t-ink">transiently, in memory, during a pass</text>
</g>

<g id="edge2" class="edge">
<title>sqlite&#45;&gt;fern</title>
<path fill="none" stroke-width="1.15" d="M281.18,-1444.35C281.18,-1435.59 281.18,-1425.29 281.18,-1415.94" class="s-edge"/>
<polygon stroke-width="1.15" points="283.28,-1416.1 281.18,-1410.1 279.08,-1416.1 283.28,-1416.1" class="a-edge s-edge"/>
</g>

<g id="node14" class="node">
<title>prune</title>
<path stroke-width="1.8" d="M357.23,-579.97C357.23,-579.97 145.12,-579.97 145.12,-579.97 139.12,-579.97 133.12,-573.97 133.12,-567.97 133.12,-567.97 133.12,-541.45 133.12,-541.45 133.12,-535.45 139.12,-529.45 145.12,-529.45 145.12,-529.45 357.23,-529.45 357.23,-529.45 363.23,-529.45 369.23,-535.45 369.23,-541.45 369.23,-541.45 369.23,-567.97 369.23,-567.97 369.23,-573.97 363.23,-579.97 357.23,-579.97" class="f-tra s-tra"/>
<text xml:space="preserve" text-anchor="middle" x="251.18" y="-565.18" font-family="Helvetica,sans-Serif" font-size="9.50" class="t-ink">prune_export(zip_bytes, already_forwarded)</text>
<text xml:space="preserve" text-anchor="middle" x="251.18" y="-555.43" font-family="Helvetica,sans-Serif" font-size="9.50" class="t-ink">keep submission_metadata.yml BYTE&#45;FOR&#45;BYTE;</text>
<text xml:space="preserve" text-anchor="middle" x="251.18" y="-545.68" font-family="Helvetica,sans-Serif" font-size="9.50" class="t-ink">include only folders not in the watermark;</text>
<text xml:space="preserve" text-anchor="middle" x="251.18" y="-535.93" font-family="Helvetica,sans-Serif" font-size="9.50" class="t-ink">drop .DS_Store and __MACOSX/</text>
</g>

<g id="edge16" class="edge">
<title>sqlite&#45;&gt;prune</title>
<path fill="none" stroke-width="1.15" stroke-dasharray="5,2" d="M355.19,-1444.27C379.39,-1432.5 400.18,-1414.73 400.18,-1388.4 400.18,-1388.4 400.18,-1388.4 400.18,-631.48 400.18,-610.67 388.49,-595.58 371.66,-584.63" class="s-srv"/>
<polygon stroke-width="1.15" points="372.96,-582.96 366.73,-581.67 370.8,-586.56 372.96,-582.96" class="a-srv s-srv"/>
<text xml:space="preserve" text-anchor="middle" x="440.3" y="-1017.58" font-family="Helvetica,sans-Serif" font-size="8.20" class="t-hum">already_forwarded set</text>
</g>

<g id="edge3" class="edge">
<title>fern&#45;&gt;loop</title>
<path fill="none" stroke-width="1.15" d="M245.96,-1366.49C220.75,-1352.23 186.57,-1332.9 159.2,-1317.42" class="s-uix"/>
<polygon stroke-width="1.15" points="160.53,-1315.76 154.28,-1314.63 158.46,-1319.41 160.53,-1315.76" class="a-uix s-uix"/>
<text xml:space="preserve" text-anchor="middle" x="244.85" y="-1341.23" font-family="Helvetica,sans-Serif" font-size="8.20" class="t-hum">decrypt this class&#39;s</text>
<text xml:space="preserve" text-anchor="middle" x="244.85" y="-1332.23" font-family="Helvetica,sans-Serif" font-size="8.20" class="t-hum">credentials</text>
</g>

<g id="node5" class="node">
<title>gslogin</title>
<path stroke-width="1.3" d="M195.01,-1215C195.01,-1215 31.34,-1215 31.34,-1215 26.17,-1215 21,-1209.83 21,-1204.66 21,-1204.66 21,-1194.32 21,-1194.32 21,-1189.15 26.17,-1183.98 31.34,-1183.98 31.34,-1183.98 195.01,-1183.98 195.01,-1183.98 200.18,-1183.98 205.35,-1189.15 205.35,-1194.32 205.35,-1194.32 205.35,-1204.66 205.35,-1204.66 205.35,-1209.83 200.18,-1215 195.01,-1215" class="f-hum s-hum"/>
<text xml:space="preserve" text-anchor="middle" x="113.17" y="-1200.21" font-family="Helvetica,sans-Serif" font-size="9.50" class="t-ink">log in</text>
<text xml:space="preserve" text-anchor="middle" x="113.17" y="-1190.46" font-family="Helvetica,sans-Serif" font-size="9.50" class="t-ink">one session reused for the whole pass</text>
</g>

<g id="edge4" class="edge">
<title>loop&#45;&gt;gslogin</title>
<path fill="none" stroke-width="1.15" d="M113.17,-1266.95C113.17,-1253.54 113.17,-1236.54 113.17,-1223.1" class="s-edge"/>
<polygon stroke-width="1.15" points="115.28,-1223.39 113.18,-1217.39 111.08,-1223.39 115.28,-1223.39" class="a-edge s-edge"/>
</g>

<g id="node6" class="node">
<title>gsauth</title>
<path stroke-width="1.3" d="M102.46,-1133.58C102.46,-1133.58 66.74,-1115.58 66.74,-1115.58 61.38,-1112.88 61.38,-1107.48 66.74,-1104.78 66.74,-1104.78 102.46,-1086.78 102.46,-1086.78 107.82,-1084.08 118.53,-1084.08 123.89,-1086.78 123.89,-1086.78 159.61,-1104.78 159.61,-1104.78 164.97,-1107.48 164.97,-1112.88 159.61,-1115.58 159.61,-1115.58 123.89,-1133.58 123.89,-1133.58 118.53,-1136.28 107.82,-1136.28 102.46,-1133.58" class="f-panel s-bad"/>
<text xml:space="preserve" text-anchor="middle" x="113.17" y="-1111.38" font-family="Helvetica,sans-Serif" font-size="9.00" class="t-ink">429 or auth</text>
<text xml:space="preserve" text-anchor="middle" x="113.17" y="-1101.63" font-family="Helvetica,sans-Serif" font-size="9.00" class="t-ink">failure?</text>
</g>

<g id="edge5" class="edge">
<title>gslogin&#45;&gt;gsauth</title>
<path fill="none" stroke-width="1.15" d="M113.17,-1183.68C113.17,-1173.59 113.17,-1159.79 113.17,-1146.93" class="s-edge"/>
<polygon stroke-width="1.15" points="115.28,-1147.24 113.18,-1141.25 111.08,-1147.25 115.28,-1147.24" class="a-edge s-edge"/>
</g>

<g id="node7" class="node">
<title>gsback</title>
<path stroke-width="1.3" d="M100.26,-1036.38C100.26,-1036.38 40.09,-1036.38 40.09,-1036.38 34.92,-1036.38 29.75,-1031.21 29.75,-1026.04 29.75,-1026.04 29.75,-1015.7 29.75,-1015.7 29.75,-1010.53 34.92,-1005.36 40.09,-1005.36 40.09,-1005.36 100.26,-1005.36 100.26,-1005.36 105.43,-1005.36 110.6,-1010.53 110.6,-1015.7 110.6,-1015.7 110.6,-1026.04 110.6,-1026.04 110.6,-1031.21 105.43,-1036.38 100.26,-1036.38" class="f-bad s-bad"/>
<text xml:space="preserve" text-anchor="middle" x="70.17" y="-1022.07" font-family="Helvetica,sans-Serif" font-size="9.00" class="t-ink">back off</text>
<text xml:space="preserve" text-anchor="middle" x="70.17" y="-1012.32" font-family="Helvetica,sans-Serif" font-size="9.00" class="t-ink">never hammer</text>
</g>

<g id="edge6" class="edge">
<title>gsauth&#45;&gt;gsback</title>
<path fill="none" stroke-width="1.15" stroke-dasharray="5,2" d="M102.1,-1086.7C95.59,-1073.48 87.4,-1056.85 80.95,-1043.74" class="s-bad"/>
<polygon stroke-width="1.15" points="82.86,-1042.88 78.33,-1038.43 79.1,-1044.74 82.86,-1042.88" class="a-bad s-bad"/>
<text xml:space="preserve" text-anchor="middle" x="96.39" y="-1055.59" font-family="Helvetica,sans-Serif" font-size="8.20" class="t-hum">yes</text>
</g>

<g id="node8" class="node">
<title>gslist</title>
<path stroke-width="1.3" d="M211.94,-1033.11C211.94,-1033.11 138.41,-1033.11 138.41,-1033.11 134.33,-1033.11 130.25,-1029.03 130.25,-1024.95 130.25,-1024.95 130.25,-1016.79 130.25,-1016.79 130.25,-1012.71 134.33,-1008.63 138.41,-1008.63 138.41,-1008.63 211.94,-1008.63 211.94,-1008.63 216.02,-1008.63 220.1,-1012.71 220.1,-1016.79 220.1,-1016.79 220.1,-1024.95 220.1,-1024.95 220.1,-1029.03 216.02,-1033.11 211.94,-1033.11" class="f-hum s-hum"/>
<text xml:space="preserve" text-anchor="middle" x="175.18" y="-1016.72" font-family="Helvetica,sans-Serif" font-size="9.50" class="t-ink">list assignments</text>
</g>

<g id="edge8" class="edge">
<title>gsauth&#45;&gt;gslist</title>
<path fill="none" stroke-width="1.15" d="M127.87,-1088.49C138.43,-1073.62 152.51,-1053.78 162.56,-1039.63" class="s-hum"/>
<polygon stroke-width="1.15" points="164.1,-1041.1 165.86,-1034.99 160.67,-1038.66 164.1,-1041.1" class="a-hum s-hum"/>
<text xml:space="preserve" text-anchor="middle" x="156.05" y="-1055.59" font-family="Helvetica,sans-Serif" font-size="8.20" class="t-hum">no</text>
</g>

<g id="edge7" class="edge">
<title>gsback&#45;&gt;loop</title>
<path fill="none" stroke-width="1.15" stroke-dasharray="5,2" d="M111.02,-1034.35C134.68,-1041.84 160.68,-1050.62 165.18,-1054.38 212.53,-1094 205.07,-1123.07 215.18,-1183.98 219.3,-1208.87 228.64,-1219.41 215.18,-1240.75 209.61,-1249.56 201.97,-1256.81 193.35,-1262.77" class="s-bad"/>
<polygon stroke-width="1.15" points="192.31,-1260.94 188.38,-1265.94 194.57,-1264.48 192.31,-1260.94" class="a-bad s-bad"/>
<text xml:space="preserve" text-anchor="middle" x="229.68" y="-1158.19" font-family="Helvetica,sans-Serif" font-size="8.20" class="t-hum">next class</text>
</g>

<g id="node9" class="node">
<title>gsdl</title>
<path stroke-width="1.3" d="M232.26,-968.36C232.26,-968.36 118.09,-968.36 118.09,-968.36 112.92,-968.36 107.75,-963.19 107.75,-958.02 107.75,-958.02 107.75,-947.68 107.75,-947.68 107.75,-942.51 112.92,-937.34 118.09,-937.34 118.09,-937.34 232.26,-937.34 232.26,-937.34 237.43,-937.34 242.6,-942.51 242.6,-947.68 242.6,-947.68 242.6,-958.02 242.6,-958.02 242.6,-963.19 237.43,-968.36 232.26,-968.36" class="f-hum s-hum"/>
<text xml:space="preserve" text-anchor="middle" x="175.18" y="-953.57" font-family="Helvetica,sans-Serif" font-size="9.50" class="t-ink">download bulk export</text>
<text xml:space="preserve" text-anchor="middle" x="175.18" y="-943.82" font-family="Helvetica,sans-Serif" font-size="9.50" class="t-ink">export/without_evaluations</text>
</g>

<g id="edge9" class="edge">
<title>gslist&#45;&gt;gsdl</title>
<path fill="none" stroke-width="1.15" d="M175.18,-1008.07C175.18,-999.32 175.18,-987.12 175.18,-976.52" class="s-edge"/>
<polygon stroke-width="1.15" points="177.28,-976.54 175.18,-970.54 173.08,-976.54 177.28,-976.54" class="a-edge s-edge"/>
</g>

<g id="node10" class="node">
<title>gsprep</title>
<path stroke-width="1.3" d="M163.86,-879.34C163.86,-879.34 99.87,-856.74 99.87,-856.74 94.21,-854.74 94.21,-850.74 99.87,-848.74 99.87,-848.74 163.86,-826.14 163.86,-826.14 169.52,-824.14 180.83,-824.14 186.49,-826.14 186.49,-826.14 250.48,-848.74 250.48,-848.74 256.14,-850.74 256.14,-854.74 250.48,-856.74 250.48,-856.74 186.49,-879.34 186.49,-879.34 180.83,-881.34 169.52,-881.34 163.86,-879.34" class="f-panel s-hum"/>
<text xml:space="preserve" text-anchor="middle" x="175.18" y="-853.94" font-family="Helvetica,sans-Serif" font-size="9.00" class="t-ink">did it return a</text>
<text xml:space="preserve" text-anchor="middle" x="175.18" y="-844.19" font-family="Helvetica,sans-Serif" font-size="9.00" class="t-ink">&quot;preparing&quot; redirect?</text>
</g>

<g id="edge10" class="edge">
<title>gsdl&#45;&gt;gsprep</title>
<path fill="none" stroke-width="1.15" d="M175.18,-936.95C175.18,-924.88 175.18,-907.33 175.18,-891.46" class="s-edge"/>
<polygon stroke-width="1.15" points="177.28,-891.58 175.18,-885.58 173.08,-891.58 177.28,-891.58" class="a-edge s-edge"/>
</g>

<g id="edge11" class="edge">
<title>gsprep&#45;&gt;gsdl</title>
<path fill="none" stroke-width="1.15" stroke-dasharray="5,2" d="M180.04,-882.15C181.42,-893.69 182.29,-907.15 181.18,-919.34 180.88,-922.55 180.43,-925.93 179.9,-929.23" class="s-hum"/>
<polygon stroke-width="1.15" points="177.85,-928.72 178.87,-935 181.99,-929.46 177.85,-928.72" class="a-hum s-hum"/>
<text xml:space="preserve" text-anchor="middle" x="231.18" y="-911.55" font-family="Helvetica,sans-Serif" font-size="8.20" class="t-hum">yes — poll the redirect,</text>
<text xml:space="preserve" text-anchor="middle" x="231.18" y="-902.55" font-family="Helvetica,sans-Serif" font-size="8.20" class="t-hum">the body is not synchronous</text>
</g>

<g id="node11" class="node">
<title>valid</title>
<path stroke-width="1.3" d="M163.67,-757.99C163.67,-757.99 70.77,-730.59 70.77,-730.59 65.02,-728.89 65.02,-725.49 70.77,-723.79 70.77,-723.79 163.67,-696.39 163.67,-696.39 169.42,-694.69 180.93,-694.69 186.68,-696.39 186.68,-696.39 279.58,-723.79 279.58,-723.79 285.33,-725.49 285.33,-728.89 279.58,-730.59 279.58,-730.59 186.68,-757.99 186.68,-757.99 180.93,-759.69 169.42,-759.69 163.67,-757.99" class="f-panel s-tra"/>
<text xml:space="preserve" text-anchor="middle" x="175.18" y="-728.39" font-family="Helvetica,sans-Serif" font-size="9.00" class="t-ink">does the archive really contain</text>
<text xml:space="preserve" text-anchor="middle" x="175.18" y="-718.64" font-family="Helvetica,sans-Serif" font-size="9.00" class="t-ink">submission_metadata.yml?</text>
</g>

<g id="edge12" class="edge">
<title>gsprep&#45;&gt;valid</title>
<path fill="none" stroke-width="1.15" d="M175.18,-821.52C175.18,-805.9 175.18,-786.62 175.18,-769.64" class="s-tra"/>
<polygon stroke-width="1.15" points="177.28,-769.76 175.18,-763.76 173.08,-769.76 177.28,-769.76" class="a-tra s-tra"/>
<text xml:space="preserve" text-anchor="middle" x="204.43" y="-796.35" font-family="Helvetica,sans-Serif" font-size="8.20" class="t-hum">no — got the zip</text>
</g>

<g id="node12" class="node">
<title>bad</title>
<path stroke-width="1.3" d="M172.76,-647.99C172.76,-647.99 43.59,-647.99 43.59,-647.99 38.42,-647.99 33.25,-642.82 33.25,-637.65 33.25,-637.65 33.25,-627.31 33.25,-627.31 33.25,-622.14 38.42,-616.97 43.59,-616.97 43.59,-616.97 172.76,-616.97 172.76,-616.97 177.93,-616.97 183.1,-622.14 183.1,-627.31 183.1,-627.31 183.1,-637.65 183.1,-637.65 183.1,-642.82 177.93,-647.99 172.76,-647.99" class="f-bad s-bad"/>
<text xml:space="preserve" text-anchor="middle" x="108.17" y="-633.68" font-family="Helvetica,sans-Serif" font-size="9.00" class="t-ink">clear error — never assume the</text>
<text xml:space="preserve" text-anchor="middle" x="108.17" y="-623.93" font-family="Helvetica,sans-Serif" font-size="9.00" class="t-ink">top&#45;level folder name</text>
</g>

<g id="edge13" class="edge">
<title>valid&#45;&gt;bad</title>
<path fill="none" stroke-width="1.15" stroke-dasharray="5,2" d="M155.07,-698.37C144.94,-684.35 132.84,-667.61 123.47,-654.65" class="s-bad"/>
<polygon stroke-width="1.15" points="125.35,-653.66 120.13,-650.03 121.95,-656.12 125.35,-653.66" class="a-bad s-bad"/>
<text xml:space="preserve" text-anchor="middle" x="142.16" y="-667.2" font-family="Helvetica,sans-Serif" font-size="8.20" class="t-hum">no</text>
</g>

<g id="node13" class="node">
<title>enum</title>
<path stroke-width="1.3" d="M359.01,-647.99C359.01,-647.99 213.34,-647.99 213.34,-647.99 208.17,-647.99 203,-642.82 203,-637.65 203,-637.65 203,-627.31 203,-627.31 203,-622.14 208.17,-616.97 213.34,-616.97 213.34,-616.97 359.01,-616.97 359.01,-616.97 364.18,-616.97 369.35,-622.14 369.35,-627.31 369.35,-627.31 369.35,-637.65 369.35,-637.65 369.35,-642.82 364.18,-647.99 359.01,-647.99" class="f-tra s-tra"/>
<text xml:space="preserve" text-anchor="middle" x="286.18" y="-633.2" font-family="Helvetica,sans-Serif" font-size="9.50" class="t-ink">read metadata READ&#45;ONLY</text>
<text xml:space="preserve" text-anchor="middle" x="286.18" y="-623.45" font-family="Helvetica,sans-Serif" font-size="9.50" class="t-ink">enumerate submission folder keys</text>
</g>

<g id="edge14" class="edge">
<title>valid&#45;&gt;enum</title>
<path fill="none" stroke-width="1.15" d="M204.92,-701.35C222.88,-686.35 245.46,-667.48 262.26,-653.46" class="s-tra"/>
<polygon stroke-width="1.15" points="263.57,-655.1 266.83,-649.64 260.88,-651.87 263.57,-655.1" class="a-tra s-tra"/>
<text xml:space="preserve" text-anchor="middle" x="253.1" y="-667.2" font-family="Helvetica,sans-Serif" font-size="8.20" class="t-hum">yes</text>
</g>

<g id="edge15" class="edge">
<title>enum&#45;&gt;prune</title>
<path fill="none" stroke-width="1.15" d="M279.26,-616.51C275.44,-608.24 270.54,-597.64 265.91,-587.61" class="s-edge"/>
<polygon stroke-width="1.15" points="267.91,-586.94 263.49,-582.37 264.1,-588.7 267.91,-586.94" class="a-edge s-edge"/>
</g>

<g id="node15" class="node">
<title>never</title>
<polygon stroke-width="1.3" points="350.85,-468.7 145.5,-468.7 145.5,-427.93 356.85,-427.93 356.85,-462.7 350.85,-468.7" class="f-rec s-rec"/>
<polyline fill="none" stroke-width="1.3" points="350.85,-468.7 350.85,-462.7" class="s-rec"/>
<polyline fill="none" stroke-width="1.3" points="356.85,-462.7 350.85,-462.7" class="s-rec"/>
<text xml:space="preserve" text-anchor="middle" x="251.18" y="-454.39" font-family="Helvetica,sans-Serif" font-size="9.00" class="t-ink">never regenerate, re&#45;serialize or hand&#45;edit</text>
<text xml:space="preserve" text-anchor="middle" x="251.18" y="-444.64" font-family="Helvetica,sans-Serif" font-size="9.00" class="t-ink">the YAML — a round&#45;trip risks silently dropping</text>
<text xml:space="preserve" text-anchor="middle" x="251.18" y="-434.89" font-family="Helvetica,sans-Serif" font-size="9.00" class="t-ink">a field Provenance reads</text>
</g>

<g id="edge17" class="edge">
<title>prune&#45;&gt;never</title>
<path fill="none" stroke-width="1.15" stroke-dasharray="5,2" d="M251.18,-528.7C251.18,-513.05 251.18,-492.87 251.18,-476.77" class="s-rec"/>
<polygon stroke-width="1.15" points="253.28,-476.97 251.18,-470.97 249.08,-476.97 253.28,-476.97" class="a-rec s-rec"/>
</g>

<g id="node16" class="node">
<title>post</title>
<path stroke-width="1.3" d="M614.73,-468.7C614.73,-468.7 405.62,-468.7 405.62,-468.7 399.62,-468.7 393.62,-462.7 393.62,-456.7 393.62,-456.7 393.62,-439.93 393.62,-439.93 393.62,-433.93 399.62,-427.93 405.62,-427.93 405.62,-427.93 614.73,-427.93 614.73,-427.93 620.73,-427.93 626.73,-433.93 626.73,-439.93 626.73,-439.93 626.73,-456.7 626.73,-456.7 626.73,-462.7 620.73,-468.7 614.73,-468.7" class="f-srv s-srv"/>
<text xml:space="preserve" text-anchor="middle" x="510.18" y="-453.91" font-family="Helvetica,sans-Serif" font-size="9.50" class="t-ink">POST /semesters/{id}/ingest:gradescope</text>
<text xml:space="preserve" text-anchor="middle" x="510.18" y="-444.16" font-family="Helvetica,sans-Serif" font-size="9.50" class="t-ink">multipart, field &quot;archive&quot;, Bearer write token.</text>
<text xml:space="preserve" text-anchor="middle" x="510.18" y="-434.41" font-family="Helvetica,sans-Serif" font-size="9.50" class="t-ink">No assignment id is sent — Provenance derives it</text>
</g>

<g id="edge18" class="edge">
<title>prune&#45;&gt;post</title>
<path fill="none" stroke-width="1.15" d="M313.54,-528.57C356.13,-511.4 412.11,-488.84 453.45,-472.18" class="s-srv"/>
<polygon stroke-width="1.15" points="454.08,-474.19 458.86,-470 452.51,-470.3 454.08,-474.19" class="a-srv s-srv"/>
<text xml:space="preserve" text-anchor="middle" x="396.53" y="-503.66" font-family="Helvetica,sans-Serif" font-size="8.20" class="t-hum">only the delta</text>
</g>

<g id="node17" class="node">
<title>poll</title>
<path stroke-width="1.3" d="M560.88,-390.93C560.88,-390.93 459.46,-390.93 459.46,-390.93 454.3,-390.93 449.12,-385.76 449.12,-380.59 449.12,-380.59 449.12,-370.25 449.12,-370.25 449.12,-365.08 454.3,-359.91 459.46,-359.91 459.46,-359.91 560.88,-359.91 560.88,-359.91 566.06,-359.91 571.23,-365.08 571.23,-370.25 571.23,-370.25 571.23,-380.59 571.23,-380.59 571.23,-385.76 566.06,-390.93 560.88,-390.93" class="f-srv s-srv"/>
<text xml:space="preserve" text-anchor="middle" x="510.18" y="-376.14" font-family="Helvetica,sans-Serif" font-size="9.50" class="t-ink">GET /ingest/jobs/{jobId}</text>
<text xml:space="preserve" text-anchor="middle" x="510.18" y="-366.39" font-family="Helvetica,sans-Serif" font-size="9.50" class="t-ink">poll until terminal</text>
</g>

<g id="edge19" class="edge">
<title>post&#45;&gt;poll</title>
<path fill="none" stroke-width="1.15" d="M510.18,-427.57C510.18,-418.69 510.18,-408.18 510.18,-398.99" class="s-edge"/>
<polygon stroke-width="1.15" points="512.28,-399.08 510.18,-393.08 508.08,-399.08 512.28,-399.08" class="a-edge s-edge"/>
</g>

<g id="node18" class="node">
<title>term</title>
<path stroke-width="1.3" d="M499.96,-316.62C499.96,-316.62 473.59,-300.4 473.59,-300.4 468.48,-297.25 468.48,-290.97 473.59,-287.82 473.59,-287.82 499.96,-271.6 499.96,-271.6 505.07,-268.45 515.28,-268.45 520.39,-271.6 520.39,-271.6 546.76,-287.82 546.76,-287.82 551.87,-290.97 551.87,-297.25 546.76,-300.4 546.76,-300.4 520.39,-316.62 520.39,-316.62 515.28,-319.77 505.07,-319.77 499.96,-316.62" class="f-panel s-srv"/>
<text xml:space="preserve" text-anchor="middle" x="510.18" y="-295.31" font-family="Helvetica,sans-Serif" font-size="9.00" class="t-ink">terminal</text>
<text xml:space="preserve" text-anchor="middle" x="510.18" y="-285.56" font-family="Helvetica,sans-Serif" font-size="9.00" class="t-ink">status?</text>
</g>

<g id="edge20" class="edge">
<title>poll&#45;&gt;term</title>
<path fill="none" stroke-width="1.15" d="M510.18,-359.5C510.18,-351.42 510.18,-341.06 510.18,-331.02" class="s-edge"/>
<polygon stroke-width="1.15" points="512.28,-331.19 510.18,-325.19 508.08,-331.19 512.28,-331.19" class="a-edge s-edge"/>
</g>

<g id="node19" class="node">
<title>adv</title>
<path stroke-width="1.8" d="M436.51,-214.68C436.51,-214.68 283.84,-214.68 283.84,-214.68 278.17,-214.68 272.5,-209.01 272.5,-203.34 272.5,-203.34 272.5,-192 272.5,-192 272.5,-186.33 278.17,-180.66 283.84,-180.66 283.84,-180.66 436.51,-180.66 436.51,-180.66 442.18,-180.66 447.85,-186.33 447.85,-192 447.85,-192 447.85,-203.34 447.85,-203.34 447.85,-209.01 442.18,-214.68 436.51,-214.68" class="f-ana s-ana"/>
<text xml:space="preserve" text-anchor="middle" x="360.18" y="-199.42" font-family="Helvetica,sans-Serif" font-size="10.00" class="t-ink">ADVANCE the watermark</text>
<text xml:space="preserve" text-anchor="middle" x="360.18" y="-188.17" font-family="Helvetica,sans-Serif" font-size="10.00" class="t-ink">only now, after succeeded or partial</text>
</g>

<g id="edge21" class="edge">
<title>term&#45;&gt;adv</title>
<path fill="none" stroke-width="1.15" d="M487.39,-278.77C462.33,-262.99 421.81,-237.48 393.24,-219.49" class="s-ana"/>
<polygon stroke-width="1.15" points="394.65,-217.9 388.45,-216.48 392.41,-221.45 394.65,-217.9" class="a-ana s-ana"/>
<text xml:space="preserve" text-anchor="middle" x="468.55" y="-239.52" font-family="Helvetica,sans-Serif" font-size="8.20" class="t-hum">succeeded / partial</text>
</g>

<g id="node20" class="node">
<title>hold</title>
<path stroke-width="1.8" d="M672.1,-220.31C672.1,-220.31 480.25,-220.31 480.25,-220.31 474.25,-220.31 468.25,-214.31 468.25,-208.31 468.25,-208.31 468.25,-187.04 468.25,-187.04 468.25,-181.04 474.25,-175.04 480.25,-175.04 480.25,-175.04 672.1,-175.04 672.1,-175.04 678.1,-175.04 684.1,-181.04 684.1,-187.04 684.1,-187.04 684.1,-208.31 684.1,-208.31 684.1,-214.31 678.1,-220.31 672.1,-220.31" class="f-bad s-bad"/>
<text xml:space="preserve" text-anchor="middle" x="576.17" y="-205.05" font-family="Helvetica,sans-Serif" font-size="10.00" class="t-ink">LEAVE the watermark untouched</text>
<text xml:space="preserve" text-anchor="middle" x="576.17" y="-193.8" font-family="Helvetica,sans-Serif" font-size="10.00" class="t-ink">so the next run retries. A crash mid&#45;poll must</text>
<text xml:space="preserve" text-anchor="middle" x="576.17" y="-182.55" font-family="Helvetica,sans-Serif" font-size="10.00" class="t-ink">never lose submissions.</text>
</g>

<g id="edge22" class="edge">
<title>term&#45;&gt;hold</title>
<path fill="none" stroke-width="1.15" d="M523.85,-273.54C533.17,-260.21 545.66,-242.34 556.1,-227.4" class="s-bad"/>
<polygon stroke-width="1.15" points="557.72,-228.75 559.43,-222.63 554.28,-226.34 557.72,-228.75" class="a-bad s-bad"/>
<text xml:space="preserve" text-anchor="middle" x="580.13" y="-239.52" font-family="Helvetica,sans-Serif" font-size="8.20" class="t-hum">failed, or any error</text>
</g>

<g id="edge23" class="edge">
<title>adv&#45;&gt;sqlite</title>
<path fill="none" stroke-width="1.15" d="M432.53,-215.54C441.14,-217.29 449.84,-218.92 458.18,-220.31 503.03,-227.76 702.67,-240.93 716.17,-257.31 783.23,-338.62 732.93,-390.4 716.17,-494.45 648.2,-916.56 622.75,-1034.57 414.18,-1407.79 405.64,-1423.07 391.92,-1434.3 376.46,-1442.55" class="s-srv"/>
<polygon stroke-width="1.15" points="375.73,-1440.57 371.3,-1445.13 377.61,-1444.33 375.73,-1440.57" class="a-srv s-srv"/>
</g>

<g id="node21" class="node">
<title>dedupnote</title>
<polygon stroke-width="1.3" points="458.48,-138.04 163.88,-138.04 163.88,-77.77 464.48,-77.77 464.48,-132.04 458.48,-138.04" class="f-rec s-rec"/>
<polyline fill="none" stroke-width="1.3" points="458.48,-138.04 458.48,-132.04" class="s-rec"/>
<polyline fill="none" stroke-width="1.3" points="464.48,-132.04 458.48,-132.04" class="s-rec"/>
<text xml:space="preserve" text-anchor="middle" x="314.18" y="-123.73" font-family="Helvetica,sans-Serif" font-size="9.00" class="t-ink">Provenance dedups by content hash before any heavy work.</text>
<text xml:space="preserve" text-anchor="middle" x="314.18" y="-113.98" font-family="Helvetica,sans-Serif" font-size="9.00" class="t-ink">The watermark is therefore an OPTIMISATION, never the correctness</text>
<text xml:space="preserve" text-anchor="middle" x="314.18" y="-104.23" font-family="Helvetica,sans-Serif" font-size="9.00" class="t-ink">mechanism — when in doubt, forward. A resubmission gets a new</text>
<text xml:space="preserve" text-anchor="middle" x="314.18" y="-94.48" font-family="Helvetica,sans-Serif" font-size="9.00" class="t-ink">Gradescope key and must be sent; if the watermark gated that,</text>
<text xml:space="preserve" text-anchor="middle" x="314.18" y="-84.73" font-family="Helvetica,sans-Serif" font-size="9.00" class="t-ink">a changed submission could be silently lost.</text>
</g>

<g id="edge24" class="edge">
<title>adv&#45;&gt;dedupnote</title>
<path fill="none" stroke-width="1.15" stroke-dasharray="5,2" d="M351.52,-180.17C346.34,-170.28 339.54,-157.3 333.16,-145.14" class="s-rec"/>
<polygon stroke-width="1.15" points="335.13,-144.37 330.49,-140.03 331.41,-146.32 335.13,-144.37" class="a-rec s-rec"/>
</g>

<g id="node22" class="node">
<title>runs</title>
<path stroke-width="1.3" d="M655.97,-128.29C655.97,-128.29 496.37,-128.29 496.37,-128.29 490.37,-128.29 484.37,-122.29 484.37,-116.29 484.37,-116.29 484.37,-99.52 484.37,-99.52 484.37,-93.52 490.37,-87.52 496.37,-87.52 496.37,-87.52 655.97,-87.52 655.97,-87.52 661.97,-87.52 667.97,-93.52 667.97,-99.52 667.97,-99.52 667.97,-116.29 667.97,-116.29 667.97,-122.29 661.97,-128.29 655.97,-128.29" class="f-srv s-srv"/>
<text xml:space="preserve" text-anchor="middle" x="576.17" y="-113.98" font-family="Helvetica,sans-Serif" font-size="9.00" class="t-ink">write a runs row</text>
<text xml:space="preserve" text-anchor="middle" x="576.17" y="-104.23" font-family="Helvetica,sans-Serif" font-size="9.00" class="t-ink">class label, counts, job ids, outcomes —</text>
<text xml:space="preserve" text-anchor="middle" x="576.17" y="-94.48" font-family="Helvetica,sans-Serif" font-size="9.00" class="t-ink">never a password, token or cookie</text>
</g>

<g id="edge25" class="edge">
<title>adv&#45;&gt;runs</title>
<path fill="none" stroke-width="1.15" d="M401.57,-179.86C435.24,-166.17 483.09,-146.73 520.18,-131.66" class="s-edge"/>
<polygon stroke-width="1.15" points="520.6,-133.76 525.37,-129.55 519.02,-129.86 520.6,-133.76" class="a-edge s-edge"/>
</g>

<g id="edge26" class="edge">
<title>hold&#45;&gt;runs</title>
<path fill="none" stroke-width="1.15" d="M576.17,-174.53C576.17,-162.95 576.17,-148.66 576.17,-136.38" class="s-edge"/>
<polygon stroke-width="1.15" points="578.28,-136.39 576.18,-130.39 574.08,-136.39 578.28,-136.39" class="a-edge s-edge"/>
</g>

<g id="node23" class="node">
<title>notify</title>
<path stroke-width="1.3" stroke-dasharray="5,2" d="M662.35,-40.77C662.35,-40.77 490,-40.77 490,-40.77 484,-40.77 478,-34.77 478,-28.77 478,-28.77 478,-12 478,-12 478,-6 484,0 490,0 490,0 662.35,0 662.35,0 668.35,0 674.35,-6 674.35,-12 674.35,-12 674.35,-28.77 674.35,-28.77 674.35,-34.77 668.35,-40.77 662.35,-40.77" class="f-hum s-hum"/>
<text xml:space="preserve" text-anchor="middle" x="576.17" y="-26.46" font-family="Helvetica,sans-Serif" font-size="9.00" class="t-ink">notify/ — render (pure) then POST</text>
<text xml:space="preserve" text-anchor="middle" x="576.17" y="-16.71" font-family="Helvetica,sans-Serif" font-size="9.00" class="t-ink">fires only after the pass is already reported,</text>
<text xml:space="preserve" text-anchor="middle" x="576.17" y="-6.96" font-family="Helvetica,sans-Serif" font-size="9.00" class="t-ink">and swallows every exception</text>
</g>

<g id="edge27" class="edge">
<title>runs&#45;&gt;notify</title>
<path fill="none" stroke-width="1.15" stroke-dasharray="5,2" d="M576.17,-87.07C576.17,-75.71 576.17,-61.29 576.17,-48.85" class="s-edge"/>
<polygon stroke-width="1.15" points="578.28,-49.15 576.18,-43.15 574.08,-49.15 578.28,-49.15" class="a-edge s-edge"/>
</g>
</g>
</svg>