<svg width="832pt" height="2221pt"
 viewBox="0.00 0.00 832.00 2221.00" xmlns="http://www.w3.org/2000/svg" xmlns:xlink="http://www.w3.org/1999/xlink">
<g id="graph0" class="graph" transform="scale(1 1) rotate(0) translate(21.6 2199.8)">
<title>provgate</title>
<g id="clust1" class="cluster">

<path stroke-width="1.5" d="M223,-1972.61C223,-1972.61 397,-1972.61 397,-1972.61 403,-1972.61 409,-1978.61 409,-1984.61 409,-1984.61 409,-2158.2 409,-2158.2 409,-2164.2 403,-2170.2 397,-2170.2 397,-2170.2 223,-2170.2 223,-2170.2 217,-2170.2 211,-2164.2 211,-2158.2 211,-2158.2 211,-1984.61 211,-1984.61 211,-1978.61 217,-1972.61 223,-1972.61" class="f-srv s-srv"/>
<text xml:space="preserve" text-anchor="middle" x="305.62" y="-2157.18" font-family="Helvetica,sans-Serif" font-size="9.50" class="t-srv"> &#160;store/ — the only place SQL is written &#160;</text>
</g>
<g id="clust2" class="cluster">

<path stroke-width="1.5" d="M44,-1162.47C44,-1162.47 328,-1162.47 328,-1162.47 334,-1162.47 340,-1168.47 340,-1174.47 340,-1174.47 340,-1776.65 340,-1776.65 340,-1782.65 334,-1788.65 328,-1788.65 328,-1788.65 44,-1788.65 44,-1788.65 38,-1788.65 32,-1782.65 32,-1776.65 32,-1776.65 32,-1174.47 32,-1174.47 32,-1168.47 38,-1162.47 44,-1162.47" class="f-hum s-hum"/>
<text xml:space="preserve" text-anchor="middle" x="185.88" y="-1775.62" font-family="Helvetica,sans-Serif" font-size="9.50" class="t-hum"> &#160;gradescope/ — all undocumented&#45;API fragility is quarantined here &#160;</text>
</g>
<g id="clust3" class="cluster">

<path stroke-width="1.5" d="M20,-625.69C20,-625.69 397,-625.69 397,-625.69 403,-625.69 409,-631.69 409,-637.69 409,-637.69 409,-1099.22 409,-1099.22 409,-1105.22 403,-1111.22 397,-1111.22 397,-1111.22 20,-1111.22 20,-1111.22 14,-1111.22 8,-1105.22 8,-1099.22 8,-1099.22 8,-637.69 8,-637.69 8,-631.69 14,-625.69 20,-625.69" class="f-tra s-tra"/>
<text xml:space="preserve" text-anchor="middle" x="168.62" y="-1098.2" font-family="Helvetica,sans-Serif" font-size="9.50" class="t-tra"> &#160;sync/ — orchestration; prune is a pure function over in&#45;memory bytes &#160;</text>
</g>
<g id="clust4" class="cluster">

<path stroke-width="1.5" d="M432,-381.63C432,-381.63 735,-381.63 735,-381.63 741,-381.63 747,-387.63 747,-393.63 747,-393.63 747,-689.65 747,-689.65 747,-695.65 741,-701.65 735,-701.65 735,-701.65 432,-701.65 432,-701.65 426,-701.65 420,-695.65 420,-689.65 420,-689.65 420,-393.63 420,-393.63 420,-387.63 426,-381.63 432,-381.63" class="f-srv s-srv"/>
<text xml:space="preserve" text-anchor="middle" x="583.25" y="-688.63" font-family="Helvetica,sans-Serif" font-size="9.50" class="t-srv"> &#160;provenance/ — the only module that knows Provenance&#39;s HTTP shape &#160;</text>
</g>

<g id="node1" class="node">
<title>cron</title>
<path stroke-width="1.3" d="M165.64,-2017.95C165.64,-2017.95 38.36,-2017.95 38.36,-2017.95 32.95,-2017.95 27.54,-2012.54 27.54,-2007.13 27.54,-2007.13 27.54,-1996.31 27.54,-1996.31 27.54,-1990.9 32.95,-1985.49 38.36,-1985.49 38.36,-1985.49 165.64,-1985.49 165.64,-1985.49 171.05,-1985.49 176.46,-1990.9 176.46,-1996.31 176.46,-1996.31 176.46,-2007.13 176.46,-2007.13 176.46,-2012.54 171.05,-2017.95 165.64,-2017.95" class="f-hum s-hum"/>
<text xml:space="preserve" text-anchor="middle" x="102" y="-2002.44" font-family="Helvetica,sans-Serif" font-size="9.50" class="t-ink">external scheduler</text>
<text xml:space="preserve" text-anchor="middle" x="102" y="-1992.69" font-family="Helvetica,sans-Serif" font-size="9.50" class="t-ink">provgate sync &#45;&#45;all · one shot</text>
</g>

<g id="node4" class="node">
<title>loop</title>
<path stroke-width="1.8" d="M240.33,-1886.61C240.33,-1886.61 33.67,-1886.61 33.67,-1886.61 27.67,-1886.61 21.67,-1880.61 21.67,-1874.61 21.67,-1874.61 21.67,-1851.9 21.67,-1851.9 21.67,-1845.9 27.67,-1839.9 33.67,-1839.9 33.67,-1839.9 240.33,-1839.9 240.33,-1839.9 246.33,-1839.9 252.33,-1845.9 252.33,-1851.9 252.33,-1851.9 252.33,-1874.61 252.33,-1874.61 252.33,-1880.61 246.33,-1886.61 240.33,-1886.61" class="f-tra s-tra"/>
<text xml:space="preserve" text-anchor="middle" x="137" y="-1870.63" font-family="Helvetica,sans-Serif" font-size="10.00" class="t-ink">for each registered class</text>
<text xml:space="preserve" text-anchor="middle" x="137" y="-1859.38" font-family="Helvetica,sans-Serif" font-size="10.00" class="t-ink">each one is a try/except island with its own</text>
<text xml:space="preserve" text-anchor="middle" x="137" y="-1848.13" font-family="Helvetica,sans-Serif" font-size="10.00" class="t-ink">runs row — one outage never aborts the others</text>
</g>

<g id="edge1" class="edge">

<path fill="none" stroke-width="1.15" d="M106.01,-1985.06C111.65,-1963.08 122.03,-1922.64 129.21,-1894.63" class="s-edge"/>
<polygon stroke-width="1.15" points="131.16,-1895.47 130.62,-1889.13 127.09,-1894.42 131.16,-1895.47" class="a-edge s-edge"/>
</g>

<g id="node2" class="node">
<title>sqlite</title>
<path stroke-width="1.3" d="M401.21,-2140.39C401.21,-2142.63 360.78,-2144.45 311,-2144.45 261.22,-2144.45 220.79,-2142.63 220.79,-2140.39 220.79,-2140.39 220.79,-2103.88 220.79,-2103.88 220.79,-2101.64 261.22,-2099.82 311,-2099.82 360.78,-2099.82 401.21,-2101.64 401.21,-2103.88 401.21,-2103.88 401.21,-2140.39 401.21,-2140.39" class="f-srv s-srv"/>
<path fill="none" stroke-width="1.3" d="M401.21,-2140.39C401.21,-2138.16 360.78,-2136.34 311,-2136.34 261.22,-2136.34 220.79,-2138.16 220.79,-2140.39" class="s-srv"/>
<text xml:space="preserve" text-anchor="middle" x="311" y="-2122.86" font-family="Helvetica,sans-Serif" font-size="9.50" class="t-ink">SQLite</text>
<text xml:space="preserve" text-anchor="middle" x="311" y="-2113.11" font-family="Helvetica,sans-Serif" font-size="9.50" class="t-ink">classes · secrets · watermarks · runs</text>
</g>

<g id="node3" class="node">
<title>fern</title>
<path stroke-width="1.3" d="M388.58,-2022.82C388.58,-2022.82 231.42,-2022.82 231.42,-2022.82 225.42,-2022.82 219.42,-2016.82 219.42,-2010.82 219.42,-2010.82 219.42,-1992.61 219.42,-1992.61 219.42,-1986.61 225.42,-1980.61 231.42,-1980.61 231.42,-1980.61 388.58,-1980.61 388.58,-1980.61 394.58,-1980.61 400.58,-1986.61 400.58,-1992.61 400.58,-1992.61 400.58,-2010.82 400.58,-2010.82 400.58,-2016.82 394.58,-2022.82 388.58,-2022.82" class="f-uix s-uix"/>
<text xml:space="preserve" text-anchor="middle" x="310" y="-2007.79" font-family="Helvetica,sans-Serif" font-size="9.00" class="t-ink">Fernet encrypt / decrypt</text>
<text xml:space="preserve" text-anchor="middle" x="310" y="-1998.04" font-family="Helvetica,sans-Serif" font-size="9.00" class="t-ink">exactly one seam; plaintext exists only</text>
<text xml:space="preserve" text-anchor="middle" x="310" y="-1988.29" font-family="Helvetica,sans-Serif" font-size="9.00" class="t-ink">transiently, in memory, during a pass</text>
</g>

<g id="edge2" class="edge">

<path fill="none" stroke-width="1.15" d="M310.82,-2099.42C310.65,-2080.11 310.41,-2051.78 310.24,-2030.77" class="s-edge"/>
<polygon stroke-width="1.15" points="312.34,-2030.83 310.19,-2024.85 308.14,-2030.87 312.34,-2030.83" class="a-edge s-edge"/>
</g>

<g id="node14" class="node">
<title>prune</title>
<path stroke-width="1.8" d="M389.21,-812.86C389.21,-812.86 172.79,-812.86 172.79,-812.86 166.79,-812.86 160.79,-806.86 160.79,-800.86 160.79,-800.86 160.79,-772.9 160.79,-772.9 160.79,-766.9 166.79,-760.9 172.79,-760.9 172.79,-760.9 389.21,-760.9 389.21,-760.9 395.21,-760.9 401.21,-766.9 401.21,-772.9 401.21,-772.9 401.21,-800.86 401.21,-800.86 401.21,-806.86 395.21,-812.86 389.21,-812.86" class="f-tra s-tra"/>
<text xml:space="preserve" text-anchor="middle" x="281" y="-797.36" font-family="Helvetica,sans-Serif" font-size="9.50" class="t-ink">prune_export(zip_bytes, already_forwarded)</text>
<text xml:space="preserve" text-anchor="middle" x="281" y="-787.61" font-family="Helvetica,sans-Serif" font-size="9.50" class="t-ink">keep submission_metadata.yml BYTE&#45;FOR&#45;BYTE;</text>
<text xml:space="preserve" text-anchor="middle" x="281" y="-777.86" font-family="Helvetica,sans-Serif" font-size="9.50" class="t-ink">include only folders not in the watermark;</text>
<text xml:space="preserve" text-anchor="middle" x="281" y="-768.11" font-family="Helvetica,sans-Serif" font-size="9.50" class="t-ink">drop .DS_Store and __MACOSX/</text>
</g>

<g id="edge16" class="edge">

<path fill="none" stroke-width="1.15" stroke-dasharray="5,2" d="M378.08,-2099.23C419.97,-2080.88 466,-2049.96 466,-2002.72 466,-2002.72 466,-2002.72 466,-909.97 466,-864.76 427.05,-835.34 384.9,-816.73" class="s-srv"/>
<polygon stroke-width="1.15" points="385.78,-814.82 379.44,-814.41 384.13,-818.69 385.78,-814.82" class="a-srv s-srv"/>
<text xml:space="preserve" text-anchor="middle" x="506.12" y="-1467.95" font-family="Helvetica,sans-Serif" font-size="8.20" class="t-hum">already_forwarded set</text>
</g>

<g id="edge3" class="edge">

<path fill="none" stroke-width="1.15" d="M283.73,-1979.99C254,-1956.55 205.45,-1918.25 172.41,-1892.18" class="s-uix"/>
<polygon stroke-width="1.15" points="173.8,-1890.61 167.79,-1888.54 171.2,-1893.91 173.8,-1890.61" class="a-uix s-uix"/>
<text xml:space="preserve" text-anchor="middle" x="266.48" y="-1934.82" font-family="Helvetica,sans-Serif" font-size="8.20" class="t-hum">decrypt this class&#39;s</text>
<text xml:space="preserve" text-anchor="middle" x="266.48" y="-1925.82" font-family="Helvetica,sans-Serif" font-size="8.20" class="t-hum">credentials</text>
</g>

<g id="node5" class="node">
<title>gslogin</title>
<path stroke-width="1.3" d="M194.21,-1762.9C194.21,-1762.9 79.79,-1762.9 79.79,-1762.9 73.79,-1762.9 67.79,-1756.9 67.79,-1750.9 67.79,-1750.9 67.79,-1732.69 67.79,-1732.69 67.79,-1726.69 73.79,-1720.69 79.79,-1720.69 79.79,-1720.69 194.21,-1720.69 194.21,-1720.69 200.21,-1720.69 206.21,-1726.69 206.21,-1732.69 206.21,-1732.69 206.21,-1750.9 206.21,-1750.9 206.21,-1756.9 200.21,-1762.9 194.21,-1762.9" class="f-hum s-hum"/>
<text xml:space="preserve" text-anchor="middle" x="137" y="-1747.39" font-family="Helvetica,sans-Serif" font-size="9.50" class="t-ink">log in</text>
<text xml:space="preserve" text-anchor="middle" x="137" y="-1737.64" font-family="Helvetica,sans-Serif" font-size="9.50" class="t-ink">per class (own credentials,</text>
<text xml:space="preserve" text-anchor="middle" x="137" y="-1727.89" font-family="Helvetica,sans-Serif" font-size="9.50" class="t-ink">closed in a finally)</text>
</g>

<g id="edge4" class="edge">

<path fill="none" stroke-width="1.15" d="M137,-1839.22C137,-1819.74 137,-1791.76 137,-1770.96" class="s-edge"/>
<polygon stroke-width="1.15" points="139.1,-1771.11 137,-1765.11 134.9,-1771.11 139.1,-1771.11" class="a-edge s-edge"/>
</g>

<g id="node6" class="node">
<title>gsauth</title>
<path stroke-width="1.3" d="M125.81,-1631.35C125.81,-1631.35 74,-1611.23 74,-1611.23 68.41,-1609.06 68.41,-1604.72 74,-1602.55 74,-1602.55 125.81,-1582.43 125.81,-1582.43 131.41,-1580.26 142.59,-1580.26 148.19,-1582.43 148.19,-1582.43 200,-1602.55 200,-1602.55 205.59,-1604.72 205.59,-1609.06 200,-1611.23 200,-1611.23 148.19,-1631.35 148.19,-1631.35 142.59,-1633.52 131.41,-1633.52 125.81,-1631.35" class="f-panel s-bad"/>
<text xml:space="preserve" text-anchor="middle" x="137" y="-1608.09" font-family="Helvetica,sans-Serif" font-size="9.00" class="t-ink">login / export</text>
<text xml:space="preserve" text-anchor="middle" x="137" y="-1598.34" font-family="Helvetica,sans-Serif" font-size="9.00" class="t-ink">request failed?</text>
</g>

<g id="edge5" class="edge">

<path fill="none" stroke-width="1.15" d="M137,-1720.32C137,-1699.95 137,-1668.28 137,-1643.74" class="s-edge"/>
<polygon stroke-width="1.15" points="139.1,-1643.78 137,-1637.78 134.9,-1643.78 139.1,-1643.78" class="a-edge s-edge"/>
</g>

<g id="node7" class="node">
<title>gsback</title>
<path stroke-width="1.3" d="M159.83,-1493.09C159.83,-1493.09 52.17,-1493.09 52.17,-1493.09 46.17,-1493.09 40.17,-1487.09 40.17,-1481.09 40.17,-1481.09 40.17,-1461.38 40.17,-1461.38 40.17,-1455.38 46.17,-1449.38 52.17,-1449.38 52.17,-1449.38 159.83,-1449.38 159.83,-1449.38 165.83,-1449.38 171.83,-1455.38 171.83,-1461.38 171.83,-1461.38 171.83,-1481.09 171.83,-1481.09 171.83,-1487.09 165.83,-1493.09 159.83,-1493.09" class="f-bad s-bad"/>
<text xml:space="preserve" text-anchor="middle" x="106" y="-1478.06" font-family="Helvetica,sans-Serif" font-size="9.00" class="t-ink">raise GradescopeError</text>
<text xml:space="preserve" text-anchor="middle" x="106" y="-1468.31" font-family="Helvetica,sans-Serif" font-size="9.00" class="t-ink">→ isolate this class,</text>
<text xml:space="preserve" text-anchor="middle" x="106" y="-1457.06" font-family="Helvetica,sans-Serif" font-size="9.00" class="t-ink">move to the next (no retry)</text>
</g>

<g id="edge6" class="edge">

<path fill="none" stroke-width="1.15" stroke-dasharray="5,2" d="M130.95,-1579.8C125.67,-1557.04 118.03,-1524.09 112.59,-1500.67" class="s-bad"/>
<polygon stroke-width="1.15" points="114.71,-1500.49 111.31,-1495.12 110.62,-1501.43 114.71,-1500.49" class="a-bad s-bad"/>
<text xml:space="preserve" text-anchor="middle" x="127.5" y="-1532.3" font-family="Helvetica,sans-Serif" font-size="8.20" class="t-hum">yes</text>
</g>

<g id="node8" class="node">
<title>gslist</title>
<path stroke-width="1.3" d="M300.92,-1483.48C300.92,-1483.48 223.07,-1483.48 223.07,-1483.48 219,-1483.48 214.91,-1479.4 214.91,-1475.32 214.91,-1475.32 214.91,-1467.16 214.91,-1467.16 214.91,-1463.08 219,-1459 223.07,-1459 223.07,-1459 300.92,-1459 300.92,-1459 305,-1459 309.08,-1463.08 309.08,-1467.16 309.08,-1467.16 309.08,-1475.32 309.08,-1475.32 309.08,-1479.4 305,-1483.48 300.92,-1483.48" class="f-hum s-hum"/>
<text xml:space="preserve" text-anchor="middle" x="262" y="-1467.09" font-family="Helvetica,sans-Serif" font-size="9.50" class="t-ink">list assignments</text>
</g>

<g id="edge8" class="edge">

<path fill="none" stroke-width="1.15" d="M156.53,-1585.01C181.2,-1558.63 223.16,-1513.76 246.02,-1489.32" class="s-hum"/>
<polygon stroke-width="1.15" points="247.37,-1490.95 249.94,-1485.13 244.3,-1488.08 247.37,-1490.95" class="a-hum s-hum"/>
<text xml:space="preserve" text-anchor="middle" x="207.75" y="-1532.3" font-family="Helvetica,sans-Serif" font-size="8.20" class="t-hum">no</text>
</g>

<g id="edge7" class="edge">

<path fill="none" stroke-width="1.15" stroke-dasharray="5,2" d="M172.03,-1493.63C190.58,-1502.55 209.17,-1514.75 222,-1531.09 235.25,-1547.96 230.54,-1556.78 233,-1578.09 243.74,-1671.08 269.7,-1704.84 228,-1788.65 218.65,-1807.44 202.02,-1823.06 185.52,-1835" class="s-bad"/>
<polygon stroke-width="1.15" points="184.6,-1833.07 180.89,-1838.23 187.01,-1836.52 184.6,-1833.07" class="a-bad s-bad"/>
<text xml:space="preserve" text-anchor="middle" x="267.01" y="-1674.9" font-family="Helvetica,sans-Serif" font-size="8.20" class="t-hum">next class</text>
</g>

<g id="node9" class="node">
<title>gsdl</title>
<path stroke-width="1.3" d="M306.58,-1372.38C306.58,-1372.38 149.42,-1372.38 149.42,-1372.38 143.42,-1372.38 137.42,-1366.38 137.42,-1360.38 137.42,-1360.38 137.42,-1337.67 137.42,-1337.67 137.42,-1331.67 143.42,-1325.67 149.42,-1325.67 149.42,-1325.67 306.58,-1325.67 306.58,-1325.67 312.58,-1325.67 318.58,-1331.67 318.58,-1337.67 318.58,-1337.67 318.58,-1360.38 318.58,-1360.38 318.58,-1366.38 312.58,-1372.38 306.58,-1372.38" class="f-hum s-hum"/>
<text xml:space="preserve" text-anchor="middle" x="228" y="-1356.88" font-family="Helvetica,sans-Serif" font-size="9.50" class="t-ink">create export → poll</text>
<text xml:space="preserve" text-anchor="middle" x="228" y="-1344.88" font-family="Helvetica,sans-Serif" font-size="9.50" class="t-ink">generated_files/{id}.json until</text>
<text xml:space="preserve" text-anchor="middle" x="228" y="-1335.12" font-family="Helvetica,sans-Serif" font-size="9.50" class="t-ink">completed → stream presigned URL</text>
</g>

<g id="edge9" class="edge">

<path fill="none" stroke-width="1.15" d="M258.74,-1458.71C253.66,-1440.74 243.68,-1405.46 236.47,-1379.96" class="s-edge"/>
<polygon stroke-width="1.15" points="238.55,-1379.6 234.89,-1374.4 234.51,-1380.74 238.55,-1379.6" class="a-edge s-edge"/>
</g>

<g id="node10" class="node">
<title>gsprep</title>
<path stroke-width="1.3" d="M203.59,-1227.96C203.59,-1227.96 132.23,-1204.78 132.23,-1204.78 126.52,-1202.92 126.52,-1199.22 132.23,-1197.36 132.23,-1197.36 203.59,-1174.18 203.59,-1174.18 209.29,-1172.32 220.71,-1172.32 226.41,-1174.18 226.41,-1174.18 297.77,-1197.36 297.77,-1197.36 303.48,-1199.22 303.48,-1202.92 297.77,-1204.78 297.77,-1204.78 226.41,-1227.96 226.41,-1227.96 220.71,-1229.82 209.29,-1229.82 203.59,-1227.96" class="f-panel s-hum"/>
<text xml:space="preserve" text-anchor="middle" x="215" y="-1202.27" font-family="Helvetica,sans-Serif" font-size="9.00" class="t-ink">generated file</text>
<text xml:space="preserve" text-anchor="middle" x="215" y="-1192.52" font-family="Helvetica,sans-Serif" font-size="9.00" class="t-ink">status == completed?</text>
</g>

<g id="edge10" class="edge">

<path fill="none" stroke-width="1.15" d="M224.56,-1325.14C222.98,-1313.88 221.18,-1300.09 220,-1287.67 218.5,-1271.9 217.38,-1254.44 216.59,-1239.43" class="s-edge"/>
<polygon stroke-width="1.15" points="218.69,-1239.45 216.29,-1233.56 214.49,-1239.66 218.69,-1239.45" class="a-edge s-edge"/>
</g>

<g id="edge11" class="edge">

<path fill="none" stroke-width="1.15" stroke-dasharray="5,2" d="M217.6,-1231.26C219.83,-1256.32 223.04,-1292.32 225.3,-1317.71" class="s-hum"/>
<polygon stroke-width="1.15" points="223.19,-1317.7 225.81,-1323.49 227.37,-1317.32 223.19,-1317.7" class="a-hum s-hum"/>
<text xml:space="preserve" text-anchor="middle" x="256.03" y="-1279.88" font-family="Helvetica,sans-Serif" font-size="8.20" class="t-hum">no — keep polling</text>
<text xml:space="preserve" text-anchor="middle" x="256.03" y="-1270.88" font-family="Helvetica,sans-Serif" font-size="8.20" class="t-hum">the status endpoint</text>
</g>

<g id="node11" class="node">
<title>valid</title>
<path stroke-width="1.3" d="M203.45,-1082.2C203.45,-1082.2 105.71,-1054.54 105.71,-1054.54 99.94,-1052.9 99.94,-1049.64 105.71,-1048 105.71,-1048 203.45,-1020.34 203.45,-1020.34 209.23,-1018.7 220.77,-1018.7 226.55,-1020.34 226.55,-1020.34 324.29,-1048 324.29,-1048 330.06,-1049.64 330.06,-1052.9 324.29,-1054.54 324.29,-1054.54 226.55,-1082.2 226.55,-1082.2 220.77,-1083.84 209.23,-1083.84 203.45,-1082.2" class="f-panel s-tra"/>
<text xml:space="preserve" text-anchor="middle" x="215" y="-1052.47" font-family="Helvetica,sans-Serif" font-size="9.00" class="t-ink">does the archive really contain</text>
<text xml:space="preserve" text-anchor="middle" x="215" y="-1042.72" font-family="Helvetica,sans-Serif" font-size="9.00" class="t-ink">submission_metadata.yml?</text>
</g>

<g id="edge12" class="edge">

<path fill="none" stroke-width="1.15" d="M215,-1169.8C215,-1147.86 215,-1117.91 215,-1093.74" class="s-tra"/>
<polygon stroke-width="1.15" points="217.1,-1093.85 215,-1087.85 212.9,-1093.85 217.1,-1093.85" class="a-tra s-tra"/>
<text xml:space="preserve" text-anchor="middle" x="263.75" y="-1124.68" font-family="Helvetica,sans-Serif" font-size="8.20" class="t-hum">yes — download the export</text>
</g>

<g id="node12" class="node">
<title>bad</title>
<path stroke-width="1.3" d="M159.26,-927.2C159.26,-927.2 26.74,-927.2 26.74,-927.2 21.33,-927.2 15.92,-921.79 15.92,-916.38 15.92,-916.38 15.92,-905.56 15.92,-905.56 15.92,-900.15 21.33,-894.74 26.74,-894.74 26.74,-894.74 159.26,-894.74 159.26,-894.74 164.67,-894.74 170.08,-900.15 170.08,-905.56 170.08,-905.56 170.08,-916.38 170.08,-916.38 170.08,-921.79 164.67,-927.2 159.26,-927.2" class="f-bad s-bad"/>
<text xml:space="preserve" text-anchor="middle" x="93" y="-912.17" font-family="Helvetica,sans-Serif" font-size="9.00" class="t-ink">clear error — never assume the</text>
<text xml:space="preserve" text-anchor="middle" x="93" y="-902.42" font-family="Helvetica,sans-Serif" font-size="9.00" class="t-ink">top&#45;level folder name</text>
</g>

<g id="edge13" class="edge">

<path fill="none" stroke-width="1.15" stroke-dasharray="5,2" d="M191.19,-1023.28C167.95,-996.93 133.06,-957.38 111.74,-933.2" class="s-bad"/>
<polygon stroke-width="1.15" points="113.58,-932.12 108.03,-929.01 110.43,-934.9 113.58,-932.12" class="a-bad s-bad"/>
<text xml:space="preserve" text-anchor="middle" x="154.84" y="-971.28" font-family="Helvetica,sans-Serif" font-size="8.20" class="t-hum">no</text>
</g>

<g id="node13" class="node">
<title>enum</title>
<path stroke-width="1.3" d="M388.58,-932.07C388.58,-932.07 225.42,-932.07 225.42,-932.07 219.42,-932.07 213.42,-926.07 213.42,-920.07 213.42,-920.07 213.42,-901.86 213.42,-901.86 213.42,-895.86 219.42,-889.86 225.42,-889.86 225.42,-889.86 388.58,-889.86 388.58,-889.86 394.58,-889.86 400.58,-895.86 400.58,-901.86 400.58,-901.86 400.58,-920.07 400.58,-920.07 400.58,-926.07 394.58,-932.07 388.58,-932.07" class="f-tra s-tra"/>
<text xml:space="preserve" text-anchor="middle" x="307" y="-916.57" font-family="Helvetica,sans-Serif" font-size="9.50" class="t-ink">enumerate submission keys from</text>
<text xml:space="preserve" text-anchor="middle" x="307" y="-906.82" font-family="Helvetica,sans-Serif" font-size="9.50" class="t-ink">top&#45;level FOLDER NAMES</text>
<text xml:space="preserve" text-anchor="middle" x="307" y="-897.07" font-family="Helvetica,sans-Serif" font-size="9.50" class="t-ink">(metadata read only as opaque bytes)</text>
</g>

<g id="edge14" class="edge">

<path fill="none" stroke-width="1.15" d="M233.84,-1021.95C249.99,-997.68 273.09,-962.95 288.99,-939.04" class="s-tra"/>
<polygon stroke-width="1.15" points="290.73,-940.21 292.31,-934.05 287.23,-937.89 290.73,-940.21" class="a-tra s-tra"/>
<text xml:space="preserve" text-anchor="middle" x="272.51" y="-971.28" font-family="Helvetica,sans-Serif" font-size="8.20" class="t-hum">yes</text>
</g>

<g id="edge15" class="edge">

<path fill="none" stroke-width="1.15" d="M302.59,-889.25C298.6,-870.51 292.65,-842.59 288.01,-820.79" class="s-edge"/>
<polygon stroke-width="1.15" points="290.09,-820.49 286.79,-815.06 285.98,-821.37 290.09,-820.49" class="a-edge s-edge"/>
</g>

<g id="node15" class="node">
<title>never</title>
<polygon stroke-width="1.3" points="380.83,-675.9 171.17,-675.9 171.17,-633.69 386.83,-633.69 386.83,-669.9 380.83,-675.9" class="f-rec s-rec"/>
<polyline fill="none" stroke-width="1.3" points="380.83,-675.9 380.83,-669.9" class="s-rec"/>
<polyline fill="none" stroke-width="1.3" points="386.83,-669.9 380.83,-669.9" class="s-rec"/>
<text xml:space="preserve" text-anchor="middle" x="279" y="-660.87" font-family="Helvetica,sans-Serif" font-size="9.00" class="t-ink">never regenerate, re&#45;serialize or hand&#45;edit</text>
<text xml:space="preserve" text-anchor="middle" x="279" y="-651.12" font-family="Helvetica,sans-Serif" font-size="9.00" class="t-ink">the YAML — a round&#45;trip risks silently dropping</text>
<text xml:space="preserve" text-anchor="middle" x="279" y="-641.37" font-family="Helvetica,sans-Serif" font-size="9.00" class="t-ink">a field Provenance reads</text>
</g>

<g id="edge17" class="edge">

<path fill="none" stroke-width="1.15" stroke-dasharray="5,2" d="M280.6,-760.18C280.27,-738.19 279.78,-706.59 279.43,-683.93" class="s-rec"/>
<polygon stroke-width="1.15" points="281.53,-684.02 279.34,-678.05 277.33,-684.09 281.53,-684.02" class="a-rec s-rec"/>
</g>

<g id="node16" class="node">
<title>post</title>
<path stroke-width="1.3" d="M655.71,-675.9C655.71,-675.9 442.29,-675.9 442.29,-675.9 436.29,-675.9 430.29,-669.9 430.29,-663.9 430.29,-663.9 430.29,-645.69 430.29,-645.69 430.29,-639.69 436.29,-633.69 442.29,-633.69 442.29,-633.69 655.71,-633.69 655.71,-633.69 661.71,-633.69 667.71,-639.69 667.71,-645.69 667.71,-645.69 667.71,-663.9 667.71,-663.9 667.71,-669.9 661.71,-675.9 655.71,-675.9" class="f-srv s-srv"/>
<text xml:space="preserve" text-anchor="middle" x="549" y="-660.4" font-family="Helvetica,sans-Serif" font-size="9.50" class="t-ink">POST /semesters/{id}/ingest:gradescope</text>
<text xml:space="preserve" text-anchor="middle" x="549" y="-650.65" font-family="Helvetica,sans-Serif" font-size="9.50" class="t-ink">multipart, field &quot;archive&quot;, Bearer write token.</text>
<text xml:space="preserve" text-anchor="middle" x="549" y="-640.9" font-family="Helvetica,sans-Serif" font-size="9.50" class="t-ink">No assignment id is sent — Provenance derives it</text>
</g>

<g id="edge18" class="edge">

<path fill="none" stroke-width="1.15" d="M334.27,-760.02C382.43,-736.65 452.77,-702.51 499.67,-679.74" class="s-srv"/>
<polygon stroke-width="1.15" points="500.36,-681.74 504.84,-677.23 498.53,-677.96 500.36,-681.74" class="a-srv s-srv"/>
<text xml:space="preserve" text-anchor="middle" x="446.66" y="-715.11" font-family="Helvetica,sans-Serif" font-size="8.20" class="t-hum">only the delta</text>
</g>

<g id="node17" class="node">
<title>poll</title>
<path stroke-width="1.3" d="M601.39,-556.69C601.39,-556.69 496.61,-556.69 496.61,-556.69 491.2,-556.69 485.79,-551.28 485.79,-545.87 485.79,-545.87 485.79,-535.05 485.79,-535.05 485.79,-529.64 491.2,-524.23 496.61,-524.23 496.61,-524.23 601.39,-524.23 601.39,-524.23 606.8,-524.23 612.21,-529.64 612.21,-535.05 612.21,-535.05 612.21,-545.87 612.21,-545.87 612.21,-551.28 606.8,-556.69 601.39,-556.69" class="f-srv s-srv"/>
<text xml:space="preserve" text-anchor="middle" x="549" y="-541.19" font-family="Helvetica,sans-Serif" font-size="9.50" class="t-ink">GET /ingest/jobs/{jobId}</text>
<text xml:space="preserve" text-anchor="middle" x="549" y="-531.44" font-family="Helvetica,sans-Serif" font-size="9.50" class="t-ink">poll until terminal</text>
</g>

<g id="edge19" class="edge">

<path fill="none" stroke-width="1.15" d="M549,-633.19C549,-613.84 549,-584.93 549,-564.75" class="s-edge"/>
<polygon stroke-width="1.15" points="551.1,-564.96 549,-558.96 546.9,-564.96 551.1,-564.96" class="a-edge s-edge"/>
</g>

<g id="node18" class="node">
<title>term</title>
<path stroke-width="1.3" d="M538.58,-441.28C538.58,-441.28 508.99,-424.38 508.99,-424.38 503.78,-421.41 503.78,-415.45 508.99,-412.48 508.99,-412.48 538.58,-395.58 538.58,-395.58 543.79,-392.61 554.21,-392.61 559.42,-395.58 559.42,-395.58 589.01,-412.48 589.01,-412.48 594.22,-415.45 594.22,-421.41 589.01,-424.38 589.01,-424.38 559.42,-441.28 559.42,-441.28 554.21,-444.25 543.79,-444.25 538.58,-441.28" class="f-panel s-srv"/>
<text xml:space="preserve" text-anchor="middle" x="549" y="-419.63" font-family="Helvetica,sans-Serif" font-size="9.00" class="t-ink">terminal</text>
<text xml:space="preserve" text-anchor="middle" x="549" y="-409.88" font-family="Helvetica,sans-Serif" font-size="9.00" class="t-ink">status?</text>
</g>

<g id="edge20" class="edge">

<path fill="none" stroke-width="1.15" d="M549,-523.77C549,-506.41 549,-477.88 549,-455.04" class="s-edge"/>
<polygon stroke-width="1.15" points="551.1,-455.27 549,-449.27 546.9,-455.27 551.1,-455.27" class="a-edge s-edge"/>
</g>

<g id="node19" class="node">
<title>adv</title>
<path stroke-width="1.8" d="M450.01,-299.01C450.01,-299.01 293.99,-299.01 293.99,-299.01 288.08,-299.01 282.17,-293.1 282.17,-287.19 282.17,-287.19 282.17,-275.37 282.17,-275.37 282.17,-269.46 288.08,-263.55 293.99,-263.55 293.99,-263.55 450.01,-263.55 450.01,-263.55 455.92,-263.55 461.83,-269.46 461.83,-275.37 461.83,-275.37 461.83,-287.19 461.83,-287.19 461.83,-293.1 455.92,-299.01 450.01,-299.01" class="f-ana s-ana"/>
<text xml:space="preserve" text-anchor="middle" x="372" y="-283.03" font-family="Helvetica,sans-Serif" font-size="10.00" class="t-ink">ADVANCE the watermark</text>
<text xml:space="preserve" text-anchor="middle" x="372" y="-271.78" font-family="Helvetica,sans-Serif" font-size="10.00" class="t-ink">only now, after succeeded or partial</text>
</g>

<g id="edge21" class="edge">

<path fill="none" stroke-width="1.15" d="M527.65,-401.13C495.92,-376.9 436.27,-331.35 400.74,-304.22" class="s-ana"/>
<polygon stroke-width="1.15" points="402.25,-302.73 396.21,-300.76 399.7,-306.07 402.25,-302.73" class="a-ana s-ana"/>
<text xml:space="preserve" text-anchor="middle" x="493.88" y="-343.84" font-family="Helvetica,sans-Serif" font-size="8.20" class="t-hum">succeeded / partial</text>
</g>

<g id="node20" class="node">
<title>hold</title>
<path stroke-width="1.8" d="M713.09,-304.63C713.09,-304.63 516.91,-304.63 516.91,-304.63 510.91,-304.63 504.91,-298.63 504.91,-292.63 504.91,-292.63 504.91,-269.92 504.91,-269.92 504.91,-263.92 510.91,-257.92 516.91,-257.92 516.91,-257.92 713.09,-257.92 713.09,-257.92 719.09,-257.92 725.09,-263.92 725.09,-269.92 725.09,-269.92 725.09,-292.63 725.09,-292.63 725.09,-298.63 719.09,-304.63 713.09,-304.63" class="f-bad s-bad"/>
<text xml:space="preserve" text-anchor="middle" x="615" y="-288.65" font-family="Helvetica,sans-Serif" font-size="10.00" class="t-ink">LEAVE the watermark untouched</text>
<text xml:space="preserve" text-anchor="middle" x="615" y="-277.4" font-family="Helvetica,sans-Serif" font-size="10.00" class="t-ink">so the next run retries. A crash mid&#45;poll must</text>
<text xml:space="preserve" text-anchor="middle" x="615" y="-266.15" font-family="Helvetica,sans-Serif" font-size="10.00" class="t-ink">never lose submissions.</text>
</g>

<g id="edge22" class="edge">

<path fill="none" stroke-width="1.15" d="M559.9,-395.11C571.01,-372.36 588.31,-336.94 600.55,-311.86" class="s-bad"/>
<polygon stroke-width="1.15" points="602.36,-312.96 603.1,-306.64 598.58,-311.11 602.36,-312.96" class="a-bad s-bad"/>
<text xml:space="preserve" text-anchor="middle" x="616.98" y="-343.84" font-family="Helvetica,sans-Serif" font-size="8.20" class="t-hum">failed, or any error</text>
</g>

<g id="edge23" class="edge">

<path fill="none" stroke-width="1.15" d="M457.87,-299.84C539.16,-316.53 650.21,-339.54 660,-342.63 701.96,-355.87 726.78,-344.9 751,-381.63 829.3,-500.37 764.49,-560.06 751,-701.65 694.3,-1296.9 728.6,-1471.56 497,-2022.82 488.83,-2042.26 486.64,-2048.88 470,-2061.82 451.03,-2076.58 428.01,-2087.95 405.45,-2096.6" class="s-srv"/>
<polygon stroke-width="1.15" points="404.99,-2094.53 400.09,-2098.59 406.45,-2098.47 404.99,-2094.53" class="a-srv s-srv"/>
</g>

<g id="node21" class="node">
<title>dedupnote</title>
<polygon stroke-width="1.3" points="472.46,-180.92 173.54,-180.92 173.54,-119.21 478.46,-119.21 478.46,-174.92 472.46,-180.92" class="f-rec s-rec"/>
<polyline fill="none" stroke-width="1.3" points="472.46,-180.92 472.46,-174.92" class="s-rec"/>
<polyline fill="none" stroke-width="1.3" points="478.46,-174.92 472.46,-174.92" class="s-rec"/>
<text xml:space="preserve" text-anchor="middle" x="326" y="-165.89" font-family="Helvetica,sans-Serif" font-size="9.00" class="t-ink">Provenance dedups by content hash before any heavy work.</text>
<text xml:space="preserve" text-anchor="middle" x="326" y="-156.14" font-family="Helvetica,sans-Serif" font-size="9.00" class="t-ink">The watermark is therefore an OPTIMISATION, never the correctness</text>
<text xml:space="preserve" text-anchor="middle" x="326" y="-146.39" font-family="Helvetica,sans-Serif" font-size="9.00" class="t-ink">mechanism — when in doubt, forward. A resubmission gets a new</text>
<text xml:space="preserve" text-anchor="middle" x="326" y="-136.64" font-family="Helvetica,sans-Serif" font-size="9.00" class="t-ink">Gradescope key and must be sent; if the watermark gated that,</text>
<text xml:space="preserve" text-anchor="middle" x="326" y="-126.89" font-family="Helvetica,sans-Serif" font-size="9.00" class="t-ink">a changed submission could be silently lost.</text>
</g>

<g id="edge24" class="edge">

<path fill="none" stroke-width="1.15" stroke-dasharray="5,2" d="M365.8,-262.85C359.06,-243.92 348.08,-213.09 339.36,-188.6" class="s-rec"/>
<polygon stroke-width="1.15" points="341.43,-188.14 337.44,-183.2 337.47,-189.55 341.43,-188.14" class="a-rec s-rec"/>
</g>

<g id="node22" class="node">
<title>runs</title>
<path stroke-width="1.3" d="M696.96,-171.17C696.96,-171.17 533.04,-171.17 533.04,-171.17 527.04,-171.17 521.04,-165.17 521.04,-159.17 521.04,-159.17 521.04,-140.96 521.04,-140.96 521.04,-134.96 527.04,-128.96 533.04,-128.96 533.04,-128.96 696.96,-128.96 696.96,-128.96 702.96,-128.96 708.96,-134.96 708.96,-140.96 708.96,-140.96 708.96,-159.17 708.96,-159.17 708.96,-165.17 702.96,-171.17 696.96,-171.17" class="f-srv s-srv"/>
<text xml:space="preserve" text-anchor="middle" x="615" y="-156.14" font-family="Helvetica,sans-Serif" font-size="9.00" class="t-ink">write a runs row</text>
<text xml:space="preserve" text-anchor="middle" x="615" y="-146.39" font-family="Helvetica,sans-Serif" font-size="9.00" class="t-ink">class label, counts, job ids, outcomes —</text>
<text xml:space="preserve" text-anchor="middle" x="615" y="-136.64" font-family="Helvetica,sans-Serif" font-size="9.00" class="t-ink">never a password, token or cookie</text>
</g>

<g id="edge25" class="edge">

<path fill="none" stroke-width="1.15" d="M405.02,-262.71C447.54,-240.11 521.61,-200.72 569.45,-175.29" class="s-edge"/>
<polygon stroke-width="1.15" points="570.17,-177.28 574.48,-172.61 568.2,-173.57 570.17,-177.28" class="a-edge s-edge"/>
</g>

<g id="edge26" class="edge">

<path fill="none" stroke-width="1.15" d="M615,-257.17C615,-235.26 615,-202.3 615,-178.94" class="s-edge"/>
<polygon stroke-width="1.15" points="617.1,-179.15 615,-173.15 612.9,-179.15 617.1,-179.15" class="a-edge s-edge"/>
</g>

<g id="node23" class="node">
<title>notify</title>
<path stroke-width="1.3" stroke-dasharray="5,2" d="M703.34,-42.21C703.34,-42.21 526.66,-42.21 526.66,-42.21 520.66,-42.21 514.66,-36.21 514.66,-30.21 514.66,-30.21 514.66,-12 514.66,-12 514.66,-6 520.66,0 526.66,0 526.66,0 703.34,0 703.34,0 709.34,0 715.34,-6 715.34,-12 715.34,-12 715.34,-30.21 715.34,-30.21 715.34,-36.21 709.34,-42.21 703.34,-42.21" class="f-hum s-hum"/>
<text xml:space="preserve" text-anchor="middle" x="615" y="-27.18" font-family="Helvetica,sans-Serif" font-size="9.00" class="t-ink">notify/ — render (pure) then POST</text>
<text xml:space="preserve" text-anchor="middle" x="615" y="-17.43" font-family="Helvetica,sans-Serif" font-size="9.00" class="t-ink">fires only after the pass is already reported,</text>
<text xml:space="preserve" text-anchor="middle" x="615" y="-7.68" font-family="Helvetica,sans-Serif" font-size="9.00" class="t-ink">and swallows every exception</text>
</g>

<g id="edge27" class="edge">

<path fill="none" stroke-width="1.15" stroke-dasharray="5,2" d="M615,-128.38C615,-107.17 615,-74.03 615,-50.4" class="s-edge"/>
<polygon stroke-width="1.15" points="617.1,-50.52 615,-44.52 612.9,-50.52 617.1,-50.52" class="a-edge s-edge"/>
</g>
</g>
</svg>