<svg width="659pt" height="976pt"
 viewBox="0.00 0.00 659.00 976.00" xmlns="http://www.w3.org/2000/svg" xmlns:xlink="http://www.w3.org/1999/xlink">
<g id="graph0" class="graph" transform="scale(1 1) rotate(0) translate(4 972.27)">
<title>readpath</title>
<g id="clust1" class="cluster">
<title>cluster_req</title>
<path stroke-width="1.5" d="M72,-890.52C72,-890.52 631,-890.52 631,-890.52 637,-890.52 643,-896.52 643,-902.52 643,-902.52 643,-948.27 643,-948.27 643,-954.27 637,-960.27 631,-960.27 631,-960.27 72,-960.27 72,-960.27 66,-960.27 60,-954.27 60,-948.27 60,-948.27 60,-902.52 60,-902.52 60,-896.52 66,-890.52 72,-890.52" class="f-uix s-uix"/>
<text xml:space="preserve" text-anchor="middle" x="158" y="-947.24" font-family="Helvetica,sans-Serif" font-size="9.50" class="t-uix"> &#160;WHAT THE STAFF MEMBER CLICKED &#160;</text>
</g>
<g id="clust2" class="cluster">
<title>cluster_cheap</title>
<path stroke-width="1.5" d="M20,-660.96C20,-660.96 259,-660.96 259,-660.96 265,-660.96 271,-666.96 271,-672.96 271,-672.96 271,-837.52 271,-837.52 271,-843.52 265,-849.52 259,-849.52 259,-849.52 20,-849.52 20,-849.52 14,-849.52 8,-843.52 8,-837.52 8,-837.52 8,-672.96 8,-672.96 8,-666.96 14,-660.96 20,-660.96" class="f-srv s-srv"/>
<text xml:space="preserve" text-anchor="middle" x="139.38" y="-836.49" font-family="Helvetica,sans-Serif" font-size="9.50" class="t-srv"> &#160;SERVED FROM POSTGRES — precomputed at ingest &#160;</text>
</g>
<g id="clust3" class="cluster">
<title>cluster_deep</title>
<path stroke-width="1.5" d="M292,-100.71C292,-100.71 536,-100.71 536,-100.71 542,-100.71 548,-106.71 548,-112.71 548,-112.71 548,-834.41 548,-834.41 548,-840.41 542,-846.41 536,-846.41 536,-846.41 292,-846.41 292,-846.41 286,-846.41 280,-840.41 280,-834.41 280,-834.41 280,-112.71 280,-112.71 280,-106.71 286,-100.71 292,-100.71" class="f-ana s-ana"/>
<text xml:space="preserve" text-anchor="middle" x="357.75" y="-833.39" font-family="Helvetica,sans-Serif" font-size="9.50" class="t-ana"> &#160;NEEDS THE EVENT STREAM &#160;</text>
</g>

<g id="node1" class="node">
<title>r_cohort</title>
<path stroke-width="1.3" d="M118.43,-934.52C118.43,-934.52 79.58,-934.52 79.58,-934.52 73.58,-934.52 67.58,-928.52 67.58,-922.52 67.58,-922.52 67.58,-910.52 67.58,-910.52 67.58,-904.52 73.58,-898.52 79.58,-898.52 79.58,-898.52 118.43,-898.52 118.43,-898.52 124.43,-898.52 130.43,-904.52 130.43,-910.52 130.43,-910.52 130.43,-922.52 130.43,-922.52 130.43,-928.52 124.43,-934.52 118.43,-934.52" class="f-uix s-uix"/>
<text xml:space="preserve" text-anchor="middle" x="99" y="-912.37" font-family="Helvetica,sans-Serif" font-size="9.50" class="t-ink">cohort list</text>
</g>

<g id="node7" class="node">
<title>pgq</title>
<path stroke-width="1.3" d="M176.55,-823.77C176.55,-823.77 33.45,-823.77 33.45,-823.77 27.45,-823.77 21.45,-817.77 21.45,-811.77 21.45,-811.77 21.45,-793.56 21.45,-793.56 21.45,-787.56 27.45,-781.56 33.45,-781.56 33.45,-781.56 176.55,-781.56 176.55,-781.56 182.55,-781.56 188.55,-787.56 188.55,-793.56 188.55,-793.56 188.55,-811.77 188.55,-811.77 188.55,-817.77 182.55,-823.77 176.55,-823.77" class="f-srv s-srv"/>
<text xml:space="preserve" text-anchor="middle" x="105" y="-808.26" font-family="Helvetica,sans-Serif" font-size="9.50" class="t-ink">SELECT</text>
<text xml:space="preserve" text-anchor="middle" x="105" y="-798.51" font-family="Helvetica,sans-Serif" font-size="9.50" class="t-ink">submissions · flags · per_file_stats</text>
<text xml:space="preserve" text-anchor="middle" x="105" y="-788.76" font-family="Helvetica,sans-Serif" font-size="9.50" class="t-ink">validation_results · cross_flags</text>
</g>

<g id="edge1" class="edge">
<title>r_cohort&#45;&gt;pgq</title>
<path fill="none" stroke-width="1.15" d="M99.94,-898.04C100.89,-880.28 102.38,-852.49 103.5,-831.66" class="s-uix"/>
<polygon stroke-width="1.15" points="105.59,-831.89 103.81,-825.79 101.39,-831.67 105.59,-831.89" class="a-uix s-uix"/>
</g>

<g id="node2" class="node">
<title>r_over</title>
<path stroke-width="1.3" d="M215.43,-934.52C215.43,-934.52 164.57,-934.52 164.57,-934.52 158.57,-934.52 152.57,-928.52 152.57,-922.52 152.57,-922.52 152.57,-910.52 152.57,-910.52 152.57,-904.52 158.57,-898.52 164.57,-898.52 164.57,-898.52 215.43,-898.52 215.43,-898.52 221.43,-898.52 227.43,-904.52 227.43,-910.52 227.43,-910.52 227.43,-922.52 227.43,-922.52 227.43,-928.52 221.43,-934.52 215.43,-934.52" class="f-uix s-uix"/>
<text xml:space="preserve" text-anchor="middle" x="190" y="-912.37" font-family="Helvetica,sans-Serif" font-size="9.50" class="t-ink">overview tab</text>
</g>

<g id="edge2" class="edge">
<title>r_over&#45;&gt;pgq</title>
<path fill="none" stroke-width="1.15" d="M169.93,-898.17C162.75,-891.46 154.87,-883.49 148.5,-875.52 137.47,-861.71 127.14,-844.88 119.31,-830.98" class="s-uix"/>
<polygon stroke-width="1.15" points="121.26,-830.17 116.52,-825.93 117.59,-832.2 121.26,-830.17" class="a-uix s-uix"/>
<text xml:space="preserve" text-anchor="middle" x="191.25" y="-867.73" font-family="Helvetica,sans-Serif" font-size="8.20" class="t-hum">flags + stats</text>
<text xml:space="preserve" text-anchor="middle" x="191.25" y="-858.73" font-family="Helvetica,sans-Serif" font-size="8.20" class="t-hum">from precomputed rows</text>
</g>

<g id="node9" class="node">
<title>lsi</title>
<path stroke-width="1.3" d="M449.55,-820.66C449.55,-820.66 300.45,-820.66 300.45,-820.66 294.45,-820.66 288.45,-814.66 288.45,-808.66 288.45,-808.66 288.45,-796.66 288.45,-796.66 288.45,-790.66 294.45,-784.66 300.45,-784.66 300.45,-784.66 449.55,-784.66 449.55,-784.66 455.55,-784.66 461.55,-790.66 461.55,-796.66 461.55,-796.66 461.55,-808.66 461.55,-808.66 461.55,-814.66 455.55,-820.66 449.55,-820.66" class="f-ana s-ana"/>
<text xml:space="preserve" text-anchor="middle" x="375" y="-798.51" font-family="Helvetica,sans-Serif" font-size="9.50" class="t-ink">loadSubmissionIndex(submissionId)</text>
</g>

<g id="edge5" class="edge">
<title>r_over&#45;&gt;lsi</title>
<path fill="none" stroke-width="1.15" stroke-dasharray="5,2" d="M209.99,-897.96C228.13,-882.11 252.81,-860.79 258,-857.52 265.41,-852.85 268.03,-853.14 276,-849.52 293.97,-841.37 313.71,-832.25 330.8,-824.32" class="s-uix"/>
<polygon stroke-width="1.15" points="331.32,-826.39 335.88,-821.95 329.55,-822.58 331.32,-826.39" class="a-uix s-uix"/>
<text xml:space="preserve" text-anchor="middle" x="291" y="-867.73" font-family="Helvetica,sans-Serif" font-size="8.20" class="t-hum">AND re&#45;parses for</text>
<text xml:space="preserve" text-anchor="middle" x="291" y="-858.73" font-family="Helvetica,sans-Serif" font-size="8.20" class="t-hum">the session list</text>
</g>

<g id="node3" class="node">
<title>r_time</title>
<path stroke-width="1.3" d="M308.93,-934.52C308.93,-934.52 261.07,-934.52 261.07,-934.52 255.07,-934.52 249.07,-928.52 249.07,-922.52 249.07,-922.52 249.07,-910.52 249.07,-910.52 249.07,-904.52 255.07,-898.52 261.07,-898.52 261.07,-898.52 308.93,-898.52 308.93,-898.52 314.93,-898.52 320.93,-904.52 320.93,-910.52 320.93,-910.52 320.93,-922.52 320.93,-922.52 320.93,-928.52 314.93,-934.52 308.93,-934.52" class="f-uix s-uix"/>
<text xml:space="preserve" text-anchor="middle" x="285" y="-912.37" font-family="Helvetica,sans-Serif" font-size="9.50" class="t-ink">timeline tab</text>
</g>

<g id="edge6" class="edge">
<title>r_time&#45;&gt;lsi</title>
<path fill="none" stroke-width="1.15" d="M306.24,-898.24C313.84,-891.55 322.21,-883.56 329,-875.52 341.6,-860.6 353.42,-842 361.92,-827.45" class="s-uix"/>
<polygon stroke-width="1.15" points="363.54,-828.84 364.72,-822.6 359.9,-826.75 363.54,-828.84" class="a-uix s-uix"/>
</g>

<g id="node4" class="node">
<title>r_replay</title>
<path stroke-width="1.3" d="M394.8,-934.52C394.8,-934.52 355.2,-934.52 355.2,-934.52 349.2,-934.52 343.2,-928.52 343.2,-922.52 343.2,-922.52 343.2,-910.52 343.2,-910.52 343.2,-904.52 349.2,-898.52 355.2,-898.52 355.2,-898.52 394.8,-898.52 394.8,-898.52 400.8,-898.52 406.8,-904.52 406.8,-910.52 406.8,-910.52 406.8,-922.52 406.8,-922.52 406.8,-928.52 400.8,-934.52 394.8,-934.52" class="f-uix s-uix"/>
<text xml:space="preserve" text-anchor="middle" x="375" y="-912.37" font-family="Helvetica,sans-Serif" font-size="9.50" class="t-ink">replay tab</text>
</g>

<g id="edge7" class="edge">
<title>r_replay&#45;&gt;lsi</title>
<path fill="none" stroke-width="1.15" d="M375,-898.04C375,-879.41 375,-849.74 375,-828.64" class="s-uix"/>
<polygon stroke-width="1.15" points="377.1,-828.76 375,-822.76 372.9,-828.76 377.1,-828.76" class="a-uix s-uix"/>
</g>

<g id="node5" class="node">
<title>r_src</title>
<path stroke-width="1.3" d="M622.92,-934.52C622.92,-934.52 581.08,-934.52 581.08,-934.52 575.08,-934.52 569.08,-928.52 569.08,-922.52 569.08,-922.52 569.08,-910.52 569.08,-910.52 569.08,-904.52 575.08,-898.52 581.08,-898.52 581.08,-898.52 622.92,-898.52 622.92,-898.52 628.92,-898.52 634.92,-904.52 634.92,-910.52 634.92,-910.52 634.92,-922.52 634.92,-922.52 634.92,-928.52 628.92,-934.52 622.92,-934.52" class="f-uix s-uix"/>
<text xml:space="preserve" text-anchor="middle" x="602" y="-912.37" font-family="Helvetica,sans-Serif" font-size="9.50" class="t-ink">source tab</text>
</g>

<g id="node11" class="node">
<title>fetch</title>
<path stroke-width="1.3" d="M440.8,-604.96C440.8,-604.96 401.2,-604.96 401.2,-604.96 395.2,-604.96 389.2,-598.96 389.2,-592.96 389.2,-592.96 389.2,-580.96 389.2,-580.96 389.2,-574.96 395.2,-568.96 401.2,-568.96 401.2,-568.96 440.8,-568.96 440.8,-568.96 446.8,-568.96 452.8,-574.96 452.8,-580.96 452.8,-580.96 452.8,-592.96 452.8,-592.96 452.8,-598.96 446.8,-604.96 440.8,-604.96" class="f-srv s-srv"/>
<text xml:space="preserve" text-anchor="middle" x="421" y="-582.81" font-family="Helvetica,sans-Serif" font-size="9.50" class="t-ink">fetch blob</text>
</g>

<g id="edge9" class="edge">
<title>r_src&#45;&gt;fetch</title>
<path fill="none" stroke-width="1.15" stroke-dasharray="5,2" d="M592.27,-897.91C561.88,-842.9 468.69,-674.26 434.1,-611.67" class="s-uix"/>
<polygon stroke-width="1.15" points="436.14,-611.02 431.4,-606.78 432.47,-613.05 436.14,-611.02" class="a-uix s-uix"/>
<text xml:space="preserve" text-anchor="middle" x="570.96" y="-750.77" font-family="Helvetica,sans-Serif" font-size="8.20" class="t-hum">own loadBundle + buildIndex —</text>
<text xml:space="preserve" text-anchor="middle" x="570.96" y="-741.77" font-family="Helvetica,sans-Serif" font-size="8.20" class="t-hum">bypasses the LRU&#45;cached index</text>
</g>

<g id="node6" class="node">
<title>r_recomp</title>
<path stroke-width="1.3" d="M535.17,-934.52C535.17,-934.52 440.82,-934.52 440.82,-934.52 434.82,-934.52 428.82,-928.52 428.82,-922.52 428.82,-922.52 428.82,-910.52 428.82,-910.52 428.82,-904.52 434.82,-898.52 440.82,-898.52 440.82,-898.52 535.17,-898.52 535.17,-898.52 541.17,-898.52 547.17,-904.52 547.17,-910.52 547.17,-910.52 547.17,-922.52 547.17,-922.52 547.17,-928.52 541.17,-934.52 535.17,-934.52" class="f-uix s-uix"/>
<text xml:space="preserve" text-anchor="middle" x="488" y="-912.37" font-family="Helvetica,sans-Serif" font-size="9.50" class="t-ink">recompute after tuning</text>
</g>

<g id="edge8" class="edge">
<title>r_recomp&#45;&gt;lsi</title>
<path fill="none" stroke-width="1.15" d="M470.34,-898.04C450.86,-878.75 419.42,-847.63 398.01,-826.45" class="s-uix"/>
<polygon stroke-width="1.15" points="399.51,-824.97 393.77,-822.24 396.56,-827.96 399.51,-824.97" class="a-uix s-uix"/>
</g>

<g id="node8" class="node">
<title>pg</title>
<path stroke-width="1.3" d="M134.18,-704.96C134.18,-706.95 121.1,-708.56 105,-708.56 88.9,-708.56 75.83,-706.95 75.83,-704.96 75.83,-704.96 75.83,-672.56 75.83,-672.56 75.83,-670.57 88.9,-668.96 105,-668.96 121.1,-668.96 134.18,-670.57 134.18,-672.56 134.18,-672.56 134.18,-704.96 134.18,-704.96" class="f-srv s-srv"/>
<path fill="none" stroke-width="1.3" d="M134.18,-704.96C134.18,-702.97 121.1,-701.36 105,-701.36 88.9,-701.36 75.83,-702.97 75.83,-704.96" class="s-srv"/>
<text xml:space="preserve" text-anchor="middle" x="105" y="-684.61" font-family="Helvetica,sans-Serif" font-size="9.50" class="t-ink">Postgres</text>
</g>

<g id="edge3" class="edge">
<title>pgq&#45;&gt;pg</title>
<path fill="none" stroke-width="1.15" d="M99.83,-781.19C98.27,-774.07 96.77,-766.01 96,-758.56 94.57,-744.67 96.28,-729.25 98.58,-716.53" class="s-edge"/>
<polygon stroke-width="1.15" points="100.62,-717 99.73,-710.71 96.5,-716.19 100.62,-717" class="a-edge s-edge"/>
</g>

<g id="edge4" class="edge">
<title>pg&#45;&gt;pgq</title>
<path fill="none" stroke-width="1.15" d="M105,-716.53C105,-736.36 105,-762.98 105,-781.14" class="s-srv"/>
<polygon stroke-width="1.15" points="107.1,-716.77 105,-710.77 102.9,-716.77 107.1,-716.77" class="a-srv s-srv"/>
<text xml:space="preserve" text-anchor="middle" x="113.62" y="-746.27" font-family="Helvetica,sans-Serif" font-size="8.20" class="t-hum">rows</text>
</g>

<g id="node10" class="node">
<title>cache</title>
<path stroke-width="1.3" d="M364.11,-712.51C364.11,-712.51 323.74,-693.8 323.74,-693.8 318.3,-691.28 318.3,-686.24 323.74,-683.71 323.74,-683.71 364.11,-665 364.11,-665 369.56,-662.48 380.44,-662.48 385.89,-665 385.89,-665 426.26,-683.71 426.26,-683.71 431.7,-686.24 431.7,-691.28 426.26,-693.8 426.26,-693.8 385.89,-712.51 385.89,-712.51 380.44,-715.04 369.56,-715.04 364.11,-712.51" class="f-panel s-srv"/>
<text xml:space="preserve" text-anchor="middle" x="375" y="-689.96" font-family="Helvetica,sans-Serif" font-size="9.00" class="t-ink">in the</text>
<text xml:space="preserve" text-anchor="middle" x="375" y="-680.21" font-family="Helvetica,sans-Serif" font-size="9.00" class="t-ink">LRU cache?</text>
</g>

<g id="edge10" class="edge">
<title>lsi&#45;&gt;cache</title>
<path fill="none" stroke-width="1.15" d="M375,-784.18C375,-768.55 375,-745.16 375,-725.57" class="s-edge"/>
<polygon stroke-width="1.15" points="377.1,-725.74 375,-719.74 372.9,-725.74 377.1,-725.74" class="a-edge s-edge"/>
</g>

<g id="edge12" class="edge">
<title>cache&#45;&gt;fetch</title>
<path fill="none" stroke-width="1.15" d="M385.78,-664.36C392.97,-648.77 402.39,-628.32 409.69,-612.5" class="s-srv"/>
<polygon stroke-width="1.15" points="411.54,-613.51 412.14,-607.18 407.72,-611.75 411.54,-613.51" class="a-srv s-srv"/>
<text xml:space="preserve" text-anchor="middle" x="410" y="-629.17" font-family="Helvetica,sans-Serif" font-size="8.20" class="t-hum">miss</text>
</g>

<g id="node16" class="node">
<title>ret</title>
<polygon stroke-width="1.3" points="372.3,-144.71 287.7,-144.71 287.7,-108.71 378.3,-108.71 378.3,-138.71 372.3,-144.71" class="f-ana s-ana"/>
<polyline fill="none" stroke-width="1.3" points="372.3,-144.71 372.3,-138.71" class="s-ana"/>
<polyline fill="none" stroke-width="1.3" points="378.3,-138.71 372.3,-138.71" class="s-ana"/>
<text xml:space="preserve" text-anchor="middle" x="333" y="-122.56" font-family="Helvetica,sans-Serif" font-size="9.50" class="t-ink">{ bundle, index }</text>
</g>

<g id="edge11" class="edge">
<title>cache&#45;&gt;ret</title>
<path fill="none" stroke-width="1.15" d="M353.72,-669.44C334.76,-650.99 310,-620.63 310,-587.96 310,-587.96 310,-587.96 310,-439.92 310,-329.6 305.48,-301.78 313,-191.71 313.73,-180.99 313.2,-178.09 316,-167.71 317.37,-162.62 319.26,-157.33 321.28,-152.32" class="s-ana"/>
<polygon stroke-width="1.15" points="323.19,-153.2 323.61,-146.86 319.33,-151.55 323.19,-153.2" class="a-ana s-ana"/>
<text xml:space="preserve" text-anchor="middle" x="314.06" y="-395.63" font-family="Helvetica,sans-Serif" font-size="8.20" class="t-hum">hit</text>
</g>

<g id="node12" class="node">
<title>blob</title>
<path stroke-width="1.3" d="M489.55,-516.68C489.55,-519.59 458.82,-521.96 421,-521.96 383.18,-521.96 352.45,-519.59 352.45,-516.68 352.45,-516.68 352.45,-469.2 352.45,-469.2 352.45,-466.28 383.18,-463.92 421,-463.92 458.82,-463.92 489.55,-466.28 489.55,-469.2 489.55,-469.2 489.55,-516.68 489.55,-516.68" class="f-srv s-srv"/>
<path fill="none" stroke-width="1.3" d="M489.55,-516.68C489.55,-513.77 458.82,-511.41 421,-511.41 383.18,-511.41 352.45,-513.77 352.45,-516.68" class="s-srv"/>
<text xml:space="preserve" text-anchor="middle" x="421" y="-498.54" font-family="Helvetica,sans-Serif" font-size="9.50" class="t-ink">Blob store</text>
<text xml:space="preserve" text-anchor="middle" x="421" y="-488.79" font-family="Helvetica,sans-Serif" font-size="9.50" class="t-ink">the stored bundle —</text>
<text xml:space="preserve" text-anchor="middle" x="421" y="-479.04" font-family="Helvetica,sans-Serif" font-size="9.50" class="t-ink">provenance&#45;only, no source</text>
</g>

<g id="edge13" class="edge">
<title>fetch&#45;&gt;blob</title>
<path fill="none" stroke-width="1.15" d="M421,-568.65C421,-557.77 421,-543.33 421,-530.04" class="s-edge"/>
<polygon stroke-width="1.15" points="423.1,-530.12 421,-524.12 418.9,-530.12 423.1,-530.12" class="a-edge s-edge"/>
</g>

<g id="node13" class="node">
<title>parse</title>
<path stroke-width="1.3" d="M472.68,-416.92C472.68,-416.92 369.32,-416.92 369.32,-416.92 363.32,-416.92 357.32,-410.92 357.32,-404.92 357.32,-404.92 357.32,-392.92 357.32,-392.92 357.32,-386.92 363.32,-380.92 369.32,-380.92 369.32,-380.92 472.68,-380.92 472.68,-380.92 478.68,-380.92 484.68,-386.92 484.68,-392.92 484.68,-392.92 484.68,-404.92 484.68,-404.92 484.68,-410.92 478.68,-416.92 472.68,-416.92" class="f-ana s-ana"/>
<text xml:space="preserve" text-anchor="middle" x="421" y="-394.77" font-family="Helvetica,sans-Serif" font-size="9.50" class="t-ink">unzip + parse every .slog</text>
</g>

<g id="edge14" class="edge">
<title>blob&#45;&gt;parse</title>
<path fill="none" stroke-width="1.15" d="M421,-463.33C421,-451.04 421,-436.8 421,-424.94" class="s-srv"/>
<polygon stroke-width="1.15" points="423.1,-425.27 421,-419.27 418.9,-425.27 423.1,-425.27" class="a-srv s-srv"/>
</g>

<g id="node14" class="node">
<title>idx</title>
<path stroke-width="1.3" d="M491.8,-333.92C491.8,-333.92 350.2,-333.92 350.2,-333.92 344.2,-333.92 338.2,-327.92 338.2,-321.92 338.2,-321.92 338.2,-309.92 338.2,-309.92 338.2,-303.92 344.2,-297.92 350.2,-297.92 350.2,-297.92 491.8,-297.92 491.8,-297.92 497.8,-297.92 503.8,-303.92 503.8,-309.92 503.8,-309.92 503.8,-321.92 503.8,-321.92 503.8,-327.92 497.8,-333.92 491.8,-333.92" class="f-ana s-ana"/>
<text xml:space="preserve" text-anchor="middle" x="421" y="-316.65" font-family="Helvetica,sans-Serif" font-size="9.50" class="t-ink">EventIndex</text>
<text xml:space="preserve" text-anchor="middle" x="421" y="-306.9" font-family="Helvetica,sans-Serif" font-size="9.50" class="t-ink">ordered access, per&#45;session views</text>
</g>

<g id="edge15" class="edge">
<title>parse&#45;&gt;idx</title>
<path fill="none" stroke-width="1.15" d="M421,-380.34C421,-369.09 421,-354.32 421,-341.87" class="s-edge"/>
<polygon stroke-width="1.15" points="423.1,-342.2 421,-336.2 418.9,-342.2 423.1,-342.2" class="a-edge s-edge"/>
</g>

<g id="node15" class="node">
<title>recon</title>
<path stroke-width="1.3" d="M527.55,-233.92C527.55,-233.92 348.45,-233.92 348.45,-233.92 342.45,-233.92 336.45,-227.92 336.45,-221.92 336.45,-221.92 336.45,-203.71 336.45,-203.71 336.45,-197.71 342.45,-191.71 348.45,-191.71 348.45,-191.71 527.55,-191.71 527.55,-191.71 533.55,-191.71 539.55,-197.71 539.55,-203.71 539.55,-203.71 539.55,-221.92 539.55,-221.92 539.55,-227.92 533.55,-233.92 527.55,-233.92" class="f-ana s-ana"/>
<text xml:space="preserve" text-anchor="middle" x="438" y="-218.41" font-family="Helvetica,sans-Serif" font-size="9.50" class="t-ink">reconstructFileWithProvenance</text>
<text xml:space="preserve" text-anchor="middle" x="438" y="-208.66" font-family="Helvetica,sans-Serif" font-size="9.50" class="t-ink">replays edits to rebuild file content,</text>
<text xml:space="preserve" text-anchor="middle" x="438" y="-198.91" font-family="Helvetica,sans-Serif" font-size="9.50" class="t-ink">tagging every line typed / pasted / external</text>
</g>

<g id="edge17" class="edge">
<title>idx&#45;&gt;recon</title>
<path fill="none" stroke-width="1.15" stroke-dasharray="5,2" d="M423.96,-297.31C426.54,-281.96 430.33,-259.44 433.32,-241.66" class="s-ana"/>
<polygon stroke-width="1.15" points="435.33,-242.34 434.26,-236.08 431.19,-241.64 435.33,-242.34" class="a-ana s-ana"/>
<text xml:space="preserve" text-anchor="middle" x="462.77" y="-267.13" font-family="Helvetica,sans-Serif" font-size="8.20" class="t-hum">/files/:path/content</text>
<text xml:space="preserve" text-anchor="middle" x="462.77" y="-258.13" font-family="Helvetica,sans-Serif" font-size="8.20" class="t-hum">(reconstructFile)</text>
</g>

<g id="edge16" class="edge">
<title>idx&#45;&gt;ret</title>
<path fill="none" stroke-width="1.15" d="M388.13,-297.45C365.76,-283.54 337.96,-261.8 325,-233.92 313.01,-208.12 318.32,-174.97 324.47,-152.62" class="s-edge"/>
<polygon stroke-width="1.15" points="326.48,-153.21 326.16,-146.86 322.45,-152.03 326.48,-153.21" class="a-edge s-edge"/>
</g>

<g id="edge18" class="edge">
<title>recon&#45;&gt;ret</title>
<path fill="none" stroke-width="1.15" stroke-dasharray="5,2" d="M412.31,-191.24C396.63,-178.68 376.59,-162.63 360.57,-149.8" class="s-ana"/>
<polygon stroke-width="1.15" points="362.23,-148.43 356.23,-146.32 359.6,-151.71 362.23,-148.43" class="a-ana s-ana"/>
</g>

<g id="node17" class="node">
<title>note</title>
<polygon stroke-width="1.3" points="448.8,-61.71 211.2,-61.71 211.2,0 454.8,0 454.8,-55.71 448.8,-61.71" class="f-rec s-rec"/>
<polyline fill="none" stroke-width="1.3" points="448.8,-61.71 448.8,-55.71" class="s-rec"/>
<polyline fill="none" stroke-width="1.3" points="454.8,-55.71 448.8,-55.71" class="s-rec"/>
<text xml:space="preserve" text-anchor="middle" x="333" y="-46.21" font-family="Helvetica,sans-Serif" font-size="9.50" class="t-ink">There is no events table.</text>
<text xml:space="preserve" text-anchor="middle" x="333" y="-36.46" font-family="Helvetica,sans-Serif" font-size="9.50" class="t-ink">The .slog files inside the stored blob ARE the</text>
<text xml:space="preserve" text-anchor="middle" x="333" y="-26.71" font-family="Helvetica,sans-Serif" font-size="9.50" class="t-ink">event stream. Dropping the table removed what had</text>
<text xml:space="preserve" text-anchor="middle" x="333" y="-16.96" font-family="Helvetica,sans-Serif" font-size="9.50" class="t-ink">been the dominant, never&#45;purged storage cost —</text>
<text xml:space="preserve" text-anchor="middle" x="333" y="-7.21" font-family="Helvetica,sans-Serif" font-size="9.50" class="t-ink">and the LRU cache is what makes re&#45;parsing viable.</text>
</g>

</g>
</svg>