<svg width="1902pt" height="1481pt"
 viewBox="0.00 0.00 1902.00 1481.00" xmlns="http://www.w3.org/2000/svg" xmlns:xlink="http://www.w3.org/1999/xlink">
<g id="graph0" class="graph" transform="scale(1 1) rotate(0) translate(21.6 1459.85)">
<title>recorder</title>
<g id="clust1" class="cluster">

<path stroke-width="1.5" d="M20,-1344.54C20,-1344.54 1839,-1344.54 1839,-1344.54 1845,-1344.54 1851,-1350.54 1851,-1356.54 1851,-1356.54 1851,-1418.25 1851,-1418.25 1851,-1424.25 1845,-1430.25 1839,-1430.25 1839,-1430.25 20,-1430.25 20,-1430.25 14,-1430.25 8,-1424.25 8,-1418.25 8,-1418.25 8,-1356.54 8,-1356.54 8,-1350.54 14,-1344.54 20,-1344.54" class="f-rec s-rec"/>
<text xml:space="preserve" text-anchor="middle" x="219.25" y="-1417.23" font-family="Helvetica,sans-Serif" font-size="9.50" class="t-rec"> &#160;HOST EVENT SOURCES — the only layer that differs between VS Code, IntelliJ and Neovim &#160;</text>
</g>
<g id="clust2" class="cluster">

<path stroke-width="1.5" d="M558,-881.28C558,-881.28 973,-881.28 973,-881.28 979,-881.28 985,-887.28 985,-893.28 985,-893.28 985,-1272.29 985,-1272.29 985,-1278.29 979,-1284.29 973,-1284.29 973,-1284.29 558,-1284.29 558,-1284.29 552,-1284.29 546,-1278.29 546,-1272.29 546,-1272.29 546,-893.28 546,-893.28 546,-887.28 552,-881.28 558,-881.28" class="f-uix s-uix"/>
<text xml:space="preserve" text-anchor="middle" x="632" y="-1271.27" font-family="Helvetica,sans-Serif" font-size="9.50" class="t-uix"> &#160;DETECTION &amp; CLASSIFICATION &#160;</text>
</g>
<g id="clust3" class="cluster">

<path stroke-width="1.5" d="M775,-740.57C775,-740.57 987,-740.57 987,-740.57 993,-740.57 999,-746.57 999,-752.57 999,-752.57 999,-816.53 999,-816.53 999,-822.53 993,-828.53 987,-828.53 987,-828.53 775,-828.53 775,-828.53 769,-828.53 763,-822.53 763,-816.53 763,-816.53 763,-752.57 763,-752.57 763,-746.57 769,-740.57 775,-740.57" class="f-ana s-ana"/>
<text xml:space="preserve" text-anchor="middle" x="823.88" y="-815.51" font-family="Helvetica,sans-Serif" font-size="9.50" class="t-ana"> &#160;PURE TRANSFORMS &#160;</text>
</g>
<g id="clust4" class="cluster">

<path stroke-width="1.5" d="M819,-293.71C819,-293.71 1119,-293.71 1119,-293.71 1125,-293.71 1131,-299.71 1131,-305.71 1131,-305.71 1131,-685.32 1131,-685.32 1131,-691.32 1125,-697.32 1119,-697.32 1119,-697.32 819,-697.32 819,-697.32 813,-697.32 807,-691.32 807,-685.32 807,-685.32 807,-305.71 807,-305.71 807,-299.71 813,-293.71 819,-293.71" class="f-fmt s-fmt"/>
<text xml:space="preserve" text-anchor="middle" x="882.88" y="-684.3" font-family="Helvetica,sans-Serif" font-size="9.50" class="t-fmt"> &#160;CORE — the format contract &#160;</text>
</g>
<g id="clust5" class="cluster">

<path stroke-width="1.5" d="M830,-8C830,-8 1191,-8 1191,-8 1197,-8 1203,-14 1203,-20 1203,-20 1203,-221.46 1203,-221.46 1203,-227.46 1197,-233.46 1191,-233.46 1191,-233.46 830,-233.46 830,-233.46 824,-233.46 818,-227.46 818,-221.46 818,-221.46 818,-20 818,-20 818,-14 824,-8 830,-8" class="f-srv s-srv"/>
<text xml:space="preserve" text-anchor="middle" x="859.38" y="-220.44" font-family="Helvetica,sans-Serif" font-size="9.50" class="t-srv"> &#160;DURABILITY &#160;</text>
</g>

<g id="node1" class="node">
<title>h_doc</title>
<path stroke-width="1.3" d="M801.64,-1394.75C801.64,-1394.75 548.36,-1394.75 548.36,-1394.75 542.95,-1394.75 537.54,-1389.34 537.54,-1383.93 537.54,-1383.93 537.54,-1373.11 537.54,-1373.11 537.54,-1367.7 542.95,-1362.29 548.36,-1362.29 548.36,-1362.29 801.64,-1362.29 801.64,-1362.29 807.05,-1362.29 812.46,-1367.7 812.46,-1373.11 812.46,-1373.11 812.46,-1383.93 812.46,-1383.93 812.46,-1389.34 807.05,-1394.75 801.64,-1394.75" class="f-rec s-rec"/>
<text xml:space="preserve" text-anchor="middle" x="675" y="-1379.25" font-family="Helvetica,sans-Serif" font-size="9.50" class="t-ink">document change</text>
<text xml:space="preserve" text-anchor="middle" x="675" y="-1369.5" font-family="Helvetica,sans-Serif" font-size="9.50" class="t-ink">onDidChangeTextDocument · DocumentListener · on_lines</text>
</g>

<g id="node8" class="node">
<title>reconcile</title>
<path stroke-width="1.3" d="M784.34,-1258.54C784.34,-1258.54 565.66,-1258.54 565.66,-1258.54 559.66,-1258.54 553.66,-1252.54 553.66,-1246.54 553.66,-1246.54 553.66,-1226.08 553.66,-1226.08 553.66,-1220.08 559.66,-1214.08 565.66,-1214.08 565.66,-1214.08 784.34,-1214.08 784.34,-1214.08 790.34,-1214.08 796.34,-1220.08 796.34,-1226.08 796.34,-1226.08 796.34,-1246.54 796.34,-1246.54 796.34,-1252.54 790.34,-1258.54 784.34,-1258.54" class="f-uix s-uix"/>
<text xml:space="preserve" text-anchor="middle" x="675" y="-1243.04" font-family="Helvetica,sans-Serif" font-size="9.50" class="t-ink">per&#45;event join (doc&#45;wiring)</text>
<text xml:space="preserve" text-anchor="middle" x="675" y="-1233.29" font-family="Helvetica,sans-Serif" font-size="9.50" class="t-ink">signal 1 insert shape + signal 2 command intercept</text>
<text xml:space="preserve" text-anchor="middle" x="675" y="-1223.54" font-family="Helvetica,sans-Serif" font-size="9.50" class="t-ink">→ exactly one paste per change</text>
</g>

<g id="edge1" class="edge">

<path fill="none" stroke-width="1.1" d="M675,-1361.71C675,-1338.57 675,-1295.09 675,-1266.16" class="s-edge"/>
<polygon stroke-width="1.1" points="677.1,-1266.44 675,-1260.44 672.9,-1266.44 677.1,-1266.44" class="a-edge s-edge"/>
<text xml:space="preserve" text-anchor="middle" x="700.88" y="-1306.75" font-family="Helvetica,sans-Serif" font-size="8.20" class="t-hum">insertion</text>
<text xml:space="preserve" text-anchor="middle" x="700.88" y="-1297.75" font-family="Helvetica,sans-Serif" font-size="8.20" class="t-hum">shape + timing</text>
</g>

<g id="node10" class="node">
<title>expected</title>
<path stroke-width="1.3" d="M964.84,-1257.42C964.84,-1257.42 851.16,-1257.42 851.16,-1257.42 845.16,-1257.42 839.16,-1251.42 839.16,-1245.42 839.16,-1245.42 839.16,-1227.21 839.16,-1227.21 839.16,-1221.21 845.16,-1215.21 851.16,-1215.21 851.16,-1215.21 964.84,-1215.21 964.84,-1215.21 970.84,-1215.21 976.84,-1221.21 976.84,-1227.21 976.84,-1227.21 976.84,-1245.42 976.84,-1245.42 976.84,-1251.42 970.84,-1257.42 964.84,-1257.42" class="f-rec s-rec"/>
<text xml:space="preserve" text-anchor="middle" x="908" y="-1241.91" font-family="Helvetica,sans-Serif" font-size="9.50" class="t-ink">expected&#45;content registry</text>
<text xml:space="preserve" text-anchor="middle" x="908" y="-1232.16" font-family="Helvetica,sans-Serif" font-size="9.50" class="t-ink">what the recorder believes</text>
<text xml:space="preserve" text-anchor="middle" x="908" y="-1222.41" font-family="Helvetica,sans-Serif" font-size="9.50" class="t-ink">each file contains</text>
</g>

<g id="edge13" class="edge">

<path fill="none" stroke-width="1.1" stroke-dasharray="5,2" d="M593.84,-1361.7C526.81,-1347.82 441.04,-1327.82 430.75,-1314.54 425.85,-1308.22 425.18,-1302.29 430.75,-1296.54 445.73,-1281.08 797.18,-1289.75 818,-1284.29 836.2,-1279.52 854.87,-1270.56 870.46,-1261.73" class="s-rec"/>
<polygon stroke-width="1.1" points="871.36,-1263.63 875.5,-1258.8 869.25,-1260 871.36,-1263.63" class="a-rec s-rec"/>
<text xml:space="preserve" text-anchor="middle" x="457.38" y="-1306.75" font-family="Helvetica,sans-Serif" font-size="8.20" class="t-hum">update model</text>
<text xml:space="preserve" text-anchor="middle" x="457.38" y="-1297.75" font-family="Helvetica,sans-Serif" font-size="8.20" class="t-hum">after every edit</text>
</g>

<g id="node2" class="node">
<title>h_cmd</title>
<path stroke-width="1.3" d="M235.51,-1394.75C235.51,-1394.75 26.49,-1394.75 26.49,-1394.75 21.08,-1394.75 15.67,-1389.34 15.67,-1383.93 15.67,-1383.93 15.67,-1373.11 15.67,-1373.11 15.67,-1367.7 21.08,-1362.29 26.49,-1362.29 26.49,-1362.29 235.51,-1362.29 235.51,-1362.29 240.92,-1362.29 246.33,-1367.7 246.33,-1373.11 246.33,-1373.11 246.33,-1383.93 246.33,-1383.93 246.33,-1389.34 240.92,-1394.75 235.51,-1394.75" class="f-rec s-rec"/>
<text xml:space="preserve" text-anchor="middle" x="131" y="-1379.25" font-family="Helvetica,sans-Serif" font-size="9.50" class="t-ink">paste command</text>
<text xml:space="preserve" text-anchor="middle" x="131" y="-1369.5" font-family="Helvetica,sans-Serif" font-size="9.50" class="t-ink">command intercept · $Paste action · vim.paste()</text>
</g>

<g id="edge2" class="edge">

<path fill="none" stroke-width="1.1" d="M174.81,-1361.64C224.37,-1344.07 307.73,-1315.72 381,-1296.54 434.52,-1282.53 494.26,-1269.95 545.83,-1260.02" class="s-edge"/>
<polygon stroke-width="1.1" points="545.92,-1262.14 551.42,-1258.95 545.13,-1258.01 545.92,-1262.14" class="a-edge s-edge"/>
<text xml:space="preserve" text-anchor="middle" x="399" y="-1306.75" font-family="Helvetica,sans-Serif" font-size="8.20" class="t-hum">a paste</text>
<text xml:space="preserve" text-anchor="middle" x="399" y="-1297.75" font-family="Helvetica,sans-Serif" font-size="8.20" class="t-hum">happened</text>
</g>

<g id="node3" class="node">
<title>h_clip</title>
<path stroke-width="1.3" d="M482.58,-1404.5C482.58,-1404.5 301.42,-1404.5 301.42,-1404.5 295.42,-1404.5 289.42,-1398.5 289.42,-1392.5 289.42,-1392.5 289.42,-1364.54 289.42,-1364.54 289.42,-1358.54 295.42,-1352.54 301.42,-1352.54 301.42,-1352.54 482.58,-1352.54 482.58,-1352.54 488.58,-1352.54 494.58,-1358.54 494.58,-1364.54 494.58,-1364.54 494.58,-1392.5 494.58,-1392.5 494.58,-1398.5 488.58,-1404.5 482.58,-1404.5" class="f-rec s-rec"/>
<text xml:space="preserve" text-anchor="middle" x="392" y="-1389" font-family="Helvetica,sans-Serif" font-size="9.50" class="t-ink">clipboard read — JetBrains &amp; Neovim only</text>
<text xml:space="preserve" text-anchor="middle" x="392" y="-1379.25" font-family="Helvetica,sans-Serif" font-size="9.50" class="t-ink">CopyPasteManager · + / * registers</text>
<text xml:space="preserve" text-anchor="middle" x="392" y="-1369.5" font-family="Helvetica,sans-Serif" font-size="9.50" class="t-ink">VS Code never reads the clipboard;</text>
<text xml:space="preserve" text-anchor="middle" x="392" y="-1359.75" font-family="Helvetica,sans-Serif" font-size="9.50" class="t-ink">its signal 3 is the count reconciler</text>
</g>

<g id="edge3" class="edge">

<path fill="none" stroke-width="1.1" stroke-dasharray="5,2" d="M443.58,-1351.97C495,-1326.49 573.46,-1287.62 624.5,-1262.33" class="s-edge"/>
<polygon stroke-width="1.1" points="625.27,-1264.29 629.71,-1259.75 623.4,-1260.53 625.27,-1264.29" class="a-edge s-edge"/>
<text xml:space="preserve" text-anchor="middle" x="579.32" y="-1306.75" font-family="Helvetica,sans-Serif" font-size="8.20" class="t-hum">clipboard text —</text>
<text xml:space="preserve" text-anchor="middle" x="579.32" y="-1297.75" font-family="Helvetica,sans-Serif" font-size="8.20" class="t-hum">other hosts only</text>
</g>

<g id="node4" class="node">
<title>h_fs</title>
<path stroke-width="1.3" d="M1113.64,-1394.75C1113.64,-1394.75 866.36,-1394.75 866.36,-1394.75 860.95,-1394.75 855.54,-1389.34 855.54,-1383.93 855.54,-1383.93 855.54,-1373.11 855.54,-1373.11 855.54,-1367.7 860.95,-1362.29 866.36,-1362.29 866.36,-1362.29 1113.64,-1362.29 1113.64,-1362.29 1119.05,-1362.29 1124.46,-1367.7 1124.46,-1373.11 1124.46,-1373.11 1124.46,-1383.93 1124.46,-1383.93 1124.46,-1389.34 1119.05,-1394.75 1113.64,-1394.75" class="f-rec s-rec"/>
<text xml:space="preserve" text-anchor="middle" x="990" y="-1379.25" font-family="Helvetica,sans-Serif" font-size="9.50" class="t-ink">filesystem watcher</text>
<text xml:space="preserve" text-anchor="middle" x="990" y="-1369.5" font-family="Helvetica,sans-Serif" font-size="9.50" class="t-ink">FileSystemWatcher · BulkFileListener · FileChangedShell</text>
</g>

<g id="node11" class="node">
<title>cmp</title>
<path stroke-width="1.3" d="M887.87,-1108.4C887.87,-1108.4 834.09,-1086.76 834.09,-1086.76 828.52,-1084.52 828.52,-1080.04 834.09,-1077.8 834.09,-1077.8 887.87,-1056.16 887.87,-1056.16 893.43,-1053.92 904.57,-1053.92 910.13,-1056.16 910.13,-1056.16 963.91,-1077.8 963.91,-1077.8 969.48,-1080.04 969.48,-1084.52 963.91,-1086.76 963.91,-1086.76 910.13,-1108.4 910.13,-1108.4 904.57,-1110.64 893.43,-1110.64 887.87,-1108.4" class="f-rec s-rec"/>
<text xml:space="preserve" text-anchor="middle" x="899" y="-1083.48" font-family="Helvetica,sans-Serif" font-size="9.00" class="t-ink">on&#45;disk hash ==</text>
<text xml:space="preserve" text-anchor="middle" x="899" y="-1073.73" font-family="Helvetica,sans-Serif" font-size="9.00" class="t-ink">expected hash?</text>
</g>

<g id="edge7" class="edge">

<path fill="none" stroke-width="1.1" d="M993.88,-1361.87C1000.5,-1332.37 1012,-1266.8 998,-1214.08 986.79,-1171.86 953.47,-1133.27 928.56,-1109.12" class="s-edge"/>
<polygon stroke-width="1.1" points="930.06,-1107.66 924.27,-1105.04 927.17,-1110.7 930.06,-1107.66" class="a-edge s-edge"/>
</g>

<g id="node5" class="node">
<title>h_term</title>
<path stroke-width="1.3" d="M1319.39,-1394.75C1319.39,-1394.75 1178.61,-1394.75 1178.61,-1394.75 1173.2,-1394.75 1167.79,-1389.34 1167.79,-1383.93 1167.79,-1383.93 1167.79,-1373.11 1167.79,-1373.11 1167.79,-1367.7 1173.2,-1362.29 1178.61,-1362.29 1178.61,-1362.29 1319.39,-1362.29 1319.39,-1362.29 1324.8,-1362.29 1330.21,-1367.7 1330.21,-1373.11 1330.21,-1373.11 1330.21,-1383.93 1330.21,-1383.93 1330.21,-1389.34 1324.8,-1394.75 1319.39,-1394.75" class="f-rec s-rec"/>
<text xml:space="preserve" text-anchor="middle" x="1249" y="-1379.25" font-family="Helvetica,sans-Serif" font-size="9.50" class="t-ink">terminal</text>
<text xml:space="preserve" text-anchor="middle" x="1249" y="-1369.5" font-family="Helvetica,sans-Serif" font-size="9.50" class="t-ink">shell integration, when available</text>
</g>

<g id="node13" class="node">
<title>tx</title>
<path stroke-width="1.3" d="M979.09,-802.78C979.09,-802.78 782.91,-802.78 782.91,-802.78 776.91,-802.78 770.91,-796.78 770.91,-790.78 770.91,-790.78 770.91,-760.57 770.91,-760.57 770.91,-754.57 776.91,-748.57 782.91,-748.57 782.91,-748.57 979.09,-748.57 979.09,-748.57 985.09,-748.57 991.09,-754.57 991.09,-760.57 991.09,-760.57 991.09,-790.78 991.09,-790.78 991.09,-796.78 985.09,-802.78 979.09,-802.78" class="f-ana s-ana"/>
<text xml:space="preserve" text-anchor="middle" x="881" y="-787.28" font-family="Helvetica,sans-Serif" font-size="9.50" class="t-ink">event → log entry</text>
<text xml:space="preserve" text-anchor="middle" x="881" y="-775.28" font-family="Helvetica,sans-Serif" font-size="9.50" class="t-ink">unit&#45;tested with no editor present</text>
<text xml:space="preserve" text-anchor="middle" x="881" y="-765.53" font-family="Helvetica,sans-Serif" font-size="9.50" class="t-ink">relative paths · one inline content cap (64 KB)</text>
<text xml:space="preserve" text-anchor="middle" x="881" y="-755.78" font-family="Helvetica,sans-Serif" font-size="9.50" class="t-ink">monotonic t · fixed&#45;width wall clock</text>
</g>

<g id="edge14" class="edge">

<path fill="none" stroke-width="1.1" d="M1237.43,-1362.05C1220,-1337.15 1189,-1286.03 1189,-1237.31 1189,-1237.31 1189,-1237.31 1189,-918.88 1189,-831.61 1085.81,-797.72 998.88,-784.66" class="s-edge"/>
<polygon stroke-width="1.1" points="999.21,-782.59 992.97,-783.81 998.61,-786.74 999.21,-782.59" class="a-edge s-edge"/>
</g>

<g id="node6" class="node">
<title>h_git</title>
<path stroke-width="1.3" d="M1601.64,-1394.75C1601.64,-1394.75 1384.36,-1394.75 1384.36,-1394.75 1378.95,-1394.75 1373.54,-1389.34 1373.54,-1383.93 1373.54,-1383.93 1373.54,-1373.11 1373.54,-1373.11 1373.54,-1367.7 1378.95,-1362.29 1384.36,-1362.29 1384.36,-1362.29 1601.64,-1362.29 1601.64,-1362.29 1607.05,-1362.29 1612.46,-1367.7 1612.46,-1373.11 1612.46,-1373.11 1612.46,-1383.93 1612.46,-1383.93 1612.46,-1389.34 1607.05,-1394.75 1601.64,-1394.75" class="f-rec s-rec"/>
<text xml:space="preserve" text-anchor="middle" x="1493" y="-1379.25" font-family="Helvetica,sans-Serif" font-size="9.50" class="t-ink">git</text>
<text xml:space="preserve" text-anchor="middle" x="1493" y="-1369.5" font-family="Helvetica,sans-Serif" font-size="9.50" class="t-ink">built&#45;in API · Git4Idea · external — may be absent</text>
</g>

<g id="edge15" class="edge">

<path fill="none" stroke-width="1.1" d="M1465.24,-1361.77C1429.52,-1339.21 1372,-1294.06 1372,-1237.31 1372,-1237.31 1372,-1237.31 1372,-918.88 1372,-841.48 1144.05,-803.54 998.78,-787.21" class="s-edge"/>
<polygon stroke-width="1.1" points="999.35,-785.16 993.15,-786.59 998.88,-789.34 999.35,-785.16" class="a-edge s-edge"/>
</g>

<g id="node7" class="node">
<title>h_win</title>
<path stroke-width="1.3" d="M1832.14,-1394.75C1832.14,-1394.75 1665.86,-1394.75 1665.86,-1394.75 1660.45,-1394.75 1655.04,-1389.34 1655.04,-1383.93 1655.04,-1383.93 1655.04,-1373.11 1655.04,-1373.11 1655.04,-1367.7 1660.45,-1362.29 1665.86,-1362.29 1665.86,-1362.29 1832.14,-1362.29 1832.14,-1362.29 1837.55,-1362.29 1842.96,-1367.7 1842.96,-1373.11 1842.96,-1373.11 1842.96,-1383.93 1842.96,-1383.93 1842.96,-1389.34 1837.55,-1394.75 1832.14,-1394.75" class="f-rec s-rec"/>
<text xml:space="preserve" text-anchor="middle" x="1749" y="-1379.25" font-family="Helvetica,sans-Serif" font-size="9.50" class="t-ink">window</text>
<text xml:space="preserve" text-anchor="middle" x="1749" y="-1369.5" font-family="Helvetica,sans-Serif" font-size="9.50" class="t-ink">focus · selection · extension activation</text>
</g>

<g id="edge16" class="edge">

<path fill="none" stroke-width="1.1" d="M1728.43,-1361.87C1699.96,-1338.26 1652,-1290.59 1652,-1237.31 1652,-1237.31 1652,-1237.31 1652,-918.88 1652,-853.3 1215.08,-805.87 999.06,-786.43" class="s-edge"/>
<polygon stroke-width="1.1" points="999.29,-784.34 993.12,-785.9 998.91,-788.52 999.29,-784.34" class="a-edge s-edge"/>
</g>

<g id="node9" class="node">
<title>anomaly</title>
<path stroke-width="1.3" d="M654.64,-1116.21C654.64,-1116.21 566.43,-1086.15 566.43,-1086.15 560.75,-1084.22 560.75,-1080.34 566.43,-1078.41 566.43,-1078.41 654.64,-1048.35 654.64,-1048.35 660.32,-1046.42 671.68,-1046.42 677.36,-1048.35 677.36,-1048.35 765.57,-1078.41 765.57,-1078.41 771.25,-1080.34 771.25,-1084.22 765.57,-1086.15 765.57,-1086.15 677.36,-1116.21 677.36,-1116.21 671.68,-1118.14 660.32,-1118.14 654.64,-1116.21" class="f-uix s-uix"/>
<text xml:space="preserve" text-anchor="middle" x="666" y="-1087.71" font-family="Helvetica,sans-Serif" font-size="8.50" class="t-ink">paste reconciler — every 5 s</text>
<text xml:space="preserve" text-anchor="middle" x="666" y="-1078.71" font-family="Helvetica,sans-Serif" font-size="8.50" class="t-ink">intercepted vs large&#45;insert</text>
<text xml:space="preserve" text-anchor="middle" x="666" y="-1069.71" font-family="Helvetica,sans-Serif" font-size="8.50" class="t-ink">counts differ by &gt; 1?</text>
</g>

<g id="edge5" class="edge">

<path fill="none" stroke-width="1.1" stroke-dasharray="5,2" d="M673.71,-1213.53C672.39,-1191.14 670.29,-1155.67 668.61,-1127.39" class="s-hum"/>
<polygon stroke-width="1.1" points="670.72,-1127.52 668.27,-1121.65 666.53,-1127.77 670.72,-1127.52" class="a-hum s-hum"/>
<text xml:space="preserve" text-anchor="middle" x="689.68" y="-1168.29" font-family="Helvetica,sans-Serif" font-size="8.20" class="t-hum">counters,</text>
<text xml:space="preserve" text-anchor="middle" x="689.68" y="-1159.29" font-family="Helvetica,sans-Serif" font-size="8.20" class="t-hum">not events</text>
</g>

<g id="edge4" class="edge">

<path fill="none" stroke-width="1.1" d="M627,-1213.55C549.24,-1174.89 408.5,-1088.79 450.75,-988.48 487.22,-901.89 519.53,-885.8 602,-840.78 651.27,-813.89 711.36,-798.24 763.15,-789.16" class="s-ana"/>
<polygon stroke-width="1.1" points="763.2,-791.28 768.76,-788.2 762.49,-787.14 763.2,-791.28" class="a-ana s-ana"/>
<text xml:space="preserve" text-anchor="middle" x="516.38" y="-998.69" font-family="Helvetica,sans-Serif" font-size="8.20" class="t-hum">one paste event — or doc.change</text>
<text xml:space="preserve" text-anchor="middle" x="516.38" y="-989.69" font-family="Helvetica,sans-Serif" font-size="8.20" class="t-hum">source=paste_likely if it cannot replay</text>
</g>

<g id="edge6" class="edge">

<path fill="none" stroke-width="1.1" stroke-dasharray="5,2" d="M638.43,-1053.45C601.7,-1012.91 545.61,-936.44 584.5,-881.28 624.78,-824.14 698.96,-798 763.04,-786.13" class="s-bad"/>
<polygon stroke-width="1.1" points="763.22,-788.23 768.76,-785.11 762.49,-784.1 763.22,-788.23" class="a-bad s-bad"/>
<text xml:space="preserve" text-anchor="middle" x="622.75" y="-917.34" font-family="Helvetica,sans-Serif" font-size="8.20" class="t-hum">yes → paste.anomaly</text>
</g>

<g id="edge8" class="edge">

<path fill="none" stroke-width="1.1" d="M906.79,-1214.81C905.35,-1190.6 902.94,-1149.87 901.18,-1120.14" class="s-rec"/>
<polygon stroke-width="1.1" points="903.3,-1120.36 900.85,-1114.5 899.11,-1120.61 903.3,-1120.36" class="a-rec s-rec"/>
<text xml:space="preserve" text-anchor="middle" x="930.18" y="-1163.79" font-family="Helvetica,sans-Serif" font-size="8.20" class="t-hum">source of truth</text>
</g>

<g id="node12" class="node">
<title>explain</title>
<path stroke-width="1.3" d="M870.57,-946.82C870.57,-946.82 797.99,-923.54 797.99,-923.54 792.28,-921.71 792.28,-918.05 797.99,-916.22 797.99,-916.22 870.57,-892.94 870.57,-892.94 876.29,-891.11 887.71,-891.11 893.43,-892.94 893.43,-892.94 966.01,-916.22 966.01,-916.22 971.72,-918.05 971.72,-921.71 966.01,-923.54 966.01,-923.54 893.43,-946.82 893.43,-946.82 887.71,-948.65 876.29,-948.65 870.57,-946.82" class="f-rec s-rec"/>
<text xml:space="preserve" text-anchor="middle" x="882" y="-921.08" font-family="Helvetica,sans-Serif" font-size="9.00" class="t-ink">explained by a</text>
<text xml:space="preserve" text-anchor="middle" x="882" y="-911.33" font-family="Helvetica,sans-Serif" font-size="9.00" class="t-ink">formatter or git event?</text>
</g>

<g id="edge10" class="edge">

<path fill="none" stroke-width="1.1" d="M895.92,-1052.23C893.1,-1025.63 888.92,-986.14 885.87,-957.41" class="s-rec"/>
<polygon stroke-width="1.1" points="887.98,-957.38 885.26,-951.64 883.8,-957.83 887.98,-957.38" class="a-rec s-rec"/>
<text xml:space="preserve" text-anchor="middle" x="900.01" y="-994.19" font-family="Helvetica,sans-Serif" font-size="8.20" class="t-hum">differ</text>
</g>

<g id="edge9" class="edge">

<path fill="none" stroke-width="1.1" stroke-dasharray="5,2" d="M863.79,-1065.27C807.76,-1038.98 702.57,-986.05 682.5,-950.48 667.39,-923.69 666.61,-907.61 682.5,-881.28 703.67,-846.19 740.96,-822.28 777.55,-806.28" class="s-hum"/>
<polygon stroke-width="1.1" points="778.14,-808.31 782.84,-804.03 776.5,-804.44 778.14,-808.31" class="a-hum s-hum"/>
<text xml:space="preserve" text-anchor="middle" x="723.75" y="-917.34" font-family="Helvetica,sans-Serif" font-size="8.20" class="t-hum">match → ordinary save</text>
</g>

<g id="edge11" class="edge">

<path fill="none" stroke-width="1.1" stroke-dasharray="5,2" d="M855.82,-896.99C843.48,-884.94 830.06,-868.88 823.5,-851.28 817.7,-835.73 825.54,-820.78 837.12,-808.4" class="s-hum"/>
<polygon stroke-width="1.1" points="838.33,-810.16 841.1,-804.43 835.36,-807.18 838.33,-810.16" class="a-hum s-hum"/>
<text xml:space="preserve" text-anchor="middle" x="852.75" y="-843.49" font-family="Helvetica,sans-Serif" font-size="8.20" class="t-hum">yes → attributed</text>
</g>

<g id="edge12" class="edge">

<path fill="none" stroke-width="1.1" d="M886.03,-889.97C887.62,-875.25 888.89,-857.07 888,-840.78 887.47,-830.99 886.48,-820.39 885.41,-810.69" class="s-bad"/>
<polygon stroke-width="1.1" points="887.5,-810.51 884.73,-804.79 883.33,-810.99 887.5,-810.51" class="a-bad s-bad"/>
<text xml:space="preserve" text-anchor="middle" x="932.9" y="-843.49" font-family="Helvetica,sans-Serif" font-size="8.20" class="t-hum">no → fs.external_change</text>
</g>

<g id="node14" class="node">
<title>env</title>
<path stroke-width="1.3" d="M936.39,-671.57C936.39,-671.57 825.61,-671.57 825.61,-671.57 820.2,-671.57 814.79,-666.16 814.79,-660.75 814.79,-660.75 814.79,-649.93 814.79,-649.93 814.79,-644.52 820.2,-639.11 825.61,-639.11 825.61,-639.11 936.39,-639.11 936.39,-639.11 941.8,-639.11 947.21,-644.52 947.21,-649.93 947.21,-649.93 947.21,-660.75 947.21,-660.75 947.21,-666.16 941.8,-671.57 936.39,-671.57" class="f-fmt s-fmt"/>
<text xml:space="preserve" text-anchor="middle" x="881" y="-656.07" font-family="Helvetica,sans-Serif" font-size="9.50" class="t-ink">envelope</text>
<text xml:space="preserve" text-anchor="middle" x="881" y="-646.32" font-family="Helvetica,sans-Serif" font-size="9.50" class="t-ink">seq · t · wall · kind · data</text>
</g>

<g id="edge17" class="edge">

<path fill="none" stroke-width="1.1" d="M881,-748.12C881,-727.52 881,-699.24 881,-679.54" class="s-edge"/>
<polygon stroke-width="1.1" points="883.1,-679.59 881,-673.59 878.9,-679.59 883.1,-679.59" class="a-edge s-edge"/>
</g>

<g id="node15" class="node">
<title>jcs</title>
<path stroke-width="1.3" d="M902.14,-562.11C902.14,-562.11 825.86,-562.11 825.86,-562.11 820.45,-562.11 815.04,-556.7 815.04,-551.29 815.04,-551.29 815.04,-540.47 815.04,-540.47 815.04,-535.06 820.45,-529.65 825.86,-529.65 825.86,-529.65 902.14,-529.65 902.14,-529.65 907.55,-529.65 912.96,-535.06 912.96,-540.47 912.96,-540.47 912.96,-551.29 912.96,-551.29 912.96,-556.7 907.55,-562.11 902.14,-562.11" class="f-fmt s-fmt"/>
<text xml:space="preserve" text-anchor="middle" x="864" y="-546.61" font-family="Helvetica,sans-Serif" font-size="9.50" class="t-ink">JCS canonicalize</text>
<text xml:space="preserve" text-anchor="middle" x="864" y="-536.86" font-family="Helvetica,sans-Serif" font-size="9.50" class="t-ink">RFC 8785</text>
</g>

<g id="edge18" class="edge">

<path fill="none" stroke-width="1.1" d="M877.79,-638.54C875.7,-627.97 873,-613.74 871,-601.11 869.38,-590.9 867.88,-579.56 866.68,-569.91" class="s-edge"/>
<polygon stroke-width="1.1" points="868.79,-569.93 865.99,-564.23 864.63,-570.44 868.79,-569.93" class="a-edge s-edge"/>
</g>

<g id="node16" class="node">
<title>hash</title>
<path stroke-width="1.3" d="M994.43,-452.65C994.43,-452.65 823.57,-452.65 823.57,-452.65 819.5,-452.65 815.41,-448.57 815.41,-444.49 815.41,-444.49 815.41,-436.33 815.41,-436.33 815.41,-432.25 819.5,-428.17 823.57,-428.17 823.57,-428.17 994.43,-428.17 994.43,-428.17 998.5,-428.17 1002.59,-432.25 1002.59,-436.33 1002.59,-436.33 1002.59,-444.49 1002.59,-444.49 1002.59,-448.57 998.5,-452.65 994.43,-452.65" class="f-fmt s-fmt"/>
<text xml:space="preserve" text-anchor="middle" x="909" y="-436.26" font-family="Helvetica,sans-Serif" font-size="9.50" class="t-ink">hash = sha256(prev_hash ‖ canonical)</text>
</g>

<g id="edge19" class="edge">

<path fill="none" stroke-width="1.1" d="M870.83,-529.17C878.9,-510.62 892.3,-479.81 900.89,-460.06" class="s-edge"/>
<polygon stroke-width="1.1" points="902.79,-460.96 903.26,-454.62 898.94,-459.28 902.79,-460.96" class="a-edge s-edge"/>
</g>

<g id="edge21" class="edge">

<path fill="none" stroke-width="1.1" stroke-dasharray="5,2" d="M915.05,-453.16C925.44,-474.87 944.54,-522.62 934,-562.11 927.04,-588.17 910.77,-614.52 898.08,-632.34" class="s-fmt"/>
<polygon stroke-width="1.1" points="896.41,-631.07 894.57,-637.16 899.8,-633.55 896.41,-631.07" class="a-fmt s-fmt"/>
<text xml:space="preserve" text-anchor="middle" x="998.95" y="-551.59" font-family="Helvetica,sans-Serif" font-size="8.20" class="t-hum">prev_hash advances in memory —</text>
<text xml:space="preserve" text-anchor="middle" x="998.95" y="-542.59" font-family="Helvetica,sans-Serif" font-size="8.20" class="t-hum">the .slog is never re&#45;read to</text>
<text xml:space="preserve" text-anchor="middle" x="998.95" y="-533.59" font-family="Helvetica,sans-Serif" font-size="8.20" class="t-hum">continue a chain</text>
</g>

<g id="node17" class="node">
<title>buf</title>
<path stroke-width="1.3" d="M989.26,-334.17C989.26,-334.17 826.74,-334.17 826.74,-334.17 821.32,-334.17 815.91,-328.76 815.91,-323.35 815.91,-323.35 815.91,-312.53 815.91,-312.53 815.91,-307.12 821.32,-301.71 826.74,-301.71 826.74,-301.71 989.26,-301.71 989.26,-301.71 994.68,-301.71 1000.09,-307.12 1000.09,-312.53 1000.09,-312.53 1000.09,-323.35 1000.09,-323.35 1000.09,-328.76 994.68,-334.17 989.26,-334.17" class="f-fmt s-fmt"/>
<text xml:space="preserve" text-anchor="middle" x="908" y="-318.67" font-family="Helvetica,sans-Serif" font-size="9.50" class="t-ink">buffer policy</text>
<text xml:space="preserve" text-anchor="middle" x="908" y="-308.92" font-family="Helvetica,sans-Serif" font-size="9.50" class="t-ink">the firehose must not block the editor</text>
</g>

<g id="edge20" class="edge">

<path fill="none" stroke-width="1.1" d="M908.9,-427.86C908.74,-408.22 908.41,-367.95 908.19,-342.26" class="s-fmt"/>
<polygon stroke-width="1.1" points="910.3,-342.44 908.15,-336.46 906.1,-342.48 910.3,-342.44" class="a-fmt s-fmt"/>
<text xml:space="preserve" text-anchor="middle" x="936.34" y="-382.38" font-family="Helvetica,sans-Serif" font-size="8.20" class="t-hum">hash only —</text>
<text xml:space="preserve" text-anchor="middle" x="936.34" y="-373.38" font-family="Helvetica,sans-Serif" font-size="8.20" class="t-hum">never sign here</text>
</g>

<g id="node18" class="node">
<title>atomic</title>
<path stroke-width="1.3" d="M1182.71,-202.94C1182.71,-202.94 1005.29,-202.94 1005.29,-202.94 999.29,-202.94 993.29,-196.94 993.29,-190.94 993.29,-190.94 993.29,-170.48 993.29,-170.48 993.29,-164.48 999.29,-158.48 1005.29,-158.48 1005.29,-158.48 1182.71,-158.48 1182.71,-158.48 1188.71,-158.48 1194.71,-164.48 1194.71,-170.48 1194.71,-170.48 1194.71,-190.94 1194.71,-190.94 1194.71,-196.94 1188.71,-202.94 1182.71,-202.94" class="f-srv s-srv"/>
<text xml:space="preserve" text-anchor="middle" x="1094" y="-187.44" font-family="Helvetica,sans-Serif" font-size="9.50" class="t-ink">atomic replace — WHOLE files only</text>
<text xml:space="preserve" text-anchor="middle" x="1094" y="-177.69" font-family="Helvetica,sans-Serif" font-size="9.50" class="t-ink">*.slog.meta · manifest.json · manifest.sig</text>
<text xml:space="preserve" text-anchor="middle" x="1094" y="-167.94" font-family="Helvetica,sans-Serif" font-size="9.50" class="t-ink">temp → fsync → rename</text>
</g>

<g id="edge25" class="edge">

<path fill="none" stroke-width="1.1" stroke-dasharray="5,2" d="M926.63,-427.6C940.19,-418.17 959.05,-404.24 974,-390.17 997.87,-367.7 1004.18,-361.68 1022,-334.17 1048.34,-293.52 1070.71,-241.71 1083.24,-210.16" class="s-fmt"/>
<polygon stroke-width="1.1" points="1085.06,-211.27 1085.3,-204.92 1081.15,-209.73 1085.06,-211.27" class="a-fmt s-fmt"/>
<text xml:space="preserve" text-anchor="middle" x="1076.64" y="-319.15" font-family="Helvetica,sans-Serif" font-size="8.20" class="t-hum">every 100:</text>
<text xml:space="preserve" text-anchor="middle" x="1076.64" y="-310.15" font-family="Helvetica,sans-Serif" font-size="8.20" class="t-hum">signed checkpoint</text>
</g>

<g id="node20" class="node">
<title>full</title>
<path stroke-width="1.3" d="M892.57,-201.78C892.57,-201.78 865.94,-186.64 865.94,-186.64 860.73,-183.68 860.73,-177.74 865.94,-174.78 865.94,-174.78 892.57,-159.64 892.57,-159.64 897.78,-156.68 908.22,-156.68 913.43,-159.64 913.43,-159.64 940.06,-174.78 940.06,-174.78 945.27,-177.74 945.27,-183.68 940.06,-186.64 940.06,-186.64 913.43,-201.78 913.43,-201.78 908.22,-204.74 897.78,-204.74 892.57,-201.78" class="f-panel s-srv"/>
<text xml:space="preserve" text-anchor="middle" x="903" y="-181.91" font-family="Helvetica,sans-Serif" font-size="9.00" class="t-ink">write</text>
<text xml:space="preserve" text-anchor="middle" x="903" y="-172.16" font-family="Helvetica,sans-Serif" font-size="9.00" class="t-ink">failed?</text>
</g>

<g id="edge22" class="edge">

<path fill="none" stroke-width="1.1" d="M907.42,-301.16C906.64,-280.21 905.25,-242.66 904.24,-215.24" class="s-srv"/>
<polygon stroke-width="1.1" points="906.35,-215.38 904.03,-209.46 902.15,-215.53 906.35,-215.38" class="a-srv s-srv"/>
<text xml:space="preserve" text-anchor="middle" x="941.2" y="-255.92" font-family="Helvetica,sans-Serif" font-size="8.20" class="t-hum">flush: append to the</text>
<text xml:space="preserve" text-anchor="middle" x="941.2" y="-246.92" font-family="Helvetica,sans-Serif" font-size="8.20" class="t-hum">open handle</text>
</g>

<g id="node19" class="node">
<title>disk</title>
<polygon stroke-width="1.3" points="985.71,-58.21 826.29,-58.21 826.29,-16 991.71,-16 991.71,-52.21 985.71,-58.21" class="f-srv s-srv"/>
<polyline fill="none" stroke-width="1.3" points="985.71,-58.21 985.71,-52.21" class="s-srv"/>
<polyline fill="none" stroke-width="1.3" points="991.71,-52.21 985.71,-52.21" class="s-srv"/>
<text xml:space="preserve" text-anchor="middle" x="909" y="-42.71" font-family="Helvetica,sans-Serif" font-size="9.50" class="t-ink">*.slog</text>
<text xml:space="preserve" text-anchor="middle" x="909" y="-32.96" font-family="Helvetica,sans-Serif" font-size="9.50" class="t-ink">append&#45;only, one handle open &#39;a&#39;</text>
<text xml:space="preserve" text-anchor="middle" x="909" y="-23.21" font-family="Helvetica,sans-Serif" font-size="9.50" class="t-ink">never rewritten</text>
</g>

<g id="edge23" class="edge">

<path fill="none" stroke-width="1.1" d="M904.1,-153.74C905.15,-128.99 906.72,-91.83 907.8,-66.36" class="s-srv"/>
<polygon stroke-width="1.1" points="909.89,-66.6 908.05,-60.52 905.7,-66.42 909.89,-66.6" class="a-srv s-srv"/>
<text xml:space="preserve" text-anchor="middle" x="911.04" y="-102.67" font-family="Helvetica,sans-Serif" font-size="8.20" class="t-hum">no</text>
</g>

<g id="node21" class="node">
<title>degr</title>
<path stroke-width="1.3" d="M1183.46,-58.21C1183.46,-58.21 1046.54,-58.21 1046.54,-58.21 1040.54,-58.21 1034.54,-52.21 1034.54,-46.21 1034.54,-46.21 1034.54,-28 1034.54,-28 1034.54,-22 1040.54,-16 1046.54,-16 1046.54,-16 1183.46,-16 1183.46,-16 1189.46,-16 1195.46,-22 1195.46,-28 1195.46,-28 1195.46,-46.21 1195.46,-46.21 1195.46,-52.21 1189.46,-58.21 1183.46,-58.21" class="f-bad s-bad"/>
<text xml:space="preserve" text-anchor="middle" x="1115" y="-42.71" font-family="Helvetica,sans-Serif" font-size="9.50" class="t-ink">recorder.degraded</text>
<text xml:space="preserve" text-anchor="middle" x="1115" y="-32.96" font-family="Helvetica,sans-Serif" font-size="9.50" class="t-ink">stop appending, tell the student</text>
<text xml:space="preserve" text-anchor="middle" x="1115" y="-23.21" font-family="Helvetica,sans-Serif" font-size="9.50" class="t-ink">— never partial&#45;write</text>
</g>

<g id="edge24" class="edge">

<path fill="none" stroke-width="1.1" d="M924.49,-165.35C960.51,-141.29 1033.47,-92.56 1077.91,-62.88" class="s-bad"/>
<polygon stroke-width="1.1" points="1079.05,-64.64 1082.87,-59.57 1076.72,-61.15 1079.05,-64.64" class="a-bad s-bad"/>
<text xml:space="preserve" text-anchor="middle" x="1048.61" y="-107.92" font-family="Helvetica,sans-Serif" font-size="8.20" class="t-hum">yes → drop</text>
<text xml:space="preserve" text-anchor="middle" x="1048.61" y="-97.42" font-family="Helvetica,sans-Serif" font-size="8.20" class="t-hum">the buffer</text>
</g>
</g>
</svg>