<svg width="1112pt" height="522pt"
 viewBox="0.00 0.00 1112.00 522.00" xmlns="http://www.w3.org/2000/svg" xmlns:xlink="http://www.w3.org/1999/xlink">
<g id="graph0" class="graph" transform="scale(1 1) rotate(0) translate(21.6 500.58)">
<title>roadmap</title>
<g id="clust1" class="cluster">

<path stroke-width="1.6" d="M12,-19.98C12,-19.98 252.25,-19.98 252.25,-19.98 258.25,-19.98 264.25,-25.98 264.25,-31.98 264.25,-31.98 264.25,-334.98 264.25,-334.98 264.25,-340.98 258.25,-346.98 252.25,-346.98 252.25,-346.98 12,-346.98 12,-346.98 6,-346.98 0,-340.98 0,-334.98 0,-334.98 0,-31.98 0,-31.98 0,-25.98 6,-19.98 12,-19.98" class="f-ana s-ana"/>
<text xml:space="preserve" text-anchor="middle" x="132.12" y="-333.96" font-family="Helvetica,sans-Serif" font-size="9.50" class="t-ana"> &#160;SHIPPED — the seams each roadmap item attaches to &#160;</text>
</g>
<g id="clust2" class="cluster">

<path stroke-width="1.6" stroke-dasharray="5,2" d="M447.25,-21.98C447.25,-21.98 690.92,-21.98 690.92,-21.98 696.92,-21.98 702.92,-27.98 702.92,-33.98 702.92,-33.98 702.92,-458.98 702.92,-458.98 702.92,-464.98 696.92,-470.98 690.92,-470.98 690.92,-470.98 447.25,-470.98 447.25,-470.98 441.25,-470.98 435.25,-464.98 435.25,-458.98 435.25,-458.98 435.25,-33.98 435.25,-33.98 435.25,-27.98 441.25,-21.98 447.25,-21.98" class="f-road s-road"/>
<text xml:space="preserve" text-anchor="middle" x="497.62" y="-457.96" font-family="Helvetica,sans-Serif" font-size="9.50" class="t-road"> &#160;ROADMAP — not built &#160;</text>
</g>

<g id="node1" class="node">
<title>vectors</title>
<path stroke-width="1.3" d="M187.33,-320.98C187.33,-320.98 75.92,-320.98 75.92,-320.98 69.92,-320.98 63.92,-314.98 63.92,-308.98 63.92,-308.98 63.92,-296.98 63.92,-296.98 63.92,-290.98 69.92,-284.98 75.92,-284.98 75.92,-284.98 187.33,-284.98 187.33,-284.98 193.33,-284.98 199.33,-290.98 199.33,-296.98 199.33,-296.98 199.33,-308.98 199.33,-308.98 199.33,-314.98 193.33,-320.98 187.33,-320.98" class="f-fmt s-fmt"/>
<text xml:space="preserve" text-anchor="middle" x="131.62" y="-303.71" font-family="Helvetica,sans-Serif" font-size="9.50" class="t-ink">conformance vectors</text>
<text xml:space="preserve" text-anchor="middle" x="131.62" y="-293.96" font-family="Helvetica,sans-Serif" font-size="9.50" class="t-ink">+ log&#45;core format contract</text>
</g>

<g id="node5" class="node">
<title>jupyter</title>
<path stroke-width="1.9" stroke-dasharray="5,2" d="M682.92,-445.59C682.92,-445.59 455.25,-445.59 455.25,-445.59 449.25,-445.59 443.25,-439.59 443.25,-433.59 443.25,-433.59 443.25,-376.38 443.25,-376.38 443.25,-370.38 449.25,-364.38 455.25,-364.38 455.25,-364.38 682.92,-364.38 682.92,-364.38 688.92,-364.38 694.92,-370.38 694.92,-376.38 694.92,-376.38 694.92,-433.59 694.92,-433.59 694.92,-439.59 688.92,-445.59 682.92,-445.59" class="f-road s-road"/>
<text xml:space="preserve" text-anchor="middle" x="569.08" y="-430.08" font-family="Helvetica,sans-Serif" font-size="9.50" class="t-ink">JupyterLab recorder</text>
<text xml:space="preserve" text-anchor="middle" x="569.08" y="-420.33" font-family="Helvetica,sans-Serif" font-size="9.50" class="t-ink">the highest&#45;value fourth host. Notebooks are where a</text>
<text xml:space="preserve" text-anchor="middle" x="569.08" y="-410.58" font-family="Helvetica,sans-Serif" font-size="9.50" class="t-ink">lot of introductory coursework actually happens, and</text>
<text xml:space="preserve" text-anchor="middle" x="569.08" y="-400.83" font-family="Helvetica,sans-Serif" font-size="9.50" class="t-ink">execution history is a provenance signal no text</text>
<text xml:space="preserve" text-anchor="middle" x="569.08" y="-391.08" font-family="Helvetica,sans-Serif" font-size="9.50" class="t-ink">editor can offer — but cell&#45;level rather than</text>
<text xml:space="preserve" text-anchor="middle" x="569.08" y="-381.33" font-family="Helvetica,sans-Serif" font-size="9.50" class="t-ink">file&#45;level editing is the first thing that would</text>
<text xml:space="preserve" text-anchor="middle" x="569.08" y="-371.58" font-family="Helvetica,sans-Serif" font-size="9.50" class="t-ink">genuinely stress the event model.</text>
</g>

<g id="edge1" class="edge">

<path fill="none" stroke-width="1.15" stroke-dasharray="5,2" d="M199.71,-318.69C262.23,-333.34 357.25,-355.59 435.12,-373.84" class="s-road"/>
<polygon stroke-width="1.15" points="434.59,-375.87 440.91,-375.19 435.55,-371.78 434.59,-375.87" class="a-road s-road"/>
<text xml:space="preserve" text-anchor="middle" x="349.75" y="-376.33" font-family="Helvetica,sans-Serif" font-size="8.20" class="t-hum">port core/, re&#45;derive the wiring,</text>
<text xml:space="preserve" text-anchor="middle" x="349.75" y="-367.33" font-family="Helvetica,sans-Serif" font-size="8.20" class="t-hum">pass the vectors</text>
</g>

<g id="node6" class="node">
<title>emacs</title>
<path stroke-width="1.3" stroke-dasharray="5,2" d="M667.17,-321.09C667.17,-321.09 471,-321.09 471,-321.09 465,-321.09 459,-315.09 459,-309.09 459,-309.09 459,-290.88 459,-290.88 459,-284.88 465,-278.88 471,-278.88 471,-278.88 667.17,-278.88 667.17,-278.88 673.17,-278.88 679.17,-284.88 679.17,-290.88 679.17,-290.88 679.17,-309.09 679.17,-309.09 679.17,-315.09 673.17,-321.09 667.17,-321.09" class="f-road s-road"/>
<text xml:space="preserve" text-anchor="middle" x="569.08" y="-305.58" font-family="Helvetica,sans-Serif" font-size="9.50" class="t-ink">Emacs recorder</text>
<text xml:space="preserve" text-anchor="middle" x="569.08" y="-295.83" font-family="Helvetica,sans-Serif" font-size="9.50" class="t-ink">a fourth port of the same contract; the path is</text>
<text xml:space="preserve" text-anchor="middle" x="569.08" y="-286.08" font-family="Helvetica,sans-Serif" font-size="9.50" class="t-ink">well defined now that three exist</text>
</g>

<g id="edge2" class="edge">

<path fill="none" stroke-width="1.15" stroke-dasharray="5,2" d="M199.71,-302.52C266.5,-302.06 370.4,-301.34 450.84,-300.79" class="s-road"/>
<polygon stroke-width="1.15" points="450.83,-302.89 456.81,-300.75 450.8,-298.69 450.83,-302.89" class="a-road s-road"/>
<text xml:space="preserve" text-anchor="middle" x="349.75" y="-303.05" font-family="Helvetica,sans-Serif" font-size="8.20" class="t-hum">same path</text>
</g>

<g id="node2" class="node">
<title>gsmod</title>
<path stroke-width="1.3" d="M197.08,-242.08C197.08,-242.08 66.17,-242.08 66.17,-242.08 60.17,-242.08 54.17,-236.08 54.17,-230.08 54.17,-230.08 54.17,-211.88 54.17,-211.88 54.17,-205.88 60.17,-199.88 66.17,-199.88 66.17,-199.88 197.08,-199.88 197.08,-199.88 203.08,-199.88 209.08,-205.88 209.08,-211.88 209.08,-211.88 209.08,-230.08 209.08,-230.08 209.08,-236.08 203.08,-242.08 197.08,-242.08" class="f-tra s-tra"/>
<text xml:space="preserve" text-anchor="middle" x="131.62" y="-226.58" font-family="Helvetica,sans-Serif" font-size="9.50" class="t-ink">provgate/gradescope/</text>
<text xml:space="preserve" text-anchor="middle" x="131.62" y="-216.83" font-family="Helvetica,sans-Serif" font-size="9.50" class="t-ink">the one module that knows an</text>
<text xml:space="preserve" text-anchor="middle" x="131.62" y="-207.08" font-family="Helvetica,sans-Serif" font-size="9.50" class="t-ink">external system exists</text>
</g>

<g id="node7" class="node">
<title>okpy</title>
<path stroke-width="1.3" stroke-dasharray="5,2" d="M667.54,-235.98C667.54,-235.98 470.62,-235.98 470.62,-235.98 464.62,-235.98 458.62,-229.98 458.62,-223.98 458.62,-223.98 458.62,-211.98 458.62,-211.98 458.62,-205.98 464.62,-199.98 470.62,-199.98 470.62,-199.98 667.54,-199.98 667.54,-199.98 673.54,-199.98 679.54,-205.98 679.54,-211.98 679.54,-211.98 679.54,-223.98 679.54,-223.98 679.54,-229.98 673.54,-235.98 667.54,-235.98" class="f-road s-road"/>
<text xml:space="preserve" text-anchor="middle" x="569.08" y="-218.7" font-family="Helvetica,sans-Serif" font-size="9.50" class="t-ink">okpy integration</text>
<text xml:space="preserve" text-anchor="middle" x="569.08" y="-208.95" font-family="Helvetica,sans-Serif" font-size="9.50" class="t-ink">a second ingest source alongside Gradescope</text>
</g>

<g id="edge3" class="edge">

<path fill="none" stroke-width="1.15" stroke-dasharray="5,2" d="M209.72,-220.45C276.58,-219.99 374.35,-219.31 450.89,-218.79" class="s-road"/>
<polygon stroke-width="1.15" points="450.5,-220.89 456.48,-218.75 450.47,-216.69 450.5,-220.89" class="a-road s-road"/>
<text xml:space="preserve" text-anchor="middle" x="349.75" y="-221.05" font-family="Helvetica,sans-Serif" font-size="8.20" class="t-hum">a sibling client, not a rewrite</text>
</g>

<g id="node3" class="node">
<title>frontend</title>
<path stroke-width="1.3" d="M190.33,-157.08C190.33,-157.08 72.92,-157.08 72.92,-157.08 66.92,-157.08 60.92,-151.08 60.92,-145.08 60.92,-145.08 60.92,-126.87 60.92,-126.87 60.92,-120.87 66.92,-114.87 72.92,-114.87 72.92,-114.87 190.33,-114.87 190.33,-114.87 196.33,-114.87 202.33,-120.87 202.33,-126.87 202.33,-126.87 202.33,-145.08 202.33,-145.08 202.33,-151.08 196.33,-157.08 190.33,-157.08" class="f-tra s-tra"/>
<text xml:space="preserve" text-anchor="middle" x="131.62" y="-141.58" font-family="Helvetica,sans-Serif" font-size="9.50" class="t-ink">provgate/cli/</text>
<text xml:space="preserve" text-anchor="middle" x="131.62" y="-131.83" font-family="Helvetica,sans-Serif" font-size="9.50" class="t-ink">core already sits behind a</text>
<text xml:space="preserve" text-anchor="middle" x="131.62" y="-122.08" font-family="Helvetica,sans-Serif" font-size="9.50" class="t-ink">frontend&#45;agnostic boundary</text>
</g>

<g id="node8" class="node">
<title>pweb</title>
<path stroke-width="1.3" stroke-dasharray="5,2" d="M645.04,-157.08C645.04,-157.08 493.12,-157.08 493.12,-157.08 487.12,-157.08 481.12,-151.08 481.12,-145.08 481.12,-145.08 481.12,-126.87 481.12,-126.87 481.12,-120.87 487.12,-114.87 493.12,-114.87 493.12,-114.87 645.04,-114.87 645.04,-114.87 651.04,-114.87 657.04,-120.87 657.04,-126.87 657.04,-126.87 657.04,-145.08 657.04,-145.08 657.04,-151.08 651.04,-157.08 645.04,-157.08" class="f-road s-road"/>
<text xml:space="preserve" text-anchor="middle" x="569.08" y="-141.58" font-family="Helvetica,sans-Serif" font-size="9.50" class="t-ink">provgate web GUI</text>
<text xml:space="preserve" text-anchor="middle" x="569.08" y="-131.83" font-family="Helvetica,sans-Serif" font-size="9.50" class="t-ink">class registration and run history as</text>
<text xml:space="preserve" text-anchor="middle" x="569.08" y="-122.08" font-family="Helvetica,sans-Serif" font-size="9.50" class="t-ink">the natural first screens</text>
</g>

<g id="edge4" class="edge">

<path fill="none" stroke-width="1.15" stroke-dasharray="5,2" d="M202.59,-135.98C275.99,-135.98 391.8,-135.98 473.35,-135.98" class="s-road"/>
<polygon stroke-width="1.15" points="472.9,-138.08 478.9,-135.98 472.9,-133.88 472.9,-138.08" class="a-road s-road"/>
<text xml:space="preserve" text-anchor="middle" x="349.75" y="-137.19" font-family="Helvetica,sans-Serif" font-size="8.20" class="t-hum">reuses store + sync unchanged</text>
</g>

<g id="node4" class="node">
<title>tenancy</title>
<path stroke-width="1.3" d="M214.71,-72.21C214.71,-72.21 48.54,-72.21 48.54,-72.21 42.54,-72.21 36.54,-66.21 36.54,-60.21 36.54,-60.21 36.54,-39.75 36.54,-39.75 36.54,-33.75 42.54,-27.75 48.54,-27.75 48.54,-27.75 214.71,-27.75 214.71,-27.75 220.71,-27.75 226.71,-33.75 226.71,-39.75 226.71,-39.75 226.71,-60.21 226.71,-60.21 226.71,-66.21 220.71,-72.21 214.71,-72.21" class="f-srv s-srv"/>
<text xml:space="preserve" text-anchor="middle" x="131.62" y="-56.7" font-family="Helvetica,sans-Serif" font-size="9.50" class="t-ink">courses → semesters → memberships</text>
<text xml:space="preserve" text-anchor="middle" x="131.62" y="-44.7" font-family="Helvetica,sans-Serif" font-size="9.50" class="t-ink">the hierarchy already models</text>
<text xml:space="preserve" text-anchor="middle" x="131.62" y="-34.95" font-family="Helvetica,sans-Serif" font-size="9.50" class="t-ink">more than one institution</text>
</g>

<g id="node9" class="node">
<title>multi</title>
<path stroke-width="1.3" stroke-dasharray="5,2" d="M651.79,-72.08C651.79,-72.08 486.37,-72.08 486.37,-72.08 480.37,-72.08 474.37,-66.08 474.37,-60.08 474.37,-60.08 474.37,-41.88 474.37,-41.88 474.37,-35.88 480.37,-29.87 486.37,-29.87 486.37,-29.87 651.79,-29.87 651.79,-29.87 657.79,-29.87 663.79,-35.87 663.79,-41.87 663.79,-41.87 663.79,-60.08 663.79,-60.08 663.79,-66.08 657.79,-72.08 651.79,-72.08" class="f-road s-road"/>
<text xml:space="preserve" text-anchor="middle" x="569.08" y="-56.58" font-family="Helvetica,sans-Serif" font-size="9.50" class="t-ink">multi&#45;institution tenancy</text>
<text xml:space="preserve" text-anchor="middle" x="569.08" y="-46.83" font-family="Helvetica,sans-Serif" font-size="9.50" class="t-ink">running Provenance for more than one</text>
<text xml:space="preserve" text-anchor="middle" x="569.08" y="-37.08" font-family="Helvetica,sans-Serif" font-size="9.50" class="t-ink">department, or more than one school</text>
</g>

<g id="edge5" class="edge">

<path fill="none" stroke-width="1.15" stroke-dasharray="5,2" d="M227.11,-50.2C297.73,-50.36 394.13,-50.58 466.42,-50.75" class="s-road"/>
<polygon stroke-width="1.15" points="466.04,-52.85 472.04,-50.76 466.05,-48.65 466.04,-52.85" class="a-road s-road"/>
<text xml:space="preserve" text-anchor="middle" x="349.75" y="-51.81" font-family="Helvetica,sans-Serif" font-size="8.20" class="t-hum">a short step from here</text>
</g>

<g id="node10" class="node">
<title>excluded</title>
<polygon stroke-width="1.3" points="1062.59,-101.96 771.92,-101.96 771.92,0 1068.59,0 1068.59,-95.96 1062.59,-101.96" class="f-bad s-bad"/>
<polyline fill="none" stroke-width="1.3" points="1062.59,-101.96 1062.59,-95.96" class="s-bad"/>
<polyline fill="none" stroke-width="1.3" points="1068.59,-95.96 1062.59,-95.96" class="s-bad"/>
<text xml:space="preserve" text-anchor="middle" x="920.25" y="-86.45" font-family="Helvetica,sans-Serif" font-size="9.50" class="t-ink">EXCLUDED ON PRINCIPLE, not on effort</text>
<text xml:space="preserve" text-anchor="middle" x="920.25" y="-65.7" font-family="Helvetica,sans-Serif" font-size="9.50" class="t-ink">· LLM review of student code — any LLM feature reasons over</text>
<text xml:space="preserve" text-anchor="middle" x="920.25" y="-55.95" font-family="Helvetica,sans-Serif" font-size="9.50" class="t-ink"> &#160;process evidence (events, flags, timeline), never over the code</text>
<text xml:space="preserve" text-anchor="middle" x="920.25" y="-46.2" font-family="Helvetica,sans-Serif" font-size="9.50" class="t-ink">· code&#45;similarity classifiers</text>
<text xml:space="preserve" text-anchor="middle" x="920.25" y="-36.45" font-family="Helvetica,sans-Serif" font-size="9.50" class="t-ink">· network telemetry from the recorder</text>
<text xml:space="preserve" text-anchor="middle" x="920.25" y="-26.7" font-family="Helvetica,sans-Serif" font-size="9.50" class="t-ink">· keystroke&#45;level OS hooks</text>
<text xml:space="preserve" text-anchor="middle" x="920.25" y="-16.95" font-family="Helvetica,sans-Serif" font-size="9.50" class="t-ink">· obfuscating the recorder — students will read it, and the</text>
<text xml:space="preserve" text-anchor="middle" x="920.25" y="-7.2" font-family="Helvetica,sans-Serif" font-size="9.50" class="t-ink"> &#160;design assumes the protocol is public</text>
</g>

</g>
</svg>