<svg width="1043pt" height="395pt"
 viewBox="0.00 0.00 1043.00 395.00" xmlns="http://www.w3.org/2000/svg" xmlns:xlink="http://www.w3.org/1999/xlink">
<g id="graph0" class="graph" transform="scale(1 1) rotate(0) translate(4 390.98)">
<title>roadmap</title>
<g id="clust1" class="cluster">
<title>cluster_now</title>
<path stroke-width="1.6" d="M12,-19.98C12,-19.98 252.25,-19.98 252.25,-19.98 258.25,-19.98 264.25,-25.98 264.25,-31.98 264.25,-31.98 264.25,-265.98 264.25,-265.98 264.25,-271.98 258.25,-277.98 252.25,-277.98 252.25,-277.98 12,-277.98 12,-277.98 6,-277.98 0,-271.98 0,-265.98 0,-265.98 0,-31.98 0,-31.98 0,-25.98 6,-19.98 12,-19.98" class="f-ana s-ana"/>
<text xml:space="preserve" text-anchor="middle" x="132.12" y="-264.96" font-family="Helvetica,sans-Serif" font-size="9.50" class="t-ana"> &#160;SHIPPED — the seams each roadmap item attaches to &#160;</text>
</g>
<g id="clust2" class="cluster">
<title>cluster_next</title>
<path stroke-width="1.6" stroke-dasharray="5,2" d="M433.25,-21.98C433.25,-21.98 674.04,-21.98 674.04,-21.98 680.04,-21.98 686.04,-27.98 686.04,-33.98 686.04,-33.98 686.04,-366.98 686.04,-366.98 686.04,-372.98 680.04,-378.98 674.04,-378.98 674.04,-378.98 433.25,-378.98 433.25,-378.98 427.25,-378.98 421.25,-372.98 421.25,-366.98 421.25,-366.98 421.25,-33.98 421.25,-33.98 421.25,-27.98 427.25,-21.98 433.25,-21.98" class="f-road s-road"/>
<text xml:space="preserve" text-anchor="middle" x="483.62" y="-365.96" font-family="Helvetica,sans-Serif" font-size="9.50" class="t-road"> &#160;ROADMAP — not built &#160;</text>
</g>

<g id="node1" class="node">
<title>vectors</title>
<path stroke-width="1.3" d="M185.89,-251.98C185.89,-251.98 77.35,-251.98 77.35,-251.98 71.35,-251.98 65.35,-245.98 65.35,-239.98 65.35,-239.98 65.35,-227.98 65.35,-227.98 65.35,-221.98 71.35,-215.98 77.35,-215.98 77.35,-215.98 185.89,-215.98 185.89,-215.98 191.89,-215.98 197.89,-221.98 197.89,-227.98 197.89,-227.98 197.89,-239.98 197.89,-239.98 197.89,-245.98 191.89,-251.98 185.89,-251.98" class="f-fmt s-fmt"/>
<text xml:space="preserve" text-anchor="middle" x="131.62" y="-234.7" font-family="Helvetica,sans-Serif" font-size="9.50" class="t-ink">conformance vectors</text>
<text xml:space="preserve" text-anchor="middle" x="131.62" y="-224.95" font-family="Helvetica,sans-Serif" font-size="9.50" class="t-ink">+ log&#45;core format contract</text>
</g>

<g id="node5" class="node">
<title>jupyter</title>
<path stroke-width="1.9" stroke-dasharray="5,2" d="M666.04,-353.59C666.04,-353.59 441.25,-353.59 441.25,-353.59 435.25,-353.59 429.25,-347.59 429.25,-341.59 429.25,-341.59 429.25,-284.38 429.25,-284.38 429.25,-278.38 435.25,-272.38 441.25,-272.38 441.25,-272.38 666.04,-272.38 666.04,-272.38 672.04,-272.38 678.04,-278.38 678.04,-284.38 678.04,-284.38 678.04,-341.59 678.04,-341.59 678.04,-347.59 672.04,-353.59 666.04,-353.59" class="f-road s-road"/>
<text xml:space="preserve" text-anchor="middle" x="553.64" y="-338.08" font-family="Helvetica,sans-Serif" font-size="9.50" class="t-ink">JupyterLab recorder</text>
<text xml:space="preserve" text-anchor="middle" x="553.64" y="-328.33" font-family="Helvetica,sans-Serif" font-size="9.50" class="t-ink">the highest&#45;value fourth host. Notebooks are where a</text>
<text xml:space="preserve" text-anchor="middle" x="553.64" y="-318.58" font-family="Helvetica,sans-Serif" font-size="9.50" class="t-ink">lot of introductory coursework actually happens, and</text>
<text xml:space="preserve" text-anchor="middle" x="553.64" y="-308.83" font-family="Helvetica,sans-Serif" font-size="9.50" class="t-ink">execution history is a provenance signal no text</text>
<text xml:space="preserve" text-anchor="middle" x="553.64" y="-299.08" font-family="Helvetica,sans-Serif" font-size="9.50" class="t-ink">editor can offer — but cell&#45;level rather than</text>
<text xml:space="preserve" text-anchor="middle" x="553.64" y="-289.33" font-family="Helvetica,sans-Serif" font-size="9.50" class="t-ink">file&#45;level editing is the first thing that would</text>
<text xml:space="preserve" text-anchor="middle" x="553.64" y="-279.58" font-family="Helvetica,sans-Serif" font-size="9.50" class="t-ink">genuinely stress the event model.</text>
</g>

<g id="edge1" class="edge">
<title>vectors&#45;&gt;jupyter</title>
<path fill="none" stroke-width="1.15" stroke-dasharray="5,2" d="M198.25,-246.32C257.59,-257.48 346.73,-274.25 420.76,-288.17" class="s-road"/>
<polygon stroke-width="1.15" points="420.33,-290.23 426.62,-289.28 421.11,-286.1 420.33,-290.23" class="a-road s-road"/>
<text xml:space="preserve" text-anchor="middle" x="342.75" y="-293.09" font-family="Helvetica,sans-Serif" font-size="8.20" class="t-hum">port core/, re&#45;derive the wiring,</text>
<text xml:space="preserve" text-anchor="middle" x="342.75" y="-284.09" font-family="Helvetica,sans-Serif" font-size="8.20" class="t-hum">pass the vectors</text>
</g>

<g id="node6" class="node">
<title>emacs</title>
<path stroke-width="1.3" stroke-dasharray="5,2" d="M650.29,-252.08C650.29,-252.08 457,-252.08 457,-252.08 451,-252.08 445,-246.08 445,-240.08 445,-240.08 445,-221.88 445,-221.88 445,-215.88 451,-209.88 457,-209.88 457,-209.88 650.29,-209.88 650.29,-209.88 656.29,-209.88 662.29,-215.88 662.29,-221.88 662.29,-221.88 662.29,-240.08 662.29,-240.08 662.29,-246.08 656.29,-252.08 650.29,-252.08" class="f-road s-road"/>
<text xml:space="preserve" text-anchor="middle" x="553.64" y="-236.58" font-family="Helvetica,sans-Serif" font-size="9.50" class="t-ink">Emacs recorder</text>
<text xml:space="preserve" text-anchor="middle" x="553.64" y="-226.83" font-family="Helvetica,sans-Serif" font-size="9.50" class="t-ink">a fourth port of the same contract; the path is</text>
<text xml:space="preserve" text-anchor="middle" x="553.64" y="-217.08" font-family="Helvetica,sans-Serif" font-size="9.50" class="t-ink">well defined now that three exist</text>
</g>

<g id="edge2" class="edge">
<title>vectors&#45;&gt;emacs</title>
<path fill="none" stroke-width="1.15" stroke-dasharray="5,2" d="M198.25,-233.51C262.07,-233.06 360.35,-232.35 437.24,-231.8" class="s-road"/>
<polygon stroke-width="1.15" points="436.89,-233.91 442.88,-231.76 436.86,-229.71 436.89,-233.91" class="a-road s-road"/>
<text xml:space="preserve" text-anchor="middle" x="342.75" y="-234.05" font-family="Helvetica,sans-Serif" font-size="8.20" class="t-hum">same path</text>
</g>

<g id="node2" class="node">
<title>gsmod</title>
<path stroke-width="1.3" d="M195.64,-196.08C195.64,-196.08 67.6,-196.08 67.6,-196.08 61.6,-196.08 55.6,-190.08 55.6,-184.08 55.6,-184.08 55.6,-165.88 55.6,-165.88 55.6,-159.88 61.6,-153.88 67.6,-153.88 67.6,-153.88 195.64,-153.88 195.64,-153.88 201.64,-153.88 207.64,-159.88 207.64,-165.88 207.64,-165.88 207.64,-184.08 207.64,-184.08 207.64,-190.08 201.64,-196.08 195.64,-196.08" class="f-tra s-tra"/>
<text xml:space="preserve" text-anchor="middle" x="131.62" y="-180.58" font-family="Helvetica,sans-Serif" font-size="9.50" class="t-ink">provgate/gradescope/</text>
<text xml:space="preserve" text-anchor="middle" x="131.62" y="-170.83" font-family="Helvetica,sans-Serif" font-size="9.50" class="t-ink">the one module that knows an</text>
<text xml:space="preserve" text-anchor="middle" x="131.62" y="-161.08" font-family="Helvetica,sans-Serif" font-size="9.50" class="t-ink">external system exists</text>
</g>

<g id="node7" class="node">
<title>okpy</title>
<path stroke-width="1.3" stroke-dasharray="5,2" d="M650.66,-189.98C650.66,-189.98 456.62,-189.98 456.62,-189.98 450.62,-189.98 444.62,-183.98 444.62,-177.98 444.62,-177.98 444.62,-165.98 444.62,-165.98 444.62,-159.98 450.62,-153.98 456.62,-153.98 456.62,-153.98 650.66,-153.98 650.66,-153.98 656.66,-153.98 662.66,-159.98 662.66,-165.98 662.66,-165.98 662.66,-177.98 662.66,-177.98 662.66,-183.98 656.66,-189.98 650.66,-189.98" class="f-road s-road"/>
<text xml:space="preserve" text-anchor="middle" x="553.64" y="-172.7" font-family="Helvetica,sans-Serif" font-size="9.50" class="t-ink">okpy integration</text>
<text xml:space="preserve" text-anchor="middle" x="553.64" y="-162.95" font-family="Helvetica,sans-Serif" font-size="9.50" class="t-ink">a second ingest source alongside Gradescope</text>
</g>

<g id="edge3" class="edge">
<title>gsmod&#45;&gt;okpy</title>
<path fill="none" stroke-width="1.15" stroke-dasharray="5,2" d="M208.2,-174.44C271.79,-173.99 363.76,-173.33 436.67,-172.81" class="s-road"/>
<polygon stroke-width="1.15" points="436.39,-174.91 442.37,-172.77 436.36,-170.71 436.39,-174.91" class="a-road s-road"/>
<text xml:space="preserve" text-anchor="middle" x="342.75" y="-175.05" font-family="Helvetica,sans-Serif" font-size="8.20" class="t-hum">a sibling client, not a rewrite</text>
</g>

<g id="node3" class="node">
<title>frontend</title>
<path stroke-width="1.3" d="M188.89,-134.08C188.89,-134.08 74.35,-134.08 74.35,-134.08 68.35,-134.08 62.35,-128.08 62.35,-122.08 62.35,-122.08 62.35,-103.87 62.35,-103.87 62.35,-97.87 68.35,-91.87 74.35,-91.87 74.35,-91.87 188.89,-91.87 188.89,-91.87 194.89,-91.87 200.89,-97.87 200.89,-103.87 200.89,-103.87 200.89,-122.08 200.89,-122.08 200.89,-128.08 194.89,-134.08 188.89,-134.08" class="f-tra s-tra"/>
<text xml:space="preserve" text-anchor="middle" x="131.62" y="-118.58" font-family="Helvetica,sans-Serif" font-size="9.50" class="t-ink">provgate/cli/</text>
<text xml:space="preserve" text-anchor="middle" x="131.62" y="-108.83" font-family="Helvetica,sans-Serif" font-size="9.50" class="t-ink">core already sits behind a</text>
<text xml:space="preserve" text-anchor="middle" x="131.62" y="-99.08" font-family="Helvetica,sans-Serif" font-size="9.50" class="t-ink">frontend&#45;agnostic boundary</text>
</g>

<g id="node8" class="node">
<title>pweb</title>
<path stroke-width="1.3" stroke-dasharray="5,2" d="M628.16,-134.08C628.16,-134.08 479.12,-134.08 479.12,-134.08 473.12,-134.08 467.12,-128.08 467.12,-122.08 467.12,-122.08 467.12,-103.87 467.12,-103.87 467.12,-97.87 473.12,-91.87 479.12,-91.87 479.12,-91.87 628.16,-91.87 628.16,-91.87 634.16,-91.87 640.16,-97.87 640.16,-103.87 640.16,-103.87 640.16,-122.08 640.16,-122.08 640.16,-128.08 634.16,-134.08 628.16,-134.08" class="f-road s-road"/>
<text xml:space="preserve" text-anchor="middle" x="553.64" y="-118.58" font-family="Helvetica,sans-Serif" font-size="9.50" class="t-ink">provgate web GUI</text>
<text xml:space="preserve" text-anchor="middle" x="553.64" y="-108.83" font-family="Helvetica,sans-Serif" font-size="9.50" class="t-ink">class registration and run history as</text>
<text xml:space="preserve" text-anchor="middle" x="553.64" y="-99.08" font-family="Helvetica,sans-Serif" font-size="9.50" class="t-ink">the natural first screens</text>
</g>

<g id="edge4" class="edge">
<title>frontend&#45;&gt;pweb</title>
<path fill="none" stroke-width="1.15" stroke-dasharray="5,2" d="M201.51,-112.98C271.74,-112.98 381.16,-112.98 459.18,-112.98" class="s-road"/>
<polygon stroke-width="1.15" points="458.89,-115.08 464.89,-112.98 458.89,-110.88 458.89,-115.08" class="a-road s-road"/>
<text xml:space="preserve" text-anchor="middle" x="342.75" y="-114.19" font-family="Helvetica,sans-Serif" font-size="8.20" class="t-hum">reuses store + sync unchanged</text>
</g>

<g id="node4" class="node">
<title>tenancy</title>
<path stroke-width="1.3" d="M213.27,-72.21C213.27,-72.21 49.98,-72.21 49.98,-72.21 43.98,-72.21 37.98,-66.21 37.98,-60.21 37.98,-60.21 37.98,-39.75 37.98,-39.75 37.98,-33.75 43.98,-27.75 49.98,-27.75 49.98,-27.75 213.27,-27.75 213.27,-27.75 219.27,-27.75 225.27,-33.75 225.27,-39.75 225.27,-39.75 225.27,-60.21 225.27,-60.21 225.27,-66.21 219.27,-72.21 213.27,-72.21" class="f-srv s-srv"/>
<text xml:space="preserve" text-anchor="middle" x="131.62" y="-56.7" font-family="Helvetica,sans-Serif" font-size="9.50" class="t-ink">courses → semesters → memberships</text>
<text xml:space="preserve" text-anchor="middle" x="131.62" y="-44.7" font-family="Helvetica,sans-Serif" font-size="9.50" class="t-ink">the hierarchy already models</text>
<text xml:space="preserve" text-anchor="middle" x="131.62" y="-34.95" font-family="Helvetica,sans-Serif" font-size="9.50" class="t-ink">more than one institution</text>
</g>

<g id="node9" class="node">
<title>multi</title>
<path stroke-width="1.3" stroke-dasharray="5,2" d="M634.91,-72.08C634.91,-72.08 472.37,-72.08 472.37,-72.08 466.37,-72.08 460.37,-66.08 460.37,-60.08 460.37,-60.08 460.37,-41.88 460.37,-41.88 460.37,-35.88 466.37,-29.87 472.37,-29.87 472.37,-29.87 634.91,-29.87 634.91,-29.87 640.91,-29.87 646.91,-35.87 646.91,-41.87 646.91,-41.87 646.91,-60.08 646.91,-60.08 646.91,-66.08 640.91,-72.08 634.91,-72.08" class="f-road s-road"/>
<text xml:space="preserve" text-anchor="middle" x="553.64" y="-56.58" font-family="Helvetica,sans-Serif" font-size="9.50" class="t-ink">multi&#45;institution tenancy</text>
<text xml:space="preserve" text-anchor="middle" x="553.64" y="-46.83" font-family="Helvetica,sans-Serif" font-size="9.50" class="t-ink">running Provenance for more than one</text>
<text xml:space="preserve" text-anchor="middle" x="553.64" y="-37.08" font-family="Helvetica,sans-Serif" font-size="9.50" class="t-ink">department, or more than one school</text>
</g>

<g id="edge5" class="edge">
<title>tenancy&#45;&gt;multi</title>
<path fill="none" stroke-width="1.15" stroke-dasharray="5,2" d="M225.84,-50.2C293.12,-50.36 383.83,-50.58 452.62,-50.74" class="s-road"/>
<polygon stroke-width="1.15" points="452.31,-52.84 458.31,-50.76 452.32,-48.64 452.31,-52.84" class="a-road s-road"/>
<text xml:space="preserve" text-anchor="middle" x="342.75" y="-51.81" font-family="Helvetica,sans-Serif" font-size="8.20" class="t-hum">a short step from here</text>
</g>

<g id="node10" class="node">
<title>excluded</title>
<polygon stroke-width="1.3" points="1028.83,-101.96 741.04,-101.96 741.04,0 1034.83,0 1034.83,-95.96 1028.83,-101.96" class="f-bad s-bad"/>
<polyline fill="none" stroke-width="1.3" points="1028.83,-101.96 1028.83,-95.96" class="s-bad"/>
<polyline fill="none" stroke-width="1.3" points="1034.83,-95.96 1028.83,-95.96" class="s-bad"/>
<text xml:space="preserve" text-anchor="middle" x="887.93" y="-86.45" font-family="Helvetica,sans-Serif" font-size="9.50" class="t-ink">EXCLUDED ON PRINCIPLE, not on effort</text>
<text xml:space="preserve" text-anchor="middle" x="887.93" y="-65.7" font-family="Helvetica,sans-Serif" font-size="9.50" class="t-ink">· LLM review of student code — any LLM feature reasons over</text>
<text xml:space="preserve" text-anchor="middle" x="887.93" y="-55.95" font-family="Helvetica,sans-Serif" font-size="9.50" class="t-ink"> &#160;process evidence (events, flags, timeline), never over the code</text>
<text xml:space="preserve" text-anchor="middle" x="887.93" y="-46.2" font-family="Helvetica,sans-Serif" font-size="9.50" class="t-ink">· code&#45;similarity classifiers</text>
<text xml:space="preserve" text-anchor="middle" x="887.93" y="-36.45" font-family="Helvetica,sans-Serif" font-size="9.50" class="t-ink">· network telemetry from the recorder</text>
<text xml:space="preserve" text-anchor="middle" x="887.93" y="-26.7" font-family="Helvetica,sans-Serif" font-size="9.50" class="t-ink">· keystroke&#45;level OS hooks</text>
<text xml:space="preserve" text-anchor="middle" x="887.93" y="-16.95" font-family="Helvetica,sans-Serif" font-size="9.50" class="t-ink">· obfuscating the recorder — students will read it, and the</text>
<text xml:space="preserve" text-anchor="middle" x="887.93" y="-7.2" font-family="Helvetica,sans-Serif" font-size="9.50" class="t-ink"> &#160;design assumes the protocol is public</text>
</g>

</g>
</svg>