<svg width="1979pt" height="1166pt"
 viewBox="0.00 0.00 1979.00 1166.00" xmlns="http://www.w3.org/2000/svg" xmlns:xlink="http://www.w3.org/1999/xlink">
<g id="graph0" class="graph" transform="scale(1 1) rotate(0) translate(4 1161.7)">
<title>staff</title>
<g id="clust1" class="cluster">
<title>cluster_auth</title>
<path stroke-width="1.5" d="M20,-768.2C20,-768.2 525,-768.2 525,-768.2 531,-768.2 537,-774.2 537,-780.2 537,-780.2 537,-1094.22 537,-1094.22 537,-1100.22 531,-1106.22 525,-1106.22 525,-1106.22 20,-1106.22 20,-1106.22 14,-1106.22 8,-1100.22 8,-1094.22 8,-1094.22 8,-780.2 8,-780.2 8,-774.2 14,-768.2 20,-768.2" class="f-hum s-hum"/>
<text xml:space="preserve" text-anchor="middle" x="64.75" y="-1093.2" font-family="Helvetica,sans-Serif" font-size="9.50" class="t-hum"> &#160;ACCESS CONTROL &#160;</text>
</g>
<g id="clust2" class="cluster">
<title>cluster_get</title>
<path stroke-width="1.5" d="M268,-519.77C268,-519.77 470,-519.77 470,-519.77 476,-519.77 482,-525.77 482,-531.77 482,-531.77 482,-737.2 482,-737.2 482,-743.2 476,-749.2 470,-749.2 470,-749.2 268,-749.2 268,-749.2 262,-749.2 256,-743.2 256,-737.2 256,-737.2 256,-531.77 256,-531.77 256,-525.77 262,-519.77 268,-519.77" class="f-tra s-tra"/>
<text xml:space="preserve" text-anchor="middle" x="310.88" y="-736.18" font-family="Helvetica,sans-Serif" font-size="9.50" class="t-tra"> &#160;GETTING DATA IN &#160;</text>
</g>
<g id="clust3" class="cluster">
<title>cluster_triage</title>
<path stroke-width="1.5" d="M502,-321.32C502,-321.32 656,-321.32 656,-321.32 662,-321.32 668,-327.32 668,-333.32 668,-333.32 668,-577.41 668,-577.41 668,-583.41 662,-589.41 656,-589.41 656,-589.41 502,-589.41 502,-589.41 496,-589.41 490,-583.41 490,-577.41 490,-577.41 490,-333.32 490,-333.32 490,-327.32 496,-321.32 502,-321.32" class="f-uix s-uix"/>
<text xml:space="preserve" text-anchor="middle" x="521.25" y="-576.39" font-family="Helvetica,sans-Serif" font-size="9.50" class="t-uix"> &#160;TRIAGE &#160;</text>
</g>
<g id="clust4" class="cluster">
<title>cluster_drill</title>
<path stroke-width="1.5" d="M688,-87.65C688,-87.65 1224,-87.65 1224,-87.65 1230,-87.65 1236,-93.65 1236,-99.65 1236,-99.65 1236,-374.09 1236,-374.09 1236,-380.09 1230,-386.09 1224,-386.09 1224,-386.09 688,-386.09 688,-386.09 682,-386.09 676,-380.09 676,-374.09 676,-374.09 676,-99.65 676,-99.65 676,-93.65 682,-87.65 688,-87.65" class="f-uix s-uix"/>
<text xml:space="preserve" text-anchor="middle" x="798" y="-373.07" font-family="Helvetica,sans-Serif" font-size="9.50" class="t-uix"> &#160;/sub/:submissionId — five views of one submission &#160;</text>
</g>
<g id="clust5" class="cluster">
<title>cluster_loop</title>
<path stroke-width="1.5" d="M1462,-8.94C1462,-8.94 1672,-8.94 1672,-8.94 1678,-8.94 1684,-14.94 1684,-20.94 1684,-20.94 1684,-282.32 1684,-282.32 1684,-288.32 1678,-294.32 1672,-294.32 1672,-294.32 1462,-294.32 1462,-294.32 1456,-294.32 1450,-288.32 1450,-282.32 1450,-282.32 1450,-20.94 1450,-20.94 1450,-14.94 1456,-8.94 1462,-8.94" class="f-ana s-ana"/>
<text xml:space="preserve" text-anchor="middle" x="1506.75" y="-281.3" font-family="Helvetica,sans-Serif" font-size="9.50" class="t-ana"> &#160;THE TUNING LOOP &#160;</text>
</g>
<g id="clust6" class="cluster">
<title>cluster_out</title>
<path stroke-width="1.5" d="M1746,-8C1746,-8 1928,-8 1928,-8 1934,-8 1940,-14 1940,-20 1940,-20 1940,-263.63 1940,-263.63 1940,-269.63 1934,-275.63 1928,-275.63 1928,-275.63 1746,-275.63 1746,-275.63 1740,-275.63 1734,-269.63 1734,-263.63 1734,-263.63 1734,-20 1734,-20 1734,-14 1740,-8 1746,-8" class="f-srv s-srv"/>
<text xml:space="preserve" text-anchor="middle" x="1775.38" y="-262.61" font-family="Helvetica,sans-Serif" font-size="9.50" class="t-srv"> &#160;OUTCOMES &#160;</text>
</g>

<g id="node1" class="node">
<title>staff</title>
<path stroke-width="1.3" d="M235.64,-1157.7C235.64,-1157.7 176.36,-1157.7 176.36,-1157.7 172.28,-1157.7 168.2,-1153.62 168.2,-1149.54 168.2,-1149.54 168.2,-1141.38 168.2,-1141.38 168.2,-1137.3 172.28,-1133.22 176.36,-1133.22 176.36,-1133.22 235.64,-1133.22 235.64,-1133.22 239.72,-1133.22 243.8,-1137.3 243.8,-1141.38 243.8,-1141.38 243.8,-1149.54 243.8,-1149.54 243.8,-1153.62 239.72,-1157.7 235.64,-1157.7" class="f-hum s-hum"/>
<text xml:space="preserve" text-anchor="middle" x="206" y="-1141.59" font-family="Helvetica,sans-Serif" font-size="10.00" class="t-ink">Course staff</text>
</g>

<g id="node2" class="node">
<title>login</title>
<path stroke-width="1.3" d="M258.51,-1080.47C258.51,-1080.47 153.48,-1080.47 153.48,-1080.47 149.41,-1080.47 145.32,-1076.39 145.32,-1072.31 145.32,-1072.31 145.32,-1064.15 145.32,-1064.15 145.32,-1060.07 149.41,-1055.99 153.48,-1055.99 153.48,-1055.99 258.51,-1055.99 258.51,-1055.99 262.6,-1055.99 266.68,-1060.07 266.68,-1064.15 266.68,-1064.15 266.68,-1072.31 266.68,-1072.31 266.68,-1076.39 262.6,-1080.47 258.51,-1080.47" class="f-hum s-hum"/>
<text xml:space="preserve" text-anchor="middle" x="206" y="-1064.08" font-family="Helvetica,sans-Serif" font-size="9.50" class="t-ink">/login — Google OAuth</text>
</g>

<g id="edge1" class="edge">
<title>staff&#45;&gt;login</title>
<path fill="none" stroke-width="1.15" d="M206,-1132.71C206,-1120.82 206,-1102.27 206,-1088.28" class="s-edge"/>
<polygon stroke-width="1.15" points="208.1,-1088.4 206,-1082.4 203.9,-1088.4 208.1,-1088.4" class="a-edge s-edge"/>
</g>

<g id="node3" class="node">
<title>hd</title>
<path stroke-width="1.3" d="M194.33,-1016.2C194.33,-1016.2 67.09,-985.78 67.09,-985.78 61.26,-984.39 61.26,-981.6 67.09,-980.2 67.09,-980.2 194.33,-949.78 194.33,-949.78 200.16,-948.39 211.84,-948.39 217.67,-949.78 217.67,-949.78 344.91,-980.2 344.91,-980.2 350.74,-981.6 350.74,-984.39 344.91,-985.78 344.91,-985.78 217.67,-1016.2 217.67,-1016.2 211.84,-1017.6 200.16,-1017.6 194.33,-1016.2" class="f-panel s-srv"/>
<text xml:space="preserve" text-anchor="middle" x="206" y="-984.57" font-family="Helvetica,sans-Serif" font-size="9.00" class="t-ink">ID token hd claim ∈</text>
<text xml:space="preserve" text-anchor="middle" x="206" y="-974.07" font-family="Helvetica,sans-Serif" font-size="9.00" class="t-ink">AUTH_ALLOWED_HOSTED_DOMAINS?</text>
</g>

<g id="edge2" class="edge">
<title>login&#45;&gt;hd</title>
<path fill="none" stroke-width="1.15" d="M206,-1055.66C206,-1048.11 206,-1037.74 206,-1027.23" class="s-edge"/>
<polygon stroke-width="1.15" points="208.1,-1027.33 206,-1021.33 203.9,-1027.33 208.1,-1027.33" class="a-edge s-edge"/>
</g>

<g id="node4" class="node">
<title>deny</title>
<path stroke-width="1.3" d="M172.3,-901.99C172.3,-901.99 27.7,-901.99 27.7,-901.99 21.7,-901.99 15.7,-895.99 15.7,-889.99 15.7,-889.99 15.7,-873.22 15.7,-873.22 15.7,-867.22 21.7,-861.22 27.7,-861.22 27.7,-861.22 172.3,-861.22 172.3,-861.22 178.3,-861.22 184.3,-867.22 184.3,-873.22 184.3,-873.22 184.3,-889.99 184.3,-889.99 184.3,-895.99 178.3,-901.99 172.3,-901.99" class="f-bad s-bad"/>
<text xml:space="preserve" text-anchor="middle" x="100" y="-887.68" font-family="Helvetica,sans-Serif" font-size="9.00" class="t-ink">rejected</text>
<text xml:space="preserve" text-anchor="middle" x="100" y="-877.93" font-family="Helvetica,sans-Serif" font-size="9.00" class="t-ink">this single check is the primary thing</text>
<text xml:space="preserve" text-anchor="middle" x="100" y="-868.18" font-family="Helvetica,sans-Serif" font-size="9.00" class="t-ink">keeping non&#45;Berkeley accounts out</text>
</g>

<g id="edge3" class="edge">
<title>hd&#45;&gt;deny</title>
<path fill="none" stroke-width="1.15" d="M175.91,-953.78C160.32,-939.16 141.45,-921.47 126.43,-907.39" class="s-bad"/>
<polygon stroke-width="1.15" points="128.16,-906.14 122.35,-903.56 125.29,-909.2 128.16,-906.14" class="a-bad s-bad"/>
<text xml:space="preserve" text-anchor="middle" x="151.15" y="-921.2" font-family="Helvetica,sans-Serif" font-size="8.20" class="t-hum">no</text>
</g>

<g id="node5" class="node">
<title>sess</title>
<path stroke-width="1.3" d="M279.39,-893.85C279.39,-893.85 212.61,-893.85 212.61,-893.85 208.53,-893.85 204.45,-889.77 204.45,-885.69 204.45,-885.69 204.45,-877.53 204.45,-877.53 204.45,-873.45 208.53,-869.37 212.61,-869.37 212.61,-869.37 279.39,-869.37 279.39,-869.37 283.47,-869.37 287.55,-873.45 287.55,-877.53 287.55,-877.53 287.55,-885.69 287.55,-885.69 287.55,-889.77 283.47,-893.85 279.39,-893.85" class="f-srv s-srv"/>
<text xml:space="preserve" text-anchor="middle" x="246" y="-877.46" font-family="Helvetica,sans-Serif" font-size="9.50" class="t-ink">cookie session</text>
</g>

<g id="edge4" class="edge">
<title>hd&#45;&gt;sess</title>
<path fill="none" stroke-width="1.15" d="M218.99,-949.73C225.45,-933.66 233.04,-914.8 238.53,-901.18" class="s-ana"/>
<polygon stroke-width="1.15" points="240.39,-902.16 240.69,-895.81 236.5,-900.59 240.39,-902.16" class="a-ana s-ana"/>
<text xml:space="preserve" text-anchor="middle" x="236.76" y="-921.2" font-family="Helvetica,sans-Serif" font-size="8.20" class="t-hum">yes</text>
</g>

<g id="node7" class="node">
<title>role</title>
<path stroke-width="1.3" d="M368.09,-807.22C368.09,-807.22 295.91,-807.22 295.91,-807.22 290.75,-807.22 285.57,-802.05 285.57,-796.88 285.57,-796.88 285.57,-786.54 285.57,-786.54 285.57,-781.37 290.75,-776.2 295.91,-776.2 295.91,-776.2 368.09,-776.2 368.09,-776.2 373.25,-776.2 378.43,-781.37 378.43,-786.54 378.43,-786.54 378.43,-796.88 378.43,-796.88 378.43,-802.05 373.25,-807.22 368.09,-807.22" class="f-srv s-srv"/>
<text xml:space="preserve" text-anchor="middle" x="332" y="-792.44" font-family="Helvetica,sans-Serif" font-size="9.50" class="t-ink">membership role</text>
<text xml:space="preserve" text-anchor="middle" x="332" y="-782.69" font-family="Helvetica,sans-Serif" font-size="9.50" class="t-ink">for this semester</text>
</g>

<g id="edge5" class="edge">
<title>sess&#45;&gt;role</title>
<path fill="none" stroke-width="1.15" d="M257.6,-868.75C271.64,-854.4 295.51,-830 312.42,-812.72" class="s-edge"/>
<polygon stroke-width="1.15" points="313.52,-814.6 316.21,-808.85 310.52,-811.67 313.52,-814.6" class="a-edge s-edge"/>
</g>

<g id="node6" class="node">
<title>tok</title>
<path stroke-width="1.3" d="M518.21,-897.12C518.21,-897.12 317.79,-897.12 317.79,-897.12 312.62,-897.12 307.45,-891.95 307.45,-886.78 307.45,-886.78 307.45,-876.44 307.45,-876.44 307.45,-871.27 312.62,-866.1 317.79,-866.1 317.79,-866.1 518.21,-866.1 518.21,-866.1 523.38,-866.1 528.55,-871.27 528.55,-876.44 528.55,-876.44 528.55,-886.78 528.55,-886.78 528.55,-891.95 523.38,-897.12 518.21,-897.12" class="f-srv s-srv"/>
<text xml:space="preserve" text-anchor="middle" x="418" y="-882.81" font-family="Helvetica,sans-Serif" font-size="9.00" class="t-ink">/me/tokens — API tokens</text>
<text xml:space="preserve" text-anchor="middle" x="418" y="-873.06" font-family="Helvetica,sans-Serif" font-size="9.00" class="t-ink">read&#45; or write&#45;scoped; provgate holds a write one</text>
</g>

<g id="edge6" class="edge">
<title>tok&#45;&gt;role</title>
<path fill="none" stroke-width="1.15" stroke-dasharray="5,2" d="M403.41,-865.7C389.2,-851.18 367.5,-829 351.75,-812.9" class="s-srv"/>
<polygon stroke-width="1.15" points="353.57,-811.76 347.88,-808.94 350.57,-814.7 353.57,-811.76" class="a-srv s-srv"/>
<text xml:space="preserve" text-anchor="middle" x="417.65" y="-835.43" font-family="Helvetica,sans-Serif" font-size="8.20" class="t-hum">or a token, for scripts</text>
<text xml:space="preserve" text-anchor="middle" x="417.65" y="-826.43" font-family="Helvetica,sans-Serif" font-size="8.20" class="t-hum">and provgate</text>
</g>

<g id="node8" class="node">
<title>ing</title>
<path stroke-width="1.3" d="M389.84,-723.45C389.84,-723.45 274.16,-723.45 274.16,-723.45 269,-723.45 263.82,-718.28 263.82,-713.11 263.82,-713.11 263.82,-702.77 263.82,-702.77 263.82,-697.6 269,-692.43 274.16,-692.43 274.16,-692.43 389.84,-692.43 389.84,-692.43 395,-692.43 400.18,-697.6 400.18,-702.77 400.18,-702.77 400.18,-713.11 400.18,-713.11 400.18,-718.28 395,-723.45 389.84,-723.45" class="f-tra s-tra"/>
<text xml:space="preserve" text-anchor="middle" x="332" y="-708.67" font-family="Helvetica,sans-Serif" font-size="9.50" class="t-ink">/s/:course/:semester/ingest</text>
<text xml:space="preserve" text-anchor="middle" x="332" y="-698.92" font-family="Helvetica,sans-Serif" font-size="9.50" class="t-ink">drop a Gradescope export</text>
</g>

<g id="edge7" class="edge">
<title>role&#45;&gt;ing</title>
<path fill="none" stroke-width="1.15" d="M332,-775.71C332,-763.27 332,-745.38 332,-731.25" class="s-edge"/>
<polygon stroke-width="1.15" points="334.1,-731.59 332,-725.59 329.9,-731.59 334.1,-731.59" class="a-edge s-edge"/>
</g>

<g id="node9" class="node">
<title>job</title>
<path stroke-width="1.3" d="M410.46,-655.43C410.46,-655.43 313.54,-655.43 313.54,-655.43 308.37,-655.43 303.2,-650.26 303.2,-645.09 303.2,-645.09 303.2,-634.75 303.2,-634.75 303.2,-629.58 308.37,-624.41 313.54,-624.41 313.54,-624.41 410.46,-624.41 410.46,-624.41 415.63,-624.41 420.8,-629.58 420.8,-634.75 420.8,-634.75 420.8,-645.09 420.8,-645.09 420.8,-650.26 415.63,-655.43 410.46,-655.43" class="f-tra s-tra"/>
<text xml:space="preserve" text-anchor="middle" x="362" y="-640.65" font-family="Helvetica,sans-Serif" font-size="9.50" class="t-ink">/ingest/jobs/:jobId</text>
<text xml:space="preserve" text-anchor="middle" x="362" y="-630.9" font-family="Helvetica,sans-Serif" font-size="9.50" class="t-ink">poll to a terminal state</text>
</g>

<g id="edge8" class="edge">
<title>ing&#45;&gt;job</title>
<path fill="none" stroke-width="1.15" d="M338.81,-691.96C342.72,-683.35 347.7,-672.38 352.05,-662.82" class="s-edge"/>
<polygon stroke-width="1.15" points="353.93,-663.76 354.5,-657.43 350.11,-662.02 353.93,-663.76" class="a-edge s-edge"/>
</g>

<g id="node10" class="node">
<title>unm</title>
<path stroke-width="1.3" d="M440.84,-558.79C440.84,-558.79 283.16,-558.79 283.16,-558.79 278,-558.79 272.82,-553.62 272.82,-548.45 272.82,-548.45 272.82,-538.11 272.82,-538.11 272.82,-532.94 278,-527.77 283.16,-527.77 283.16,-527.77 440.84,-527.77 440.84,-527.77 446,-527.77 451.18,-532.94 451.18,-538.11 451.18,-538.11 451.18,-548.45 451.18,-548.45 451.18,-553.62 446,-558.79 440.84,-558.79" class="f-tra s-tra"/>
<text xml:space="preserve" text-anchor="middle" x="362" y="-544" font-family="Helvetica,sans-Serif" font-size="9.50" class="t-ink">/unmatched</text>
<text xml:space="preserve" text-anchor="middle" x="362" y="-534.25" font-family="Helvetica,sans-Serif" font-size="9.50" class="t-ink">bundles that matched no roster entry</text>
</g>

<g id="edge9" class="edge">
<title>job&#45;&gt;unm</title>
<path fill="none" stroke-width="1.15" stroke-dasharray="5,2" d="M362,-624.13C362,-608.81 362,-584.65 362,-566.92" class="s-rec"/>
<polygon stroke-width="1.15" points="364.1,-567.01 362,-561.01 359.9,-567.01 364.1,-567.01" class="a-rec s-rec"/>
<text xml:space="preserve" text-anchor="middle" x="399.5" y="-598.62" font-family="Helvetica,sans-Serif" font-size="8.20" class="t-hum">skipped / no manifest</text>
</g>

<g id="node12" class="node">
<title>cohort</title>
<path stroke-width="1.8" d="M648.3,-563.66C648.3,-563.66 509.7,-563.66 509.7,-563.66 503.7,-563.66 497.7,-557.66 497.7,-551.66 497.7,-551.66 497.7,-534.89 497.7,-534.89 497.7,-528.89 503.7,-522.89 509.7,-522.89 509.7,-522.89 648.3,-522.89 648.3,-522.89 654.3,-522.89 660.3,-528.89 660.3,-534.89 660.3,-534.89 660.3,-551.66 660.3,-551.66 660.3,-557.66 654.3,-563.66 648.3,-563.66" class="f-uix s-uix"/>
<text xml:space="preserve" text-anchor="middle" x="579" y="-548.88" font-family="Helvetica,sans-Serif" font-size="9.50" class="t-ink">cohort list</text>
<text xml:space="preserve" text-anchor="middle" x="579" y="-539.13" font-family="Helvetica,sans-Serif" font-size="9.50" class="t-ink">virtualized · filter and sort by flag,</text>
<text xml:space="preserve" text-anchor="middle" x="579" y="-529.38" font-family="Helvetica,sans-Serif" font-size="9.50" class="t-ink">severity and score</text>
</g>

<g id="edge10" class="edge">
<title>job&#45;&gt;cohort</title>
<path fill="none" stroke-width="1.15" d="M402.59,-623.78C427.21,-614.36 459.14,-601.74 487,-589.41 502.1,-582.73 518.34,-574.97 532.91,-567.78" class="s-uix"/>
<polygon stroke-width="1.15" points="533.47,-569.84 537.91,-565.29 531.6,-566.08 533.47,-569.84" class="a-uix s-uix"/>
<text xml:space="preserve" text-anchor="middle" x="485.92" y="-598.62" font-family="Helvetica,sans-Serif" font-size="8.20" class="t-hum">succeeded</text>
</g>

<g id="node11" class="node">
<title>ros</title>
<path stroke-width="1.3" d="M465.84,-720.18C465.84,-720.18 428.16,-720.18 428.16,-720.18 424.08,-720.18 420,-716.1 420,-712.02 420,-712.02 420,-703.86 420,-703.86 420,-699.78 424.08,-695.7 428.16,-695.7 428.16,-695.7 465.84,-695.7 465.84,-695.7 469.92,-695.7 474,-699.78 474,-703.86 474,-703.86 474,-712.02 474,-712.02 474,-716.1 469.92,-720.18 465.84,-720.18" class="f-tra s-tra"/>
<text xml:space="preserve" text-anchor="middle" x="447" y="-703.79" font-family="Helvetica,sans-Serif" font-size="9.50" class="t-ink">/roster</text>
</g>


<g id="node13" class="node">
<title>q</title>
<path stroke-width="1.3" d="M570.94,-481.25C570.94,-481.25 515.87,-458.14 515.87,-458.14 510.34,-455.81 510.34,-451.17 515.87,-448.85 515.87,-448.85 570.94,-425.74 570.94,-425.74 576.47,-423.41 587.53,-423.41 593.06,-425.74 593.06,-425.74 648.13,-448.85 648.13,-448.85 653.66,-451.17 653.66,-455.81 648.13,-458.14 648.13,-458.14 593.06,-481.25 593.06,-481.25 587.53,-483.57 576.47,-483.57 570.94,-481.25" class="f-uix s-uix"/>
<text xml:space="preserve" text-anchor="middle" x="582" y="-454.69" font-family="Helvetica,sans-Serif" font-size="9.00" class="t-ink">does this one</text>
<text xml:space="preserve" text-anchor="middle" x="582" y="-444.94" font-family="Helvetica,sans-Serif" font-size="9.00" class="t-ink">warrant a human?</text>
</g>

<g id="edge12" class="edge">
<title>cohort&#45;&gt;q</title>
<path fill="none" stroke-width="1.15" d="M579.68,-522.36C579.97,-513.81 580.32,-503.52 580.66,-493.56" class="s-edge"/>
<polygon stroke-width="1.15" points="582.76,-493.85 580.86,-487.78 578.56,-493.71 582.76,-493.85" class="a-edge s-edge"/>
</g>

<g id="node24" class="node">
<title>xflags</title>
<path stroke-width="1.3" d="M1921.59,-249.88C1921.59,-249.88 1768.41,-249.88 1768.41,-249.88 1763.25,-249.88 1758.08,-244.71 1758.08,-239.54 1758.08,-239.54 1758.08,-229.2 1758.08,-229.2 1758.08,-224.03 1763.25,-218.86 1768.41,-218.86 1768.41,-218.86 1921.59,-218.86 1921.59,-218.86 1926.75,-218.86 1931.92,-224.03 1931.92,-229.2 1931.92,-229.2 1931.92,-239.54 1931.92,-239.54 1931.92,-244.71 1926.75,-249.88 1921.59,-249.88" class="f-srv s-srv"/>
<text xml:space="preserve" text-anchor="middle" x="1845" y="-235.1" font-family="Helvetica,sans-Serif" font-size="9.50" class="t-ink">/cross&#45;flags</text>
<text xml:space="preserve" text-anchor="middle" x="1845" y="-225.35" font-family="Helvetica,sans-Serif" font-size="9.50" class="t-ink">students grouped by a shared paste</text>
</g>

<g id="edge24" class="edge">
<title>cohort&#45;&gt;xflags</title>
<path fill="none" stroke-width="1.15" d="M630,-522.15C645.32,-513.43 660.34,-501.54 669,-485.89 682.95,-460.7 678.35,-448.33 669,-421.09 664.61,-408.31 645.51,-403.72 655,-394.09 666.43,-382.5 1224.8,-387.65 1241,-386.09 1427.55,-368.14 1472.14,-347.66 1656,-311.32 1691.23,-304.36 1701.29,-306.7 1735,-294.32 1763.38,-283.9 1793.51,-267.32 1815.05,-254.39" class="s-srv"/>
<polygon stroke-width="1.15" points="1815.92,-256.32 1819.96,-251.42 1813.74,-252.73 1815.92,-256.32" class="a-srv s-srv"/>
<text xml:space="preserve" text-anchor="middle" x="685" y="-395.3" font-family="Helvetica,sans-Serif" font-size="8.20" class="t-hum">cohort&#45;wide view</text>
</g>

<g id="node14" class="node">
<title>none</title>
<path stroke-width="1.3" stroke-dasharray="5,2" d="M643.96,-360.34C643.96,-360.34 520.04,-360.34 520.04,-360.34 514.87,-360.34 509.7,-355.17 509.7,-350 509.7,-350 509.7,-339.66 509.7,-339.66 509.7,-334.49 514.87,-329.32 520.04,-329.32 520.04,-329.32 643.96,-329.32 643.96,-329.32 649.13,-329.32 654.3,-334.49 654.3,-339.66 654.3,-339.66 654.3,-350 654.3,-350 654.3,-355.17 649.13,-360.34 643.96,-360.34" class="f-hum s-hum"/>
<text xml:space="preserve" text-anchor="middle" x="582" y="-345.56" font-family="Helvetica,sans-Serif" font-size="9.50" class="t-ink2">no action</text>
<text xml:space="preserve" text-anchor="middle" x="582" y="-335.81" font-family="Helvetica,sans-Serif" font-size="9.50" class="t-ink2">most of the cohort ends here</text>
</g>

<g id="edge13" class="edge">
<title>q&#45;&gt;none</title>
<path fill="none" stroke-width="1.15" stroke-dasharray="5,2" d="M582,-420.49C582,-403.67 582,-383.45 582,-368.3" class="s-hum"/>
<polygon stroke-width="1.15" points="584.1,-368.62 582,-362.62 579.9,-368.62 584.1,-368.62" class="a-hum s-hum"/>
<text xml:space="preserve" text-anchor="middle" x="586.5" y="-395.3" font-family="Helvetica,sans-Serif" font-size="8.20" class="t-hum">no</text>
</g>

<g id="node15" class="node">
<title>t1</title>
<path stroke-width="1.3" d="M811.96,-360.34C811.96,-360.34 694.04,-360.34 694.04,-360.34 688.87,-360.34 683.7,-355.17 683.7,-350 683.7,-350 683.7,-339.66 683.7,-339.66 683.7,-334.49 688.87,-329.32 694.04,-329.32 694.04,-329.32 811.96,-329.32 811.96,-329.32 817.13,-329.32 822.3,-334.49 822.3,-339.66 822.3,-339.66 822.3,-350 822.3,-350 822.3,-355.17 817.13,-360.34 811.96,-360.34" class="f-uix s-uix"/>
<text xml:space="preserve" text-anchor="middle" x="753" y="-346.03" font-family="Helvetica,sans-Serif" font-size="9.00" class="t-ink">overview</text>
<text xml:space="preserve" text-anchor="middle" x="753" y="-336.28" font-family="Helvetica,sans-Serif" font-size="9.00" class="t-ink">ranked flags + headline stats</text>
</g>

<g id="edge14" class="edge">
<title>q&#45;&gt;t1</title>
<path fill="none" stroke-width="1.15" d="M592.62,-425.1C598.42,-413.73 606.75,-401.48 618,-394.09 636.63,-381.85 647.24,-391.23 668.65,-387.01" class="s-uix"/>
<polygon stroke-width="1.15" points="669.03,-389.08 674.32,-385.55 667.98,-385.01 669.03,-389.08" class="a-uix s-uix"/>
<text xml:space="preserve" text-anchor="middle" x="624" y="-395.3" font-family="Helvetica,sans-Serif" font-size="8.20" class="t-hum">yes</text>
</g>

<g id="node16" class="node">
<title>t2</title>
<path stroke-width="1.3" d="M836.96,-249.88C836.96,-249.88 707.04,-249.88 707.04,-249.88 701.87,-249.88 696.7,-244.71 696.7,-239.54 696.7,-239.54 696.7,-229.2 696.7,-229.2 696.7,-224.03 701.87,-218.86 707.04,-218.86 707.04,-218.86 836.96,-218.86 836.96,-218.86 842.13,-218.86 847.3,-224.03 847.3,-229.2 847.3,-229.2 847.3,-239.54 847.3,-239.54 847.3,-244.71 842.13,-249.88 836.96,-249.88" class="f-uix s-uix"/>
<text xml:space="preserve" text-anchor="middle" x="772" y="-235.57" font-family="Helvetica,sans-Serif" font-size="9.00" class="t-ink">timeline</text>
<text xml:space="preserve" text-anchor="middle" x="772" y="-225.82" font-family="Helvetica,sans-Serif" font-size="9.00" class="t-ink">every event on a scrubable axis</text>
</g>


<g id="node20" class="node">
<title>jump</title>
<polygon stroke-width="1.3" points="1437.13,-249.88 1243.7,-249.88 1243.7,-218.86 1442.3,-218.86 1442.3,-244.71 1437.13,-249.88" class="f-rec s-rec"/>
<polyline fill="none" stroke-width="1.3" points="1437.13,-249.88 1437.13,-244.71" class="s-rec"/>
<polyline fill="none" stroke-width="1.3" points="1442.3,-244.71 1437.13,-244.71" class="s-rec"/>
<text xml:space="preserve" text-anchor="middle" x="1343" y="-235.57" font-family="Helvetica,sans-Serif" font-size="9.00" class="t-ink">every flag carries a supporting seq —</text>
<text xml:space="preserve" text-anchor="middle" x="1343" y="-225.82" font-family="Helvetica,sans-Serif" font-size="9.00" class="t-ink">click it and land on the moment it happened</text>
</g>

<g id="edge17" class="edge">
<title>t1&#45;&gt;jump</title>
<path fill="none" stroke-width="1.15" stroke-dasharray="5,2" d="M800.43,-328.74C811.05,-325.85 822.34,-323.16 833,-321.32 1011.67,-290.61 1066.44,-346.69 1240,-294.32 1268.3,-285.78 1297.23,-268.3 1317.2,-254.58" class="s-rec"/>
<polygon stroke-width="1.15" points="1318.21,-256.43 1321.93,-251.27 1315.81,-252.99 1318.21,-256.43" class="a-rec s-rec"/>
</g>

<g id="node21" class="node">
<title>judge</title>
<path stroke-width="1.3" d="M1544.73,-264.44C1544.73,-264.44 1473.96,-238.5 1473.96,-238.5 1468.33,-236.44 1468.33,-232.31 1473.96,-230.24 1473.96,-230.24 1544.73,-204.3 1544.73,-204.3 1550.37,-202.24 1561.63,-202.24 1567.27,-204.3 1567.27,-204.3 1638.04,-230.24 1638.04,-230.24 1643.67,-232.31 1643.67,-236.44 1638.04,-238.5 1638.04,-238.5 1567.27,-264.44 1567.27,-264.44 1561.63,-266.51 1550.37,-266.51 1544.73,-264.44" class="f-panel s-ana"/>
<text xml:space="preserve" text-anchor="middle" x="1556" y="-235.57" font-family="Helvetica,sans-Serif" font-size="9.00" class="t-ink">is the flag class</text>
<text xml:space="preserve" text-anchor="middle" x="1556" y="-225.82" font-family="Helvetica,sans-Serif" font-size="9.00" class="t-ink">firing on ordinary work?</text>
</g>

<g id="edge18" class="edge">
<title>t1&#45;&gt;judge</title>
<path fill="none" stroke-width="1.15" d="M799.11,-328.77C810.1,-325.76 821.87,-323.01 833,-321.32 969.13,-300.68 1320.17,-334.04 1452,-294.32 1475.75,-287.17 1499.98,-273.85 1519.08,-261.68" class="s-edge"/>
<polygon stroke-width="1.15" points="1520,-263.58 1523.89,-258.56 1517.71,-260.06 1520,-263.58" class="a-edge s-edge"/>
</g>

<g id="node17" class="node">
<title>t3</title>
<path stroke-width="1.3" d="M876.3,-146.17C876.3,-146.17 695.7,-146.17 695.7,-146.17 689.7,-146.17 683.7,-140.17 683.7,-134.17 683.7,-134.17 683.7,-107.65 683.7,-107.65 683.7,-101.65 689.7,-95.65 695.7,-95.65 695.7,-95.65 876.3,-95.65 876.3,-95.65 882.3,-95.65 888.3,-101.65 888.3,-107.65 888.3,-107.65 888.3,-134.17 888.3,-134.17 888.3,-140.17 882.3,-146.17 876.3,-146.17" class="f-uix s-uix"/>
<text xml:space="preserve" text-anchor="middle" x="786" y="-131.86" font-family="Helvetica,sans-Serif" font-size="9.00" class="t-ink">replay</text>
<text xml:space="preserve" text-anchor="middle" x="786" y="-122.11" font-family="Helvetica,sans-Serif" font-size="9.00" class="t-ink">watch the file being written; external changes</text>
<text xml:space="preserve" text-anchor="middle" x="786" y="-112.36" font-family="Helvetica,sans-Serif" font-size="9.00" class="t-ink">are framed in place, then the view returns</text>
<text xml:space="preserve" text-anchor="middle" x="786" y="-102.61" font-family="Helvetica,sans-Serif" font-size="9.00" class="t-ink">to the caret</text>
</g>


<g id="node18" class="node">
<title>t4</title>
<path stroke-width="1.3" d="M985.08,-360.34C985.08,-360.34 852.92,-360.34 852.92,-360.34 847.75,-360.34 842.58,-355.17 842.58,-350 842.58,-350 842.58,-339.66 842.58,-339.66 842.58,-334.49 847.75,-329.32 852.92,-329.32 852.92,-329.32 985.08,-329.32 985.08,-329.32 990.25,-329.32 995.42,-334.49 995.42,-339.66 995.42,-339.66 995.42,-350 995.42,-350 995.42,-355.17 990.25,-360.34 985.08,-360.34" class="f-uix s-uix"/>
<text xml:space="preserve" text-anchor="middle" x="919" y="-346.03" font-family="Helvetica,sans-Serif" font-size="9.00" class="t-ink">validation</text>
<text xml:space="preserve" text-anchor="middle" x="919" y="-336.28" font-family="Helvetica,sans-Serif" font-size="9.00" class="t-ink">the 8 checks, with the failing seq</text>
</g>

<g id="node19" class="node">
<title>t5</title>
<path stroke-width="1.3" d="M1218.09,-360.34C1218.09,-360.34 1025.91,-360.34 1025.91,-360.34 1020.75,-360.34 1015.58,-355.17 1015.58,-350 1015.58,-350 1015.58,-339.66 1015.58,-339.66 1015.58,-334.49 1020.75,-329.32 1025.91,-329.32 1025.91,-329.32 1218.09,-329.32 1218.09,-329.32 1223.25,-329.32 1228.42,-334.49 1228.42,-339.66 1228.42,-339.66 1228.42,-350 1228.42,-350 1228.42,-355.17 1223.25,-360.34 1218.09,-360.34" class="f-uix s-uix"/>
<text xml:space="preserve" text-anchor="middle" x="1122" y="-346.03" font-family="Helvetica,sans-Serif" font-size="9.00" class="t-ink">source</text>
<text xml:space="preserve" text-anchor="middle" x="1122" y="-336.28" font-family="Helvetica,sans-Serif" font-size="9.00" class="t-ink">reconstructed content with per&#45;line provenance</text>
</g>

<g id="node25" class="node">
<title>exp</title>
<path stroke-width="1.3" d="M1889.84,-136.42C1889.84,-136.42 1762.16,-136.42 1762.16,-136.42 1757,-136.42 1751.83,-131.25 1751.83,-126.08 1751.83,-126.08 1751.83,-115.74 1751.83,-115.74 1751.83,-110.57 1757,-105.4 1762.16,-105.4 1762.16,-105.4 1889.84,-105.4 1889.84,-105.4 1895,-105.4 1900.17,-110.57 1900.17,-115.74 1900.17,-115.74 1900.17,-126.08 1900.17,-126.08 1900.17,-131.25 1895,-136.42 1889.84,-136.42" class="f-srv s-srv"/>
<text xml:space="preserve" text-anchor="middle" x="1826" y="-121.64" font-family="Helvetica,sans-Serif" font-size="9.50" class="t-ink">evidence export</text>
<text xml:space="preserve" text-anchor="middle" x="1826" y="-111.89" font-family="Helvetica,sans-Serif" font-size="9.50" class="t-ink">for an academic&#45;conduct case</text>
</g>


<g id="node22" class="node">
<title>tune</title>
<path stroke-width="1.3" d="M1596.64,-133.15C1596.64,-133.15 1489.36,-133.15 1489.36,-133.15 1485.28,-133.15 1481.2,-129.07 1481.2,-124.99 1481.2,-124.99 1481.2,-116.83 1481.2,-116.83 1481.2,-112.75 1485.28,-108.67 1489.36,-108.67 1489.36,-108.67 1596.64,-108.67 1596.64,-108.67 1600.72,-108.67 1604.8,-112.75 1604.8,-116.83 1604.8,-116.83 1604.8,-124.99 1604.8,-124.99 1604.8,-129.07 1600.72,-133.15 1596.64,-133.15" class="f-ana s-ana"/>
<text xml:space="preserve" text-anchor="middle" x="1543" y="-116.76" font-family="Helvetica,sans-Serif" font-size="9.50" class="t-ink">/tuning — 24 thresholds</text>
</g>

<g id="edge19" class="edge">
<title>judge&#45;&gt;tune</title>
<path fill="none" stroke-width="1.15" d="M1533.1,-208.01C1527.46,-200.25 1522.2,-191.34 1519.25,-182.17 1514.6,-167.72 1521.46,-151.75 1528.98,-139.89" class="s-ana"/>
<polygon stroke-width="1.15" points="1530.54,-141.33 1532.18,-135.19 1527.07,-138.97 1530.54,-141.33" class="a-ana s-ana"/>
<text xml:space="preserve" text-anchor="middle" x="1563.12" y="-174.38" font-family="Helvetica,sans-Serif" font-size="8.20" class="t-hum">yes — the threshold</text>
<text xml:space="preserve" text-anchor="middle" x="1563.12" y="-165.38" font-family="Helvetica,sans-Serif" font-size="8.20" class="t-hum">is wrong, not the student</text>
</g>

<g id="edge22" class="edge">
<title>judge&#45;&gt;exp</title>
<path fill="none" stroke-width="1.15" d="M1580.44,-208.61C1598.11,-191.23 1620.81,-170.07 1632.25,-164.17 1651.85,-154.07 1700.34,-143.5 1743.91,-135.46" class="s-srv"/>
<polygon stroke-width="1.15" points="1744.17,-137.54 1749.7,-134.4 1743.42,-133.41 1744.17,-137.54" class="a-srv s-srv"/>
<text xml:space="preserve" text-anchor="middle" x="1671.62" y="-169.88" font-family="Helvetica,sans-Serif" font-size="8.20" class="t-hum">no — the signal is real</text>
</g>

<g id="node23" class="node">
<title>recomp</title>
<path stroke-width="1.3" d="M1664.42,-57.71C1664.42,-57.71 1469.58,-57.71 1469.58,-57.71 1463.58,-57.71 1457.58,-51.71 1457.58,-45.71 1457.58,-45.71 1457.58,-28.94 1457.58,-28.94 1457.58,-22.94 1463.58,-16.94 1469.58,-16.94 1469.58,-16.94 1664.42,-16.94 1664.42,-16.94 1670.42,-16.94 1676.42,-22.94 1676.42,-28.94 1676.42,-28.94 1676.42,-45.71 1676.42,-45.71 1676.42,-51.71 1670.42,-57.71 1664.42,-57.71" class="f-ana s-ana"/>
<text xml:space="preserve" text-anchor="middle" x="1567" y="-43.4" font-family="Helvetica,sans-Serif" font-size="9.00" class="t-ink">enqueue cohort recompute</text>
<text xml:space="preserve" text-anchor="middle" x="1567" y="-33.65" font-family="Helvetica,sans-Serif" font-size="9.00" class="t-ink">re&#45;runs heuristics against the re&#45;parsed bundles;</text>
<text xml:space="preserve" text-anchor="middle" x="1567" y="-23.9" font-family="Helvetica,sans-Serif" font-size="9.00" class="t-ink">validation results are NOT re&#45;run</text>
</g>

<g id="edge20" class="edge">
<title>tune&#45;&gt;recomp</title>
<path fill="none" stroke-width="1.15" d="M1546.44,-108.22C1549.71,-97.12 1554.74,-80.01 1559.01,-65.49" class="s-edge"/>
<polygon stroke-width="1.15" points="1560.99,-66.21 1560.67,-59.86 1556.96,-65.02 1560.99,-66.21" class="a-edge s-edge"/>
</g>

<g id="edge21" class="edge">
<title>recomp&#45;&gt;cohort</title>
<path fill="none" stroke-width="1.15" d="M1676.88,-52.27C1787.77,-66.41 1942.88,-86.38 1944,-87.65 1950.83,-95.36 1952.14,-285.77 1945,-294.32 1780.68,-491.15 945.99,-532.08 668.69,-540.29" class="s-ana"/>
<polygon stroke-width="1.15" points="668.73,-538.19 662.79,-540.46 668.85,-542.39 668.73,-538.19" class="a-ana s-ana"/>
<text xml:space="preserve" text-anchor="middle" x="1953.56" y="-303.53" font-family="Helvetica,sans-Serif" font-size="8.20" class="t-hum">re&#45;ranked</text>
</g>


<g id="node26" class="node">
<title>audit</title>
<path stroke-width="1.3" d="M1932.17,-54.77C1932.17,-56.91 1889.52,-58.65 1837,-58.65 1784.48,-58.65 1741.83,-56.91 1741.83,-54.77 1741.83,-54.77 1741.83,-19.88 1741.83,-19.88 1741.83,-17.74 1784.48,-16 1837,-16 1889.52,-16 1932.17,-17.74 1932.17,-19.88 1932.17,-19.88 1932.17,-54.77 1932.17,-54.77" class="f-srv s-srv"/>
<path fill="none" stroke-width="1.3" d="M1932.17,-54.77C1932.17,-52.64 1889.52,-50.9 1837,-50.9 1784.48,-50.9 1741.83,-52.64 1741.83,-54.77" class="s-srv"/>
<text xml:space="preserve" text-anchor="middle" x="1837" y="-38.05" font-family="Helvetica,sans-Serif" font-size="9.50" class="t-ink">audit_log</text>
<text xml:space="preserve" text-anchor="middle" x="1837" y="-28.3" font-family="Helvetica,sans-Serif" font-size="9.50" class="t-ink">append&#45;only record of privileged actions</text>
</g>

<g id="edge25" class="edge">
<title>exp&#45;&gt;audit</title>
<path fill="none" stroke-width="1.15" d="M1828.02,-104.95C1829.47,-94.18 1831.47,-79.33 1833.22,-66.39" class="s-edge"/>
<polygon stroke-width="1.15" points="1835.26,-66.98 1833.98,-60.76 1831.09,-66.42 1835.26,-66.98" class="a-edge s-edge"/>
</g>
</g>
</svg>