<svg width="1541pt" height="412pt"
 viewBox="0.00 0.00 1541.00 412.00" xmlns="http://www.w3.org/2000/svg" xmlns:xlink="http://www.w3.org/1999/xlink">
<g id="graph0" class="graph" transform="scale(1 1) rotate(0) translate(4 408.44)">
<title>state</title>

<g id="node1" class="node">
<title>start</title>
<ellipse stroke-width="1.4" cx="6.12" cy="-88.08" rx="6.12" ry="6.12" class="a-hum s-hum"/>
</g>

<g id="node2" class="node">
<title>dormant</title>
<path stroke-width="1.4" d="M208.41,-112.15C208.41,-112.15 122.49,-112.15 122.49,-112.15 116.49,-112.15 110.49,-106.15 110.49,-100.15 110.49,-100.15 110.49,-76 110.49,-76 110.49,-70 116.49,-64 122.49,-64 122.49,-64 208.41,-64 208.41,-64 214.41,-64 220.41,-70 220.41,-76 220.41,-76 220.41,-100.15 220.41,-100.15 220.41,-106.15 214.41,-112.15 208.41,-112.15" class="f-hum s-hum"/>
<text xml:space="preserve" text-anchor="middle" x="165.45" y="-94.98" font-family="Helvetica,sans-Serif" font-size="10.50" class="t-ink2">DORMANT</text>
<text xml:space="preserve" text-anchor="middle" x="165.45" y="-83.73" font-family="Helvetica,sans-Serif" font-size="10.50" class="t-ink2">extension loaded,</text>
<text xml:space="preserve" text-anchor="middle" x="165.45" y="-72.48" font-family="Helvetica,sans-Serif" font-size="10.50" class="t-ink2">nothing recorded</text>
</g>

<g id="edge1" class="edge">
<title>start&#45;&gt;dormant</title>
<path fill="none" stroke-width="1.2" d="M12.72,-88.08C27.12,-88.08 66.79,-88.08 101.95,-88.08" class="s-edge"/>
<polygon stroke-width="1.2" points="101.52,-90.35 108.02,-88.08 101.52,-85.8 101.52,-90.35" class="a-edge s-edge"/>
<text xml:space="preserve" text-anchor="middle" x="61.37" y="-89" font-family="Helvetica,sans-Serif" font-size="8.50" class="t-hum">editor starts</text>
</g>

<g id="node3" class="node">
<title>verify</title>
<path stroke-width="1.4" d="M441.18,-164.29C441.18,-164.29 355.55,-135.86 355.55,-135.86 349.85,-133.97 349.85,-130.18 355.55,-128.29 355.55,-128.29 441.18,-99.86 441.18,-99.86 446.87,-97.97 458.26,-97.97 463.95,-99.86 463.95,-99.86 549.58,-128.29 549.58,-128.29 555.27,-130.18 555.27,-133.97 549.58,-135.86 549.58,-135.86 463.95,-164.29 463.95,-164.29 458.26,-166.18 446.87,-166.18 441.18,-164.29" class="f-rec s-rec"/>
<text xml:space="preserve" text-anchor="middle" x="452.56" y="-138.15" font-family="Helvetica,sans-Serif" font-size="9.00" class="t-ink">manifest</text>
<text xml:space="preserve" text-anchor="middle" x="452.56" y="-128.4" font-family="Helvetica,sans-Serif" font-size="9.00" class="t-ink">verifies against the</text>
<text xml:space="preserve" text-anchor="middle" x="452.56" y="-118.65" font-family="Helvetica,sans-Serif" font-size="9.00" class="t-ink">embedded course key?</text>
</g>

<g id="edge2" class="edge">
<title>dormant&#45;&gt;verify</title>
<path fill="none" stroke-width="1.2" d="M220.84,-84.49C249.64,-83.58 285.51,-84.03 317.16,-89.08 343.03,-93.2 370.73,-101.38 394.22,-109.51" class="s-edge"/>
<polygon stroke-width="1.2" points="393.42,-111.64 400.31,-111.65 394.93,-107.35 393.42,-111.64" class="a-edge s-edge"/>
<text xml:space="preserve" text-anchor="middle" x="282.29" y="-90" font-family="Helvetica,sans-Serif" font-size="8.50" class="t-hum">workspace opened</text>
</g>

<g id="edge3" class="edge">
<title>verify&#45;&gt;dormant</title>
<path fill="none" stroke-width="1.2" stroke-dasharray="5,2" d="M376.91,-120.55C330.91,-113.46 272.61,-104.46 229.04,-97.73" class="s-hum"/>
<polygon stroke-width="1.2" points="229.65,-95.53 222.88,-96.78 228.96,-100.02 229.65,-95.53" class="a-hum s-hum"/>
<text xml:space="preserve" text-anchor="middle" x="282.29" y="-120" font-family="Helvetica,sans-Serif" font-size="8.50" class="t-hum">no — stay silent,</text>
<text xml:space="preserve" text-anchor="middle" x="282.29" y="-111" font-family="Helvetica,sans-Serif" font-size="8.50" class="t-hum">record nothing</text>
</g>

<g id="node4" class="node">
<title>recording</title>
<path stroke-width="2" d="M828.39,-209.15C828.39,-209.15 734.22,-209.15 734.22,-209.15 728.22,-209.15 722.22,-203.15 722.22,-197.15 722.22,-197.15 722.22,-173 722.22,-173 722.22,-167 728.22,-161 734.22,-161 734.22,-161 828.39,-161 828.39,-161 834.39,-161 840.39,-167 840.39,-173 840.39,-173 840.39,-197.15 840.39,-197.15 840.39,-203.15 834.39,-209.15 828.39,-209.15" class="f-rec s-rec"/>
<text xml:space="preserve" text-anchor="middle" x="781.3" y="-191.97" font-family="Helvetica,sans-Serif" font-size="10.50" class="t-ink">RECORDING</text>
<text xml:space="preserve" text-anchor="middle" x="781.3" y="-180.72" font-family="Helvetica,sans-Serif" font-size="10.50" class="t-ink">session keypair live</text>
<text xml:space="preserve" text-anchor="middle" x="781.3" y="-169.47" font-family="Helvetica,sans-Serif" font-size="10.50" class="t-ink">events appending</text>
</g>

<g id="edge4" class="edge">
<title>verify&#45;&gt;recording</title>
<path fill="none" stroke-width="1.2" d="M526.89,-143.97C582.73,-153.03 658.97,-165.39 713.21,-174.19" class="s-rec"/>
<polygon stroke-width="1.2" points="712.81,-176.43 719.59,-175.23 713.54,-171.94 712.81,-176.43" class="a-rec s-rec"/>
<text xml:space="preserve" text-anchor="middle" x="641.59" y="-171.79" font-family="Helvetica,sans-Serif" font-size="8.50" class="t-hum">yes — session.start</text>
</g>

<g id="node5" class="node">
<title>degraded</title>
<path stroke-width="1.4" d="M1199.31,-48.15C1199.31,-48.15 1069.89,-48.15 1069.89,-48.15 1063.89,-48.15 1057.89,-42.15 1057.89,-36.15 1057.89,-36.15 1057.89,-12 1057.89,-12 1057.89,-6 1063.89,0 1069.89,0 1069.89,0 1199.31,0 1199.31,0 1205.31,0 1211.31,-6 1211.31,-12 1211.31,-12 1211.31,-36.15 1211.31,-36.15 1211.31,-42.15 1205.31,-48.15 1199.31,-48.15" class="f-bad s-bad"/>
<text xml:space="preserve" text-anchor="middle" x="1134.6" y="-30.98" font-family="Helvetica,sans-Serif" font-size="10.50" class="t-ink">DEGRADED</text>
<text xml:space="preserve" text-anchor="middle" x="1134.6" y="-19.73" font-family="Helvetica,sans-Serif" font-size="10.50" class="t-ink">disk full — student notified,</text>
<text xml:space="preserve" text-anchor="middle" x="1134.6" y="-8.48" font-family="Helvetica,sans-Serif" font-size="10.50" class="t-ink">appends suspended</text>
</g>

<g id="edge7" class="edge">
<title>recording&#45;&gt;degraded</title>
<path fill="none" stroke-width="1.2" d="M796.98,-160.38C811.85,-137.57 836.96,-104.52 867.39,-86.08 922.6,-52.61 994.32,-37.21 1049.41,-30.12" class="s-bad"/>
<polygon stroke-width="1.2" points="1049.43,-32.4 1055.61,-29.35 1048.88,-27.89 1049.43,-32.4" class="a-bad s-bad"/>
<text xml:space="preserve" text-anchor="middle" x="940.89" y="-96" font-family="Helvetica,sans-Serif" font-size="8.50" class="t-hum">write fails:</text>
<text xml:space="preserve" text-anchor="middle" x="940.89" y="-87" font-family="Helvetica,sans-Serif" font-size="8.50" class="t-hum">ENOSPC</text>
</g>

<g id="node6" class="node">
<title>suspended</title>
<path stroke-width="1.4" stroke-dasharray="5,2" d="M1210.18,-306.15C1210.18,-306.15 1059.01,-306.15 1059.01,-306.15 1053.01,-306.15 1047.01,-300.15 1047.01,-294.15 1047.01,-294.15 1047.01,-270 1047.01,-270 1047.01,-264 1053.01,-258 1059.01,-258 1059.01,-258 1210.18,-258 1210.18,-258 1216.18,-258 1222.18,-264 1222.18,-270 1222.18,-270 1222.18,-294.15 1222.18,-294.15 1222.18,-300.15 1216.18,-306.15 1210.18,-306.15" class="f-hum s-hum"/>
<text xml:space="preserve" text-anchor="middle" x="1134.6" y="-288.97" font-family="Helvetica,sans-Serif" font-size="10.50" class="t-ink2">SUSPENDED</text>
<text xml:space="preserve" text-anchor="middle" x="1134.6" y="-277.72" font-family="Helvetica,sans-Serif" font-size="10.50" class="t-ink2">OS sleep — the host process is</text>
<text xml:space="preserve" text-anchor="middle" x="1134.6" y="-266.47" font-family="Helvetica,sans-Serif" font-size="10.50" class="t-ink2">parked, not deactivated</text>
</g>

<g id="edge5" class="edge">
<title>recording&#45;&gt;suspended</title>
<path fill="none" stroke-width="1.2" stroke-dasharray="5,2" d="M792,-209.76C804.6,-237.99 829.56,-282.81 867.39,-302.07 925.06,-331.44 999.01,-322.82 1054.33,-308.92" class="s-hum"/>
<polygon stroke-width="1.2" points="1054.88,-311.13 1060.6,-307.29 1053.74,-306.72 1054.88,-311.13" class="a-hum s-hum"/>
<text xml:space="preserve" text-anchor="middle" x="940.89" y="-322.64" font-family="Helvetica,sans-Serif" font-size="8.50" class="t-hum">machine sleeps</text>
</g>

<g id="node7" class="node">
<title>crashed</title>
<path stroke-width="1.4" stroke-dasharray="5,2" d="M1188.81,-138.15C1188.81,-138.15 1080.39,-138.15 1080.39,-138.15 1074.39,-138.15 1068.39,-132.15 1068.39,-126.15 1068.39,-126.15 1068.39,-102 1068.39,-102 1068.39,-96 1074.39,-90 1080.39,-90 1080.39,-90 1188.81,-90 1188.81,-90 1194.81,-90 1200.81,-96 1200.81,-102 1200.81,-102 1200.81,-126.15 1200.81,-126.15 1200.81,-132.15 1194.81,-138.15 1188.81,-138.15" class="f-bad s-bad"/>
<text xml:space="preserve" text-anchor="middle" x="1134.6" y="-120.97" font-family="Helvetica,sans-Serif" font-size="10.50" class="t-ink">TERMINATED</text>
<text xml:space="preserve" text-anchor="middle" x="1134.6" y="-109.72" font-family="Helvetica,sans-Serif" font-size="10.50" class="t-ink">crash, kill, or quit —</text>
<text xml:space="preserve" text-anchor="middle" x="1134.6" y="-98.47" font-family="Helvetica,sans-Serif" font-size="10.50" class="t-ink">no session.end written</text>
</g>

<g id="edge9" class="edge">
<title>recording&#45;&gt;crashed</title>
<path fill="none" stroke-width="1.2" stroke-dasharray="5,2" d="M814.85,-160.11C830,-149.87 848.76,-139.04 867.39,-133.07 930.03,-113.01 1005.06,-109.36 1059.48,-110.08" class="s-bad"/>
<polygon stroke-width="1.2" points="1059.33,-112.36 1065.87,-110.2 1059.41,-107.81 1059.33,-112.36" class="a-bad s-bad"/>
<text xml:space="preserve" text-anchor="middle" x="940.89" y="-134" font-family="Helvetica,sans-Serif" font-size="8.50" class="t-hum">process dies</text>
</g>

<g id="node9" class="node">
<title>sealed</title>
<path stroke-width="2" d="M1215.81,-227.77C1215.81,-227.77 1053.39,-227.77 1053.39,-227.77 1047.39,-227.77 1041.39,-221.77 1041.39,-215.77 1041.39,-215.77 1041.39,-180.38 1041.39,-180.38 1041.39,-174.38 1047.39,-168.38 1053.39,-168.38 1053.39,-168.38 1215.81,-168.38 1215.81,-168.38 1221.81,-168.38 1227.81,-174.38 1227.81,-180.38 1227.81,-180.38 1227.81,-215.77 1227.81,-215.77 1227.81,-221.77 1221.81,-227.77 1215.81,-227.77" class="f-tra s-tra"/>
<text xml:space="preserve" text-anchor="middle" x="1134.6" y="-210.6" font-family="Helvetica,sans-Serif" font-size="10.50" class="t-ink">BUNDLE SEALED</text>
<text xml:space="preserve" text-anchor="middle" x="1134.6" y="-199.35" font-family="Helvetica,sans-Serif" font-size="10.50" class="t-ink">the archived copy is immutable —</text>
<text xml:space="preserve" text-anchor="middle" x="1134.6" y="-188.1" font-family="Helvetica,sans-Serif" font-size="10.50" class="t-ink">but this is NOT a terminal state:</text>
<text xml:space="preserve" text-anchor="middle" x="1134.6" y="-176.85" font-family="Helvetica,sans-Serif" font-size="10.50" class="t-ink">the live session keeps appending</text>
</g>

<g id="edge12" class="edge">
<title>recording&#45;&gt;sealed</title>
<path fill="none" stroke-width="1.2" d="M841.21,-163.03C849.88,-160.57 858.79,-158.45 867.39,-157.07 931.9,-146.73 949.95,-146.3 1014.39,-157.07 1025.61,-158.95 1037.2,-161.76 1048.53,-165.04" class="s-tra"/>
<polygon stroke-width="1.2" points="1047.71,-167.17 1054.59,-166.86 1049.02,-162.81 1047.71,-167.17" class="a-tra s-tra"/>
<text xml:space="preserve" text-anchor="middle" x="940.89" y="-167" font-family="Helvetica,sans-Serif" font-size="8.50" class="t-hum">student runs</text>
<text xml:space="preserve" text-anchor="middle" x="940.89" y="-158" font-family="Helvetica,sans-Serif" font-size="8.50" class="t-hum">Prepare Submission Bundle</text>
</g>

<g id="edge8" class="edge">
<title>degraded&#45;&gt;dormant</title>
<path fill="none" stroke-width="1.2" stroke-dasharray="5,2" d="M1057.25,-25.12C1004.01,-26.08 931.34,-27.86 867.39,-31.08 591.43,-44.93 522.2,-48.24 247.41,-77.08 241.36,-77.71 235.06,-78.44 228.77,-79.22" class="s-bad"/>
<polygon stroke-width="1.2" points="228.8,-76.92 222.63,-79.99 229.37,-81.44 228.8,-76.92" class="a-bad s-bad"/>
<text xml:space="preserve" text-anchor="middle" x="641.59" y="-65.18" font-family="Helvetica,sans-Serif" font-size="8.50" class="t-hum">an editor restart is the ONLY</text>
<text xml:space="preserve" text-anchor="middle" x="641.59" y="-56.18" font-family="Helvetica,sans-Serif" font-size="8.50" class="t-hum">way out — degraded mode is</text>
<text xml:space="preserve" text-anchor="middle" x="641.59" y="-47.18" font-family="Helvetica,sans-Serif" font-size="8.50" class="t-hum">never cleared in&#45;process</text>
</g>

<g id="edge6" class="edge">
<title>suspended&#45;&gt;recording</title>
<path fill="none" stroke-width="1.2" stroke-dasharray="5,2" d="M1046.47,-264.22C994.09,-252.73 926.37,-236.51 867.39,-218.07 861.19,-216.14 854.8,-213.98 848.43,-211.71" class="s-hum"/>
<polygon stroke-width="1.2" points="849.58,-209.71 842.69,-209.63 848.03,-213.98 849.58,-209.71" class="a-hum s-hum"/>
<text xml:space="preserve" text-anchor="middle" x="940.89" y="-284.21" font-family="Helvetica,sans-Serif" font-size="8.50" class="t-hum">wake — the heartbeat emits</text>
<text xml:space="preserve" text-anchor="middle" x="940.89" y="-275.21" font-family="Helvetica,sans-Serif" font-size="8.50" class="t-hum">session.resumed when the gap is</text>
<text xml:space="preserve" text-anchor="middle" x="940.89" y="-266.21" font-family="Helvetica,sans-Serif" font-size="8.50" class="t-hum">≥ 2× the interval. The gap has no</text>
<text xml:space="preserve" text-anchor="middle" x="940.89" y="-257.21" font-family="Helvetica,sans-Serif" font-size="8.50" class="t-hum">intervening events, so it is NOT flagged</text>
</g>

<g id="node8" class="node">
<title>recover</title>
<path stroke-width="1.4" d="M1520.73,-269.77C1520.73,-269.77 1345.56,-269.77 1345.56,-269.77 1339.56,-269.77 1333.56,-263.77 1333.56,-257.77 1333.56,-257.77 1333.56,-222.38 1333.56,-222.38 1333.56,-216.38 1339.56,-210.38 1345.56,-210.38 1345.56,-210.38 1520.73,-210.38 1520.73,-210.38 1526.73,-210.38 1532.73,-216.38 1532.73,-222.38 1532.73,-222.38 1532.73,-257.77 1532.73,-257.77 1532.73,-263.77 1526.73,-269.77 1520.73,-269.77" class="f-fmt s-fmt"/>
<text xml:space="preserve" text-anchor="middle" x="1433.14" y="-252.6" font-family="Helvetica,sans-Serif" font-size="10.50" class="t-ink">RECOVERING</text>
<text xml:space="preserve" text-anchor="middle" x="1433.14" y="-241.35" font-family="Helvetica,sans-Serif" font-size="10.50" class="t-ink">read the log tail, find the last valid</text>
<text xml:space="preserve" text-anchor="middle" x="1433.14" y="-230.1" font-family="Helvetica,sans-Serif" font-size="10.50" class="t-ink">chain link, quarantine the remainder,</text>
<text xml:space="preserve" text-anchor="middle" x="1433.14" y="-218.85" font-family="Helvetica,sans-Serif" font-size="10.50" class="t-ink">and start a NEW log linked to it</text>
</g>

<g id="edge10" class="edge">
<title>crashed&#45;&gt;recover</title>
<path fill="none" stroke-width="1.2" d="M1194.14,-138.81C1205.32,-143.54 1216.93,-148.46 1227.81,-153.07 1269.4,-170.73 1315.73,-190.45 1353.75,-206.65" class="s-fmt"/>
<polygon stroke-width="1.2" points="1352.69,-208.67 1359.56,-209.12 1354.48,-204.48 1352.69,-208.67" class="a-fmt s-fmt"/>
<text xml:space="preserve" text-anchor="middle" x="1280.68" y="-187.43" font-family="Helvetica,sans-Serif" font-size="8.50" class="t-hum">editor restarts</text>
</g>

<g id="edge11" class="edge">
<title>recover&#45;&gt;recording</title>
<path fill="none" stroke-width="1.2" d="M1380.52,-270.43C1276.01,-327.54 1035.08,-436.7 867.39,-338.07 823.42,-312.22 800.54,-254.52 789.99,-217.83" class="s-fmt"/>
<polygon stroke-width="1.2" points="792.2,-217.31 788.28,-211.64 787.81,-218.51 792.2,-217.31" class="a-fmt s-fmt"/>
<text xml:space="preserve" text-anchor="middle" x="1134.6" y="-396.36" font-family="Helvetica,sans-Serif" font-size="8.50" class="t-hum">a FRESH session.start carrying</text>
<text xml:space="preserve" text-anchor="middle" x="1134.6" y="-387.36" font-family="Helvetica,sans-Serif" font-size="8.50" class="t-hum">prev_session_id — not session.resumed,</text>
<text xml:space="preserve" text-anchor="middle" x="1134.6" y="-378.36" font-family="Helvetica,sans-Serif" font-size="8.50" class="t-hum">and always into a NEW log file</text>
</g>

<g id="edge13" class="edge">
<title>sealed&#45;&gt;recording</title>
<path fill="none" stroke-width="1.2" stroke-dasharray="5,2" d="M1040.52,-194.63C980.35,-192.4 903.44,-189.56 849.26,-187.55" class="s-tra"/>
<polygon stroke-width="1.2" points="849.5,-185.29 842.92,-187.32 849.33,-189.83 849.5,-185.29" class="a-tra s-tra"/>
<text xml:space="preserve" text-anchor="middle" x="940.89" y="-203.42" font-family="Helvetica,sans-Serif" font-size="8.50" class="t-hum">sealing again just produces</text>
<text xml:space="preserve" text-anchor="middle" x="940.89" y="-194.42" font-family="Helvetica,sans-Serif" font-size="8.50" class="t-hum">another bundle</text>
</g>
</g>
</svg>